<svg width="20" height="20" viewBox="0 0 20 20" fill="none" xmlns="http://www.w3.org/2000/svg">
<path d="M10.6254 6.87495C10.6254 6.70919 10.5596 6.55022 10.4424 6.43301C10.3251 6.3158 10.1662 6.24995 10.0004 6.24995C9.83466 6.24995 9.67569 6.3158 9.55848 6.43301C9.44127 6.55022 9.37542 6.70919 9.37542 6.87495V11.0774L7.58919 14.0524C7.50382 14.1946 7.47845 14.3649 7.51865 14.5259C7.55885 14.6868 7.66134 14.8252 7.80356 14.9105C7.94578 14.9959 8.11609 15.0213 8.27702 14.9811C8.43794 14.9409 8.57631 14.8384 8.66168 14.6961L10.5367 11.5712C10.5948 11.4741 10.6255 11.3631 10.6254 11.2499V6.87495Z" fill="#787F88"/>
<path d="M8.12494 0C7.95918 0 7.80021 0.0658476 7.683 0.183057C7.56579 0.300266 7.49995 0.459237 7.49995 0.624996C7.49995 0.790755 7.56579 0.949725 7.683 1.06693C7.80021 1.18414 7.95918 1.24999 8.12494 1.24999H8.74994V2.58748C7.04779 2.8334 5.45584 3.5754 4.17294 4.72081C2.89005 5.86621 1.97308 7.36423 1.5366 9.02774C1.10012 10.6912 1.16347 12.4465 1.71874 14.0742C2.27401 15.7019 3.29659 17.1299 4.65872 18.1799L3.90622 18.9324C3.78886 19.0496 3.72287 19.2086 3.72275 19.3744C3.72263 19.5403 3.78841 19.6994 3.9056 19.8167C4.02279 19.9341 4.1818 20.0001 4.34765 20.0002C4.5135 20.0003 4.67261 19.9346 4.78997 19.8174L5.72246 18.8849C7.02872 19.6181 8.50196 20.0021 9.99993 19.9999C11.4979 20.0021 12.9711 19.6181 14.2774 18.8849L15.2099 19.8174C15.3273 19.9346 15.4864 20.0003 15.6522 20.0002C15.8181 20.0001 15.9771 19.9341 16.0943 19.8167C16.2115 19.6994 16.2772 19.5403 16.2771 19.3744C16.277 19.2086 16.211 19.0496 16.0936 18.9324L15.3424 18.1799C16.7045 17.1299 17.7271 15.7017 18.2823 14.0739C18.8375 12.4461 18.9008 10.6908 18.4641 9.02726C18.0275 7.36372 17.1104 5.86571 15.8273 4.72039C14.5443 3.57506 12.9522 2.8332 11.2499 2.58748V1.24999H11.8749C12.0407 1.24999 12.1996 1.18414 12.3169 1.06693C12.4341 0.949725 12.4999 0.790755 12.4999 0.624996C12.4999 0.459237 12.4341 0.300266 12.3169 0.183057C12.1996 0.0658476 12.0407 0 11.8749 0L8.12494 0ZM9.42243 3.77247C9.80688 3.74324 10.193 3.74324 10.5774 3.77247C12.5107 3.92178 14.3111 4.81408 15.6007 6.26215C16.8904 7.71021 17.569 9.60148 17.4943 11.5391C17.4196 13.4768 16.5973 15.3102 15.2 16.6546C13.8027 17.9991 11.939 18.7501 9.99993 18.7501C8.06085 18.7501 6.19713 17.9991 4.79983 16.6546C3.40253 15.3102 2.58026 13.4768 2.50555 11.5391C2.43084 9.60148 3.1095 7.71021 4.39913 6.26215C5.68876 4.81408 7.48911 3.92178 9.42243 3.77247ZM3.16607e-09 4.37497C3.16607e-09 5.31621 0.416247 6.16121 1.07499 6.7337C2.03967 4.83365 3.58366 3.28966 5.48371 2.32498C5.06606 1.8444 4.51158 1.50286 3.89448 1.34607C3.27738 1.18929 2.62712 1.22475 2.03072 1.4477C1.43433 1.67065 0.92027 2.07045 0.557351 2.5936C0.194431 3.11674 -2.86502e-05 3.73827 3.16607e-09 4.37497ZM16.8749 1.24999C15.9336 1.24999 15.0886 1.66624 14.5161 2.32498C16.4162 3.28966 17.9602 4.83365 18.9249 6.7337C19.4055 6.31605 19.747 5.76157 19.9038 5.14447C20.0606 4.52737 20.0251 3.87711 19.8022 3.28071C19.5792 2.68432 19.1794 2.17026 18.6562 1.80734C18.1331 1.44442 17.5116 1.24996 16.8749 1.24999Z" fill="#787F88"/>
</svg>
