<svg width="20" height="22" viewBox="0 0 20 22" fill="none" xmlns="http://www.w3.org/2000/svg">
<path d="M18.1763 22H1.7733C1.30299 22 0.851944 21.8132 0.519386 21.4806C0.186828 21.1481 0 20.697 0 20.2267V1.7733C0 1.30299 0.186828 0.851944 0.519386 0.519386C0.851944 0.186828 1.30299 0 1.7733 0H18.1763C18.6466 0 19.0977 0.186828 19.4302 0.519386C19.7628 0.851944 19.9496 1.30299 19.9496 1.7733V20.2267C19.9496 20.697 19.7628 21.1481 19.4302 21.4806C19.0977 21.8132 18.6466 22 18.1763 22ZM1.7733 0.88665C1.53815 0.88665 1.31261 0.980064 1.14633 1.14634C0.98005 1.31262 0.88665 1.53815 0.88665 1.7733V20.2267C0.88665 20.4619 0.98005 20.6874 1.14633 20.8537C1.31261 21.0199 1.53815 21.1133 1.7733 21.1133H18.1763C18.4115 21.1133 18.637 21.0199 18.8033 20.8537C18.9695 20.6874 19.063 20.4619 19.063 20.2267V1.7733C19.063 1.53815 18.9695 1.31262 18.8033 1.14634C18.637 0.980064 18.4115 0.88665 18.1763 0.88665H1.7733Z" fill="#787F88"/>
<path d="M17.8991 19.8482H2.05027C1.96208 19.8482 1.87751 19.8131 1.81516 19.7508C1.7528 19.6884 1.71777 19.6038 1.71777 19.5157V2.48423C1.71777 2.39604 1.7528 2.31148 1.81516 2.24912C1.87751 2.18677 1.96208 2.15173 2.05027 2.15173H17.8991C17.9873 2.15173 18.0719 2.18677 18.1342 2.24912C18.1966 2.31148 18.2316 2.39604 18.2316 2.48423V19.5157C18.2316 19.6038 18.1966 19.6884 18.1342 19.7508C18.0719 19.8131 17.9873 19.8482 17.8991 19.8482ZM2.38276 19.1832H17.5666V2.81672H2.38276V19.1832Z" fill="#787F88"/>
<path d="M17.6501 7.72102H2.2446C2.15642 7.72102 2.07185 7.68599 2.00949 7.62363C1.94714 7.56128 1.91211 7.47671 1.91211 7.38852C1.91211 7.30034 1.94714 7.21577 2.00949 7.15342C2.07185 7.09107 2.15642 7.05603 2.2446 7.05603H17.6501C17.7383 7.05603 17.8229 7.09107 17.8852 7.15342C17.9476 7.21577 17.9826 7.30034 17.9826 7.38852C17.9826 7.47671 17.9476 7.56128 17.8852 7.62363C17.8229 7.68599 17.7383 7.72102 17.6501 7.72102Z" fill="#787F88"/>
<path d="M9.83654 7.53658C9.47486 7.53658 9.12129 7.42933 8.82056 7.22839C8.51982 7.02745 8.28543 6.74184 8.14702 6.40769C8.00861 6.07353 7.97239 5.70584 8.04295 5.3511C8.11351 4.99637 8.28767 4.67053 8.54342 4.41477C8.79917 4.15902 9.12502 3.98485 9.47975 3.91429C9.83449 3.84373 10.2022 3.87994 10.5364 4.01836C10.8705 4.15677 11.1561 4.39116 11.3571 4.69189C11.558 4.99262 11.6653 5.34618 11.6653 5.70787C11.6653 6.19287 11.4726 6.65801 11.1296 7.00096C10.7867 7.34391 10.3216 7.53658 9.83654 7.53658ZM9.83654 4.54414C9.60638 4.54414 9.38139 4.6124 9.19001 4.74027C8.99864 4.86814 8.84949 5.04988 8.76141 5.26253C8.67333 5.47517 8.65026 5.70916 8.69517 5.9349C8.74007 6.16064 8.85089 6.368 9.01364 6.53075C9.17639 6.6935 9.38378 6.80433 9.60952 6.84923C9.83527 6.89414 10.0692 6.87109 10.2819 6.78301C10.4945 6.69493 10.6763 6.54578 10.8042 6.3544C10.932 6.16303 11.0003 5.93803 11.0003 5.70787C11.0003 5.39923 10.8777 5.10323 10.6594 4.88499C10.4412 4.66675 10.1452 4.54414 9.83654 4.54414Z" fill="#787F88"/>
<path d="M9.66962 6.04035H9.28171C9.19353 6.04035 9.10893 6.00533 9.04657 5.94297C8.98422 5.88062 8.94922 5.79604 8.94922 5.70786C8.94922 5.61968 8.98422 5.5351 9.04657 5.47275C9.10893 5.41039 9.19353 5.37537 9.28171 5.37537H9.66962C9.7578 5.37537 9.84235 5.41039 9.90471 5.47275C9.96706 5.5351 10.0021 5.61968 10.0021 5.70786C10.0021 5.79604 9.96706 5.88062 9.90471 5.94297C9.84235 6.00533 9.7578 6.04035 9.66962 6.04035Z" fill="#787F88"/>
<path d="M6.51135 7.53658C6.14966 7.53658 5.79609 7.42933 5.49536 7.22839C5.19463 7.02745 4.96023 6.74184 4.82182 6.40769C4.68341 6.07353 4.64719 5.70584 4.71776 5.3511C4.78832 4.99637 4.9625 4.67053 5.21826 4.41477C5.47401 4.15902 5.79985 3.98485 6.15458 3.91429C6.50932 3.84373 6.87703 3.87994 7.21119 4.01836C7.54534 4.15677 7.83093 4.39116 8.03187 4.69189C8.23281 4.99262 8.34006 5.34618 8.34006 5.70787C8.34006 6.19287 8.14737 6.65801 7.80442 7.00096C7.46147 7.34391 6.99635 7.53658 6.51135 7.53658ZM6.51135 4.54414C6.28119 4.54414 6.05619 4.6124 5.86482 4.74027C5.67344 4.86814 5.52429 5.04988 5.43621 5.26253C5.34813 5.47517 5.32507 5.70916 5.36997 5.9349C5.41487 6.16064 5.52573 6.368 5.68848 6.53075C5.85123 6.6935 6.05856 6.80433 6.2843 6.84923C6.51004 6.89414 6.74403 6.87109 6.95668 6.78301C7.16932 6.69493 7.35109 6.54578 7.47896 6.3544C7.60683 6.16303 7.67508 5.93803 7.67508 5.70787C7.67508 5.39923 7.55249 5.10323 7.33425 4.88499C7.11601 4.66675 6.81999 4.54414 6.51135 4.54414Z" fill="#787F88"/>
<path d="M6.3454 6.04035H5.95749C5.86931 6.04035 5.78474 6.00533 5.72238 5.94297C5.66003 5.88062 5.625 5.79604 5.625 5.70786C5.625 5.61968 5.66003 5.5351 5.72238 5.47275C5.78474 5.41039 5.86931 5.37537 5.95749 5.37537H6.3454C6.43359 5.37537 6.51816 5.41039 6.58051 5.47275C6.64287 5.5351 6.6779 5.61968 6.6779 5.70786C6.6779 5.79604 6.64287 5.88062 6.58051 5.94297C6.51816 6.00533 6.43359 6.04035 6.3454 6.04035Z" fill="#787F88"/>
<path d="M13.1608 7.53658C12.7991 7.53658 12.4455 7.42933 12.1448 7.22839C11.844 7.02745 11.6096 6.74184 11.4712 6.40769C11.3328 6.07353 11.2966 5.70584 11.3672 5.3511C11.4377 4.99637 11.6119 4.67053 11.8676 4.41477C12.1234 4.15902 12.4492 3.98485 12.804 3.91429C13.1587 3.84373 13.5264 3.87994 13.8606 4.01836C14.1948 4.15677 14.4803 4.39116 14.6813 4.69189C14.8822 4.99262 14.9895 5.34618 14.9895 5.70787C14.9895 6.19287 14.7968 6.65801 14.4538 7.00096C14.1109 7.34391 13.6458 7.53658 13.1608 7.53658ZM13.1608 4.54414C12.9306 4.54414 12.7056 4.6124 12.5142 4.74027C12.3229 4.86814 12.1737 5.04988 12.0856 5.26253C11.9975 5.47517 11.9745 5.70916 12.0194 5.9349C12.0643 6.16064 12.1751 6.368 12.3379 6.53075C12.5006 6.6935 12.708 6.80433 12.9337 6.84923C13.1595 6.89414 13.3934 6.87109 13.6061 6.78301C13.8187 6.69493 14.0005 6.54578 14.1284 6.3544C14.2562 6.16303 14.3245 5.93803 14.3245 5.70787C14.3245 5.39923 14.2019 5.10323 13.9837 4.88499C13.7654 4.66675 13.4694 4.54414 13.1608 4.54414Z" fill="#787F88"/>
<path d="M12.9948 6.04035H12.6069C12.5187 6.04035 12.4341 6.00533 12.3718 5.94297C12.3094 5.88062 12.2744 5.79604 12.2744 5.70786C12.2744 5.61968 12.3094 5.5351 12.3718 5.47275C12.4341 5.41039 12.5187 5.37537 12.6069 5.37537H12.9948C13.083 5.37537 13.1675 5.41039 13.2299 5.47275C13.2923 5.5351 13.3273 5.61968 13.3273 5.70786C13.3273 5.79604 13.2923 5.88062 13.2299 5.94297C13.1675 6.00533 13.083 6.04035 12.9948 6.04035Z" fill="#787F88"/>
<path d="M8.28818 19.3955H6.23058C5.94422 19.3943 5.66777 19.2905 5.45141 19.1029C5.23504 18.9153 5.09308 18.6564 5.05132 18.3731L5.00478 18.0467C4.95632 17.706 4.93189 17.3623 4.93164 17.0181V15.0753C4.93179 14.381 5.0322 13.6904 5.22977 13.0249L5.38882 12.4874C5.4138 12.4028 5.47137 12.3316 5.54884 12.2894C5.62632 12.2473 5.71737 12.2377 5.80195 12.2626C5.88653 12.2876 5.95771 12.3452 5.99985 12.4227C6.04199 12.5001 6.05163 12.5912 6.02664 12.6758L5.86705 13.2139C5.68787 13.8188 5.5968 14.4465 5.59663 15.0775V17.0204C5.59689 17.333 5.61909 17.6452 5.66311 17.9547L5.70968 18.2811C5.72822 18.4062 5.79092 18.5205 5.88648 18.6033C5.98203 18.6862 6.10411 18.7321 6.23058 18.7327H8.28818C8.41462 18.7322 8.53666 18.6863 8.63215 18.6034C8.72764 18.5205 8.79021 18.4062 8.80852 18.2811L8.8556 17.9547C8.89943 17.6452 8.92149 17.3329 8.92157 17.0204V15.0775C8.92158 14.4465 8.83068 13.8189 8.65168 13.2139L8.49209 12.6758C8.46711 12.5912 8.47674 12.5001 8.51888 12.4227C8.56102 12.3452 8.63221 12.2876 8.71679 12.2626C8.80137 12.2377 8.89242 12.2473 8.96989 12.2894C9.04737 12.3316 9.10493 12.4028 9.12991 12.4874L9.28896 13.0249C9.48636 13.6905 9.58659 14.381 9.58655 15.0753V17.0181C9.58658 17.3623 9.56212 17.706 9.51339 18.0467L9.46685 18.3731C9.42521 18.6563 9.28336 18.9152 9.06709 19.1028C8.85081 19.2904 8.57448 19.3943 8.28818 19.3955Z" fill="#787F88"/>
<path d="M9.25406 12.9118H5.26413C5.17595 12.9118 5.09138 12.8768 5.02902 12.8144C4.96667 12.7521 4.93164 12.6675 4.93164 12.5793C4.93164 12.4911 4.96667 12.4066 5.02902 12.3442C5.09138 12.2819 5.17595 12.2468 5.26413 12.2468H9.25406C9.34224 12.2468 9.42679 12.2819 9.48914 12.3442C9.5515 12.4066 9.58655 12.4911 9.58655 12.5793C9.58655 12.6675 9.5515 12.7521 9.48914 12.8144C9.42679 12.8768 9.34224 12.9118 9.25406 12.9118Z" fill="#787F88"/>
<path d="M9.14372 15.0731H5.37546C5.28728 15.0731 5.20271 15.038 5.14035 14.9757C5.078 14.9133 5.04297 14.8288 5.04297 14.7406C5.04297 14.6524 5.078 14.5678 5.14035 14.5055C5.20271 14.4431 5.28728 14.4081 5.37546 14.4081H9.14372C9.23191 14.4081 9.31645 14.4431 9.37881 14.5055C9.44116 14.5678 9.47622 14.6524 9.47622 14.7406C9.47622 14.8288 9.44116 14.9133 9.37881 14.9757C9.31645 15.038 9.23191 15.0731 9.14372 15.0731Z" fill="#787F88"/>
<path d="M9.14372 17.733H5.37546C5.28728 17.733 5.20271 17.698 5.14035 17.6356C5.078 17.5732 5.04297 17.4887 5.04297 17.4005C5.04297 17.3123 5.078 17.2277 5.14035 17.1654C5.20271 17.103 5.28728 17.068 5.37546 17.068H9.14372C9.23191 17.068 9.31645 17.103 9.37881 17.1654C9.44116 17.2277 9.47622 17.3123 9.47622 17.4005C9.47622 17.4887 9.44116 17.5732 9.37881 17.6356C9.31645 17.698 9.23191 17.733 9.14372 17.733Z" fill="#787F88"/>
<path d="M13.6694 19.4509H11.8224C11.4649 19.4504 11.1222 19.3083 10.8694 19.0555C10.6165 18.8028 10.4742 18.4601 10.4736 18.1026V15.7103C10.4747 14.9493 10.6476 14.1984 10.9796 13.5137L10.9862 13.5015L11.5265 12.4962V9.68C11.5268 9.42039 11.6301 9.1715 11.8137 8.98793C11.9972 8.80436 12.2461 8.7011 12.5057 8.70081H12.9862C13.2457 8.70125 13.4944 8.80457 13.6779 8.98813C13.8613 9.17168 13.9645 9.42049 13.9648 9.68V12.4962L14.5057 13.5015C14.5079 13.5054 14.51 13.5095 14.5118 13.5137C14.844 14.1983 15.017 14.9493 15.0177 15.7103V18.1032C15.0171 18.4605 14.8749 18.8031 14.6221 19.0557C14.3694 19.3083 14.0268 19.4504 13.6694 19.4509ZM11.5753 13.8101C11.289 14.4025 11.1399 15.0518 11.1392 15.7098V18.1026C11.1395 18.2838 11.2116 18.4575 11.3398 18.5856C11.468 18.7137 11.6418 18.7857 11.823 18.7859H13.67C13.8512 18.7857 14.0249 18.7137 14.153 18.5856C14.2811 18.4575 14.3531 18.2838 14.3533 18.1026V15.7103C14.3525 15.0524 14.2034 14.4031 13.9171 13.8107L13.3403 12.7373C13.3142 12.6889 13.3005 12.6349 13.3004 12.5799V9.68C13.3004 9.59677 13.2673 9.51692 13.2085 9.45801C13.1497 9.39911 13.0699 9.36594 12.9867 9.36579H12.5063C12.423 9.36594 12.3432 9.39909 12.2843 9.45798C12.2254 9.51687 12.1922 9.59671 12.1921 9.68V12.5799C12.1921 12.6348 12.1786 12.6889 12.1527 12.7373L11.5753 13.8101Z" fill="#787F88"/>
<path d="M14.4265 15.0421H10.9907C10.9025 15.0421 10.818 15.007 10.7556 14.9447C10.6933 14.8823 10.6582 14.7978 10.6582 14.7096C10.6582 14.6214 10.6933 14.5368 10.7556 14.4745C10.818 14.4121 10.9025 14.3771 10.9907 14.3771H14.4265C14.5146 14.3771 14.5992 14.4121 14.6616 14.4745C14.724 14.5368 14.759 14.6214 14.759 14.7096C14.759 14.7978 14.724 14.8823 14.6616 14.9447C14.5992 15.007 14.5146 15.0421 14.4265 15.0421Z" fill="#787F88"/>
<path d="M14.4265 17.7574H10.9907C10.9025 17.7574 10.818 17.7224 10.7556 17.66C10.6933 17.5977 10.6582 17.5131 10.6582 17.4249C10.6582 17.3367 10.6933 17.2522 10.7556 17.1898C10.818 17.1274 10.9025 17.0924 10.9907 17.0924H14.4265C14.5146 17.0924 14.5992 17.1274 14.6616 17.1898C14.724 17.2522 14.759 17.3367 14.759 17.4249C14.759 17.5131 14.724 17.5977 14.6616 17.66C14.5992 17.7224 14.5146 17.7574 14.4265 17.7574Z" fill="#787F88"/>
<path d="M13.4295 10.9412H11.9887C11.9006 10.9412 11.816 10.9062 11.7537 10.8438C11.6913 10.7815 11.6562 10.6969 11.6562 10.6087C11.6562 10.5206 11.6913 10.436 11.7537 10.3736C11.816 10.3113 11.9006 10.2762 11.9887 10.2762H13.4295C13.5177 10.2762 13.6023 10.3113 13.6647 10.3736C13.727 10.436 13.762 10.5206 13.762 10.6087C13.762 10.6969 13.727 10.7815 13.6647 10.8438C13.6023 10.9062 13.5177 10.9412 13.4295 10.9412Z" fill="#787F88"/>
</svg>
