<svg width="26" height="24" viewBox="0 0 26 24" fill="none" xmlns="http://www.w3.org/2000/svg">
<path d="M24.2751 11.2739H22.1269V1.86705C22.1269 1.05261 21.6593 0.360494 20.9357 0.102786C20.1425 -0.179388 19.2481 0.127796 18.5005 0.925386C17.6545 0.49098 16.6188 0.556766 15.831 1.12764C15.737 1.09339 15.6358 1.07816 15.5331 1.0836C15.3286 1.09339 15.14 1.18255 15.0024 1.33424C14.7186 1.6474 14.7425 2.13292 15.0557 2.41727L18.3396 5.3945C18.4864 5.52716 18.6702 5.59295 18.8539 5.59295C19.0627 5.59295 19.2709 5.50813 19.4221 5.34177C19.6363 5.10526 19.6749 4.77035 19.546 4.49796C20.0185 3.69058 20.0038 2.70053 19.5444 1.9149C19.919 1.48375 20.2534 1.39078 20.4529 1.45766C20.6231 1.51474 20.7329 1.68927 20.7329 1.90239V11.2745H1.11782C0.501281 11.2745 0 11.7758 0 12.3923C0 13.0089 0.501281 13.5101 1.11782 13.5101H1.53864L2.29328 15.8958C2.57328 16.781 2.75541 17.6993 2.83479 18.6241L2.9071 19.4646C3.01801 20.7591 4.04613 21.7465 5.32651 21.8182V23.6738C5.32651 23.8538 5.47277 24.0001 5.65273 24.0001H7.23595C7.38546 24.0001 7.51595 23.8978 7.55237 23.7527L8.03408 21.8226H17.3583L17.84 23.7527C17.8765 23.8978 18.007 24.0001 18.1565 24.0001H19.7397C19.9197 24.0001 20.0659 23.8538 20.0659 23.6738V21.8182C21.3463 21.7459 22.3744 20.7586 22.4853 19.4646L22.5576 18.6241C22.637 17.6987 22.8191 16.781 23.0991 15.8958L23.8538 13.5101H24.2746C24.8911 13.5101 25.3924 13.0089 25.3924 12.3923C25.3924 11.7758 24.8917 11.2739 24.2751 11.2739ZM18.3168 1.56911C18.3282 1.58162 18.3401 1.59412 18.3543 1.60554C18.3853 1.63055 18.4195 1.64904 18.4549 1.661C18.5098 1.70123 18.5636 1.74418 18.6152 1.79094C19.2394 2.35692 19.4096 3.2502 19.0747 3.99124L16.3801 1.54845C16.9793 1.20375 17.7236 1.21137 18.3168 1.56911ZM18.9393 4.90301C18.8969 4.94977 18.8246 4.95357 18.7778 4.91117L15.4939 1.93393C15.4635 1.9062 15.4575 1.87249 15.4564 1.85509C15.4553 1.8377 15.458 1.80344 15.4858 1.773C15.5282 1.72624 15.6005 1.72298 15.6472 1.76484L18.9311 4.74208C18.9779 4.78449 18.9811 4.85625 18.9393 4.90301ZM20.6617 0.838396C20.4187 0.756843 19.8184 0.667678 19.1399 1.38915C19.1116 1.36142 19.0834 1.33424 19.0535 1.30706C19.0507 1.30434 19.048 1.30216 19.0453 1.29999C19.5917 0.750319 20.2001 0.533387 20.7171 0.717154C21.1776 0.880804 21.475 1.33207 21.475 1.86705V11.2739H21.387V1.90185C21.387 1.41144 21.095 0.984105 20.6617 0.838396ZM22.4788 15.699C22.1847 16.6298 21.9927 17.5949 21.9096 18.5681L21.8372 19.4086C21.7513 20.4128 20.926 21.1707 19.9175 21.1707H5.47657C4.46857 21.1707 3.64326 20.4133 3.55681 19.4086L3.4845 18.5681C3.40077 17.5954 3.20939 16.6298 2.91526 15.699L2.22314 13.5096H23.1704L22.4788 15.699ZM24.2762 12.8572H1.11782C0.861202 12.8572 0.652426 12.6484 0.652426 12.3918C0.652426 12.1352 0.861202 11.9264 1.11782 11.9264H24.2751C24.5318 11.9264 24.7405 12.1352 24.7405 12.3918C24.7405 12.6484 24.5318 12.8572 24.2751 12.8572H24.2762Z" fill="#787F88"/>
<path d="M20.1643 17.9428C20.1855 17.9471 20.2067 17.9487 20.2273 17.9487C20.3801 17.9487 20.5166 17.8405 20.547 17.6851L20.8287 16.2443C20.8635 16.0676 20.7477 15.8963 20.571 15.8615C20.3943 15.8267 20.223 15.9425 20.1882 16.1192L19.9066 17.56C19.8718 17.7367 19.9876 17.908 20.1643 17.9428Z" fill="#787F88"/>
<path d="M14.889 9.86723L14.8873 9.92377C14.8841 10.0738 15.0031 10.1983 15.1532 10.2011C15.1755 10.2011 15.1972 10.1994 15.2179 10.1945C15.3375 10.1679 15.4283 10.0624 15.431 9.93464L15.4321 9.88354C15.4365 9.73348 15.3185 9.60789 15.1684 9.60354C15.0189 9.59919 14.8933 9.71662 14.889 9.86723Z" fill="#787F88"/>
<path d="M15.0178 8.70101L15.0075 8.75593C14.9803 8.90381 15.0776 9.04517 15.225 9.0729C15.2619 9.07997 15.2984 9.07888 15.3332 9.07127C15.4365 9.04843 15.5213 8.96579 15.5419 8.85542L15.5517 8.80486C15.5805 8.65752 15.4838 8.51507 15.3364 8.48626C15.1891 8.45744 15.0461 8.55368 15.0178 8.70101Z" fill="#787F88"/>
<path d="M15.3326 7.57067L15.3136 7.62341C15.263 7.76477 15.3364 7.92027 15.4778 7.97083C15.5278 7.98877 15.5795 7.99095 15.6278 7.98062C15.7159 7.96104 15.7926 7.89797 15.8252 7.80663L15.8426 7.75825C15.8942 7.61743 15.8219 7.46085 15.6811 7.4092C15.5403 7.35755 15.3843 7.42986 15.3326 7.57067Z" fill="#787F88"/>
<path d="M15.8241 6.50448C15.8149 6.52079 15.8056 6.53764 15.7964 6.55395C15.7241 6.68552 15.7719 6.85081 15.9035 6.92312C15.9638 6.95628 16.0307 6.96389 16.0932 6.9503C16.1672 6.93399 16.2335 6.88723 16.2727 6.81601L16.2977 6.77143C16.3716 6.6404 16.3254 6.47457 16.1944 6.40118C16.0639 6.32723 15.8981 6.37345 15.8241 6.50448Z" fill="#787F88"/>
<path d="M16.7174 6.00757C16.7767 5.99452 16.8321 5.96136 16.8729 5.90971L16.905 5.86893C16.9985 5.75149 16.9789 5.58023 16.8615 5.48672C16.744 5.3932 16.5728 5.41277 16.4793 5.53021L16.4445 5.57425C16.352 5.69277 16.3727 5.86349 16.4912 5.95592C16.5575 6.00811 16.6413 6.02442 16.7174 6.00757Z" fill="#787F88"/>
<path d="M12.8066 10.5446C12.8436 10.5501 12.8795 10.5479 12.9132 10.5392C13.0165 10.5131 13.0986 10.4272 13.1149 10.3152L13.1225 10.263C13.1448 10.1146 13.0421 9.97595 12.8936 9.9542C12.7452 9.93191 12.6066 10.0341 12.5843 10.1831L12.5761 10.2369C12.5544 10.3853 12.6571 10.5234 12.8056 10.5452L12.8066 10.5446Z" fill="#787F88"/>
<path d="M12.8626 8.93804L12.8469 8.99132C12.805 9.13539 12.8882 9.286 13.0328 9.32786C13.0812 9.342 13.1301 9.342 13.1753 9.33003C13.2655 9.3072 13.3416 9.23815 13.3694 9.14192L13.384 9.0919C13.4265 8.94782 13.3444 8.79668 13.2003 8.75427C13.0562 8.71186 12.9051 8.79396 12.8626 8.93804Z" fill="#787F88"/>
<path d="M13.4237 8.15405C13.4819 8.18015 13.545 8.18395 13.6021 8.16927C13.6798 8.1497 13.7478 8.09588 13.7826 8.01704L13.8043 7.9692C13.8668 7.83273 13.8065 7.67126 13.67 7.60928C13.5336 7.54675 13.3721 7.6071 13.3101 7.74357L13.2873 7.79413C13.2258 7.93114 13.2873 8.09261 13.4237 8.15405Z" fill="#787F88"/>
<path d="M13.9185 6.62355L13.8886 6.67031C13.8087 6.79753 13.8473 6.96499 13.9745 7.04491C14.0403 7.08623 14.1164 7.09601 14.1865 7.07807C14.2518 7.06122 14.311 7.02044 14.3496 6.959L14.3774 6.91497C14.4578 6.78829 14.4203 6.62029 14.2936 6.53982C14.1669 6.45936 13.9989 6.49687 13.9185 6.62355Z" fill="#787F88"/>
<path d="M14.6769 5.59761L14.641 5.64001C14.5443 5.75473 14.559 5.92654 14.6737 6.02331C14.7433 6.08203 14.8341 6.09997 14.9167 6.07877C14.9694 6.06518 15.0189 6.03582 15.057 5.99069L15.0907 5.951C15.188 5.83683 15.175 5.66502 15.0608 5.5677C14.9466 5.47038 14.7743 5.48343 14.6769 5.59761Z" fill="#787F88"/>
<path d="M15.5713 4.68806L15.53 4.72449C15.418 4.82453 15.4082 4.99633 15.5082 5.10833C15.5784 5.18662 15.6833 5.21489 15.7784 5.19097C15.8192 5.18064 15.8584 5.16053 15.8921 5.13062L15.9318 5.09528C16.0443 4.99579 16.0546 4.82398 15.9551 4.71144C15.8556 4.5989 15.6838 4.58857 15.5713 4.68806Z" fill="#787F88"/>
<path d="M10.3573 10.5501C10.4035 10.5621 10.4498 10.5615 10.4933 10.5501C10.5857 10.5262 10.6634 10.4544 10.689 10.3555L10.7026 10.3038C10.7412 10.1586 10.6547 10.0097 10.5096 9.97162C10.3644 9.93302 10.2154 10.0195 10.1774 10.1646L10.1632 10.2179C10.1252 10.3631 10.2122 10.512 10.3573 10.5501Z" fill="#787F88"/>
<path d="M10.7276 9.29959C10.7825 9.32134 10.8407 9.32352 10.8939 9.30992C10.9755 9.28926 11.0467 9.23055 11.0799 9.14573L11.0995 9.09571C11.1549 8.95598 11.0864 8.79831 10.9467 8.74286C10.8075 8.68794 10.6493 8.75591 10.5938 8.89563L10.5737 8.94674C10.5188 9.08647 10.5873 9.24468 10.7276 9.29959Z" fill="#787F88"/>
<path d="M11.2435 8.10185C11.3061 8.13501 11.3751 8.14154 11.4387 8.12523C11.5099 8.10674 11.5741 8.05998 11.6116 7.98985L11.6366 7.94309C11.7079 7.81097 11.6584 7.64624 11.5263 7.57501C11.3941 7.50379 11.2294 7.55327 11.1582 7.68538L11.1321 7.73431C11.0614 7.86697 11.1114 8.03171 11.2435 8.10185Z" fill="#787F88"/>
<path d="M11.8965 6.9726C11.9639 7.01936 12.0449 7.03132 12.1189 7.01229C12.1803 6.99653 12.2363 6.95956 12.2749 6.90356L12.3048 6.8606C12.3913 6.73773 12.3619 6.5681 12.239 6.48165C12.1162 6.39521 11.9465 6.42457 11.8601 6.54744L11.8275 6.5942C11.7421 6.71761 11.7725 6.8867 11.8965 6.9726Z" fill="#787F88"/>
<path d="M12.9252 5.98743C12.9763 5.97438 13.0236 5.94665 13.0611 5.90424L13.0959 5.8651C13.1959 5.7531 13.1867 5.58129 13.0747 5.48126C12.9627 5.38122 12.7909 5.39046 12.6908 5.50246L12.6533 5.54432C12.5538 5.65687 12.5642 5.82867 12.6767 5.92817C12.7468 5.99015 12.8404 6.00863 12.9252 5.98743Z" fill="#787F88"/>
<path d="M13.8473 5.06481C13.888 5.05448 13.9266 5.03436 13.9603 5.00501L14 4.96967C14.1126 4.87071 14.124 4.69891 14.025 4.58582C13.9261 4.47328 13.7543 4.46186 13.6412 4.56081L13.5993 4.59778C13.4868 4.69728 13.477 4.86908 13.5765 4.98163C13.6466 5.06046 13.7521 5.08928 13.8473 5.06481Z" fill="#787F88"/>
<path d="M14.8732 4.25854C14.9036 4.25093 14.9336 4.23734 14.9607 4.21831L15.0042 4.1884C15.1282 4.10359 15.1597 3.9345 15.0749 3.81054C14.9901 3.68658 14.8205 3.65505 14.697 3.73986L14.6508 3.77194C14.5274 3.8573 14.497 4.02693 14.5823 4.15035C14.6487 4.24658 14.7661 4.28572 14.8732 4.25854Z" fill="#787F88"/>
<path d="M14.889 9.86723L14.8873 9.92377C14.8841 10.0738 15.0031 10.1983 15.1532 10.2011C15.1755 10.2011 15.1972 10.1994 15.2179 10.1945C15.3375 10.1679 15.4283 10.0624 15.431 9.93464L15.4321 9.88354C15.4365 9.73348 15.3185 9.60789 15.1684 9.60354C15.0189 9.59919 14.8933 9.71662 14.889 9.86723Z" stroke="#787F88" stroke-width="0.1"/>
<path d="M15.0178 8.70101L15.0075 8.75593C14.9803 8.90381 15.0776 9.04517 15.225 9.0729C15.2619 9.07997 15.2984 9.07888 15.3332 9.07127C15.4365 9.04843 15.5213 8.96579 15.5419 8.85542L15.5517 8.80486C15.5805 8.65752 15.4838 8.51507 15.3364 8.48626C15.1891 8.45744 15.0461 8.55368 15.0178 8.70101Z" stroke="#787F88" stroke-width="0.1"/>
<path d="M15.3326 7.57067L15.3136 7.62341C15.263 7.76477 15.3364 7.92027 15.4778 7.97083C15.5278 7.98877 15.5795 7.99095 15.6278 7.98062C15.7159 7.96104 15.7926 7.89797 15.8252 7.80663L15.8426 7.75825C15.8942 7.61743 15.8219 7.46085 15.6811 7.4092C15.5403 7.35755 15.3843 7.42986 15.3326 7.57067Z" stroke="#787F88" stroke-width="0.1"/>
<path d="M15.8241 6.50448C15.8149 6.52079 15.8056 6.53764 15.7964 6.55395C15.7241 6.68552 15.7719 6.85081 15.9035 6.92312C15.9638 6.95628 16.0307 6.96389 16.0932 6.9503C16.1672 6.93399 16.2335 6.88723 16.2727 6.81601L16.2977 6.77143C16.3716 6.6404 16.3254 6.47457 16.1944 6.40118C16.0639 6.32723 15.8981 6.37345 15.8241 6.50448Z" stroke="#787F88" stroke-width="0.1"/>
<path d="M16.7174 6.00757C16.7767 5.99452 16.8321 5.96136 16.8729 5.90971L16.905 5.86893C16.9985 5.75149 16.9789 5.58023 16.8615 5.48672C16.744 5.3932 16.5728 5.41277 16.4793 5.53021L16.4445 5.57425C16.352 5.69277 16.3727 5.86349 16.4912 5.95592C16.5575 6.00811 16.6413 6.02442 16.7174 6.00757Z" stroke="#787F88" stroke-width="0.1"/>
<path d="M12.8066 10.5446C12.8436 10.5501 12.8795 10.5479 12.9132 10.5392C13.0165 10.5131 13.0986 10.4272 13.1149 10.3152L13.1225 10.263C13.1448 10.1146 13.0421 9.97595 12.8936 9.9542C12.7452 9.93191 12.6066 10.0341 12.5843 10.1831L12.5761 10.2369C12.5544 10.3853 12.6571 10.5234 12.8056 10.5452L12.8066 10.5446Z" stroke="#787F88" stroke-width="0.1"/>
<path d="M12.8626 8.93804L12.8469 8.99132C12.805 9.13539 12.8882 9.286 13.0328 9.32786C13.0812 9.342 13.1301 9.342 13.1753 9.33003C13.2655 9.3072 13.3416 9.23815 13.3694 9.14192L13.384 9.0919C13.4265 8.94782 13.3444 8.79668 13.2003 8.75427C13.0562 8.71186 12.9051 8.79396 12.8626 8.93804Z" stroke="#787F88" stroke-width="0.1"/>
<path d="M13.4237 8.15405C13.4819 8.18015 13.545 8.18395 13.6021 8.16927C13.6798 8.1497 13.7478 8.09588 13.7826 8.01704L13.8043 7.9692C13.8668 7.83273 13.8065 7.67126 13.67 7.60928C13.5336 7.54675 13.3721 7.6071 13.3101 7.74357L13.2873 7.79413C13.2258 7.93114 13.2873 8.09261 13.4237 8.15405Z" stroke="#787F88" stroke-width="0.1"/>
<path d="M13.9185 6.62355L13.8886 6.67031C13.8087 6.79753 13.8473 6.96499 13.9745 7.04491C14.0403 7.08623 14.1164 7.09601 14.1865 7.07807C14.2518 7.06122 14.311 7.02044 14.3496 6.959L14.3774 6.91497C14.4578 6.78829 14.4203 6.62029 14.2936 6.53982C14.1669 6.45936 13.9989 6.49687 13.9185 6.62355Z" stroke="#787F88" stroke-width="0.1"/>
<path d="M14.6769 5.59761L14.641 5.64001C14.5443 5.75473 14.559 5.92654 14.6737 6.02331C14.7433 6.08203 14.8341 6.09997 14.9167 6.07877C14.9694 6.06518 15.0189 6.03582 15.057 5.99069L15.0907 5.951C15.188 5.83683 15.175 5.66502 15.0608 5.5677C14.9466 5.47038 14.7743 5.48343 14.6769 5.59761Z" stroke="#787F88" stroke-width="0.1"/>
<path d="M15.5713 4.68806L15.53 4.72449C15.418 4.82453 15.4082 4.99633 15.5082 5.10833C15.5784 5.18662 15.6833 5.21489 15.7784 5.19097C15.8192 5.18064 15.8584 5.16053 15.8921 5.13062L15.9318 5.09528C16.0443 4.99579 16.0546 4.82398 15.9551 4.71144C15.8556 4.5989 15.6838 4.58857 15.5713 4.68806Z" stroke="#787F88" stroke-width="0.1"/>
<path d="M10.3573 10.5501C10.4035 10.5621 10.4498 10.5615 10.4933 10.5501C10.5857 10.5262 10.6634 10.4544 10.689 10.3555L10.7026 10.3038C10.7412 10.1586 10.6547 10.0097 10.5096 9.97162C10.3644 9.93302 10.2154 10.0195 10.1774 10.1646L10.1632 10.2179C10.1252 10.3631 10.2122 10.512 10.3573 10.5501Z" stroke="#787F88" stroke-width="0.1"/>
<path d="M10.7276 9.29959C10.7825 9.32134 10.8407 9.32352 10.8939 9.30992C10.9755 9.28926 11.0467 9.23055 11.0799 9.14573L11.0995 9.09571C11.1549 8.95598 11.0864 8.79831 10.9467 8.74286C10.8075 8.68794 10.6493 8.75591 10.5938 8.89563L10.5737 8.94674C10.5188 9.08647 10.5873 9.24468 10.7276 9.29959Z" stroke="#787F88" stroke-width="0.1"/>
<path d="M11.2435 8.10185C11.3061 8.13501 11.3751 8.14154 11.4387 8.12523C11.5099 8.10674 11.5741 8.05998 11.6116 7.98985L11.6366 7.94309C11.7079 7.81097 11.6584 7.64624 11.5263 7.57501C11.3941 7.50379 11.2294 7.55327 11.1582 7.68538L11.1321 7.73431C11.0614 7.86697 11.1114 8.03171 11.2435 8.10185Z" stroke="#787F88" stroke-width="0.1"/>
<path d="M11.8965 6.9726C11.9639 7.01936 12.0449 7.03132 12.1189 7.01229C12.1803 6.99653 12.2363 6.95956 12.2749 6.90356L12.3048 6.8606C12.3913 6.73773 12.3619 6.5681 12.239 6.48165C12.1162 6.39521 11.9465 6.42457 11.8601 6.54744L11.8275 6.5942C11.7421 6.71761 11.7725 6.8867 11.8965 6.9726Z" stroke="#787F88" stroke-width="0.1"/>
<path d="M12.9252 5.98743C12.9763 5.97438 13.0236 5.94665 13.0611 5.90424L13.0959 5.8651C13.1959 5.7531 13.1867 5.58129 13.0747 5.48126C12.9627 5.38122 12.7909 5.39046 12.6908 5.50246L12.6533 5.54432C12.5538 5.65687 12.5642 5.82867 12.6767 5.92817C12.7468 5.99015 12.8404 6.00863 12.9252 5.98743Z" stroke="#787F88" stroke-width="0.1"/>
<path d="M13.8473 5.06481C13.888 5.05448 13.9266 5.03436 13.9603 5.00501L14 4.96967C14.1126 4.87071 14.124 4.69891 14.025 4.58582C13.9261 4.47328 13.7543 4.46186 13.6412 4.56081L13.5993 4.59778C13.4868 4.69728 13.477 4.86908 13.5765 4.98163C13.6466 5.06046 13.7521 5.08928 13.8473 5.06481Z" stroke="#787F88" stroke-width="0.1"/>
<path d="M14.8732 4.25854C14.9036 4.25093 14.9336 4.23734 14.9607 4.21831L15.0042 4.1884C15.1282 4.10359 15.1597 3.9345 15.0749 3.81054C14.9901 3.68658 14.8205 3.65505 14.697 3.73986L14.6508 3.77194C14.5274 3.8573 14.497 4.02693 14.5823 4.15035C14.6487 4.24658 14.7661 4.28572 14.8732 4.25854Z" stroke="#787F88" stroke-width="0.1"/>
</svg>
