<svg width="22" height="22" viewBox="0 0 22 22" fill="none" xmlns="http://www.w3.org/2000/svg">
<path d="M14.5543 6.29299C14.6417 6.38031 14.7602 6.42936 14.8837 6.42936C15.0072 6.42936 15.1257 6.38031 15.2131 6.29299L19.4962 2.00983C19.5836 1.9224 19.6326 1.80385 19.6326 1.68026C19.6325 1.55667 19.5833 1.43817 19.4959 1.35081C19.4085 1.26346 19.29 1.21442 19.1664 1.21448C19.0428 1.21453 18.9243 1.26368 18.8369 1.35111L14.5543 5.63426C14.467 5.72164 14.418 5.84012 14.418 5.96364C14.418 6.08717 14.467 6.20562 14.5543 6.29299Z" fill="#787F88"/>
<path d="M15.707 7.44622C15.7502 7.48954 15.8016 7.5239 15.8582 7.54735C15.9147 7.5708 15.9754 7.58287 16.0366 7.58287C16.0978 7.58287 16.1585 7.5708 16.215 7.54735C16.2716 7.5239 16.323 7.48954 16.3663 7.44622L20.6494 3.16305C20.6927 3.11976 20.727 3.06836 20.7504 3.01181C20.7738 2.95527 20.7858 2.89467 20.7858 2.83347C20.7857 2.77228 20.7737 2.71169 20.7502 2.65516C20.7268 2.59864 20.6924 2.54729 20.6491 2.50404C20.6058 2.46079 20.5545 2.42648 20.4979 2.40308C20.4414 2.37969 20.3808 2.36765 20.3196 2.36768C20.2584 2.3677 20.1978 2.37981 20.1413 2.40325C20.0847 2.4267 20.0334 2.46103 19.9901 2.50432L15.707 6.78689C15.6636 6.83017 15.6293 6.88157 15.6058 6.93813C15.5824 6.9947 15.5703 7.05533 15.5703 7.11656C15.5703 7.17779 15.5824 7.23842 15.6058 7.29498C15.6293 7.35155 15.6636 7.40295 15.707 7.44622Z" fill="#787F88"/>
<path d="M14.5456 10.4643C15.3294 10.4659 16.0817 10.1565 16.6377 9.60406L21.8638 4.37795C21.907 4.33466 21.9414 4.28329 21.9647 4.22674C21.9881 4.17019 22.0002 4.10957 22.0002 4.04837C22.0001 3.98718 21.988 3.92659 21.9646 3.87006C21.9411 3.81353 21.9068 3.76219 21.8635 3.71894C21.8202 3.67568 21.7688 3.64137 21.7123 3.61798C21.6557 3.59459 21.5951 3.58257 21.5339 3.5826C21.4727 3.58263 21.4121 3.59471 21.3556 3.61815C21.2991 3.64159 21.2477 3.67593 21.2045 3.71922L15.9784 8.94533C15.6817 9.23948 15.3015 9.43482 14.8896 9.50467C14.4777 9.57452 14.0542 9.51547 13.6772 9.33557C13.622 9.29433 13.5587 9.2652 13.4915 9.25011C13.4243 9.23502 13.3546 9.23432 13.2871 9.24801C13.2196 9.2617 13.1557 9.28949 13.0997 9.32957C13.0437 9.36965 12.9968 9.4211 12.962 9.48058C12.9573 9.48932 12.9532 9.49863 12.9492 9.50737L11.4663 11.2477L11.4552 11.2593L11.4459 11.2715L3.9402 20.0807C3.81177 20.2312 3.65358 20.3535 3.47561 20.4398C3.29765 20.5262 3.10373 20.5748 2.90607 20.5825C2.70841 20.5903 2.51128 20.5571 2.32707 20.4851C2.14286 20.413 1.97555 20.3035 1.83568 20.1637C1.6958 20.0238 1.58638 19.8565 1.51429 19.6723C1.4422 19.4881 1.40901 19.2909 1.4168 19.0933C1.42459 18.8956 1.47319 18.7017 1.55955 18.5237C1.64591 18.3458 1.76816 18.1876 1.9186 18.0591L12.5974 8.96106C12.6874 8.88428 12.7448 8.77613 12.758 8.65856C12.7712 8.54099 12.7392 8.42278 12.6684 8.32796C12.4832 7.95141 12.4208 7.52619 12.49 7.11228C12.5593 6.69837 12.7568 6.31666 13.0546 6.02097L18.2807 0.79486C18.368 0.70743 18.4171 0.588886 18.4171 0.465297C18.417 0.341707 18.3678 0.2232 18.2804 0.135847C18.193 0.0484951 18.0744 -0.000542833 17.9508 -0.000488236C17.8272 -0.000433639 17.7088 0.0487023 17.6214 0.136132L12.3953 5.36224C11.993 5.76161 11.7151 6.26907 11.5952 6.82315C11.4754 7.37722 11.5189 7.95415 11.7203 8.48406L10.3184 9.67803L9.11041 8.64946C10.1465 6.89286 9.69283 4.94583 7.85353 3.3692C5.76786 1.58289 2.197 0.631792 0.7188 2.08786L0.713553 2.09309C-0.746008 3.57537 0.208014 7.15146 2.00247 9.23771C3.58259 11.0753 5.53198 11.5208 7.28916 10.4748L8.1692 11.5074L1.31404 17.348C0.945655 17.662 0.682445 18.0815 0.559898 18.5498C0.437351 19.0181 0.461363 19.5127 0.628706 19.9669C0.796048 20.4212 1.09866 20.8131 1.49573 21.09C1.89281 21.3669 2.36525 21.5153 2.84932 21.5153C2.88077 21.5153 2.91163 21.5153 2.94308 21.5153C3.26909 21.5019 3.58884 21.4215 3.88236 21.279C4.17588 21.1365 4.43686 20.935 4.64901 20.6871L10.3178 14.034L15.9871 20.6871C16.1992 20.9353 16.4602 21.1372 16.7538 21.28C17.0475 21.4228 17.3674 21.5035 17.6936 21.517C17.7251 21.517 17.7559 21.517 17.7874 21.517C18.2715 21.517 18.7439 21.3686 19.141 21.0917C19.538 20.8149 19.8407 20.4229 20.008 19.9687C20.1754 19.5144 20.1994 19.0198 20.0768 18.5515C19.9543 18.0832 19.691 17.6638 19.3227 17.3498L12.4675 11.5092L13.5159 10.2785C13.8453 10.4014 14.194 10.4643 14.5456 10.4643ZM7.73121 9.55921C7.65516 9.46987 7.54821 9.41249 7.43171 9.39856C7.31521 9.38463 7.19774 9.41518 7.10277 9.48408C5.14057 10.9064 3.50745 9.56097 2.70836 8.632C1.09621 6.75716 0.411279 3.73612 1.37461 2.74949C1.82774 2.30684 2.77244 2.18685 3.90817 2.42972C5.09108 2.68308 6.33922 3.29813 7.24664 4.07567C8.17852 4.87302 9.528 6.50322 8.11737 8.46483C8.04911 8.5598 8.01907 8.67698 8.0332 8.79307C8.04734 8.90917 8.10462 9.01572 8.19367 9.09154L9.59964 10.289L8.87802 10.904L7.73121 9.55921ZM18.7175 18.0591C18.868 18.1876 18.9902 18.3458 19.0766 18.5237C19.1629 18.7017 19.2115 18.8956 19.2193 19.0933C19.2271 19.2909 19.1939 19.4881 19.1218 19.6723C19.0497 19.8565 18.9403 20.0238 18.8004 20.1637C18.6606 20.3035 18.4933 20.413 18.3091 20.4851C18.1248 20.5571 17.9277 20.5903 17.73 20.5825C17.5324 20.5748 17.3385 20.5262 17.1605 20.4398C16.9826 20.3535 16.8244 20.2312 16.6959 20.0807L10.9299 13.3135L11.8618 12.2186L18.7175 18.0591Z" fill="#787F88"/>
</svg>
