<svg width="28" height="16" viewBox="0 0 28 16" fill="none" xmlns="http://www.w3.org/2000/svg">
<path d="M15.8282 12.6166H15.6743V5.24746H20.4272C21.0211 5.24746 21.5041 4.76451 21.5041 4.17056V4.02554C21.5041 3.13216 20.7772 2.40527 19.8838 2.40527H8.11539C7.222 2.40527 6.49512 3.13216 6.49512 4.02554V4.17056C6.49512 4.76451 6.97806 5.24746 7.57201 5.24746H12.3245V12.6166H12.1705C11.3573 12.6166 10.6953 13.2785 10.6953 14.0918V14.2547C10.6953 14.7789 11.1214 15.205 11.6455 15.205H16.3528C16.8769 15.205 17.303 14.7789 17.303 14.2547V14.0918C17.303 13.2785 16.641 12.6166 15.8278 12.6166H15.8282ZM7.34553 4.17056V4.02554C7.34553 3.60123 7.69063 3.25569 8.11539 3.25569H19.8834C20.3077 3.25569 20.6532 3.60078 20.6532 4.02554V4.17056C20.6532 4.29544 20.5516 4.39704 20.4268 4.39704H7.57246C7.44758 4.39704 7.34598 4.29544 7.34598 4.17056H7.34553ZM13.1754 5.24746H14.8234V12.6166H13.1754V5.24746ZM16.4526 14.2547C16.4526 14.3098 16.4079 14.3545 16.3528 14.3545H11.6455C11.5905 14.3545 11.5457 14.3098 11.5457 14.2547V14.0918C11.5457 13.7472 11.8259 13.467 12.1705 13.467H15.8278C16.1724 13.467 16.4526 13.7472 16.4526 14.0918V14.2547Z" fill="#787F88"/>
<path d="M8.26784 6.86871H4.75786C4.36443 6.86871 4.03903 6.5733 4.00098 6.18166L3.5525 1.52585C3.4791 0.76405 2.90036 0.146826 2.14484 0.0246343C1.57685 -0.0671213 1.0093 0.1052 0.588571 0.497735C0.167838 0.889822 -0.043871 1.44349 0.00760162 2.0164L0.536651 7.87399C0.601551 8.59013 0.929186 9.25167 1.46003 9.73685C1.8078 10.0546 2.22316 10.278 2.67075 10.3948L1.33067 14.6523C1.25995 14.8761 1.38438 15.1151 1.60863 15.1853C1.65115 15.1988 1.69411 15.205 1.73664 15.205C1.91746 15.205 2.08486 15.0887 2.14215 14.9074L3.53325 10.4888H7.37759L8.7687 14.9074C8.82599 15.0891 8.99339 15.205 9.17421 15.205C9.21673 15.205 9.2597 15.1988 9.30222 15.1853C9.52602 15.1146 9.65044 14.8761 9.58017 14.6523L8.26963 10.4888H8.36408C8.93833 10.4888 9.46156 10.2225 9.79949 9.75789C10.1374 9.29329 10.2301 8.71367 10.0533 8.16716C9.80218 7.39015 9.08469 6.86826 8.26829 6.86826L8.26784 6.86871ZM9.1111 9.25793C8.9352 9.50008 8.66217 9.63883 8.36318 9.63883H7.6909C7.6909 9.63883 7.68687 9.63883 7.68508 9.63883H3.39808C2.34446 9.63883 1.47838 8.8475 1.38349 7.7979L0.854886 1.94031C0.827136 1.63058 0.941271 1.33159 1.16865 1.11944C1.35619 0.944876 1.59699 0.850882 1.84764 0.850882C1.90135 0.850882 1.95551 0.855358 2.00966 0.863862C2.38385 0.924287 2.6703 1.22999 2.70656 1.60686L3.15504 6.26267C3.23516 7.09295 3.92445 7.71868 4.7583 7.71868H8.26829C8.71454 7.71868 9.10662 8.00424 9.24403 8.42855C9.33624 8.71322 9.2879 9.01534 9.11155 9.25749L9.1111 9.25793Z" fill="#787F88"/>
<path d="M27.4101 0.497247C26.9889 0.104712 26.4218 -0.0676096 25.8538 0.024146C25.0983 0.146338 24.5196 0.763562 24.4462 1.52536L23.9977 6.18117C23.9601 6.57281 23.6347 6.86822 23.2412 6.86822H19.7313C18.9149 6.86822 18.1974 7.39011 17.9463 8.16712C17.7695 8.71362 17.8621 9.2937 18.2001 9.75785C18.538 10.2224 19.0612 10.4888 19.6355 10.4888H19.7299L18.4194 14.6522C18.3487 14.876 18.4731 15.115 18.6973 15.1853C18.7398 15.1987 18.7828 15.205 18.8253 15.205C19.0062 15.205 19.1736 15.0891 19.2309 14.9074L20.622 10.4888H24.4663L25.8574 14.9074C25.9147 15.0891 26.0821 15.205 26.2629 15.205C26.3054 15.205 26.3484 15.1987 26.3909 15.1853C26.6147 15.1146 26.7391 14.876 26.6689 14.6522L25.3288 10.3948C25.7759 10.2779 26.1917 10.0546 26.5395 9.73681C27.0704 9.25163 27.3984 8.59009 27.4629 7.87395L27.9919 2.01636C28.0439 1.443 27.8317 0.889334 27.411 0.497247H27.4101ZM27.1442 1.94027L26.6152 7.79786C26.5203 8.84745 25.6542 9.63879 24.6006 9.63879H20.314C20.3118 9.63879 20.3095 9.63879 20.3073 9.63879H19.6355C19.336 9.63879 19.0635 9.50004 18.8876 9.25789C18.7117 9.01575 18.6633 8.71363 18.7551 8.42896C18.8925 8.0042 19.2846 7.71908 19.7308 7.71908H23.2408C24.0747 7.71908 24.7639 7.09291 24.8441 6.26308L25.2925 1.60727C25.3288 1.2304 25.6153 0.924694 25.9894 0.864269C26.296 0.814587 26.6026 0.907685 26.83 1.11984C27.0574 1.332 27.172 1.63099 27.1438 1.94072L27.1442 1.94027Z" fill="#787F88"/>
</svg>
