<svg width="22" height="17" viewBox="0 0 22 17" fill="none" xmlns="http://www.w3.org/2000/svg">
<path d="M19.887 10.6834H2.11304C0.947912 10.6834 0 9.73548 0 8.57035V2.11304C0 0.947912 0.947912 0 2.11304 0H19.8877C21.0529 0 22.0008 0.947912 22.0008 2.11304V8.57035C22.0008 9.73548 21.0529 10.6834 19.8877 10.6834H19.887ZM2.11304 1.07456C1.54045 1.07456 1.07456 1.54045 1.07456 2.11304V8.57035C1.07456 9.14294 1.54045 9.60883 2.11304 9.60883H19.8877C20.4603 9.60883 20.9262 9.14294 20.9262 8.57035V2.11304C20.9262 1.54045 20.4603 1.07456 19.8877 1.07456H2.11304Z" fill="#787F88"/>
<path d="M19.0619 8.25034H2.94353C2.64649 8.25034 2.40625 8.0101 2.40625 7.71306C2.40625 7.41602 2.64649 7.17578 2.94353 7.17578H19.0619C19.3589 7.17578 19.5991 7.41602 19.5991 7.71306C19.5991 8.0101 19.3589 8.25034 19.0619 8.25034Z" fill="#787F88"/>
<path d="M18.7892 6.18556C18.4922 6.18556 18.252 5.94532 18.252 5.64829V5.11101C18.252 4.81397 18.4922 4.57373 18.7892 4.57373C19.0863 4.57373 19.3265 4.81397 19.3265 5.11101V5.64829C19.3265 5.94532 19.0863 6.18556 18.7892 6.18556Z" fill="#787F88"/>
<path d="M18.7892 4.03652C18.4922 4.03652 18.252 3.79628 18.252 3.49924V2.96196C18.252 2.66492 18.4922 2.42468 18.7892 2.42468C19.0863 2.42468 19.3265 2.66492 19.3265 2.96196V3.49924C19.3265 3.79628 19.0863 4.03652 18.7892 4.03652Z" fill="#787F88"/>
<path d="M17.2058 16.6771C17.0292 16.6771 16.8573 16.5904 16.7545 16.4315C16.5933 16.182 16.6647 15.8497 16.9133 15.6885C17.0569 15.5956 16.9916 15.1827 16.9678 15.0583C16.8819 14.6063 16.6654 14.0759 16.492 13.6491C16.4421 13.5263 16.3953 13.412 16.3553 13.3091C16.0767 12.5884 16.2226 12.0949 16.3945 11.8078C16.5587 11.533 16.8212 11.3358 17.0622 11.3058C17.357 11.269 17.6249 11.4785 17.6617 11.7725C17.6924 12.0189 17.5512 12.2468 17.3317 12.3359C17.2772 12.3988 17.2265 12.5815 17.3577 12.92C17.3954 13.0175 17.4399 13.1257 17.4875 13.2423C17.9188 14.2992 18.5697 15.8957 17.4982 16.5896C17.4084 16.6479 17.3071 16.6755 17.2065 16.6755L17.2058 16.6771Z" fill="#787F88"/>
<path d="M14.1374 16.6771C13.9609 16.6771 13.789 16.5904 13.6861 16.4315C13.5249 16.182 13.5963 15.8497 13.845 15.6885C13.9885 15.5956 13.9233 15.1827 13.8995 15.0583C13.8135 14.6063 13.5971 14.0759 13.4236 13.6491C13.3737 13.5263 13.3269 13.412 13.287 13.3091C13.0084 12.5884 13.1542 12.0949 13.3261 11.8078C13.4904 11.533 13.7529 11.3358 13.9939 11.3058C14.2879 11.269 14.5565 11.4785 14.5933 11.7725C14.624 12.0189 14.4828 12.2468 14.2633 12.3359C14.2088 12.3988 14.1581 12.5815 14.2894 12.92C14.327 13.0175 14.3715 13.1257 14.4191 13.2423C14.8505 14.2992 15.5013 15.8957 14.4298 16.5896C14.34 16.6479 14.2387 16.6755 14.1382 16.6755L14.1374 16.6771Z" fill="#787F88"/>
<path d="M11.0671 16.6771C10.8906 16.6771 10.7186 16.5904 10.6158 16.4315C10.4546 16.182 10.526 15.8497 10.7747 15.6885C10.9182 15.5956 10.853 15.1827 10.8292 15.0583C10.7432 14.6063 10.5268 14.0759 10.3533 13.6491C10.3034 13.5263 10.2566 13.412 10.2167 13.3091C9.93805 12.5884 10.0839 12.0949 10.2558 11.8078C10.4201 11.533 10.6826 11.3358 10.9236 11.3058C11.2183 11.269 11.4862 11.4785 11.523 11.7725C11.5537 12.0189 11.4125 12.2468 11.193 12.3359C11.1385 12.3988 11.0878 12.5815 11.2191 12.92C11.2567 13.0175 11.3012 13.1257 11.3488 13.2423C11.7801 14.2992 12.431 15.8957 11.3595 16.5896C11.2697 16.6479 11.1684 16.6755 11.0679 16.6755L11.0671 16.6771Z" fill="#787F88"/>
<path d="M7.99679 16.6771C7.82026 16.6771 7.64833 16.5904 7.54548 16.4315C7.38429 16.182 7.45567 15.8497 7.70436 15.6885C7.84789 15.5956 7.78265 15.1827 7.75885 15.0583C7.67289 14.6063 7.45644 14.0759 7.28298 13.6491C7.23309 13.5263 7.18627 13.412 7.14636 13.3091C6.86774 12.5884 7.01357 12.0949 7.1855 11.8078C7.34975 11.533 7.61225 11.3358 7.85326 11.3058C8.148 11.269 8.41587 11.4785 8.45271 11.7725C8.48341 12.0189 8.34218 12.2468 8.12267 12.3359C8.06817 12.3988 8.01751 12.5815 8.14876 12.92C8.18637 13.0175 8.23089 13.1257 8.27848 13.2423C8.70983 14.2992 9.36071 15.8957 8.28922 16.5896C8.19942 16.6479 8.09811 16.6755 7.99756 16.6755L7.99679 16.6771Z" fill="#787F88"/>
<path d="M4.92648 16.6771C4.74994 16.6771 4.57801 16.5904 4.47516 16.4315C4.31398 16.182 4.38536 15.8497 4.63404 15.6885C4.77757 15.5956 4.71233 15.1827 4.68854 15.0583C4.60258 14.6063 4.38613 14.0759 4.21267 13.6491C4.16278 13.5263 4.11596 13.412 4.07604 13.3091C3.79743 12.5884 3.94326 12.0949 4.11519 11.8078C4.27944 11.533 4.54194 11.3358 4.78295 11.3058C5.07692 11.269 5.34555 11.4785 5.3824 11.7725C5.4131 12.0189 5.27187 12.2468 5.05235 12.3359C4.99786 12.3988 4.9472 12.5815 5.07845 12.92C5.11606 13.0175 5.16058 13.1257 5.20816 13.2423C5.63952 14.2992 6.2904 15.8957 5.21891 16.5896C5.12911 16.6479 5.02779 16.6755 4.92725 16.6755L4.92648 16.6771Z" fill="#787F88"/>
</svg>
