<svg width="21" height="22" viewBox="0 0 21 22" fill="none" xmlns="http://www.w3.org/2000/svg">
<path d="M0.835512 1.923C0.882231 1.87345 2.00349 0.70981 3.97373 0.207776C5.72279 -0.238153 7.35286 0.13564 8.43105 0.38265C8.56829 0.413981 8.69603 0.443127 8.81283 0.46863C12.6394 1.28325 15.0688 1.6534 15.5879 1.72918L20.3496 0.38775C20.5036 0.344032 20.6693 0.375363 20.7971 0.472273C20.9248 0.568453 21 0.719282 21 0.878855V7.89349C21 8.05088 20.927 8.19952 20.8029 8.2957C20.6788 8.39261 20.5167 8.42613 20.3642 8.38824L15.5755 7.18234C15.3287 7.19108 14.3929 7.23844 13.1935 7.47962C13.0059 7.51751 12.811 7.55467 12.6117 7.59329C11.3948 7.82718 9.88008 8.11791 9.41507 8.64399C9.08001 9.02289 9.07636 9.53294 9.11505 10.9516C9.12016 11.1257 9.12454 11.3108 9.12892 11.5083C9.14206 12.0948 9.25813 12.6668 9.37128 13.2199C9.52676 13.9835 9.67349 14.7056 9.51289 15.3548C9.35521 15.9945 8.85517 16.4937 8.14051 16.7239C8.03758 16.7567 7.9332 16.7815 7.82881 16.8019L7.83611 21.4892C7.83611 21.7712 7.60835 21.9993 7.32584 22H7.32512C7.04334 22 6.81485 21.7719 6.81412 21.4907L6.80682 16.796C6.43745 16.7195 6.09581 16.5614 5.82134 16.329C4.73584 15.408 4.60445 12.492 4.6227 10.8357C4.64314 9.01196 4.29712 8.88372 3.01015 8.40646L2.91817 8.37221C1.2954 7.76889 0.820913 7.06211 0.772003 6.98415C0.722364 6.90327 0.695354 6.81073 0.695354 6.71601V2.2742C0.695354 2.14378 0.745724 2.01845 0.835512 1.92373V1.923ZM19.9773 1.55285L16.1346 2.63561L16.1412 6.27299L19.9773 7.23917V1.55285ZM5.64468 10.8467C5.61475 13.5798 6.04398 15.1785 6.48344 15.5515C6.80755 15.8262 7.34702 15.9078 7.82662 15.7526C8.00182 15.6965 8.41937 15.5209 8.52084 15.1107C8.62595 14.683 8.50697 14.0986 8.36973 13.4224C8.25366 12.8534 8.12299 12.2085 8.10766 11.5309C8.10328 11.3356 8.09818 11.152 8.09379 10.9793C8.05292 9.48922 8.03101 8.66877 8.64931 7.96927C9.34499 7.18234 10.9079 6.88214 12.419 6.59214C12.6153 6.55425 12.8073 6.51782 12.992 6.48065C13.8965 6.29849 14.6535 6.22053 15.1207 6.18628L15.1141 2.68953C14.2053 2.5489 11.924 2.17365 8.60187 1.46687C8.47996 1.44064 8.3471 1.41076 8.20402 1.37797C7.22219 1.15282 5.73812 0.812549 4.2285 1.19727C3.94235 1.27014 3.67736 1.36049 3.43354 1.45885L3.44157 7.47234H3.42551C4.90301 8.02392 5.67242 8.4509 5.64614 10.8474L5.64468 10.8467ZM1.71734 6.52874C1.82246 6.6344 2.03708 6.81874 2.4174 7.02859L2.41083 1.98129C2.08891 2.18531 1.85385 2.37476 1.71807 2.49425V6.52874H1.71734Z" fill="#787F88"/>
</svg>
