<svg width="19" height="25" viewBox="0 0 19 25" fill="none" xmlns="http://www.w3.org/2000/svg">
<path d="M18.152 11.8301L17.5627 11.49L17.9894 11.3757C18.0849 11.3501 18.1648 11.2886 18.2141 11.2031C18.2635 11.1176 18.2768 11.0178 18.2513 10.9223C18.2264 10.828 18.1631 10.7464 18.0788 10.6976C18.0227 10.6654 17.9583 10.6482 17.8934 10.6482C17.8612 10.6482 17.8291 10.6527 17.7974 10.661L16.6555 10.9667L14.6185 9.79037L16.656 8.61402L17.7969 8.91976C17.8279 8.92809 17.8607 8.93252 17.8929 8.93252C17.9578 8.93252 18.0216 8.91532 18.0776 8.88314C18.1631 8.83376 18.2247 8.75385 18.2502 8.65841C18.2757 8.56297 18.263 8.46309 18.2136 8.37709C18.1642 8.29164 18.0843 8.23004 17.9889 8.20452L17.5622 8.09021L18.1509 7.75063C18.2363 7.70069 18.2968 7.62078 18.3218 7.5259C18.3468 7.43101 18.3334 7.33169 18.2846 7.24624C18.2352 7.16079 18.1559 7.09975 18.061 7.07422C18.0294 7.0659 17.9966 7.06146 17.9639 7.06146C17.9001 7.06146 17.8368 7.07811 17.7808 7.10974L17.1915 7.44988L17.3052 7.02373C17.3308 6.92829 17.318 6.82841 17.2686 6.74296C17.2192 6.65751 17.1393 6.59592 17.0439 6.57039C17.0123 6.56207 16.9801 6.55763 16.9479 6.55763C16.883 6.55763 16.8192 6.57483 16.7631 6.60701C16.6771 6.6564 16.6161 6.7363 16.5906 6.83174L16.2843 7.97424L14.2473 9.15059V6.79789L15.0835 5.96224C15.1534 5.89233 15.1923 5.79911 15.1923 5.70034C15.1923 5.60157 15.154 5.50835 15.0841 5.43843C15.0141 5.36852 14.9209 5.32968 14.8222 5.32968C14.7245 5.32968 14.6291 5.36907 14.5602 5.43788L14.2478 5.75028V5.07055C14.2478 4.97178 14.2096 4.87856 14.1396 4.80864C14.0697 4.73873 13.9765 4.70044 13.8777 4.70044C13.779 4.70044 13.6858 4.73873 13.6158 4.80864C13.5459 4.87856 13.5076 4.97178 13.5076 5.07055V5.75028L13.1958 5.43788C13.1614 5.40347 13.1209 5.37629 13.0754 5.35742C13.0304 5.33855 12.9827 5.32912 12.9339 5.32912C12.8845 5.32912 12.8368 5.33855 12.7918 5.35742C12.7469 5.37629 12.7064 5.40347 12.672 5.43788C12.6376 5.47228 12.6104 5.51279 12.5915 5.55829C12.5727 5.60323 12.5632 5.65095 12.5632 5.69978C12.5632 5.74861 12.5727 5.79633 12.5915 5.84128C12.6104 5.88622 12.6376 5.92673 12.672 5.96113L13.5076 6.79678V9.14948L11.4701 7.97313L11.1644 6.83119C11.1527 6.78402 11.1316 6.73963 11.1022 6.70023C11.0728 6.66084 11.0362 6.6281 10.9935 6.60257C10.9507 6.57761 10.9047 6.56151 10.8553 6.55485C10.8387 6.55264 10.822 6.55153 10.8054 6.55153C10.7732 6.55153 10.741 6.55596 10.7099 6.56429C10.6622 6.57705 10.6184 6.59869 10.579 6.62921C10.5401 6.65917 10.5079 6.69635 10.4835 6.73963C10.4591 6.78236 10.4436 6.82952 10.438 6.87835C10.4319 6.92718 10.4358 6.97657 10.4497 7.02373L10.564 7.44932L9.97526 7.10974C9.93309 7.08532 9.88703 7.06923 9.83876 7.06257C9.82211 7.06035 9.80546 7.05924 9.78882 7.05924C9.75663 7.05924 9.72501 7.06313 9.69393 7.07145C9.64621 7.08421 9.60293 7.1053 9.56354 7.13526C9.52469 7.16523 9.49251 7.20185 9.46754 7.24402C9.44313 7.28674 9.42759 7.3328 9.42093 7.38163C9.41483 7.43046 9.41816 7.47873 9.43092 7.52645C9.44368 7.57362 9.46532 7.61745 9.49584 7.6563C9.52636 7.69514 9.56298 7.72732 9.60571 7.75118L10.1944 8.09077L9.76773 8.20507C9.67285 8.23226 9.59461 8.29385 9.54633 8.37875C9.49806 8.46365 9.4853 8.56242 9.51082 8.65675C9.53579 8.75108 9.59627 8.83043 9.68062 8.88036C9.73777 8.91421 9.80269 8.93141 9.86872 8.93141C9.89868 8.93141 9.9292 8.92753 9.95806 8.92032L11.1011 8.61458L13.1381 9.79093L11.1006 10.9673L9.95972 10.6615C9.92809 10.6532 9.89591 10.6488 9.86373 10.6488C9.84763 10.6488 9.83154 10.6499 9.81601 10.6521C9.76773 10.6582 9.72168 10.6737 9.67895 10.6982C9.63678 10.7226 9.60016 10.7548 9.57019 10.7936C9.54023 10.8324 9.51859 10.8757 9.50638 10.9229C9.49362 10.9701 9.49029 11.0183 9.49695 11.0672C9.50305 11.1154 9.51859 11.1615 9.543 11.2042C9.56742 11.2464 9.5996 11.283 9.63789 11.313C9.67673 11.3429 9.72057 11.3646 9.76773 11.3768L10.195 11.4911L9.60626 11.8307C9.52081 11.8806 9.46033 11.9605 9.43536 12.0554C9.41039 12.1503 9.4237 12.2502 9.47253 12.3351C9.52192 12.4205 9.60127 12.4815 9.69615 12.5071C9.72778 12.5154 9.76052 12.5198 9.79326 12.5198C9.85707 12.5198 9.92088 12.5032 9.97637 12.4716L10.5657 12.132L10.4513 12.5576C10.4258 12.653 10.4386 12.7529 10.488 12.8389C10.5374 12.9243 10.6173 12.9859 10.7127 13.0115C10.7443 13.0198 10.7765 13.0242 10.8087 13.0242C10.8736 13.0242 10.9374 13.007 10.9935 12.9748C11.0795 12.9255 11.1405 12.8456 11.166 12.7501L11.4723 11.6076L13.5093 10.4313V12.784L12.6736 13.6196C12.6037 13.6895 12.5649 13.7827 12.5649 13.8815C12.5649 13.9803 12.6032 14.0735 12.6731 14.1434C12.743 14.2133 12.8362 14.2522 12.935 14.2522C13.0343 14.2522 13.127 14.2139 13.1969 14.144L13.5087 13.8316V14.5113C13.5087 14.6101 13.547 14.7033 13.6169 14.7732C13.6869 14.8431 13.7801 14.8814 13.8789 14.8814C13.9776 14.8814 14.0703 14.8431 14.1402 14.7732C14.2101 14.7033 14.2484 14.6101 14.2484 14.5113V13.8316L14.5608 14.144C14.6307 14.2139 14.7239 14.2522 14.8227 14.2522C14.922 14.2522 15.0153 14.2133 15.0852 14.1434C15.1551 14.0735 15.1934 13.9803 15.1934 13.8815C15.1934 13.7827 15.1545 13.6895 15.0846 13.6196L14.249 12.784V10.4313L16.2859 11.6076L16.5917 12.7496C16.6033 12.7967 16.6244 12.8411 16.6538 12.8805C16.6832 12.9199 16.7198 12.9526 16.7626 12.9782C16.8053 13.0031 16.8514 13.0192 16.9007 13.0259C16.9174 13.0281 16.934 13.0292 16.9507 13.0292C16.9829 13.0292 17.015 13.0248 17.0461 13.0165C17.0938 13.0037 17.1377 12.9821 17.1771 12.9515C17.2159 12.9216 17.2481 12.8844 17.2725 12.8411C17.2969 12.7984 17.3125 12.7518 17.318 12.7024C17.3241 12.6536 17.3202 12.6042 17.3064 12.557L17.1926 12.1314L17.7819 12.471C17.8379 12.5026 17.9012 12.5198 17.965 12.5198C17.9977 12.5198 18.0305 12.5154 18.0621 12.5071C18.157 12.4815 18.2363 12.42 18.2857 12.3351C18.3351 12.2496 18.3484 12.1503 18.3229 12.0554C18.2979 11.9605 18.2375 11.8806 18.152 11.8307V11.8301ZM17.935 10.7059C17.9173 10.7037 17.899 10.7032 17.8807 10.7043C17.8851 10.7043 17.8895 10.7032 17.894 10.7032C17.9079 10.7032 17.9212 10.7043 17.935 10.7059ZM17.8124 8.86538C17.8302 8.87038 17.8485 8.8726 17.8668 8.87426C17.8485 8.8726 17.8302 8.86982 17.8124 8.86538ZM17.8807 8.87537C17.899 8.87593 17.9173 8.87593 17.935 8.87371C17.9217 8.87537 17.9079 8.87648 17.8945 8.87648C17.8901 8.87648 17.8857 8.87593 17.8807 8.87537ZM17.935 8.87371C17.9528 8.87149 17.9706 8.86705 17.9883 8.8615C17.9711 8.86705 17.9534 8.87149 17.935 8.87371ZM18.2086 8.58239C18.2114 8.54133 18.2058 8.50027 18.1931 8.46087C18.2064 8.49972 18.2114 8.54133 18.2086 8.58239ZM18.2707 7.51092C18.2763 7.49094 18.2791 7.47041 18.2807 7.44988C18.2796 7.47041 18.2763 7.49094 18.2707 7.51092ZM18.0488 7.12694C18.031 7.12194 18.0127 7.11972 17.9944 7.11806C18.0127 7.11972 18.0305 7.1225 18.0488 7.12694ZM17.9805 7.11695C17.9628 7.1164 17.9456 7.1164 17.9284 7.11861C17.9411 7.11695 17.9539 7.1164 17.9661 7.1164C17.9711 7.1164 17.9755 7.11695 17.9805 7.11751V7.11695ZM17.9262 7.11861C17.9084 7.12083 17.8906 7.12527 17.8734 7.13082C17.8906 7.12527 17.9084 7.12139 17.9262 7.11861ZM17.2642 6.94771C17.267 6.90665 17.2614 6.86559 17.2487 6.82619C17.262 6.86503 17.267 6.90665 17.2642 6.94771ZM17.0317 6.62311C17.0139 6.61811 16.9956 6.61589 16.9773 6.61423C16.9956 6.61589 17.0139 6.61867 17.0317 6.62311ZM16.9634 6.61312C16.9451 6.61256 16.9268 6.61256 16.9091 6.61478C16.9224 6.61312 16.9363 6.61201 16.9496 6.61201C16.954 6.61201 16.9584 6.61256 16.9634 6.61312ZM16.9091 6.61478C16.8913 6.617 16.8736 6.62144 16.8558 6.62699C16.873 6.62144 16.8908 6.617 16.9091 6.61478ZM14.8233 5.38405C14.8094 5.38405 14.7961 5.38627 14.7822 5.38794C14.7955 5.38627 14.8088 5.38405 14.8227 5.38405H14.8233ZM14.6485 5.43677C14.6313 5.44842 14.6152 5.46118 14.6008 5.47616C14.6157 5.46118 14.6318 5.44842 14.6485 5.43677ZM14.7029 5.40791C14.689 5.41346 14.6762 5.42123 14.6629 5.429C14.6757 5.42123 14.689 5.41346 14.7029 5.40791ZM12.9344 5.38405C12.9139 5.38405 12.8934 5.38627 12.8729 5.39016C12.8928 5.38627 12.9134 5.38405 12.9344 5.38405ZM10.9657 6.65085C10.9835 6.66139 11.0007 6.6736 11.0162 6.68747C11.0007 6.6736 10.984 6.66139 10.9657 6.65085ZM10.8486 6.61034C10.8303 6.60757 10.8115 6.60757 10.7932 6.60812C10.7976 6.60812 10.802 6.60701 10.8065 6.60701C10.8209 6.60701 10.8348 6.60812 10.8492 6.60979L10.8486 6.61034ZM10.7793 6.60923C10.761 6.6109 10.7427 6.61312 10.7243 6.61811C10.7421 6.61312 10.7604 6.6109 10.7793 6.60923ZM9.83099 7.11751C9.81268 7.11473 9.79381 7.11473 9.7755 7.11529C9.77994 7.11529 9.78382 7.11418 9.78826 7.11418C9.80269 7.11418 9.81656 7.11529 9.83099 7.11695V7.11751ZM9.75774 8.85595C9.74054 8.84985 9.7239 8.84208 9.70836 8.83264C9.72445 8.84208 9.7411 8.84929 9.75774 8.85595ZM9.81767 8.87204C9.80213 8.86927 9.7866 8.86538 9.77106 8.86039C9.78604 8.86538 9.80158 8.86927 9.81767 8.87204ZM9.82433 8.87315C9.84209 8.87593 9.8604 8.87648 9.87815 8.87593C9.87482 8.87593 9.8715 8.87648 9.86761 8.87648C9.85318 8.87648 9.8382 8.87537 9.82377 8.87315H9.82433ZM9.88981 8.87482C9.90812 8.87371 9.92587 8.87149 9.94418 8.86705C9.92643 8.87149 9.90812 8.87371 9.88981 8.87482ZM9.94474 10.7148C9.92698 10.7098 9.90867 10.7076 9.89036 10.7059C9.90867 10.7076 9.92698 10.7104 9.94474 10.7148ZM9.82211 10.7065C9.83543 10.7048 9.8493 10.7037 9.86262 10.7037C9.86706 10.7037 9.87205 10.7043 9.87649 10.7048C9.85818 10.7043 9.83987 10.7043 9.82156 10.7065H9.82211ZM9.70891 12.4538C9.72667 12.4588 9.74498 12.461 9.76329 12.4627C9.74498 12.461 9.72723 12.4582 9.70891 12.4538ZM9.77717 12.4638C9.79492 12.4643 9.81212 12.4643 9.82932 12.4621C9.81656 12.4638 9.8038 12.4643 9.79104 12.4643C9.78604 12.4643 9.7816 12.4638 9.77661 12.4632L9.77717 12.4638ZM9.83154 12.4621C9.8493 12.4599 9.86706 12.4555 9.88426 12.4499C9.86706 12.4555 9.8493 12.4594 9.83154 12.4621ZM10.7255 12.9582C10.7432 12.9632 10.7615 12.9654 10.7798 12.9671C10.7615 12.9654 10.7432 12.9626 10.7255 12.9582ZM10.7937 12.9682C10.812 12.9687 10.8303 12.9687 10.8481 12.9665C10.8348 12.9682 10.8209 12.9693 10.8076 12.9693C10.8031 12.9693 10.7987 12.9687 10.7937 12.9682ZM10.8481 12.9665C10.8664 12.9643 10.8836 12.9599 10.9014 12.9543C10.8842 12.9599 10.8664 12.9643 10.8481 12.9665ZM12.9344 14.1972C12.9134 14.1972 12.8928 14.195 12.8729 14.1911C12.8928 14.195 12.9139 14.1972 12.9344 14.1972C12.9478 14.1972 12.9605 14.195 12.9733 14.1934C12.9605 14.195 12.9478 14.1972 12.935 14.1972H12.9344ZM13.1092 14.1445C13.1264 14.1329 13.1425 14.1201 13.157 14.1051C13.142 14.1201 13.1259 14.1329 13.1092 14.1445ZM12.996 14.1911C13.0082 14.1889 13.0199 14.1839 13.0321 14.18C13.0199 14.1839 13.0082 14.1884 12.996 14.1911ZM13.0549 14.1734C13.0676 14.1678 13.0793 14.1606 13.0915 14.154C13.0793 14.1606 13.0676 14.1684 13.0549 14.1734ZM13.7035 14.7738C13.7379 14.7965 13.7762 14.8126 13.8167 14.8204C13.7762 14.8121 13.7379 14.7965 13.7035 14.7738ZM13.9399 14.8204C13.9798 14.8121 14.0181 14.7965 14.0525 14.7738C14.0187 14.7965 13.9804 14.8126 13.9399 14.8204ZM14.8227 14.1972C14.8094 14.1972 14.7972 14.195 14.7839 14.1934C14.7966 14.195 14.8094 14.1972 14.8227 14.1972C14.8438 14.1972 14.8643 14.195 14.8843 14.1911C14.8643 14.195 14.8432 14.1972 14.8227 14.1972ZM14.5996 14.1051C14.6146 14.1201 14.6307 14.1329 14.6474 14.1445C14.6302 14.1329 14.6141 14.1201 14.5996 14.1051ZM14.7234 14.18C14.7356 14.1839 14.7478 14.1889 14.7606 14.1911C14.7478 14.1884 14.7356 14.1839 14.7234 14.18ZM16.9074 12.971C16.9257 12.9737 16.9446 12.9737 16.9629 12.9732C16.9584 12.9732 16.954 12.9743 16.9496 12.9743C16.9351 12.9743 16.9213 12.9732 16.9068 12.9715L16.9074 12.971ZM16.9768 12.9721C16.9951 12.9704 17.0134 12.9682 17.0317 12.9632C17.0139 12.9682 16.9956 12.9704 16.9768 12.9721ZM17.2242 12.8145C17.2137 12.8328 17.202 12.8494 17.1882 12.8655C17.202 12.85 17.2137 12.8328 17.2242 12.8145C17.2448 12.7779 17.2581 12.7379 17.2631 12.6968C17.2581 12.7385 17.2448 12.7784 17.2242 12.8145ZM17.9273 12.4621C17.9445 12.4643 17.9622 12.4643 17.9794 12.4638C17.9744 12.4638 17.97 12.4649 17.965 12.4649C17.9522 12.4649 17.9395 12.4638 17.9267 12.4627L17.9273 12.4621ZM17.8096 12.4233C17.8257 12.4322 17.8429 12.4394 17.8596 12.4455C17.8424 12.4394 17.8257 12.4322 17.8096 12.4233ZM17.8723 12.4499C17.8895 12.4555 17.9073 12.4594 17.9251 12.4621C17.9073 12.4599 17.8895 12.4555 17.8723 12.4499ZM17.9933 12.4627C18.0116 12.461 18.0294 12.4582 18.0477 12.4538C18.0299 12.4588 18.0116 12.461 17.9933 12.4627Z" fill="#787F88"/>
<path d="M13.8432 16.095C13.5979 16.095 13.3993 16.2936 13.3993 16.5389V22.1077H0.887811V10.2338H8.7971C9.04236 10.2338 9.241 10.0351 9.241 9.78987C9.241 9.54461 9.04236 9.34596 8.7971 9.34596H0.887811V1.72131H13.3993V2.90601C13.3993 3.15126 13.5979 3.34991 13.8432 3.34991C14.0885 3.34991 14.2871 3.15126 14.2871 2.90601V1.2774C14.2871 1.03214 14.0885 0.833496 13.8432 0.833496H0.443906C0.198648 0.833496 0 1.03214 0 1.2774V24.056C0 24.3012 0.198648 24.4999 0.443906 24.4999H2.74889C2.96584 24.4999 3.15117 24.3428 3.18669 24.1287L3.51351 22.9956H10.7736L11.1004 24.1287C11.1359 24.3428 11.3213 24.4999 11.5382 24.4999H13.8432C14.0885 24.4999 14.2871 24.3012 14.2871 24.056V16.5389C14.2871 16.2936 14.0885 16.095 13.8432 16.095ZM2.37267 23.6121H0.887811V22.9956H2.61349L2.37267 23.6121ZM13.3993 23.6121H11.9144L11.6736 22.9956H13.3993V23.6121Z" fill="#787F88"/>
<path d="M2.01226 3.67017C1.76701 3.67017 1.56836 3.86881 1.56836 4.11407V7.75021C1.56836 7.99547 1.76701 8.19412 2.01226 8.19412H3.35896C3.60422 8.19412 3.80287 7.99547 3.80287 7.75021V4.11407C3.80287 3.86881 3.60422 3.67017 3.35896 3.67017H2.01226ZM2.91506 7.30631H2.45617V4.55798H2.91506V7.30631Z" fill="#787F88"/>
<path d="M2.01226 11.4385C1.76701 11.4385 1.56836 11.6371 1.56836 11.8824V15.5185C1.56836 15.7638 1.76701 15.9624 2.01226 15.9624H3.35896C3.60422 15.9624 3.80287 15.7638 3.80287 15.5185V11.8824C3.80287 11.6371 3.60422 11.4385 3.35896 11.4385H2.01226ZM2.91506 15.0746H2.45617V12.3263H2.91506V15.0746Z" fill="#787F88"/>
</svg>
