<svg width="24" height="21" viewBox="0 0 24 21" fill="none" xmlns="http://www.w3.org/2000/svg">
<path d="M23.9413 16.9082C23.8605 16.7647 23.7091 16.6765 23.5446 16.6765H21.9516C22.572 16.0778 22.9522 15.2395 22.9522 14.3317V10.2937C22.9522 8.49862 21.4918 7.03822 19.6967 7.03822H19.2539C19.6091 6.83503 19.9431 6.5886 20.2488 6.30175C21.2778 5.3365 21.8668 4.02806 21.9072 2.61717C21.9146 2.36675 21.7183 2.15788 21.4679 2.14934C20.0581 2.1004 18.7144 2.60408 17.6854 3.56933C17.6723 3.58186 17.6598 3.59495 17.6467 3.60747C17.5841 2.29276 17.0411 1.06684 16.1009 0.132324C15.9233 -0.044108 15.6365 -0.044108 15.4589 0.132324C14.5187 1.06684 13.9752 2.29276 13.9131 3.60747C13.9001 3.59495 13.8875 3.58186 13.8744 3.56933C12.8455 2.60408 11.5006 2.09926 10.092 2.14934C9.84155 2.15788 9.64577 2.36732 9.6526 2.61717C9.69301 4.02749 10.2821 5.33593 11.3105 6.30175C11.6167 6.58917 11.9502 6.83503 12.3053 7.03822H11.8626C10.977 7.03822 10.1625 7.3888 9.56837 7.979V6.81796C9.56837 6.5664 9.36462 6.36265 9.11306 6.36265H8.01975V4.95518C8.01975 4.23352 7.4324 3.64617 6.71074 3.64617H6.31633V2.21707C6.31633 1.55801 5.7802 1.02188 5.12114 1.02188H4.02271C3.36365 1.02188 2.82753 1.55801 2.82753 2.21707V3.64617H2.43311C1.71145 3.64617 1.1241 4.23352 1.1241 4.95518V16.676H0.455368C0.290888 16.676 0.139497 16.7647 0.0586802 16.9076C-0.0221371 17.051 -0.0192914 17.2263 0.0660789 17.3669L0.576594 18.2092C1.25614 19.3304 2.49287 20.0265 3.80416 20.0265H20.1958C21.5066 20.0265 22.7433 19.3304 23.4234 18.2092L23.9339 17.3669C24.0193 17.2263 24.0221 17.0505 23.9413 16.9076V16.9082ZM18.3086 4.23352C19.0422 3.54543 19.9688 3.14078 20.9573 3.0685C20.8219 4.05082 20.3592 4.94949 19.6256 5.63757C18.8919 6.32566 17.9654 6.73031 16.9768 6.80259C17.0047 6.60055 17.0468 6.40192 17.102 6.20842C17.2341 5.94434 17.3439 5.67001 17.4293 5.38715C17.6524 4.96201 17.9472 4.57215 18.308 4.23352H18.3086ZM15.7799 1.13343C16.4037 1.90404 16.7423 2.85678 16.7423 3.86244C16.7423 4.27108 16.6854 4.67118 16.5773 5.05364C16.4464 5.31544 16.3382 5.58863 16.2529 5.86978C16.1203 6.12361 15.9626 6.3655 15.7799 6.59144C15.5972 6.3655 15.4396 6.12361 15.307 5.86978C15.2216 5.58863 15.1135 5.31601 14.9826 5.05421C14.8744 4.67175 14.8175 4.27165 14.8175 3.86301C14.8175 2.85735 15.1561 1.90461 15.7799 1.134V1.13343ZM10.6025 3.06793C11.5911 3.14021 12.5182 3.54486 13.2512 4.23295C13.6121 4.57158 13.9069 4.96144 14.13 5.38658C14.2154 5.66944 14.3252 5.94377 14.4572 6.20728C14.5124 6.40135 14.5546 6.59941 14.5825 6.80146C13.5939 6.72918 12.6667 6.32452 11.9337 5.63643C11.2001 4.94835 10.7374 4.04912 10.6019 3.06736L10.6025 3.06793ZM11.8631 7.94826H19.6961C20.9892 7.94826 22.041 9.00003 22.041 10.2931V14.3311C22.041 15.4409 21.2533 16.4068 20.1685 16.6287C20.1218 16.6384 20.0786 16.6543 20.0393 16.676H10.4494C11.0265 16.1774 11.4704 15.5394 11.7362 14.824H18.1543C19.205 14.824 20.0604 13.9692 20.0604 12.918V12.5264C20.0604 11.4758 19.2055 10.6204 18.1543 10.6204H12.7054C12.4539 10.6204 12.2501 10.8241 12.2501 11.0757C12.2501 11.3272 12.4539 11.531 12.7054 11.531H18.1543C18.703 11.531 19.1498 11.9772 19.1498 12.5264V12.918C19.1498 13.4666 18.7036 13.9134 18.1543 13.9134H11.9701C12.002 13.6994 12.0185 13.4814 12.0185 13.2611C12.0185 11.5788 11.0908 10.1098 9.7209 9.33582C10.0942 8.49577 10.9229 7.94826 11.8626 7.94826H11.8631ZM6.32316 16.676C6.29015 16.6509 6.25372 16.6299 6.21331 16.6145C4.84056 16.0818 3.91799 14.7341 3.91799 13.2611C3.91799 11.2788 5.53092 9.66592 7.51322 9.66592C9.49552 9.66592 11.1084 11.2788 11.1084 13.2611C11.1084 14.7631 10.1614 16.1199 8.75223 16.6373C8.72377 16.6475 8.69702 16.6606 8.67198 16.676H6.32316ZM8.65832 8.90327C8.29237 8.80709 7.90877 8.7553 7.51322 8.7553C7.11767 8.7553 6.73407 8.80709 6.36812 8.90327V7.27327H8.65832V8.90327ZM3.73814 2.21707C3.73814 2.05999 3.86563 1.9325 4.02271 1.9325H5.12114C5.27822 1.9325 5.40571 2.05999 5.40571 2.21707V3.64617H3.73814V2.21707ZM2.03472 4.95518C2.03472 4.73549 2.21343 4.55678 2.43311 4.55678H6.71131C6.93099 4.55678 7.1097 4.73549 7.1097 4.95518V6.36265H5.91281C5.66125 6.36265 5.4575 6.5664 5.4575 6.81796V9.25386C4.0045 10.0023 3.00737 11.5173 3.00737 13.2611C3.00737 14.1877 3.28682 15.0778 3.81441 15.8353C4.03295 16.1489 4.28793 16.4307 4.57249 16.676H2.03415V4.95575L2.03472 4.95518ZM22.6443 17.7374C22.1286 18.5877 21.1901 19.1164 20.1958 19.1164H3.80416C2.80931 19.1164 1.87138 18.5883 1.35574 17.7374L1.26411 17.5866H22.7359L22.6443 17.7374Z" fill="#787F88"/>
</svg>
