<svg width="24" height="16" viewBox="0 0 24 16" fill="none" xmlns="http://www.w3.org/2000/svg">
<path d="M23.8281 3.97367C23.7742 3.92678 23.7109 3.89197 23.6425 3.8716C23.574 3.85122 23.502 3.84575 23.4312 3.85555C23.3731 3.86367 17.5881 4.6293 12.2337 2.0893C9.52311 0.803674 6.62311 0.307423 4.66748 0.118048C2.91248 -0.0519516 0.774362 -0.060076 0.267487 0.259299C0.186609 0.307498 0.119515 0.375717 0.0726624 0.457381C0.0258093 0.539045 0.00079045 0.631402 0 0.725549V14.7237C0 14.8563 0.0526857 14.9835 0.146454 15.0772C0.240222 15.171 0.367392 15.2237 0.5 15.2237H23.5C23.6326 15.2237 23.7598 15.171 23.8535 15.0772C23.9473 14.9835 24 14.8563 24 14.7237V4.34867C23.9997 4.27754 23.9842 4.20729 23.9545 4.14262C23.9249 4.07795 23.8818 4.02036 23.8281 3.97367ZM1 4.63305C1.35438 4.57867 2.01437 4.54555 2.875 4.57055V11.2237H1V4.63305ZM3.875 4.6193C4.45187 4.65992 5.08375 4.7243 5.75 4.81992V11.2237H3.875V4.6193ZM6.75 4.98367C7.36125 5.09555 7.99062 5.23367 8.625 5.40492V11.2237H6.75V4.98367ZM9.625 5.69867C10.2626 5.90293 10.8886 6.14203 11.5 6.41492V11.2274H9.625V5.69867ZM12.5 6.86617C13.1129 7.12496 13.7387 7.35193 14.375 7.54617V11.2237H12.5V6.86617ZM15.375 7.82555C16.0231 7.9893 16.6525 8.11617 17.25 8.2143V11.2237H15.375V7.82555ZM18.25 8.35742C18.8181 8.4268 19.3456 8.47055 19.8175 8.49742L20.125 8.51242V11.2237H18.25V8.35742ZM21.125 8.5368H21.2231C21.9831 8.5368 22.5925 8.50117 23 8.46742V11.2237H21.125V8.5368ZM11.805 2.99305C14.7519 4.39055 17.7888 4.82055 19.8175 4.93492C20.8778 4.99737 21.9411 4.98734 23 4.90492V7.46242C21.5588 7.58742 16.7437 7.79117 12.2337 5.64992C9.52311 4.3643 6.62311 3.86805 4.66748 3.67867C3.38873 3.55367 1.90625 3.5168 1 3.6293V1.0668C2.27375 0.873673 7.50312 0.949924 11.805 2.99117V2.99305ZM1 14.2237V12.2237H23V14.2237H1Z" fill="#787F88"/>
</svg>
