<svg width="22" height="22" viewBox="0 0 22 22" fill="none" xmlns="http://www.w3.org/2000/svg">
<path d="M20.3799 2.68906H10.0786V1.42238C10.0786 0.638002 9.44057 0 8.65619 0H4.22166C3.43728 0 2.79928 0.638002 2.79928 1.42238V2.68906H1.54077C0.691072 2.68906 0 3.38013 0 4.22983V17.2511C0 18.1008 0.691072 18.7919 1.54077 18.7919H14.2005C14.8601 18.7919 15.3966 19.3284 15.3966 19.988C15.3966 20.6476 14.8601 21.1841 14.2005 21.1841H8.96353C8.73783 21.1841 8.5553 21.3667 8.5553 21.5924C8.5553 21.818 8.73783 22.0006 8.96353 22.0006H14.2005C15.3103 22.0006 16.2131 21.0978 16.2131 19.988C16.2131 19.5407 16.0661 19.1267 15.8183 18.7919H20.3817C21.2314 18.7919 21.9224 18.1008 21.9224 17.2511V4.22983C21.9224 3.38013 21.2314 2.68906 20.3817 2.68906H20.3799ZM3.61515 1.42238C3.61515 1.08822 3.88692 0.816456 4.22108 0.816456H8.6556C8.98977 0.816456 9.26153 1.08822 9.26153 1.42238V14.3965C9.26153 14.7306 8.98977 15.0024 8.6556 15.0024H4.22108C3.88692 15.0024 3.61515 14.7306 3.61515 14.3965V1.42238ZM21.1042 17.2511C21.1042 17.6506 20.7794 17.9755 20.3799 17.9755H1.54019C1.14071 17.9755 0.815873 17.6506 0.815873 17.2511V4.22983C0.815873 3.83035 1.14071 3.50551 1.54019 3.50551H2.7987V14.3965C2.7987 15.1808 3.4367 15.8188 4.22108 15.8188H8.6556C9.43999 15.8188 10.078 15.1808 10.078 14.3965V3.50551H20.3793C20.7788 3.50551 21.1036 3.83035 21.1036 4.22983V17.2511H21.1042Z" fill="#787F88"/>
<path d="M18.5158 5.1897H12.5714C12.1772 5.1897 11.8564 5.51045 11.8564 5.90468V8.16918C11.8564 8.56341 12.1772 8.88416 12.5714 8.88416H18.5158C18.91 8.88416 19.2308 8.56341 19.2308 8.16918V5.90468C19.2308 5.51045 18.91 5.1897 18.5158 5.1897ZM18.4143 8.06771H12.6729V6.00615H18.4143V8.06771Z" fill="#787F88"/>
<path d="M12.5638 10.5521C12.1737 10.5521 11.8564 10.8694 11.8564 11.2595C11.8564 11.6497 12.1737 11.9669 12.5638 11.9669C12.954 11.9669 13.2712 11.6497 13.2712 11.2595C13.2712 10.8694 12.954 10.5521 12.5638 10.5521ZM12.5638 11.3686C12.5038 11.3686 12.4548 11.3196 12.4548 11.2595C12.4548 11.1995 12.5038 11.1505 12.5638 11.1505C12.6239 11.1505 12.6729 11.1995 12.6729 11.2595C12.6729 11.3196 12.6239 11.3686 12.5638 11.3686Z" fill="#787F88"/>
<path d="M15.4799 10.5521C15.0897 10.5521 14.7725 10.8694 14.7725 11.2595C14.7725 11.6497 15.0897 11.9669 15.4799 11.9669C15.87 11.9669 16.1873 11.6497 16.1873 11.2595C16.1873 10.8694 15.87 10.5521 15.4799 10.5521ZM15.4799 11.3686C15.4198 11.3686 15.3708 11.3196 15.3708 11.2595C15.3708 11.1995 15.4198 11.1505 15.4799 11.1505C15.5399 11.1505 15.5889 11.1995 15.5889 11.2595C15.5889 11.3196 15.5399 11.3686 15.4799 11.3686Z" fill="#787F88"/>
<path d="M18.3959 10.5521C18.0057 10.5521 17.6885 10.8694 17.6885 11.2595C17.6885 11.6497 18.0057 11.9669 18.3959 11.9669C18.786 11.9669 19.1033 11.6497 19.1033 11.2595C19.1033 10.8694 18.786 10.5521 18.3959 10.5521ZM18.3959 11.3686C18.3358 11.3686 18.2868 11.3196 18.2868 11.2595C18.2868 11.1995 18.3358 11.1505 18.3959 11.1505C18.4559 11.1505 18.5049 11.1995 18.5049 11.2595C18.5049 11.3196 18.4559 11.3686 18.3959 11.3686Z" fill="#787F88"/>
<path d="M12.5638 13.468C12.1737 13.468 11.8564 13.7853 11.8564 14.1754C11.8564 14.5656 12.1737 14.8828 12.5638 14.8828C12.954 14.8828 13.2712 14.5656 13.2712 14.1754C13.2712 13.7853 12.954 13.468 12.5638 13.468ZM12.5638 14.2845C12.5038 14.2845 12.4548 14.2355 12.4548 14.1754C12.4548 14.1154 12.5038 14.0664 12.5638 14.0664C12.6239 14.0664 12.6729 14.1154 12.6729 14.1754C12.6729 14.2355 12.6239 14.2845 12.5638 14.2845Z" fill="#787F88"/>
<path d="M15.4799 13.468C15.0897 13.468 14.7725 13.7853 14.7725 14.1754C14.7725 14.5656 15.0897 14.8828 15.4799 14.8828C15.87 14.8828 16.1873 14.5656 16.1873 14.1754C16.1873 13.7853 15.87 13.468 15.4799 13.468ZM15.4799 14.2845C15.4198 14.2845 15.3708 14.2355 15.3708 14.1754C15.3708 14.1154 15.4198 14.0664 15.4799 14.0664C15.5399 14.0664 15.5889 14.1154 15.5889 14.1754C15.5889 14.2355 15.5399 14.2845 15.4799 14.2845Z" fill="#787F88"/>
<path d="M18.3959 13.468C18.0057 13.468 17.6885 13.7853 17.6885 14.1754C17.6885 14.5656 18.0057 14.8828 18.3959 14.8828C18.786 14.8828 19.1033 14.5656 19.1033 14.1754C19.1033 13.7853 18.786 13.468 18.3959 13.468ZM18.3959 14.2845C18.3358 14.2845 18.2868 14.2355 18.2868 14.1754C18.2868 14.1154 18.3358 14.0664 18.3959 14.0664C18.4559 14.0664 18.5049 14.1154 18.5049 14.1754C18.5049 14.2355 18.4559 14.2845 18.3959 14.2845Z" fill="#787F88"/>
</svg>
