<svg width="22" height="22" viewBox="0 0 22 22" fill="none" xmlns="http://www.w3.org/2000/svg">
<path d="M16.6137 4.84271C16.41 3.49542 15.7299 2.26584 14.6969 1.37725C13.664 0.488663 12.3465 0 10.9839 0C9.62134 0 8.30392 0.488663 7.27092 1.37725C6.23792 2.26584 5.55787 3.49542 5.35421 4.84271C4.59266 4.88813 3.848 5.08615 3.16448 5.425C2.48096 5.76385 1.87251 6.23663 1.37529 6.81524C0.878061 7.39385 0.50218 8.0665 0.270015 8.79322C0.0378508 9.51994 -0.04588 10.2859 0.02379 11.0456C0.0934599 11.8054 0.315124 12.5433 0.675593 13.2157C1.03606 13.8881 1.528 14.4811 2.12217 14.9597C2.71634 15.4382 3.40062 15.7924 4.13437 16.0013C4.86813 16.2102 5.63636 16.2694 6.39347 16.1756C6.62405 16.4199 6.87888 16.6401 7.15402 16.8329C7.97279 17.4096 8.94975 17.7193 9.95125 17.7196C10.143 17.7191 10.3345 17.7074 10.5248 17.6846V20.9361C10.5248 21.0578 10.5732 21.1745 10.6592 21.2606C10.7453 21.3466 10.862 21.3949 10.9837 21.3949C11.1053 21.3949 11.222 21.3466 11.3081 21.2606C11.3941 21.1745 11.4425 21.0578 11.4425 20.9361V17.6806C11.6328 17.7033 11.8244 17.715 12.0161 17.7156C13.0175 17.7152 13.9945 17.4055 14.8133 16.8289C15.0886 16.6361 15.3434 16.4157 15.5738 16.171C16.3331 16.2696 17.1045 16.214 17.8418 16.0076C18.5791 15.8011 19.2672 15.4481 19.8649 14.9696C20.4627 14.491 20.9577 13.8969 21.3205 13.2226C21.6832 12.5483 21.9063 11.8078 21.9762 11.0453C22.0461 10.2828 21.9616 9.51409 21.7275 8.78506C21.4935 8.05604 21.1148 7.38171 20.6141 6.80243C20.1134 6.22316 19.501 5.75083 18.8135 5.41371C18.1261 5.07659 17.3777 4.8816 16.6131 4.84042L16.6137 4.84271ZM7.67882 16.0792C6.94672 15.5701 6.40874 14.8279 6.1526 13.9737C7.04286 13.922 7.92438 14.1735 8.65331 14.6872C8.91564 14.8709 9.15498 15.0854 9.36622 15.3262C9.49945 15.8498 9.7195 16.3475 10.0172 16.7985C9.18127 16.8122 8.36253 16.5604 7.67882 16.0792ZM10.9934 16.5547H10.971C10.4256 15.8537 10.1304 14.9905 10.1324 14.1023C10.1344 13.2142 10.4334 12.3522 10.9819 11.6537C11.5306 12.3521 11.8298 13.2141 11.8319 14.1022C11.8339 14.9904 11.5388 15.8537 10.9934 16.5547ZM14.2856 16.0792C13.6019 16.5604 12.7831 16.8122 11.9472 16.7985C12.246 16.3461 12.4665 15.8466 12.5994 15.321C12.608 15.3132 12.6162 15.305 12.624 15.2963C13.0224 14.8513 13.5157 14.5013 14.0675 14.2724C14.6192 14.0435 15.2153 13.9414 15.8118 13.9737C15.5561 14.8276 15.0188 15.5698 14.2873 16.0792H14.2856ZM16.3016 15.3026C16.2764 15.3026 16.2512 15.3026 16.2265 15.3026C16.5242 14.7953 16.7278 14.2385 16.8276 13.6588C16.8483 13.5394 16.8209 13.4166 16.7514 13.3173C16.6818 13.218 16.5758 13.1503 16.4565 13.1289C15.8216 13.0133 15.17 13.0253 14.5398 13.1641C13.9096 13.303 13.3133 13.5659 12.7858 13.9376C12.7726 13.9462 12.7599 13.9559 12.7467 13.9651C12.713 12.7133 12.1973 11.5228 11.3071 10.6419C11.2211 10.5563 11.1047 10.5082 10.9834 10.5082C10.862 10.5082 10.7456 10.5563 10.6596 10.6419C9.76927 11.5227 9.25331 12.7132 9.21938 13.9651L9.18096 13.937C8.65331 13.5655 8.05701 13.3028 7.4268 13.164C6.79659 13.0253 6.14508 13.0133 5.5102 13.1289C5.39089 13.1503 5.28489 13.218 5.21536 13.3173C5.14583 13.4166 5.11844 13.5394 5.13913 13.6588C5.23893 14.2385 5.44256 14.7953 5.74022 15.3026C5.71498 15.3026 5.69031 15.3026 5.66508 15.3026C5.03359 15.3096 4.40699 15.1912 3.82158 14.9543C3.23616 14.7174 2.70354 14.3668 2.25455 13.9227C1.80556 13.4786 1.44912 12.9499 1.20585 12.3671C0.962581 11.7843 0.837326 11.159 0.837326 10.5275C0.837326 9.89599 0.962581 9.27074 1.20585 8.68795C1.44912 8.10517 1.80556 7.57642 2.25455 7.13232C2.70354 6.68822 3.23616 6.33759 3.82158 6.10072C4.40699 5.86385 5.03359 5.74545 5.66508 5.75237H5.75685H5.76545C5.88141 5.7527 5.99317 5.70911 6.0783 5.63037C6.16342 5.55163 6.2156 5.44357 6.22429 5.32794C6.40955 2.85362 8.50131 0.915581 10.9848 0.915581C13.4683 0.915581 15.5612 2.85362 15.7453 5.32794C15.7541 5.44487 15.8073 5.55401 15.894 5.63294C15.9807 5.71187 16.0944 5.75461 16.2116 5.75237H16.3034C17.5608 5.76615 18.7619 6.27532 19.6462 7.16933C20.5305 8.06334 21.0265 9.27005 21.0265 10.5275C21.0265 11.785 20.5305 12.9917 19.6462 13.8857C18.7619 14.7797 17.5608 15.2889 16.3034 15.3026H16.3016Z" fill="#787F88"/>
</svg>
