<svg width="23" height="21" viewBox="0 0 23 21" fill="none" xmlns="http://www.w3.org/2000/svg">
<path d="M12.2296 17.47H8.09961V19.71H12.2296V17.47Z" fill="#787F88"/>
<path d="M9.33054 18.22L3.81054 19.74C3.66206 19.7798 3.53547 19.877 3.45859 20.0101C3.38171 20.1433 3.36083 20.3015 3.40054 20.45C3.44482 20.5978 3.54433 20.7229 3.67841 20.7992C3.81249 20.8756 3.97084 20.8973 4.12055 20.86L9.64054 19.34C9.71388 19.3204 9.78255 19.2863 9.84254 19.2398C9.90253 19.1933 9.95262 19.1353 9.98988 19.0691C10.0271 19.003 10.0508 18.9301 10.0595 18.8547C10.0682 18.7793 10.0618 18.7029 10.0405 18.63C10.0007 18.4815 9.90354 18.3549 9.7704 18.278C9.63727 18.2012 9.47906 18.1803 9.33054 18.22Z" fill="#787F88"/>
<path d="M10.7601 19.34L16.3301 20.86C16.4786 20.8997 16.6368 20.8788 16.77 20.802C16.9031 20.7251 17.0003 20.5985 17.0401 20.45C17.0612 20.3765 17.0672 20.2994 17.0579 20.2235C17.0486 20.1475 17.024 20.0743 16.9858 20.008C16.9475 19.9418 16.8963 19.8839 16.8352 19.8378C16.7741 19.7918 16.7043 19.7585 16.6301 19.74L11.1101 18.22C10.9616 18.1803 10.8034 18.2012 10.6703 18.278C10.5371 18.3549 10.44 18.4815 10.4001 18.63C10.3556 18.7719 10.3684 18.9256 10.4356 19.0583C10.5029 19.1909 10.6193 19.292 10.7601 19.34Z" fill="#787F88"/>
<path d="M19.5 9.01001V15.55C19.4948 15.6756 19.4406 15.7941 19.3489 15.8801C19.2573 15.9661 19.1356 16.0127 19.01 16.01C19.01 16.01 12.38 15.73 10.17 15.73C7.96 15.73 1.41 16.01 1.41 16.01C1.34827 16.0113 1.28689 16.0005 1.22936 15.9781C1.17183 15.9557 1.11927 15.9222 1.0747 15.8795C1.03012 15.8367 0.994404 15.7857 0.969576 15.7291C0.944748 15.6726 0.9313 15.6117 0.93 15.55V4.40001C0.9313 4.33828 0.944748 4.27742 0.969576 4.22089C0.994404 4.16437 1.03012 4.11328 1.0747 4.07057C1.11927 4.02785 1.17183 3.99433 1.22936 3.97193C1.28689 3.94953 1.34827 3.93868 1.41 3.94001C1.41 3.94001 8.01 4.26001 10.21 4.26001C11.04 4.26001 12.5 4.26001 14 4.16001V3.28001C12.49 3.34001 11.06 3.38001 10.21 3.38001C7.79 3.38001 0.530001 3.01001 0.530001 3.01001C0.389436 3.01001 0.254628 3.06585 0.155233 3.16524C0.0558391 3.26464 7.95077e-09 3.39944 7.95077e-09 3.54001V16.36C-2.4257e-05 16.5015 0.0554928 16.6374 0.15461 16.7384C0.253727 16.8393 0.388524 16.8974 0.530001 16.9C0.530001 16.9 7.73 16.58 10.16 16.58C12.59 16.58 19.89 16.9 19.89 16.9C20.0332 16.9 20.1706 16.8431 20.2718 16.7418C20.3731 16.6406 20.43 16.5032 20.43 16.36V9.01001H19.5Z" fill="#787F88"/>
<path d="M21.0099 2.49001C19.9488 1.25477 18.5242 0.386726 16.9399 0.0100098H16.7699L16.6099 0.0800099C16.568 0.118635 16.5311 0.1623 16.4999 0.21001C16.4896 0.266205 16.4896 0.323814 16.4999 0.38001C16.492 0.476832 16.5206 0.573114 16.5799 0.65001C16.6373 0.731335 16.7228 0.788381 16.8199 0.81001C18.2151 1.14829 19.4679 1.91817 20.3999 3.01001C21.3472 4.11143 21.9244 5.4827 22.0499 6.93001C22.0589 7.02778 22.1018 7.11932 22.1712 7.18874C22.2406 7.25816 22.3322 7.30107 22.4299 7.31001H22.5599C22.6163 7.29208 22.6676 7.26127 22.7099 7.22001C22.7717 7.16495 22.8139 7.09121 22.8299 7.01001C22.8395 6.9571 22.8395 6.90292 22.8299 6.85001C22.6958 5.2417 22.0591 3.71636 21.0099 2.49001Z" fill="#787F88"/>
<path d="M18.2399 4.88001C17.823 4.3918 17.2948 4.01108 16.6999 3.77001C16.6479 3.74112 16.5894 3.72595 16.5299 3.72595C16.4704 3.72595 16.4119 3.74112 16.3599 3.77001C16.3065 3.8051 16.2623 3.85247 16.231 3.90814C16.1997 3.96381 16.1821 4.02618 16.1799 4.09001C16.1733 4.17851 16.1949 4.26682 16.2416 4.34227C16.2883 4.41773 16.3577 4.47645 16.4399 4.51001C16.8991 4.71209 17.3036 5.02059 17.6199 5.41001C17.9529 5.78333 18.1958 6.22807 18.3299 6.71001C18.3474 6.79677 18.3933 6.87526 18.4603 6.93316C18.5272 6.99107 18.6115 7.02513 18.6999 7.03001H18.7499C18.8069 7.02881 18.863 7.01574 18.9146 6.99164C18.9663 6.96753 19.0123 6.93292 19.0499 6.89001C19.0893 6.84583 19.1173 6.7926 19.1312 6.73504C19.1452 6.67747 19.1447 6.61735 19.1299 6.56001C18.9649 5.9396 18.6605 5.36502 18.2399 4.88001Z" fill="#787F88"/>
<path d="M16.4999 5.47995C16.4565 5.45798 16.4086 5.44653 16.3599 5.44653C16.3113 5.44653 16.2633 5.45798 16.2199 5.47995C16.1694 5.51239 16.1275 5.55666 16.0978 5.60893C16.0682 5.6612 16.0518 5.7199 16.0499 5.77995V6.37995C16.039 6.48792 16.0714 6.5958 16.1399 6.67995C16.2117 6.76095 16.312 6.81111 16.4199 6.81995H17.0299C17.0798 6.83546 17.1325 6.83991 17.1843 6.833C17.2361 6.8261 17.2858 6.80799 17.3299 6.77995C17.3645 6.74293 17.3897 6.69825 17.4036 6.64957C17.4175 6.6009 17.4197 6.54962 17.4099 6.49995C17.3707 6.26606 17.2668 6.04782 17.1099 5.86995C16.9476 5.68481 16.7361 5.54956 16.4999 5.47995Z" fill="#787F88"/>
<path d="M16.8102 1.87005C16.7541 1.85972 16.6964 1.85972 16.6402 1.87005L16.4802 1.94005C16.4328 1.97302 16.3949 2.01784 16.3702 2.07005C16.3571 2.12595 16.3571 2.18416 16.3702 2.24005C16.3637 2.33526 16.3882 2.43003 16.4402 2.51005C16.4984 2.58601 16.5788 2.64194 16.6702 2.67005C17.5811 2.94994 18.3929 3.48424 19.0102 4.21005C19.6479 4.94361 20.058 5.84712 20.1902 6.81005C20.2067 6.90284 20.2525 6.9879 20.3209 7.05271C20.3893 7.11752 20.4767 7.15865 20.5702 7.17005H20.7002C20.779 7.13824 20.8455 7.0822 20.8902 7.01006C20.9293 6.96986 20.9599 6.92226 20.9802 6.87005C20.9951 6.81097 20.9951 6.74914 20.9802 6.69005C20.8184 5.57812 20.3393 4.53647 19.6002 3.69005C18.8659 2.82627 17.8967 2.19405 16.8102 1.87005Z" fill="#787F88"/>
</svg>
