<svg width="23" height="22" viewBox="0 0 23 22" fill="none" xmlns="http://www.w3.org/2000/svg">
<path d="M22.9651 6.2392C23.1255 4.75005 22.7227 3.28474 21.8312 2.11307C20.9397 0.941406 19.6665 0.204099 18.2458 0.0360538C15.3122 -0.310504 12.6582 1.90839 12.3275 4.98206L11.8227 9.67454C11.8227 9.67803 11.8221 9.68151 11.8216 9.685L11.6002 11.7411C11.5536 12.1754 11.7611 12.5865 12.1295 12.7895C12.2476 12.8546 12.3736 12.893 12.5001 12.9064L12.0651 16.9482C11.9353 18.1536 12.2615 19.3403 12.9833 20.2887C13.705 21.2371 14.7358 21.8349 15.8863 21.9703C16.0517 21.9901 16.2164 21.9994 16.3801 21.9994C17.357 21.9994 18.2985 21.6558 19.0735 21.008C19.9783 20.2515 20.5486 19.1711 20.6779 17.9652L21.1128 13.9234C21.1538 13.9286 21.196 13.9315 21.2382 13.9315C21.3247 13.9315 21.4124 13.9199 21.4995 13.8954C21.9017 13.7838 22.1913 13.4314 22.2379 12.9971L22.4592 10.9398C22.4592 10.9398 22.4592 10.9352 22.4598 10.9328L22.9646 6.23745L22.9651 6.2392ZM18.1343 1.07631C19.2898 1.21295 20.3256 1.81303 21.0507 2.76607C21.7757 3.7191 22.103 4.91112 21.9727 6.12232L21.5799 9.77571C20.416 8.78023 18.9631 8.14468 17.3936 7.95977C15.8248 7.77429 14.2731 8.05455 12.9272 8.75348L13.32 5.10009C13.5891 2.59976 15.7477 0.794875 18.1343 1.07689V1.07631ZM15.9984 20.9313C14.171 20.7155 12.8518 18.9816 13.0582 17.0662L13.5602 12.3976C14.5838 11.5882 15.8015 11.2242 17.0269 11.3689C18.2524 11.5137 19.362 12.1528 20.188 13.1808L19.6859 17.8495C19.4801 19.7648 17.8258 21.1476 15.9984 20.9313ZM21.2454 12.8848C21.2426 12.886 21.2376 12.8872 21.2376 12.8866C21.2371 12.8866 21.2348 12.8843 21.2315 12.8796C20.2202 11.4271 18.7667 10.5212 17.139 10.3287C16.9243 10.3031 16.7102 10.2909 16.4971 10.2909C15.0925 10.2909 13.7311 10.8363 12.6077 11.8609C12.6038 11.8644 12.601 11.8661 12.6016 11.8661C12.5988 11.8644 12.596 11.8649 12.5933 11.8632C12.5933 11.862 12.5933 11.8609 12.5933 11.8597L12.7897 10.0339C14.085 9.1768 15.6711 8.80989 17.2821 9.00061C18.8937 9.19075 20.3616 9.91875 21.4423 11.0567L21.2459 12.8825C21.2459 12.8825 21.2459 12.8848 21.2459 12.886L21.2454 12.8848Z" fill="#787F88"/>
<path d="M11.177 9.685C11.177 9.685 11.1765 9.67919 11.1759 9.67628L10.6711 4.98264C10.5108 3.49349 9.80731 2.15901 8.68946 1.22458C7.57161 0.290156 6.1736 -0.131993 4.75341 0.0360526C1.82036 0.38261 -0.296621 3.16554 0.0340192 6.2392L0.538855 10.9328C0.538855 10.9357 0.53941 10.9387 0.539965 10.9416L0.761316 12.9982C0.807916 13.432 1.09806 13.785 1.49971 13.8966C1.58681 13.921 1.67446 13.9327 1.761 13.9327C1.80316 13.9327 1.84477 13.9297 1.88638 13.9245L2.32132 17.9663C2.45113 19.1717 3.02087 20.2527 3.9257 21.0092C4.7007 21.6569 5.64214 22.0006 6.61908 22.0006C6.78273 22.0006 6.94806 21.9907 7.11282 21.9715C8.26285 21.8354 9.29416 21.2383 10.0159 20.2899C10.7377 19.3415 11.0633 18.1547 10.934 16.9493L10.4991 12.9075C10.6256 12.8941 10.7515 12.8558 10.8697 12.7906C11.2381 12.5877 11.4455 12.1766 11.3989 11.7423L11.1776 9.68558L11.177 9.685ZM1.94851 2.76548C2.67359 1.81245 3.70934 1.21237 4.86491 1.07572C6.02049 0.939079 7.15776 1.28273 8.06702 2.04213C8.97628 2.80212 9.54879 3.88772 9.67916 5.09893L10.0719 8.75232C8.72608 8.05339 7.1744 7.77312 5.60497 7.95861C4.03609 8.1441 2.58261 8.77965 1.41927 9.77455L1.02649 6.12116C0.896124 4.90995 1.22399 3.71793 1.94851 2.7649V2.76548ZM1.76267 12.8854C1.76267 12.8854 1.75656 12.8854 1.75379 12.8843C1.75379 12.8831 1.75379 12.8819 1.75379 12.8808L1.5574 11.0549C2.63809 9.91701 4.10599 9.18959 5.71759 8.99886C7.32918 8.80872 8.9147 9.17505 10.2101 10.0327L10.4065 11.8585C10.4065 11.8585 10.4065 11.8609 10.4065 11.862C10.4037 11.8638 10.4004 11.8655 10.3992 11.8655C10.3987 11.8655 10.3959 11.8638 10.3915 11.8597C9.09721 10.6793 7.48784 10.1356 5.85961 10.3281C4.23193 10.5206 2.77844 11.4265 1.7671 12.879C1.76378 12.8837 1.76156 12.8854 1.76211 12.8854H1.76267ZM9.23424 19.6363C8.67892 20.3661 7.88561 20.826 7.0002 20.9307C6.1148 21.0353 5.24382 20.7725 4.54759 20.1905C3.8508 19.6084 3.41254 18.7769 3.31268 17.8489L2.81062 13.1802C3.63666 12.1522 4.74619 11.5132 5.97167 11.3684C7.19714 11.2236 8.41485 11.5876 9.4384 12.397L9.94046 17.0656C10.0403 17.9937 9.78956 18.9066 9.23424 19.6363Z" fill="#787F88"/>
</svg>
