<svg width="27" height="20" viewBox="0 0 27 20" fill="none" xmlns="http://www.w3.org/2000/svg">
<path d="M26.0046 17.452H20.2522C20.2951 17.4046 20.3374 17.3565 20.3764 17.3053L20.6967 16.8889C20.8453 16.6961 20.878 16.4451 20.7902 16.2215C21.1085 16.0057 21.3616 15.6944 21.5089 15.3152C21.5659 15.1679 21.5262 15.0078 21.4211 14.9033C21.4467 14.9021 21.4717 14.8989 21.4961 14.8931C21.5249 14.9001 21.555 14.904 21.5864 14.904H22.6868C24.9318 14.904 26.7585 13.0772 26.7585 10.8323C26.7585 8.58726 24.9318 6.76052 22.6868 6.76052C22.4748 6.76052 22.3025 6.93281 22.3025 7.14482C22.3025 7.35683 22.4748 7.52913 22.6868 7.52913C24.5084 7.52913 25.9899 9.01128 25.9899 10.8323C25.9899 12.6532 24.5077 14.1354 22.6868 14.1354H21.7901V7.14418C21.7901 6.37749 21.4198 5.69599 20.8485 5.26876C20.8543 5.2425 20.8575 5.2156 20.8575 5.18742C20.8575 4.22088 20.1113 3.42601 19.1646 3.34723C18.9859 2.36212 18.1231 1.61272 17.0874 1.61272H15.9864V1.25595C15.9864 0.562919 15.4227 -0.000732422 14.7297 -0.000732422H13.7869C13.0938 -0.000732422 12.5302 0.562919 12.5302 1.25595V1.61272H11.4291C10.3934 1.61272 9.53065 2.36212 9.35194 3.34723C8.40527 3.42601 7.65907 4.22088 7.65907 5.18742C7.65907 5.2156 7.66227 5.2425 7.66804 5.26876C7.0967 5.69599 6.72648 6.37749 6.72648 7.14418C6.72648 7.35619 6.89878 7.52849 7.11079 7.52849H21.0214V14.5197C21.0214 14.626 21.065 14.7227 21.1348 14.7925C20.9869 14.7989 20.8491 14.8905 20.7921 15.0372C20.6154 15.492 20.1862 15.786 19.6981 15.786H14.8981C14.6861 15.786 14.5138 15.9583 14.5138 16.1703C14.5138 16.3823 14.6861 16.5546 14.8981 16.5546H19.9845L19.768 16.8364C19.4714 17.222 19.0045 17.452 18.5183 17.452H13.3379C13.6543 17.0977 13.8631 16.643 13.9124 16.1344L14.3851 11.2403C14.3953 11.1327 14.3601 11.025 14.2871 10.945C14.2141 10.8649 14.111 10.8188 14.0027 10.8188H8.82096C8.60895 10.8188 8.43665 10.9911 8.43665 11.2031C8.43665 11.4151 8.60895 11.5874 8.82096 11.5874H13.5793L13.4916 12.4944H8.82032C8.60831 12.4944 8.43601 12.6667 8.43601 12.8787C8.43601 13.0907 8.60831 13.263 8.82032 13.263H13.4173L13.147 16.0601C13.0701 16.8531 12.4117 17.4513 11.6149 17.4513H9.49734C8.70054 17.4513 8.0421 16.8531 7.96523 16.0601C7.94474 15.8487 7.75707 15.6944 7.5457 15.7142C7.33433 15.7347 7.17997 15.9224 7.19982 16.1338C7.24914 16.6423 7.45795 17.0971 7.77372 17.4513H6.61119C6.9276 17.0971 7.13641 16.6423 7.18573 16.1338L7.65843 11.2396C7.66868 11.132 7.63345 11.0244 7.56043 10.9443C7.48741 10.8643 7.38429 10.8182 7.27604 10.8182H0.384129C0.275883 10.8182 0.17276 10.8636 0.0997416 10.9443C0.0267232 11.025 -0.00850495 11.132 0.00174325 11.2396L0.474441 16.1338C0.523761 16.6423 0.732568 17.0971 1.04834 17.4513H0.776123C0.555786 17.4513 0.355947 17.573 0.255386 17.7696C0.154826 17.9656 0.17212 18.1994 0.301503 18.3781L0.663393 18.8809C1.16748 19.581 1.98349 19.9993 2.84626 19.9993H23.9338C24.7966 19.9993 25.6126 19.581 26.1167 18.8809L26.4786 18.3781C26.6073 18.1994 26.6253 17.9656 26.5247 17.7696C26.4242 17.573 26.2243 17.4513 26.004 17.4513L26.0046 17.452ZM9.06628 5.57237H19.4477C20.1824 5.57237 20.8005 6.07837 20.9728 6.76052H7.54121C7.71287 6.07837 8.33161 5.57237 9.06628 5.57237ZM13.2975 1.25659C13.2975 0.987578 13.5166 0.768523 13.7856 0.768523H14.7284C14.9974 0.768523 15.2165 0.987578 15.2165 1.25659V1.61336H13.2969V1.25659H13.2975ZM11.4278 2.38197H17.0868C17.694 2.38197 18.2077 2.78678 18.3736 3.34082H10.1411C10.3069 2.78678 10.8213 2.38197 11.4278 2.38197ZM8.4975 4.80375C8.6525 4.39831 9.04578 4.10944 9.50567 4.10944H19.0089C19.4682 4.10944 19.8621 4.39831 20.0171 4.80375H8.4975ZM6.85266 11.5881L6.76491 12.495H0.894618L0.806867 11.5881H6.85202H6.85266ZM1.23921 16.0608L0.968917 13.2636H6.69061L6.42032 16.0608C6.34346 16.8537 5.68501 17.452 4.88821 17.452H2.77068C1.97388 17.452 1.31543 16.8537 1.23857 16.0608H1.23921ZM25.4935 18.4326C25.1335 18.9328 24.5507 19.2313 23.9338 19.2313H2.84626C2.23009 19.2313 1.64722 18.9328 1.28661 18.4326L1.13417 18.2212H25.6453L25.4929 18.4326H25.4935Z" fill="#787F88"/>
<path d="M2.21524 6.55121C2.37473 6.55121 2.50412 6.6806 2.50412 6.84008C2.50412 6.84841 2.50412 6.85738 2.50476 6.8657L2.69499 9.72687C2.70844 9.92992 2.87753 10.0856 3.07801 10.0856C3.08634 10.0856 3.09531 10.0856 3.10364 10.0849C3.31564 10.0708 3.47577 9.88764 3.46168 9.67627L3.27273 6.82599C3.26504 6.24953 2.79363 5.7826 2.21524 5.7826C2.06985 5.7826 1.93662 5.71598 1.84951 5.59941C1.7624 5.48348 1.73614 5.3368 1.77649 5.19717L1.85143 4.94225C1.9885 4.47467 2.42469 4.14801 2.91148 4.14801H3.89083C4.41797 4.14801 4.87785 4.52271 4.98354 5.03896L5.24103 6.29309C5.43574 7.2404 5.94239 8.11406 6.66873 8.75329L6.77825 8.84937C6.93774 8.98964 7.1805 8.97427 7.32077 8.81478C7.46104 8.6553 7.44567 8.41254 7.28618 8.27227L7.17665 8.17619C6.57521 7.64713 6.15504 6.92335 5.99427 6.13872L5.73678 4.8846C5.55744 4.01222 4.78114 3.37939 3.89083 3.37939H2.91148C2.08522 3.37939 1.34607 3.9328 1.11356 4.72575L1.03862 4.98068C0.929096 5.35474 1.00019 5.74801 1.23334 6.05994C1.46713 6.37187 1.82453 6.55057 2.21396 6.55057L2.21524 6.55121Z" fill="#787F88"/>
<path d="M22.6851 12.5348C22.4731 12.5348 22.3008 12.7071 22.3008 12.9192C22.3008 13.1312 22.4731 13.3035 22.6851 13.3035C24.0475 13.3035 25.1555 12.1954 25.1555 10.833C25.1555 9.47064 24.0475 8.36255 22.6851 8.36255C22.4731 8.36255 22.3008 8.53485 22.3008 8.74686C22.3008 8.95887 22.4731 9.13116 22.6851 9.13116C23.6234 9.13116 24.3869 9.89465 24.3869 10.833C24.3869 11.7714 23.6234 12.5348 22.6851 12.5348Z" fill="#787F88"/>
</svg>
