<svg width="22" height="23" viewBox="0 0 22 23" fill="none" xmlns="http://www.w3.org/2000/svg">
<path d="M21.4004 18.0304H19.8293C19.1498 18.0304 18.5968 18.5833 18.5968 19.2629V20.5435C18.5968 20.7195 18.4537 20.8626 18.2777 20.8626H16.9977V19.8201C16.9977 19.8122 16.9971 19.8042 16.9965 19.7957C16.9965 19.7896 16.9965 19.7835 16.9959 19.7774V19.7732L16.6671 16.2498C19.741 15.6287 22.0082 12.8939 22.0082 9.71517C22.0082 6.03895 19.0176 3.0484 15.3414 3.0484C15.3365 3.0484 15.3316 3.0484 15.3274 3.0484C14.9663 1.3068 12.5621 0 9.5582 0C6.55425 0 4.15012 1.3062 3.78962 3.04901H0.456846C0.311916 3.04901 0.175512 3.11782 0.0890408 3.23474C0.00317898 3.35165 -0.0223969 3.50206 0.0202295 3.64091C0.0366712 3.69327 0.425181 4.94406 1.01708 6.24721C1.73503 7.82804 2.42497 8.77374 3.11491 9.11718L2.12049 19.7738V19.7781C2.11928 19.7841 2.11989 19.7902 2.11928 19.7963C2.11928 19.8042 2.11806 19.8122 2.11806 19.8207V22.5433C2.11806 22.7954 2.32267 23 2.57477 23H16.541C16.7931 23 16.9977 22.7954 16.9977 22.5433V21.7766H18.2777C18.9573 21.7766 19.5103 21.2237 19.5103 20.5441V19.2635C19.5103 19.0875 19.6534 18.9444 19.8293 18.9444H21.4004C21.6525 18.9444 21.8571 18.7398 21.8571 18.4877C21.8571 18.2356 21.6525 18.031 21.4004 18.031V18.0304ZM15.7884 6.8391C17.1816 7.05467 18.2516 8.26283 18.2516 9.71578C18.2516 10.972 17.4605 12.0578 16.3127 12.4609L15.7884 6.83971V6.8391ZM21.0941 9.71578C21.0941 12.4262 19.1845 14.7615 16.5812 15.3339L16.3997 13.3908C18.025 12.9268 19.1656 11.444 19.1656 9.71578C19.1656 7.72878 17.642 6.09132 15.7019 5.90924L15.5204 3.96608C18.6102 4.06108 21.0947 6.60405 21.0947 9.71639L21.0941 9.71578ZM9.5582 0.913423C11.9215 0.913423 13.9572 1.85242 14.3792 3.04901H4.73715C5.15915 1.85303 7.19487 0.913423 9.5582 0.913423ZM1.85256 5.87636C1.52616 5.15841 1.26005 4.4435 1.09137 3.96243H3.59659L3.21295 8.07284C2.89508 7.77384 2.4341 7.15515 1.85256 5.87697V5.87636ZM4.51366 3.96243H14.6027L16.0398 19.364H3.07654L4.51366 3.96243ZM16.0849 22.0866H3.03148V20.2774H16.0843V22.0866H16.0849Z" fill="#787F88"/>
<path d="M9.59479 5.76126C8.52791 5.76126 7.66016 6.62901 7.66016 7.69589V15.5184C7.66016 16.5853 8.52791 17.4531 9.59479 17.4531C10.6617 17.4531 11.5294 16.5853 11.5294 15.5184V7.69589C11.5294 6.62901 10.6617 5.76126 9.59479 5.76126ZM9.59479 6.67468C10.1581 6.67468 10.616 7.13261 10.616 7.69589V11.1505H8.57358V7.69589C8.57358 7.13261 9.03151 6.67468 9.59479 6.67468ZM9.59479 16.5397C9.03151 16.5397 8.57358 16.0817 8.57358 15.5184V12.0639H10.616V15.5184C10.616 16.0817 10.1581 16.5397 9.59479 16.5397Z" fill="#787F88"/>
</svg>
