<svg width="22" height="20" viewBox="0 0 22 20" fill="none" xmlns="http://www.w3.org/2000/svg">
<g clip-path="url(#clip0_1006_255)">
<path d="M21.4302 0C21.4302 0 13.6102 0.4 11.0002 0.4C8.39024 0.4 0.570244 0 0.570244 0C0.419874 0.002571 0.276381 0.0634498 0.170038 0.169793C0.0636943 0.276137 0.00281551 0.41963 0.000244519 0.57V14.38C-0.00670816 14.4589 0.00287931 14.5385 0.0283947 14.6135C0.05391 14.6885 0.0947925 14.7574 0.148431 14.8158C0.20207 14.8741 0.267287 14.9206 0.339916 14.9524C0.412545 14.9841 0.490991 15.0003 0.570244 15C0.570244 15 8.33024 14.66 10.9502 14.66C13.5702 14.66 21.4302 15 21.4302 15C21.5814 15 21.7264 14.9399 21.8333 14.8331C21.9402 14.7262 22.0002 14.5812 22.0002 14.43V0.57C21.9977 0.41963 21.9368 0.276137 21.8305 0.169793C21.7241 0.0634498 21.5806 0.002571 21.4302 0ZM21.0002 13.5C20.9989 13.567 20.9845 13.633 20.9576 13.6944C20.9308 13.7558 20.8921 13.8113 20.8438 13.8577C20.7955 13.9042 20.7386 13.9406 20.6762 13.965C20.6138 13.9894 20.5472 14.0013 20.4802 14C20.4802 14 13.3302 13.7 10.9502 13.7C8.57024 13.7 1.52024 14 1.52024 14C1.45327 14.0013 1.38668 13.9894 1.3243 13.965C1.26192 13.9406 1.20495 13.9042 1.15666 13.8577C1.10837 13.8113 1.06971 13.7558 1.04287 13.6944C1.01603 13.633 1.00154 13.567 1.00024 13.5V1.5C1.00154 1.43302 1.01603 1.36696 1.04287 1.30558C1.06971 1.2442 1.10837 1.18871 1.15666 1.14228C1.20495 1.09584 1.26192 1.05938 1.3243 1.03497C1.38668 1.01056 1.45327 0.998674 1.52024 1C1.52024 1 8.63024 1.35 11.0002 1.35C13.3702 1.35 20.4802 1 20.4802 1C20.5472 0.998674 20.6138 1.01056 20.6762 1.03497C20.7386 1.05938 20.7955 1.09584 20.8438 1.14228C20.8921 1.18871 20.9308 1.2442 20.9576 1.30558C20.9845 1.36696 20.9989 1.43302 21.0002 1.5V13.5Z" fill="#787F88"/>
<path d="M13.1697 15.57H8.71973V18H13.1697V15.57Z" fill="#787F88"/>
<path d="M10.0801 16.38L4.14011 18C3.99365 18.0555 3.87312 18.1636 3.80203 18.3032C3.73094 18.4427 3.71439 18.6038 3.7556 18.7549C3.79681 18.906 3.89283 19.0363 4.02493 19.1205C4.15704 19.2046 4.31575 19.2365 4.47011 19.21L10.4101 17.58C10.5701 17.5356 10.7061 17.4297 10.7885 17.2855C10.8709 17.1413 10.8931 16.9704 10.8501 16.81C10.8282 16.731 10.7908 16.657 10.7402 16.5925C10.6895 16.528 10.6265 16.4742 10.5549 16.4342C10.4833 16.3942 10.4044 16.3688 10.3229 16.3595C10.2414 16.3502 10.1589 16.3572 10.0801 16.38Z" fill="#787F88"/>
<path d="M11.5904 17.59L17.5304 19.22C17.6908 19.263 17.8617 19.2408 18.0059 19.1584C18.1501 19.076 18.2559 18.94 18.3004 18.78C18.323 18.7005 18.3296 18.6174 18.3196 18.5353C18.3097 18.4533 18.2834 18.3741 18.2424 18.3024C18.2014 18.2306 18.1465 18.1678 18.0809 18.1176C18.0153 18.0674 17.9403 18.0308 17.8604 18.01L11.9204 16.38C11.8409 16.3573 11.7577 16.3508 11.6757 16.3607C11.5937 16.3707 11.5145 16.3969 11.4427 16.4379C11.371 16.4789 11.3082 16.5338 11.258 16.5994C11.2078 16.6651 11.1712 16.74 11.1504 16.82C11.1074 16.9804 11.1295 17.1513 11.2119 17.2955C11.2943 17.4397 11.4303 17.5456 11.5904 17.59Z" fill="#787F88"/>
</g>
<defs>
<clipPath id="clip0_1006_255">
<rect width="22" height="19.24" fill="white"/>
</clipPath>
</defs>
</svg>
