<svg width="12" height="27" viewBox="0 0 12 27" fill="none" xmlns="http://www.w3.org/2000/svg">
<path d="M11.2475 13.2723V8.00616C11.2475 6.87848 10.7728 5.79262 9.94522 5.02724C9.3691 4.49451 8.86616 3.88754 8.4474 3.22411C9.09044 2.99512 9.5526 2.38083 9.5526 1.65989C9.5526 0.744467 8.80813 0 7.89271 0H3.35481C2.43938 0 1.69492 0.744467 1.69492 1.65989C1.69492 2.38083 2.15655 2.99512 2.80012 3.22411C2.38188 3.88754 1.87842 4.49451 1.30229 5.02724C0.474702 5.79262 0 6.87848 0 8.00616V13.2723C0 14.0936 0.370142 14.8303 0.952018 15.3243C0.378507 15.7049 0 16.3558 0 17.094C0 17.7433 0.293291 18.3252 0.7544 18.7147C0.293814 19.1042 0 19.686 0 20.3353C0 20.9313 0.247284 21.4703 0.644089 21.8562C0.251467 22.1761 0 22.6634 0 23.2081V24.4027C0 25.8347 1.16532 27 2.59727 27H8.65025C10.0822 27 11.2475 25.8347 11.2475 24.4027V23.2081C11.2475 22.6634 10.996 22.1761 10.6034 21.8562C11.0002 21.4703 11.2475 20.9313 11.2475 20.3353C11.2475 19.686 10.9542 19.1042 10.4931 18.7147C10.9537 18.3252 11.2475 17.7433 11.2475 17.094C11.2475 16.3558 10.8685 15.7049 10.2955 15.3243C10.8774 14.8303 11.2475 14.0936 11.2475 13.2723ZM3.35481 0.99332H7.89271C8.26024 0.99332 8.55928 1.29236 8.55928 1.65989C8.55928 2.02742 8.26024 2.32646 7.89271 2.32646H3.35481C2.98728 2.32646 2.68824 2.02742 2.68824 1.65989C2.68824 1.29236 2.98728 0.99332 3.35481 0.99332ZM0.99332 8.00616C0.99332 7.15452 1.35196 6.33477 1.97671 5.75655C2.63909 5.14383 3.21522 4.44432 3.6894 3.67737L3.91054 3.31978H7.3375L7.55864 3.67737C8.03282 4.44484 8.60894 5.14435 9.27133 5.75655C9.8966 6.33477 10.2547 7.15504 10.2547 8.00616V13.2723C10.2547 14.2092 9.49248 14.9714 8.55562 14.9714H2.69242C1.75556 14.9714 0.99332 14.2092 0.99332 13.2723V8.00616ZM9.50398 22.4574C9.91751 22.4574 10.2542 22.7941 10.2542 23.2076V24.4022C10.2542 25.2868 9.53482 26.0062 8.65025 26.0062H2.59727C1.71269 26.0062 0.99332 25.2868 0.99332 24.4022V23.2076C0.99332 22.7941 1.33 22.4574 1.74354 22.4574H9.5045H9.50398ZM9.12495 15.9647C9.7476 15.9647 10.2542 16.4713 10.2542 17.094C10.2542 17.6759 9.81139 18.1563 9.24519 18.2164C9.20546 18.2143 9.1652 18.2128 9.12495 18.2128H5.62219C5.34772 18.2128 5.12553 18.435 5.12553 18.7094C5.12553 18.711 5.12553 18.7126 5.12553 18.7147C5.12553 18.7162 5.12553 18.7178 5.12553 18.7199C5.12553 18.9944 5.34772 19.2166 5.62219 19.2166H9.12495C9.1652 19.2166 9.20546 19.215 9.24519 19.2129C9.81139 19.273 10.2542 19.7535 10.2542 20.3353C10.2542 20.958 9.7476 21.4646 9.12495 21.4646H2.12257C1.49991 21.4646 0.99332 20.958 0.99332 20.3353C0.99332 19.7535 1.43613 19.273 2.00232 19.2129C2.04206 19.215 2.08231 19.2166 2.12257 19.2166C2.39704 19.2166 2.61923 18.9944 2.61923 18.7199C2.61923 18.7183 2.61923 18.7168 2.61923 18.7147C2.61923 18.7131 2.61923 18.7115 2.61923 18.7094C2.61923 18.435 2.39704 18.2128 2.12257 18.2128C2.08231 18.2128 2.04206 18.2143 2.00232 18.2164C1.43613 18.1563 0.99332 17.6759 0.99332 17.094C0.99332 16.4713 1.49991 15.9647 2.12257 15.9647H9.12547H9.12495Z" fill="#787F88"/>
<path d="M5.62487 12.5007C6.32334 12.5007 6.98311 12.1839 7.38932 11.6532C7.7579 11.1717 7.87448 10.5846 7.7166 10.0007C7.53885 9.34192 6.86025 8.07466 6.32281 7.12787C6.18845 6.89156 5.9464 6.74831 5.67506 6.74465C5.40478 6.73995 5.15749 6.87745 5.01686 7.11009C4.44439 8.05688 3.72241 9.32624 3.5342 9.99542C3.37108 10.5747 3.48244 11.1592 3.84735 11.6417C4.25462 12.1797 4.91909 12.5007 5.62435 12.5007H5.62487ZM4.48988 10.2647C4.5981 9.87989 5.02888 9.03713 5.65781 7.97271C6.2491 9.03713 6.65427 9.87779 6.75726 10.2594C6.85398 10.617 6.72537 10.8863 6.60042 11.0494C6.38084 11.3359 6.01593 11.5074 5.62435 11.5074C5.23277 11.5074 4.85636 11.3291 4.63887 11.0421C4.51654 10.8805 4.39107 10.6144 4.48988 10.2647Z" fill="#787F88"/>
</svg>
