<svg width="22" height="16" viewBox="0 0 22 16" fill="none" xmlns="http://www.w3.org/2000/svg">
<path d="M21.7851 4.54965C21.8586 4.47832 21.9157 4.39192 21.9525 4.29641C21.9894 4.20089 22.0051 4.09852 21.9986 3.99635C21.992 3.89418 21.9634 3.79463 21.9147 3.70458C21.8661 3.61452 21.7984 3.53609 21.7165 3.47468C18.6026 1.21074 14.8503 -0.00593907 11.0004 2.17987e-05C6.99703 2.17987e-05 3.29307 1.28823 0.284323 3.47468C0.202305 3.53597 0.13455 3.61432 0.0857245 3.70432C0.0368994 3.79432 0.00816522 3.89383 0.00150174 3.99601C-0.00516174 4.09818 0.0104038 4.20058 0.047126 4.29616C0.0838482 4.39174 0.140854 4.47822 0.214216 4.54965C0.341862 4.67537 0.509983 4.75172 0.688649 4.76509C0.867314 4.77847 1.04493 4.728 1.18987 4.62268C4.04546 2.56182 7.47883 1.45518 11.0004 1.46058C14.662 1.46058 18.0505 2.63194 20.8095 4.62122C21.1089 4.83738 21.5252 4.81109 21.7851 4.54965Z" fill="#787F88"/>
<path d="M18.6369 7.69853C18.7121 7.62592 18.7703 7.53745 18.807 7.43956C18.8438 7.34166 18.8583 7.2368 18.8495 7.1326C18.8407 7.02839 18.8088 6.92746 18.7561 6.83714C18.7034 6.74681 18.6312 6.66936 18.5448 6.61042C16.2991 5.1516 13.6776 4.37723 10.9996 4.38161C8.21727 4.38161 5.62478 5.19952 3.4544 6.61042C3.36757 6.66901 3.29498 6.74632 3.24195 6.83666C3.18893 6.927 3.15683 7.02808 3.148 7.13245C3.13917 7.23683 3.15385 7.34186 3.19095 7.43982C3.22805 7.53778 3.28663 7.62618 3.36238 7.69853C3.48683 7.81999 3.64886 7.89554 3.82189 7.91279C3.99493 7.93004 4.16869 7.88797 4.31466 7.79347C6.30982 6.51557 8.63031 5.83823 10.9996 5.84216C13.3684 5.83851 15.6884 6.51583 17.6831 7.79347C17.984 7.98626 18.3842 7.95121 18.6369 7.69853ZM15.4485 10.8869C15.7786 10.5568 15.7187 10.0033 15.3024 9.79151C13.9697 9.11329 12.495 8.7609 10.9996 8.76327C9.45143 8.76327 7.98796 9.13426 6.69683 9.79151C6.28057 10.0033 6.22069 10.5568 6.55077 10.8869L6.57268 10.9088C6.80637 11.1425 7.16713 11.1863 7.46508 11.0403C8.56521 10.5011 9.77447 10.2218 10.9996 10.2238C12.2674 10.2238 13.468 10.5174 14.5342 11.0417C14.8307 11.1878 15.1914 11.144 15.4251 10.9088L15.4485 10.8869ZM12.5478 13.7876C12.8341 13.5013 12.837 13.0281 12.4894 12.8236C12.0388 12.5554 11.524 12.4141 10.9996 12.4147C10.4752 12.4141 9.96046 12.5554 9.50986 12.8236C9.16224 13.0281 9.16516 13.5013 9.45143 13.7876L10.4826 14.8187C10.6195 14.9556 10.8052 15.0325 10.9989 15.0325C11.1925 15.0325 11.3782 14.9556 11.5152 14.8187L12.5478 13.7876Z" fill="#787F88"/>
</svg>
