<svg width="24" height="22" viewBox="0 0 24 22" fill="none" xmlns="http://www.w3.org/2000/svg">
<path d="M23.0043 8.85047C23.2466 8.85047 23.4426 8.65449 23.4426 8.41217V6.7936C23.4426 6.55129 23.2466 6.35531 23.0043 6.35531H16.1537V5.21198C16.6628 5.02476 17.0272 4.537 17.0272 3.96408V1.33054C17.0272 0.59671 16.4305 0 15.6967 0H7.74596C7.01212 0 6.41541 0.59671 6.41541 1.33054V3.96408C6.41541 4.53449 6.77732 5.021 7.28324 5.2101V6.35593H0.438297C0.195981 6.35593 0 6.55191 0 6.79423V8.4128C0 8.65511 0.195981 8.85109 0.438297 8.85109H1.51651V11.6737C1.51651 11.6906 1.51776 11.7069 1.51964 11.7232V21.1234H0.438297C0.195981 21.1234 0 21.3194 0 21.5617C0 21.804 0.195981 22 0.438297 22H23.0043C23.2466 22 23.4426 21.804 23.4426 21.5617C23.4426 21.3194 23.2466 21.1234 23.0043 21.1234H21.923V11.6737C21.923 11.6568 21.9217 11.6405 21.9199 11.6243V8.85172H23.0043V8.85047ZM14.358 5.29463V6.35531H9.07775V5.29463H14.358ZM14.9841 6.35531V5.29463H15.527V6.35531H14.9841ZM7.29201 1.33054C7.29201 1.08009 7.4955 0.876594 7.74596 0.876594H15.6967C15.9471 0.876594 16.1506 1.08009 16.1506 1.33054V3.96408C16.1506 4.21454 15.9471 4.41803 15.6967 4.41803H7.74596C7.4955 4.41803 7.29201 4.21454 7.29201 3.96408V1.33054ZM7.90938 5.29463H8.45224V6.35531H7.90938V5.29463ZM0.876594 7.2319H22.566V7.97387H0.876594V7.2319ZM2.39623 21.1222V12.1108H3.11504V21.1222H2.39623ZM7.28324 12.1108V12.8671H5.65591C5.48309 12.8671 5.34284 13.0074 5.34284 13.1802V14.7988C5.34284 14.9716 5.48309 15.1119 5.65591 15.1119H6.52875V21.1228H3.99163V12.1114H7.28262L7.28324 12.1108ZM7.15488 21.1222V15.1112H7.69775V21.1222H7.15488ZM7.90938 12.1108H8.45224V12.8671H7.90938V12.1108ZM7.59631 13.4933H17.4743V14.4857H5.96898V13.4933H7.59631ZM14.9847 12.1108H15.5276V12.8671H14.9847V12.1108ZM8.32451 15.1112H15.1075V21.1222H8.32451V15.1112ZM15.7336 21.1222V15.1112H16.2765V21.1222H15.7336ZM16.9026 15.1112H17.788C17.9608 15.1112 18.101 14.971 18.101 14.7982V13.1796C18.101 13.0068 17.9608 12.8665 17.788 12.8665H16.1544V12.1101H19.4516V21.1215H16.9026V15.1106V15.1112ZM14.3586 12.8665H9.07838V12.1101H14.3586V12.8665ZM20.3276 21.1215V12.1101H21.0464V21.1215H20.3276ZM21.0439 11.2336H2.3931V8.84921H21.0439V11.2336Z" fill="#787F88"/>
</svg>
