<svg
                  width="58"
                  height="71"
                  viewBox="0 0 58 71"
                  fill="none"
                  xmlns="http://www.w3.org/2000/svg"
                >
                  <g clip-path="url(#clip0_1_28)">
                    <path
                      d="M45.6722 51.1849V52.0152L44.6583 53.6555C44.5396 53.8509 44.4765 54.075 44.4759 54.3036V55.3161C44.4713 55.5082 44.51 55.6989 44.5889 55.8741C44.6679 56.0493 44.7851 56.2047 44.9321 56.3287L45.4187 56.7033C45.2705 56.8268 45.1517 56.9818 45.071 57.157C44.9903 57.3321 44.9498 57.5231 44.9523 57.7159C44.9474 57.9061 44.9838 58.0951 45.0591 58.2699C45.1344 58.4447 45.2467 58.6011 45.3883 58.7284L44.9016 59.1435C44.7576 59.2694 44.6431 59.4254 44.566 59.6003C44.4889 59.7753 44.4512 59.965 44.4556 60.1561V67.9629L42.7828 69.6741C42.7828 69.6741 42.651 69.7956 42.4786 69.6133L40.8667 67.892V60.0548C40.8698 59.863 40.8305 59.6728 40.7517 59.4977C40.6728 59.3227 40.5563 59.1672 40.4105 59.0423L39.9137 58.6575C40.0533 58.5368 40.1652 58.3875 40.2419 58.2198C40.3186 58.0521 40.3583 57.8699 40.3583 57.6855C40.3583 57.5011 40.3186 57.3189 40.2419 57.1511C40.1652 56.9834 40.0533 56.8341 39.9137 56.7134L40.3902 56.3084C40.5337 56.1821 40.6479 56.0261 40.7249 55.8512C40.8019 55.6764 40.8399 55.4869 40.8363 55.2959V54.2833C40.8364 54.0469 40.7696 53.8152 40.6437 53.615L39.6298 52.0253V48.5118C39.1624 48.3334 38.7168 48.1024 38.3018 47.8232V52.0456C38.302 52.2851 38.3686 52.52 38.4944 52.724L39.5082 54.3137V55.3262L39.0114 55.7515C38.8632 55.875 38.7444 56.03 38.6637 56.2052C38.583 56.3803 38.5425 56.5713 38.5451 56.7641C38.5401 56.9543 38.5766 57.1433 38.6518 57.3181C38.7271 57.4929 38.8394 57.6493 38.981 57.7766C38.8394 57.9039 38.7271 58.0603 38.6518 58.2351C38.5766 58.4099 38.5401 58.5989 38.5451 58.7892C38.541 58.9822 38.5809 59.1736 38.6617 59.349C38.7425 59.5244 38.862 59.6792 39.0114 59.8017L39.5082 60.2067V68.0439C39.5104 68.3669 39.6333 68.6774 39.8529 68.9147L41.4851 70.6765L41.5459 70.7474C41.686 70.8934 41.8545 71.0091 42.041 71.0875C42.2276 71.1659 42.4283 71.2052 42.6307 71.203C42.8362 71.2056 43.04 71.1665 43.23 71.0882C43.4199 71.0099 43.592 70.8939 43.7358 70.7474L43.7966 70.6765L45.3984 68.9248C45.5142 68.8091 45.606 68.6717 45.6686 68.5206C45.7313 68.3694 45.7635 68.2074 45.7634 68.0439V60.2472L46.2804 59.8017C46.4168 59.6801 46.526 59.5311 46.6007 59.3645C46.6754 59.1979 46.7141 59.0173 46.7141 58.8347C46.7141 58.6521 46.6754 58.4716 46.6007 58.305C46.526 58.1383 46.4168 57.9893 46.2804 57.8677C46.4197 57.7391 46.5297 57.5822 46.6032 57.4075C46.6766 57.2329 46.7118 57.0445 46.7062 56.8552C46.7093 56.6633 46.6701 56.4731 46.5912 56.2981C46.5124 56.1231 46.3959 55.9676 46.25 55.8426L45.7634 55.4477V54.4352L46.7772 52.7949C46.8949 52.5953 46.9579 52.3683 46.9597 52.1367V47.8232C46.538 48.1 46.0897 48.3341 45.6215 48.5219L45.6722 51.1849Z"
                      fill="#ADB9C7"
                    />
                    <path
                      d="M43.3304 67.1831V49.7572C43.3304 49.5799 43.2599 49.4099 43.1344 49.2846C43.009 49.1593 42.8388 49.0889 42.6613 49.0889C42.4838 49.0889 42.3137 49.1593 42.1882 49.2846C42.0627 49.4099 41.9922 49.5799 41.9922 49.7572V67.1831C41.9922 67.3604 42.0627 67.5304 42.1882 67.6557C42.3137 67.781 42.4838 67.8514 42.6613 67.8514C42.8388 67.8514 43.009 67.781 43.1344 67.6557C43.2599 67.5304 43.3304 67.3604 43.3304 67.1831Z"
                      fill="#ADB9C7"
                    />
                    <path
                      d="M51.856 29.1712C51.491 29.4243 51.1159 29.6572 50.7205 29.88C50.8854 30.1686 51.0343 30.4661 51.1666 30.771C52.0545 32.8524 52.1464 35.1868 51.4251 37.3314C50.7037 39.4759 49.2192 41.2814 47.2533 42.4052C47.1354 42.4713 47.0404 42.5715 46.9807 42.6926C46.921 42.8137 46.8994 42.95 46.9187 43.0836C46.9292 43.188 46.9292 43.2932 46.9187 43.3975C46.9187 45.048 44.9925 46.4352 42.6303 46.4352C40.2682 46.4352 38.3318 45.0986 38.3318 43.3975C38.3213 43.2932 38.3213 43.188 38.3318 43.0836C38.3507 42.9512 38.33 42.8161 38.2723 42.6954C38.2145 42.5747 38.1224 42.4738 38.0074 42.4052C36.9186 41.7895 35.9663 40.9595 35.208 39.9655C34.4498 38.9714 33.9015 37.834 33.5963 36.6222C33.2911 35.4103 33.2353 34.1491 33.4323 32.9151C33.6294 31.6811 34.0752 30.4998 34.7427 29.4429C35.4102 28.3859 36.2855 27.4753 37.3157 26.7661C38.3459 26.0569 39.5094 25.564 40.736 25.3171C41.9625 25.0701 43.2264 25.0744 44.4512 25.3296C45.676 25.5848 46.8362 26.0857 47.8616 26.8018C48.3321 26.6095 48.7893 26.3863 49.2302 26.1335C47.9539 25.1231 46.4614 24.4205 44.8688 24.0804C43.2761 23.7402 41.6264 23.7718 40.048 24.1725C38.4696 24.5732 37.005 25.3323 35.7684 26.3908C34.5317 27.4492 33.5563 28.7784 32.918 30.2749C32.3527 31.5859 32.0629 32.9989 32.0664 34.4263C32.0776 36.2091 32.5375 37.9605 33.4038 39.5193C34.2701 41.0782 35.515 42.3944 37.024 43.3469C37.024 45.7264 39.5483 47.6705 42.6607 47.6705C45.7731 47.6705 48.2874 45.7264 48.2874 43.3469C49.802 42.393 51.0506 41.0723 51.9173 39.5074C52.784 37.9425 53.2407 36.1843 53.2449 34.396C53.2465 32.9687 52.9567 31.5561 52.3933 30.2445C52.2367 29.8759 52.0572 29.5175 51.856 29.1712Z"
                      fill="#ADB9C7"
                    />
                    <path
                      d="M42.661 27.9365H42.9753C43.7453 27.9247 44.5125 27.84 45.2665 27.6833C44.7233 27.1239 44.0142 26.7542 43.2441 26.629C42.4741 26.5038 41.6841 26.6298 40.9914 26.9882C40.2986 27.3466 39.7399 27.9185 39.3982 28.619C39.0564 29.3195 38.9498 30.1113 39.094 30.8771C39.2383 31.6429 39.6258 32.3419 40.1991 32.8704C40.7723 33.3989 41.5009 33.7289 42.2767 33.8114C43.0525 33.8939 43.8343 33.7245 44.5061 33.3283C45.178 32.9322 45.7041 32.3303 46.0065 31.612C45.4167 31.7302 44.8211 31.8181 44.2222 31.8753C43.7962 32.2669 43.24 32.4869 42.661 32.493C42.3466 32.5138 42.0313 32.47 41.7345 32.3642C41.4378 32.2584 41.166 32.0929 40.9359 31.8779C40.7058 31.6628 40.5224 31.4029 40.3971 31.1142C40.2717 30.8256 40.207 30.5142 40.207 30.1995C40.207 29.8848 40.2717 29.5735 40.3971 29.2848C40.5224 28.9961 40.7058 28.7362 40.9359 28.5212C41.166 28.3062 41.4378 28.1407 41.7345 28.0349C42.0313 27.9291 42.3466 27.8852 42.661 27.9061V27.9365Z"
                      fill="#ADB9C7"
                    />
                    <path
                      d="M8.20143 14.5707C8.09727 14.5575 7.99154 14.5751 7.89729 14.6213C7.797 14.663 7.709 14.7294 7.64159 14.8145C7.57418 14.8995 7.52959 15.0003 7.51205 15.1074C7.46121 15.3285 7.48619 15.5603 7.58301 15.7655C7.61227 15.8448 7.65955 15.9163 7.72112 15.9742C7.78268 16.0322 7.85687 16.0751 7.93785 16.0997H7.96826L15.3995 16.5756C15.5444 16.5912 15.6905 16.5912 15.8354 16.5756C15.9686 16.5708 16.0995 16.5398 16.2207 16.4844L17.4271 15.9579C17.4964 15.923 17.5558 15.8714 17.6001 15.8077C17.6443 15.7441 17.672 15.6704 17.6805 15.5934C17.727 15.4382 17.727 15.2727 17.6805 15.1175L15.876 10.9863C15.8009 10.8384 15.6848 10.7154 15.5414 10.6319C15.4783 10.589 15.4062 10.5612 15.3305 10.5507C15.2549 10.5401 15.1779 10.5471 15.1055 10.5711L13.3313 11.3508C13.2588 11.3853 13.1964 11.4379 13.1502 11.5035C13.104 11.5692 13.0756 11.6456 13.0677 11.7254C13.0366 11.9041 13.0613 12.0879 13.1387 12.252C13.2095 12.4214 13.3252 12.5684 13.4732 12.6772C13.5381 12.7285 13.6152 12.7619 13.697 12.7744C13.7788 12.7868 13.8624 12.7777 13.9396 12.7481L14.9534 12.3026L16.0787 14.915L15.4603 15.1884L8.20143 14.5707Z"
                      fill="#ADB9C7"
                    />
                    <path
                      d="M11.0908 23.501C11.3133 23.7866 11.5975 24.0185 11.9221 24.1794C12.0795 24.2581 12.2465 24.3159 12.4188 24.3515C12.6078 24.3978 12.8022 24.4182 12.9967 24.4123C13.45 24.4016 13.8958 24.2946 14.3045 24.0984L14.5276 24.0073C14.9725 23.8386 15.3499 23.5293 15.6022 23.1263C15.7727 22.8159 15.8633 22.4679 15.8658 22.1138C16.1403 22.284 16.4552 22.3783 16.7782 22.3872C17.2574 22.3943 17.732 22.2939 18.1671 22.0935C18.5133 21.952 18.8271 21.7419 19.0897 21.4759C19.2976 21.2468 19.4502 20.9731 19.5358 20.676C19.6025 20.369 19.6025 20.0514 19.5358 19.7444C19.4791 19.3951 19.3769 19.0547 19.2316 18.7319C19.0605 18.3073 18.8053 17.9216 18.4814 17.5978C18.2376 17.3598 17.9479 17.1737 17.6298 17.051C17.3578 16.951 17.0669 16.913 16.7782 16.9397C16.5378 16.9554 16.3015 17.0101 16.0787 17.1017C15.8879 17.1649 15.7261 17.2942 15.6225 17.4662C15.5844 17.6898 15.6276 17.9196 15.7441 18.1142C15.7749 18.2106 15.8249 18.2998 15.8911 18.3764C15.9573 18.4529 16.0384 18.5153 16.1294 18.5597C16.2852 18.6239 16.4602 18.6239 16.616 18.5597C16.7246 18.5093 16.8413 18.4784 16.9607 18.4686C17.0822 18.459 17.2042 18.4798 17.3155 18.5294C17.4463 18.5898 17.5635 18.6759 17.6602 18.7825C17.7943 18.9388 17.9006 19.1169 17.9745 19.309C18.1278 19.5911 18.1642 19.9219 18.0759 20.2304C18.002 20.3823 17.8985 20.5179 17.7714 20.6292C17.6443 20.7404 17.4962 20.8252 17.3358 20.8785C17.1281 20.9761 16.9052 21.0377 16.6768 21.0607C16.5244 21.0809 16.3694 21.0563 16.2308 20.9899C16.098 20.9282 15.983 20.8342 15.8962 20.7165C15.7972 20.5767 15.7122 20.4275 15.6428 20.271C15.616 20.1944 15.5688 20.1266 15.5062 20.0748C15.4437 20.0231 15.3682 19.9894 15.2879 19.9773C15.1389 19.9612 14.9882 19.9857 14.852 20.0482C14.7185 20.1037 14.6027 20.1948 14.5174 20.3115C14.4744 20.3815 14.4516 20.4621 14.4516 20.5443C14.4516 20.6265 14.4744 20.7071 14.5174 20.7772C14.689 21.1145 14.7459 21.4983 14.6796 21.8708C14.6232 22.049 14.5247 22.2111 14.3924 22.3433C14.26 22.4754 14.0977 22.5739 13.9193 22.6302L13.6962 22.7314C13.517 22.8305 13.3199 22.8932 13.1163 22.9158C12.9128 22.9384 12.7067 22.9204 12.5101 22.8631C12.3335 22.7748 12.1763 22.6524 12.0475 22.5029C11.9187 22.3534 11.8209 22.1798 11.7599 21.9923C11.6645 21.8268 11.6029 21.644 11.5785 21.4546C11.5542 21.2652 11.5676 21.0728 11.6179 20.8886C11.6533 20.7592 11.7172 20.6393 11.8049 20.5377C11.8926 20.4361 12.0019 20.3554 12.1248 20.3013C12.2014 20.2729 12.2709 20.2284 12.3286 20.1707C12.3864 20.1131 12.431 20.0436 12.4594 19.9672C12.5022 19.7526 12.4662 19.5297 12.358 19.3394C12.2963 19.1562 12.1702 19.0016 12.0032 18.904C11.9194 18.8636 11.8276 18.8427 11.7345 18.8427C11.6415 18.8427 11.5497 18.8636 11.4659 18.904C11.209 19.0142 10.9778 19.1762 10.7866 19.3799C10.5738 19.5989 10.4113 19.8615 10.3101 20.1494C10.1978 20.4746 10.1496 20.8185 10.1682 21.162C10.1929 21.6074 10.303 22.044 10.4926 22.4479C10.6397 22.8261 10.8412 23.1809 11.0908 23.501Z"
                      fill="#ADB9C7"
                    />
                    <path
                      d="M11.1925 29.9103C10.5874 30.1789 9.91105 30.2429 9.26623 30.0926C8.80028 29.9909 8.36481 29.7812 7.99497 29.4805C7.62514 29.1797 7.33131 28.7962 7.13722 28.3611L1.61197 16.008C1.44361 15.641 1.35022 15.244 1.33724 14.8405C1.32427 14.437 1.39198 14.0349 1.5364 13.6578C1.68082 13.2807 1.89906 12.9361 2.17837 12.6442C2.45767 12.3523 2.79244 12.119 3.16309 11.9578L26.3185 1.59944C26.686 1.4313 27.0834 1.33802 27.4875 1.32506C27.8915 1.3121 28.2941 1.37972 28.6717 1.52396C29.0492 1.6682 29.3942 1.88618 29.6865 2.16514C29.9787 2.4441 30.2124 2.77845 30.3737 3.14864L35.9091 15.522C36.0775 15.8891 36.1709 16.286 36.1838 16.6895C36.1968 17.0931 36.1291 17.4952 35.9847 17.8723C35.8403 18.2494 35.622 18.5939 35.3427 18.8858C35.0634 19.1777 34.7286 19.411 34.358 19.5722L31.3166 20.929C31.5198 21.3315 31.7431 21.7235 31.9857 22.1036L34.9156 20.7974C35.9744 20.3155 36.8003 19.4361 37.214 18.3499C37.6278 17.2637 37.5961 16.0584 37.1257 14.9955L31.6004 2.63224C31.3645 2.1034 31.0264 1.6262 30.6056 1.22796C30.1848 0.829711 29.6896 0.518229 29.1482 0.311333C28.6067 0.104436 28.0298 0.00618271 27.4503 0.0221921C26.8708 0.0382014 26.3002 0.168159 25.771 0.404633L2.61564 10.7326C1.54809 11.2107 0.713841 12.092 0.29576 13.1834C-0.12232 14.2747 -0.0901287 15.4871 0.385267 16.5548L5.94093 28.8978C6.41755 29.9633 7.29807 30.7964 8.38914 31.214C9.48021 31.6317 10.6926 31.5998 11.7602 31.1254L28.2447 23.754C28.0217 23.3693 27.8088 22.9744 27.606 22.5795L11.1925 29.9103Z"
                      fill="#ADB9C7"
                    />
                    <path
                      d="M30.3736 12.2819C30.2063 12.923 30.091 13.5765 30.0289 14.2361C30.7039 13.9308 31.264 13.4187 31.6279 12.7741C31.9918 12.1294 32.1407 11.3858 32.053 10.6509C31.9653 9.91609 31.6455 9.22824 31.1401 8.68713C30.6346 8.14601 29.9697 7.77975 29.2418 7.64145C28.5139 7.50314 27.7608 7.59999 27.0917 7.91795C26.4226 8.23591 25.8723 8.75844 25.5205 9.4098C25.1688 10.0612 25.0339 10.8075 25.1354 11.5405C25.237 12.2736 25.5696 12.9553 26.0852 13.4869C26.1666 12.7771 26.2953 12.0735 26.4705 11.3808C26.4198 11.1199 26.4198 10.8518 26.4705 10.591C26.6188 10.057 26.9672 9.6005 27.4434 9.3162C27.9197 9.0319 28.4872 8.94159 29.0283 9.064C29.5695 9.18642 30.0427 9.51217 30.3498 9.97368C30.6569 10.4352 30.7743 10.9971 30.6778 11.5428C30.6243 11.8062 30.5211 12.0571 30.3736 12.2819Z"
                      fill="#ADB9C7"
                    />
                    <path
                      d="M33.9529 26.2749C33.0418 25.5406 32.2247 24.6973 31.5197 23.7638L30.9824 22.9335L30.8912 22.7918C30.8912 22.7918 30.8911 22.7209 30.8405 22.6905C30.6148 22.3374 30.4083 21.9723 30.222 21.597L30.1612 21.4957L30.0801 21.3236L29.5428 20.2503H29.6036C29.0078 18.6778 28.7021 17.0106 28.7013 15.3293C28.7037 13.8147 28.9502 12.3104 29.4313 10.8741C29.3996 10.7276 29.3263 10.5934 29.2202 10.4874C29.1141 10.3815 28.9798 10.3083 28.8331 10.2766C28.722 10.249 28.6061 10.2465 28.4938 10.2693C28.3816 10.2921 28.2758 10.3396 28.1843 10.4083C27.6419 11.9925 27.3645 13.655 27.3631 15.3293C27.3391 17.6678 27.8597 19.9799 28.8838 22.083C29.0359 22.3969 29.2082 22.7108 29.3806 23.0145C30.344 24.6633 31.6056 26.119 33.1012 27.3077C33.3651 26.9475 33.6495 26.6027 33.9529 26.2749Z"
                      fill="#ADB9C7"
                    />
                    <path
                      d="M42.6608 -0.000256352C39.2765 -0.00552346 35.9871 1.11689 33.3135 3.18928L33.8711 4.43471C35.6161 3.02998 37.673 2.06385 39.8692 1.61743C42.0655 1.171 44.3369 1.25731 46.4928 1.8691C48.6487 2.48089 50.6262 3.60032 52.2593 5.13341C53.8924 6.66649 55.1334 8.5685 55.8781 10.6798C56.6229 12.791 56.8497 15.0499 56.5394 17.2668C56.2292 19.4837 55.3909 21.594 54.0951 23.4204C52.7993 25.2468 51.0837 26.736 49.0923 27.7631C47.1009 28.7902 44.8919 29.3252 42.6507 29.3232H42.1843C42.1843 29.3232 41.6875 29.3232 41.6875 30.2547C41.6911 30.3891 41.7258 30.5208 41.7889 30.6395C42.0728 30.6395 42.3567 30.6395 42.6507 30.6395C46.7215 30.6395 50.6256 29.0244 53.5041 26.1495C56.3826 23.2745 57.9997 19.3753 57.9997 15.3095C57.9997 11.2437 56.3826 7.34448 53.5041 4.46955C50.6256 1.59461 46.7215 -0.0205078 42.6507 -0.0205078L42.6608 -0.000256352Z"
                      fill="#ADB9C7"
                    />
                  </g>
                  <defs>
                    <clipPath id="clip0_1_28">
                      <rect width="58" height="71" fill="white" />
                    </clipPath>
                  </defs>
                </svg>