<svg
                  width="54"
                  height="52"
                  viewBox="0 0 54 52"
                  fill="none"
                  xmlns="http://www.w3.org/2000/svg"
                >
                  <g clip-path="url(#clip0_1_40)">
                    <path
                      d="M25.9771 0.0525462H25.3185C24.8934 0.0267554 24.4672 0.0267554 24.042 0.0525462C21.4584 0.272397 13.5355 1.67525 13.2012 1.7276C12.8668 1.84276 11.418 2.53372 1.9146 7.12965C1.21297 7.49554 0.651144 8.09507 0.319822 8.83147C-0.0115005 9.56787 -0.0929894 10.3982 0.0885156 11.1883C0.270021 11.9784 0.703925 12.6823 1.32018 13.1863C1.93643 13.6903 2.69907 13.9649 3.48498 13.966C4.01984 13.9671 4.54745 13.838 5.025 13.5891L14.0725 8.94081L24.0116 9.03503L27.8413 10.4484L20.7492 11.4953C19.8732 11.6149 19.0735 12.0729 18.5111 12.7772C17.9487 13.4815 17.6654 14.3797 17.718 15.2911C17.7707 16.2026 18.1554 17.0596 18.7949 17.6898C19.4344 18.3199 20.281 18.6764 21.1646 18.6875H21.58L34.5687 16.8764C35.0355 16.822 35.5077 16.8468 35.9668 16.9497L40.2727 17.9233C41.9903 18.3101 43.7612 18.374 45.5007 18.1117L46.7671 17.9233V16.489L45.298 16.7193C43.7165 16.9536 42.1072 16.8933 40.5463 16.5414L36.2505 15.5677C35.6425 15.4254 35.0151 15.3935 34.3964 15.4735L21.4077 17.2847C20.8408 17.3513 20.2714 17.1825 19.8249 16.8154C19.3784 16.4482 19.0913 15.9128 19.0268 15.327C18.9624 14.7411 19.1257 14.1528 19.4811 13.6914C19.8364 13.23 20.3545 12.9334 20.9214 12.8667L30.668 11.3906C30.814 11.367 30.9483 11.2941 31.05 11.1834C31.1517 11.0726 31.2149 10.9301 31.2299 10.7783C31.245 10.6264 31.2109 10.4736 31.1331 10.3439C31.0553 10.2141 30.9381 10.1146 30.7997 10.061L24.3256 7.67405C24.2517 7.66407 24.1768 7.66407 24.1028 7.67405L13.8901 7.57982C13.7849 7.58163 13.6813 7.60662 13.5862 7.65311L4.39685 12.3747C3.88048 12.627 3.28862 12.6586 2.74985 12.4625C2.21108 12.2665 1.76891 11.8587 1.51945 11.3278C1.27153 10.8077 1.23138 10.2078 1.40765 9.6575C1.58392 9.10715 1.96251 8.65046 2.46171 8.38595L13.4747 3.08858C14.3359 2.94201 21.7218 1.64385 24.123 1.44493C24.4907 1.41899 24.8597 1.41899 25.2274 1.44493H25.9163C28.2972 1.44493 36.5849 1.85323 43.0792 4.18784H43.1906L46.838 4.82645V3.44453L43.4541 2.84779C37.0003 0.534123 29.0875 0.12583 25.9771 0.0525462Z"
                      fill="#ADB9C7"
                    />
                    <path
                      d="M48.885 1.80078C48.7094 1.80076 48.5408 1.87212 48.4157 1.99945C48.2906 2.12677 48.219 2.29984 48.2164 2.48127L48.1251 18.7817C48.1233 18.8713 48.1394 18.9604 48.1726 19.0433C48.2057 19.1262 48.2551 19.2011 48.3176 19.2632C48.3773 19.3293 48.4495 19.3819 48.5296 19.4179C48.6098 19.4539 48.6963 19.4726 48.7837 19.4726H54.0217V18.1221H49.4625L49.5537 3.21411H54.0217V1.83219H48.8952L48.885 1.80078Z"
                      fill="#ADB9C7"
                    />
                    <path
                      d="M39.5131 46.8386V44.4307C39.5105 44.2233 39.4296 44.0251 39.2876 43.8785C39.1457 43.7318 38.9539 43.6482 38.7532 43.6455H7.34534C7.14463 43.6482 6.95288 43.7318 6.81094 43.8785C6.669 44.0251 6.5881 44.2233 6.58548 44.4307V46.8386C5.5014 47.4249 2.94824 49.0476 2.94824 51.2251C2.95087 51.4325 3.03177 51.6307 3.1737 51.7773C3.31564 51.924 3.5074 52.0076 3.70811 52.0103H42.4107C42.6168 52.0021 42.8116 51.9111 42.9535 51.7566C43.0955 51.602 43.1734 51.3963 43.1706 51.1833C43.1402 49.0476 40.5972 47.4249 39.5131 46.8386ZM4.70102 50.4399C5.48716 49.3964 6.51028 48.5694 7.6797 48.0321C7.81026 47.9684 7.92058 47.8677 7.99774 47.7416C8.07489 47.6155 8.11568 47.4693 8.11535 47.3202V45.2263H38.0339V47.3202C38.0336 47.4693 38.0744 47.6155 38.1516 47.7416C38.2287 47.8677 38.339 47.9684 38.4696 48.0321C39.6373 48.5674 40.6575 49.395 41.4381 50.4399H4.70102Z"
                      fill="#ADB9C7"
                    />
                    <path
                      d="M26.5853 26.0678C26.7913 26.0596 26.9861 25.9686 27.1281 25.814C27.2701 25.6595 27.348 25.4538 27.3452 25.2407C27.3452 24.0829 26.9001 22.9725 26.1078 22.1538C25.3155 21.3351 24.2408 20.8751 23.1203 20.8751H22.9379C22.3801 20.8765 21.828 20.9917 21.3133 21.2142C20.7987 21.4367 20.3317 21.7621 19.9391 22.1716C19.5465 22.5812 19.2361 23.0669 19.0257 23.6007C18.8153 24.1346 18.7091 24.7062 18.7131 25.2826C18.7157 25.49 18.7966 25.6882 18.9386 25.8348C19.0805 25.9815 19.2722 26.0651 19.473 26.0678H26.5853ZM22.9379 22.4455H23.1102C23.7069 22.4489 24.2858 22.656 24.7568 23.0347C25.2277 23.4134 25.5642 23.9424 25.714 24.5393H20.3341C20.4823 23.9415 20.8184 23.4115 21.2897 23.0325C21.761 22.6536 22.3408 22.4471 22.9379 22.4455Z"
                      fill="#ADB9C7"
                    />
                    <path
                      d="M7.14265 41.562C7.14128 41.6655 7.16004 41.7682 7.19775 41.8641C7.23545 41.96 7.29134 42.0472 7.36217 42.1204C7.43301 42.1935 7.51734 42.2513 7.61014 42.2903C7.70295 42.3293 7.80235 42.3486 7.90252 42.3472H38.1352C38.3367 42.3472 38.53 42.2645 38.6725 42.1172C38.815 41.97 38.895 41.7703 38.895 41.562C38.895 30.7579 30.3541 26.9053 23.0492 26.9053H22.9378C15.0656 26.9786 7.14265 31.5326 7.14265 41.562ZM22.9378 28.4966H23.0898C29.5132 28.4966 36.9903 31.7315 37.3956 40.7768H8.68267C9.08793 31.8048 16.5346 28.5384 22.9378 28.4966Z"
                      fill="#ADB9C7"
                    />
                    <path
                      d="M10.4257 40.0338H10.5675C10.745 40.0346 10.9172 39.9712 11.0541 39.8545C11.1911 39.7379 11.2842 39.5754 11.3173 39.3952C11.66 37.7718 12.3767 36.2579 13.4068 34.982C14.4369 33.7062 15.7499 32.7061 17.2341 32.0668C17.3257 32.0241 17.408 31.9629 17.4762 31.8866C17.5443 31.8104 17.597 31.7208 17.631 31.6232C17.665 31.5255 17.6797 31.4218 17.6742 31.3182C17.6686 31.2146 17.643 31.1131 17.5988 31.0199C17.5564 30.9263 17.4965 30.8423 17.4226 30.7726C17.3487 30.7029 17.2621 30.6491 17.168 30.614C17.0739 30.579 16.974 30.5636 16.8741 30.5685C16.7742 30.5735 16.6761 30.5988 16.5857 30.6431C14.8758 31.3763 13.3654 32.5303 12.1858 34.0047C11.0063 35.479 10.1933 37.2289 9.8178 39.1021C9.79577 39.2047 9.7942 39.3109 9.81316 39.4142C9.83212 39.5175 9.87124 39.6157 9.92811 39.7029C9.98499 39.79 10.0584 39.8643 10.144 39.9212C10.2295 39.9781 10.3254 40.0164 10.4257 40.0338Z"
                      fill="#ADB9C7"
                    />
                    <path
                      d="M36.595 46.6191H9.47276C9.27123 46.6191 9.07795 46.7019 8.93545 46.8491C8.79294 46.9964 8.71289 47.1961 8.71289 47.4043C8.71289 47.6126 8.79294 47.8123 8.93545 47.9595C9.07795 48.1068 9.27123 48.1895 9.47276 48.1895H36.595C36.7965 48.1895 36.9898 48.1068 37.1323 47.9595C37.2748 47.8123 37.3548 47.6126 37.3548 47.4043C37.3548 47.1961 37.2748 46.9964 37.1323 46.8491C36.9898 46.7019 36.7965 46.6191 36.595 46.6191Z"
                      fill="#ADB9C7"
                    />
                  </g>
                  <defs>
                    <clipPath id="clip0_1_40">
                      <rect width="54" height="52" fill="white" />
                    </clipPath>
                  </defs>
                </svg>