<svg
                  width="47"
                  height="70"
                  viewBox="0 0 47 70"
                  fill="none"
                  xmlns="http://www.w3.org/2000/svg"
                >
                  <path
                    d="M36.6357 68.8887C36.1972 68.8454 35.7858 68.6567 35.4668 68.3528L35.4035 68.3089C35.1307 68.0946 32.2767 65.1126 27.6108 60.2207C25.9695 58.5008 24.2941 56.7467 22.8281 55.2216L23.1837 54.8854L27.9664 59.8845C31.6386 63.7337 35.4376 67.7096 35.7054 67.9191L35.7687 67.9679C36.3288 68.3966 36.7428 68.7085 37.5318 67.9045C37.7351 67.6774 37.8582 67.3898 37.8825 67.086C37.9042 66.9358 37.8933 66.7828 37.8504 66.6373C37.8076 66.4918 37.7338 66.3573 37.6341 66.243C37.4831 66.092 36.1096 64.8154 34.2248 63.0516C31.3026 60.323 27.2602 56.581 24.2162 53.716L24.5522 53.3652C27.5914 56.2253 31.6191 59.9625 34.556 62.6959C36.5285 64.5279 37.8338 65.7412 37.9896 65.8971C38.1454 66.0594 38.2616 66.2556 38.3292 66.4703C38.3968 66.6849 38.4139 66.9123 38.3793 67.1347C38.3469 67.5508 38.1753 67.9439 37.8922 68.2505C37.7375 68.4371 37.5462 68.5901 37.3301 68.6999C37.1139 68.8097 36.8776 68.8739 36.6357 68.8887Z"
                    fill="#ADB9C7"
                    stroke="#ADB9C7"
                  />
                  <path
                    d="M21.4158 53.7546C19.7403 52.0152 18.7711 51.0212 18.5276 50.8068C17.685 50.0662 17.2029 50.1052 16.8571 50.1295C16.7615 50.139 16.6653 50.139 16.5697 50.1295C16.2531 50.1003 14.9527 49.0138 10.9395 45.53L8.91348 43.771C5.90845 41.1887 2.14363 35.9752 1.28644 33.6608C0.692255 32.0724 1.15496 31.322 1.48614 31.0151C1.61827 30.8768 1.78571 30.7774 1.9703 30.7276C2.15489 30.6777 2.34956 30.6794 2.53326 30.7325C3.0203 30.9468 7.61795 35.2687 11.1879 39.0984C15.4057 43.62 20.3248 49.2476 20.5147 49.4669C20.7047 49.6862 21.6398 50.607 23.1691 52.0541L22.8331 52.4098C21.2697 50.9481 20.3978 50.0711 20.1446 49.7885C19.8913 49.5059 15.0453 43.9416 10.8324 39.4151C7.03839 35.3466 2.72321 31.3707 2.32871 31.1612C2.23825 31.1564 2.14781 31.1713 2.0637 31.2049C1.97959 31.2386 1.90382 31.2902 1.84167 31.3561C1.60302 31.5803 1.27186 32.1552 1.76864 33.4756C2.5966 35.7072 6.37602 40.9158 9.25442 43.391C9.88757 43.9367 10.584 44.536 11.2854 45.1499C13.516 47.0989 16.297 49.501 16.672 49.6374H16.8425C17.2564 49.6082 17.875 49.5595 18.8734 50.4365C19.1267 50.6655 20.0862 51.6351 21.7957 53.4136L21.4158 53.7546Z"
                    fill="#ADB9C7"
                    stroke="#ADB9C7"
                  />
                  <path
                    d="M9.28394 68.8888C8.97027 68.9078 8.66138 68.8048 8.42187 68.6013C7.31629 67.5001 8.12964 66.3503 8.96248 65.4732C10.2872 64.0651 17.622 56.9173 19.4241 55.2753C22.1515 52.7903 30.1389 45.1114 30.7575 44.2149C31.1373 43.674 31.0107 42.5144 30.9231 41.7494C30.8567 41.4288 30.8468 41.099 30.8938 40.775C31.0838 40.2146 40.8586 31.454 41.8765 30.7134C42.7143 30.1044 43.2597 29.9338 43.5081 30.2262C43.6347 30.3675 43.6591 30.6257 43.3669 30.9327L35.3162 38.9868L35.4184 39.0842L43.8442 30.996C43.8897 30.9514 43.9509 30.9264 44.0147 30.9264C44.0784 30.9264 44.1396 30.9514 44.1851 30.996L44.526 31.3371C44.571 31.3834 44.5961 31.4455 44.5961 31.5101C44.5961 31.5746 44.571 31.6367 44.526 31.683L36.2464 39.9661L36.4802 40.2049L44.8231 31.9656C44.8695 31.9207 44.9315 31.8955 44.996 31.8955C45.0606 31.8955 45.1226 31.9207 45.1689 31.9656L45.5001 32.2969C45.5436 32.3431 45.5678 32.4041 45.5678 32.4675C45.5678 32.5309 45.5436 32.5919 45.5001 32.638L37.464 41.155L37.5955 41.2866C45.6949 33.0278 45.9823 33.0376 46.1381 33.0522C46.1982 33.0573 46.2556 33.0792 46.3039 33.1153C46.3521 33.1515 46.3892 33.2005 46.4109 33.2568C46.4888 33.4517 46.6008 33.7441 44.3215 36.38C42.7581 38.1828 36.4363 44.9798 35.7252 45.2966C35.2053 45.4284 34.6662 45.4679 34.1326 45.4135C33.4313 45.4135 32.5546 45.3794 32.2575 45.584C31.8679 45.852 27.7232 50.3005 24.9812 53.2483C23.2912 55.0658 21.8301 56.6347 21.4307 57.0293C21.0313 57.424 19.8137 58.7834 18.3916 60.3621C15.6788 63.3683 12.3036 67.1104 11.2418 68.041C10.7135 68.5517 10.0177 68.853 9.28394 68.8888ZM42.9821 30.616C42.6899 30.743 42.4149 30.9068 42.1639 31.1032C40.883 32.0387 31.6828 40.4193 31.3468 40.9552C31.3506 41.2031 31.3701 41.4505 31.4052 41.6958C31.5075 42.5826 31.6439 43.8056 31.1568 44.4975C30.4604 45.472 22.244 53.3653 19.7504 55.6358C17.9532 57.2778 10.6379 64.4062 9.31316 65.8046C8.26603 66.9155 8.11018 67.6025 8.76768 68.2408C8.96736 68.4405 9.87811 68.5623 10.9155 67.6512C11.9529 66.7401 15.4645 62.8519 18.0214 60.0113C19.5117 58.3595 20.6904 57.0537 21.0849 56.659C21.4794 56.2644 22.9308 54.7101 24.6208 52.8878C28.5171 48.678 31.5757 45.433 31.975 45.1553C32.3744 44.8775 33.2852 44.8824 34.1375 44.9019C34.5997 44.9416 35.0652 44.917 35.5207 44.8288C36.0759 44.5608 41.9058 38.3923 43.9465 36.0585C44.8183 35.0499 45.3102 34.4164 45.5878 34.0169C44.1267 35.3763 40.3619 39.1524 37.7659 41.8128C37.7196 41.8577 37.6576 41.8829 37.5931 41.8829C37.5285 41.8829 37.4665 41.8577 37.4201 41.8128L36.9331 41.3255C36.8888 41.2808 36.8639 41.2204 36.8639 41.1574C36.8639 41.0945 36.8888 41.0341 36.9331 40.9893L44.7842 32.6673L36.6409 40.697C36.6187 40.7197 36.5922 40.7377 36.5629 40.75C36.5336 40.7623 36.5022 40.7686 36.4704 40.7686C36.4387 40.7686 36.4073 40.7623 36.378 40.75C36.3487 40.7377 36.3222 40.7197 36.3 40.697L35.7204 40.1221C35.6754 40.0757 35.6503 40.0136 35.6503 39.9491C35.6503 39.8845 35.6754 39.8225 35.7204 39.7761L44 31.493L35.5986 39.5617C35.5531 39.6064 35.4919 39.6314 35.4282 39.6314C35.3644 39.6314 35.3032 39.6064 35.2577 39.5617L34.8145 39.1183C34.7704 39.0726 34.7459 39.0114 34.7463 38.9478C34.7457 38.8827 34.7701 38.8199 34.8145 38.7724L42.9821 30.616Z"
                    fill="#ADB9C7"
                    stroke="#ADB9C7"
                  />
                  <path
                    d="M22.1799 37.1545C18.644 37.1545 11.9521 36.7744 11.9521 35.3273V26.8103C10.8055 27.1275 9.60125 27.1765 8.43267 26.9535C7.26409 26.7305 6.16247 26.2415 5.21308 25.5243C4.2637 24.8071 3.49201 23.881 2.95774 22.8176C2.42347 21.7543 2.14095 20.5822 2.13205 19.392C2.12315 18.2019 2.38812 17.0257 2.90643 15.9545C3.42474 14.8832 4.18249 13.9457 5.12105 13.2143C6.05961 12.483 7.15379 11.9776 8.31891 11.7371C9.48402 11.4967 10.6888 11.5276 11.8401 11.8276C11.8108 11.5207 11.8011 11.2235 11.8011 10.9262C11.7936 9.57224 12.0646 8.23117 12.5973 6.98642C13.13 5.74167 13.9129 4.61985 14.8975 3.69074C15.882 2.76162 17.0471 2.04507 18.3202 1.58563C19.5934 1.1262 20.9474 0.933706 22.2981 1.02013C23.6488 1.10655 24.9673 1.47003 26.1716 2.08798C27.3759 2.70593 28.4402 3.56514 29.2985 4.61216C30.1567 5.65918 30.7904 6.87163 31.1602 8.17413C31.5301 9.47663 31.6281 10.8413 31.4482 12.1833C32.5892 11.6983 33.8298 11.4939 35.066 11.5872C36.3022 11.6804 37.4981 12.0687 38.5534 12.7195C39.6088 13.3703 40.4928 14.2645 41.1316 15.3275C41.7704 16.3904 42.1454 17.5909 42.225 18.8286C42.3045 20.0663 42.0865 21.305 41.5891 22.4411C41.0917 23.5771 40.3294 24.5774 39.3661 25.358C38.4028 26.1387 37.2666 26.6771 36.0525 26.9281C34.8384 27.1791 33.5819 27.1353 32.3882 26.8006V35.3371C32.398 36.7988 25.7158 37.1545 22.1799 37.1545ZM12.2053 26.2403C12.2582 26.2391 12.3098 26.2563 12.3515 26.289C12.3823 26.3111 12.4073 26.3404 12.4242 26.3744C12.4412 26.4083 12.4497 26.4459 12.4489 26.4839V35.3371C12.4489 35.7902 15.8581 36.677 22.1896 36.677C28.5211 36.677 31.9304 35.7902 31.9304 35.3371V26.4839C31.9306 26.4456 31.94 26.4079 31.9578 26.3739C31.9756 26.34 32.0012 26.3109 32.0327 26.289C32.0628 26.266 32.0981 26.2509 32.1355 26.2449C32.1729 26.239 32.2112 26.2424 32.247 26.2549C32.9698 26.4855 33.7238 26.6038 34.4825 26.6057C36.4097 26.6057 38.258 25.8398 39.6208 24.4765C40.9835 23.1131 41.7491 21.2641 41.7491 19.336C41.7491 17.408 40.9835 15.559 39.6208 14.1956C38.258 12.8323 36.4097 12.0664 34.4825 12.0664C33.3709 12.0628 32.2737 12.318 31.2778 12.8119C31.2376 12.8321 31.1924 12.8406 31.1476 12.8363C31.1028 12.832 31.0601 12.8151 31.0245 12.7875C30.9884 12.7614 30.9605 12.7255 30.9441 12.6841C30.9277 12.6426 30.9235 12.5974 30.932 12.5536C31.0243 12.0161 31.0715 11.4717 31.0732 10.9262C31.0787 9.63973 30.8197 8.36582 30.3123 7.18366C29.8049 6.00151 29.0599 4.93635 28.1237 4.05435C27.1875 3.17236 26.08 2.49238 24.87 2.05665C23.66 1.62091 22.3734 1.43872 21.09 1.52141C19.8067 1.6041 18.5541 1.9499 17.4099 2.53732C16.2658 3.12474 15.2547 3.94124 14.4393 4.9361C13.6239 5.93095 13.0216 7.08291 12.67 8.32042C12.3184 9.55793 12.2249 10.8545 12.3953 12.1297C12.4006 12.1705 12.3955 12.2119 12.3805 12.2502C12.3654 12.2884 12.341 12.3222 12.3094 12.3485C12.2778 12.3747 12.2401 12.3926 12.1998 12.4003C12.1594 12.4081 12.1178 12.4055 12.0787 12.3929C11.3782 12.177 10.6493 12.0669 9.91626 12.0664C8.86547 12.065 7.82687 12.2916 6.87209 12.7306C5.91731 13.1696 5.06904 13.8105 4.3858 14.6092C3.70256 15.4079 3.2006 16.3453 2.91451 17.3568C2.62843 18.3683 2.56503 19.4299 2.72869 20.4683C2.89236 21.5067 3.27919 22.4972 3.86252 23.3716C4.44585 24.246 5.21178 24.9834 6.10752 25.533C7.00327 26.0826 8.0075 26.4313 9.05098 26.5551C10.0945 26.6789 11.1524 26.5748 12.1517 26.25L12.2053 26.2403Z"
                    fill="#ADB9C7"
                    stroke="#ADB9C7"
                  />
                  <path
                    d="M15.5239 15.4338C15.4775 15.4342 15.432 15.4217 15.3924 15.3976C15.3528 15.3735 15.3207 15.3387 15.2998 15.2974C14.6079 13.9622 13.4554 12.9235 12.0561 12.3739C12.0258 12.3633 11.9977 12.3469 11.9737 12.3255C11.9497 12.3041 11.9301 12.2782 11.9161 12.2493C11.902 12.2203 11.8939 12.1889 11.892 12.1568C11.8901 12.1246 11.8946 12.0925 11.9052 12.0621C11.9157 12.0317 11.9321 12.0037 11.9535 11.9796C11.9749 11.9556 12.0008 11.936 12.0297 11.922C12.0587 11.9079 12.0901 11.8998 12.1222 11.8979C12.1543 11.896 12.1865 11.9005 12.2168 11.911C13.7374 12.4987 14.9912 13.6214 15.743 15.0683C15.757 15.0974 15.765 15.129 15.7667 15.1612C15.7684 15.1934 15.7636 15.2256 15.7528 15.256C15.7419 15.2864 15.7251 15.3143 15.7034 15.3381C15.6816 15.3619 15.6554 15.3812 15.6261 15.3948C15.5953 15.4151 15.5604 15.4284 15.5239 15.4338Z"
                    fill="#ADB9C7"
                    stroke="#ADB9C7"
                  />
                  <path
                    d="M32.1553 26.7281C32.1279 26.7332 32.0999 26.7332 32.0725 26.7281C30.4554 26.0467 29.1105 24.8469 28.2493 23.3174C28.2339 23.2893 28.2243 23.2584 28.2209 23.2265C28.2175 23.1946 28.2204 23.1624 28.2294 23.1316C28.2384 23.1008 28.2534 23.0721 28.2736 23.0472C28.2937 23.0222 28.3185 23.0015 28.3467 22.9861C28.3748 22.9708 28.4057 22.9611 28.4376 22.9577C28.4695 22.9543 28.5017 22.9572 28.5325 22.9662C28.5632 22.9753 28.5919 22.9903 28.6168 23.0104C28.6418 23.0306 28.6625 23.0554 28.6779 23.0836C29.4879 24.5068 30.7394 25.6272 32.243 26.275C32.3076 26.2866 32.3649 26.3235 32.4023 26.3774C32.4398 26.4313 32.4543 26.4979 32.4427 26.5625C32.4311 26.6271 32.3943 26.6844 32.3404 26.7219C32.2865 26.7594 32.2199 26.7739 32.1553 26.7622V26.7281Z"
                    fill="#ADB9C7"
                    stroke="#ADB9C7"
                  />
                  <path
                    d="M14.6804 25.4756H14.1934V34.2703H14.6804V25.4756Z"
                    fill="#ADB9C7"
                    stroke="#ADB9C7"
                  />
                  <path
                    d="M17.7781 25.0811H17.291V33.7442H17.7781V25.0811Z"
                    fill="#ADB9C7"
                    stroke="#ADB9C7"
                  />
                  <path
                    d="M20.8757 24.9199H20.3887V33.7439H20.8757V24.9199Z"
                    fill="#ADB9C7"
                    stroke="#ADB9C7"
                  />
                  <path
                    d="M23.9734 24.9004H23.4863V33.7438H23.9734V24.9004Z"
                    fill="#ADB9C7"
                    stroke="#ADB9C7"
                  />
                  <path
                    d="M27.071 25.0859H26.584V33.7442H27.071V25.0859Z"
                    fill="#ADB9C7"
                    stroke="#ADB9C7"
                  />
                  <path
                    d="M30.1679 25.4755H29.6808V34.2702H30.1679V25.4755Z"
                    fill="#ADB9C7"
                    stroke="#ADB9C7"
                  />
                  <path
                    d="M32.1555 35.5709C32.0909 35.5709 32.029 35.5452 31.9833 35.4995C31.9376 35.4539 31.9119 35.3919 31.9119 35.3273C31.9119 34.8741 28.5027 33.9874 22.1712 33.9874C15.8397 33.9874 12.4304 34.8741 12.4304 35.3273C12.4304 35.3919 12.4048 35.4539 12.3591 35.4995C12.3134 35.5452 12.2515 35.5709 12.1869 35.5709C12.1223 35.5709 12.0604 35.5452 12.0147 35.4995C11.969 35.4539 11.9434 35.3919 11.9434 35.3273C11.9434 33.8656 18.6255 33.5001 22.1712 33.5001C25.7168 33.5001 32.399 33.8802 32.399 35.3273C32.399 35.3919 32.3733 35.4539 32.3277 35.4995C32.282 35.5452 32.22 35.5709 32.1555 35.5709Z"
                    fill="#ADB9C7"
                    stroke="#ADB9C7"
                  />
                  <path
                    d="M12.3769 26.4843H11.8898C11.8898 25.0225 18.5964 24.6571 22.1469 24.6571C25.6974 24.6571 28.9654 24.9494 30.8064 25.4367L30.6798 25.9239C28.8972 25.4367 25.6292 25.159 22.1469 25.159C15.8251 25.1443 12.3769 26.0311 12.3769 26.4843Z"
                    fill="#ADB9C7"
                    stroke="#ADB9C7"
                  />
                </svg>