<svg width="14" height="10" viewBox="0 0 14 10" fill="none" xmlns="http://www.w3.org/2000/svg">
<path d="M13.3048 1.7601C13.3872 1.67771 13.4696 1.59529 13.552 1.51289C13.7168 1.2657 13.7992 0.936094 13.7168 0.606498C13.6344 0.276902 13.3872 0.112119 13.0576 0.0297204C12.6456 -0.0526786 12.316 0.0297153 11.9864 0.359311L8.77288 3.57287C7.61929 4.72645 6.4657 5.88005 5.22972 7.11604C5.22972 7.11604 5.14731 7.19842 5.14731 7.28082C5.14731 7.28082 5.06492 7.36323 5.06492 7.44563L4.90013 7.69282L2.51055 5.30325C2.26335 5.05605 1.93375 4.72646 1.68656 4.47926C1.52176 4.31446 1.27456 4.23207 1.02736 4.23207C0.697766 4.23207 0.450569 4.39687 0.203372 4.64407C-0.126224 5.05606 -0.0438152 5.55044 0.36818 5.96243C1.27457 6.86882 2.09856 7.69282 3.00495 8.59921L3.91133 9.50561C4.57052 10.1648 4.98252 10.1648 5.64171 9.50561L13.3048 1.7601Z" fill="black"/>
</svg>
