<svg width="161" height="31" viewBox="0 0 161 31" fill="none" xmlns="http://www.w3.org/2000/svg">
<path d="M19.8073 15.4332H11.4708V14.0828H12.8403C12.8403 11.9343 12.5069 10.446 11.84 9.61775C11.5571 9.23145 11.1885 8.91731 10.7635 8.70053C10.3384 8.48375 9.86903 8.37031 9.3927 8.36939C8.7337 8.36843 8.0914 8.5786 7.55865 8.96954C6.88079 9.53776 6.38541 10.2959 6.13542 11.148C5.72374 12.4794 5.53856 13.8716 5.58765 15.2653C5.58437 16.4707 5.67393 17.6747 5.85557 18.8662C6.04016 20.0184 6.3261 21.4407 6.7191 23.1452C7.13481 24.6599 7.36867 26.2193 7.41574 27.7902C7.41455 27.9429 7.40258 28.0954 7.37998 28.2464C7.35542 28.4142 7.32167 28.5806 7.2788 28.7446C7.23513 28.9126 7.1993 29.0445 7.17151 29.1405C7.17151 29.2425 7.12395 29.3267 7.10013 29.3987C7.07845 29.4575 7.06049 29.5175 7.04649 29.5786C7.27449 29.7221 7.54007 29.7934 7.80869 29.7828C8.70491 29.7207 9.54209 29.3095 10.143 28.6365C10.9891 27.7915 11.6537 26.7802 12.096 25.6656C12.5968 24.471 12.856 23.1876 12.8582 21.8906C12.8582 21.5426 12.8582 21.2906 12.8582 21.1226H11.4886V19.7784H19.825V21.1226H18.515C18.4623 22.4359 18.0945 23.7169 17.4432 24.8556C16.7833 26.0205 15.9129 27.0503 14.8769 27.8921C13.8368 28.751 12.664 29.4324 11.4053 29.9089C10.2338 30.3611 8.9917 30.5988 7.73731 30.611C6.94484 30.6293 6.15564 30.5012 5.40898 30.233V29.7828C5.41611 29.2942 5.37827 28.8059 5.29588 28.3244C5.15951 27.7645 4.94495 27.227 4.6587 26.7279C4.17844 25.8642 3.63508 25.0379 3.03311 24.2555C2.27994 23.3191 1.61426 22.3146 1.04437 21.2547C0.656178 20.5547 0.367424 19.8031 0.186799 19.0221C0.0570606 18.3277 -0.00465577 17.6222 0.00231705 16.9157C-0.0367995 15.0731 0.419998 13.2542 1.32422 11.6523C2.16923 10.177 3.40675 8.96921 4.89697 8.16544C6.39469 7.36476 8.06649 6.95227 9.76181 6.96514C12.7312 6.96514 14.8629 7.70514 16.157 9.18551C17.3994 10.5312 18.2269 12.2118 18.5389 14.0228H19.8488L19.8073 15.4332Z" fill="white"/>
<path d="M27.5656 17.4921C27.2963 18.2908 26.9843 19.0739 26.6308 19.8385C26.0728 21.0242 25.5914 22.2453 25.1897 23.4936C24.9663 24.274 24.8522 25.082 24.8504 25.8942C24.8527 26.7249 25.0377 27.5448 25.3922 28.2948C25.5147 28.5442 25.6539 28.7846 25.809 29.0148C25.9384 29.167 26.0249 29.3516 26.0592 29.549C26.0592 29.8071 25.8567 29.9391 25.4637 29.9391H24.6419C24.2727 29.9391 23.987 29.9391 23.7905 29.9391C23.594 29.9391 23.3736 29.9392 23.0283 29.9693C22.6829 29.9993 22.4328 29.9991 22.3018 29.9991C22.0121 30.039 21.7182 29.9661 21.48 29.7952C21.3311 29.6692 21.2598 29.3749 21.2598 28.9008C21.2688 27.6488 21.5664 26.4161 22.1291 25.2999C22.9161 23.7603 23.7867 22.2657 24.7371 20.8228C25.0468 20.3307 25.3327 19.8446 25.678 19.3585C25.9803 18.8955 26.2509 18.4121 26.4879 17.912C26.6944 17.5251 26.8123 17.0966 26.8332 16.6578C26.8184 16.3259 26.7543 15.9981 26.6427 15.6855V15.3133C26.7261 15.1153 26.9404 15.0133 27.2798 15.0133H30.138C30.4155 14.9803 30.6964 15.0349 30.9419 15.1695C31.0925 15.3656 31.161 15.6133 31.1325 15.8596C31.1325 17.0599 31.5869 19.0903 32.496 21.951C33.0914 23.8715 33.5976 25.318 33.9668 26.2963C34.3359 27.2745 34.6456 28.0185 34.8778 28.5287C35.0392 28.8284 35.1575 29.1499 35.2292 29.4831C35.2386 29.5565 35.2253 29.6309 35.1913 29.6964C35.1572 29.7619 35.1038 29.8152 35.0386 29.8491C34.8143 29.9241 34.5778 29.9546 34.342 29.9391C34.0204 29.9151 33.5858 29.903 33.0379 29.903C32.4901 29.903 32.0673 29.9031 31.7636 29.9391C31.5404 29.948 31.3201 29.8872 31.1325 29.765C30.9129 29.5599 30.7419 29.3076 30.6323 29.0268C30.4001 28.5142 30.2012 27.9871 30.0368 27.4485C29.8264 26.7563 29.5048 25.598 29.0721 23.9736C28.9709 23.5655 28.8876 23.2534 28.828 23.0494C28.7685 22.8453 28.7149 22.6113 28.6553 22.3592C28.4052 21.471 28.185 20.5588 27.9885 19.6946C27.8932 19.1725 27.8217 18.8063 27.7681 18.5843C27.6794 18.2245 27.6118 17.8599 27.5656 17.4921Z" fill="white"/>
<path d="M43.1904 14.9844H46.4178C46.6381 14.9844 46.769 15.0563 46.8107 15.1883C46.8524 15.3204 46.8107 15.4164 46.8405 15.5485C46.8703 15.6805 46.8703 15.8426 46.8942 16.0226C46.918 16.2027 46.9656 16.4188 47.0251 16.6949C47.0847 16.9709 47.1918 17.2588 47.2752 17.5529C47.3586 17.847 47.436 18.1531 47.5075 18.5252C47.567 18.7213 47.6504 19.0395 47.7575 19.4796C48.4086 22.1323 48.9465 24.1146 49.3712 25.4269C49.7999 26.7533 50.1572 27.7495 50.4371 28.4277C50.6226 28.8086 50.7586 29.212 50.842 29.628C50.842 29.826 50.6276 29.9281 50.2048 29.9281H46.9655C46.8048 29.9281 46.6916 29.7539 46.6201 29.4059C46.5134 28.8401 46.3742 28.2813 46.2033 27.7317C46.1081 27.4876 45.9831 27.0875 45.8283 26.5314C45.7151 26.0873 45.5782 25.6069 45.4115 25.0908C44.3714 28.5597 42.6961 30.2941 40.3857 30.2941C39.6535 30.3278 38.9355 30.0839 38.3731 29.6101C37.8709 29.1734 37.4962 28.6069 37.2893 27.9717C37.0814 27.3736 36.9727 26.7449 36.9678 26.1112C36.9799 25.4889 37.1199 24.8758 37.3788 24.3107C37.6722 23.6459 38.0312 23.0127 38.4505 22.4203C38.8911 21.7842 39.2603 21.2981 39.5521 20.944C39.8439 20.5899 40.3144 20.0615 40.9575 19.3413C41.2373 19.0052 41.5528 18.6514 41.928 18.2673C42.1899 18.0081 42.4364 17.7335 42.6663 17.445C42.7879 17.2999 42.8591 17.1187 42.8689 16.929C42.8462 16.5591 42.7678 16.1947 42.6365 15.8486C42.5733 15.6405 42.5413 15.4241 42.5413 15.2065C42.5235 15.0565 42.7557 14.9844 43.1904 14.9844ZM43.4405 18.1651C42.4212 19.2044 41.5711 20.3996 40.9217 21.7062C40.5473 22.4305 40.3166 23.2214 40.2428 24.0347C40.2418 24.5755 40.4107 25.1027 40.7251 25.5409C40.8848 25.7641 41.0979 25.9429 41.3447 26.0605C41.5916 26.178 41.864 26.2306 42.1365 26.2132C42.6545 26.2246 43.1636 26.076 43.5953 25.7871C43.9911 25.5305 44.3118 25.1721 44.5242 24.7488C44.7158 24.4007 44.8238 24.0122 44.8397 23.6145C44.7515 22.8202 44.5799 22.0378 44.3277 21.2801C44.1193 20.6139 43.9824 20.1457 43.9228 19.8697C43.7937 19.2929 43.6326 18.7237 43.4405 18.1651Z" fill="white"/>
<path d="M54.6353 14.9824H62.263C63.053 14.9372 63.8443 15.0492 64.5913 15.3124C65.0558 15.5345 65.288 16.0327 65.288 16.8189C65.3017 17.3777 65.1718 17.9304 64.911 18.4236C64.6502 18.9168 64.2672 19.3336 63.7993 19.6336C62.4952 20.4619 61.0764 21.0908 59.5894 21.5V21.6861C61.3563 22.1125 63.0448 22.8197 64.5913 23.7807C65.2998 24.1691 65.8898 24.7447 66.2979 25.4458C66.706 26.1469 66.9168 26.9469 66.9076 27.7597C66.9432 28.2637 66.8136 28.7655 66.5385 29.188C66.3047 29.4962 65.9685 29.7092 65.5916 29.7881C65.0831 29.8826 64.5663 29.9248 64.0494 29.9141H54.3077C54.0784 29.9262 53.8536 29.8463 53.6825 29.692C53.4848 29.395 53.3753 29.0473 53.3669 28.6898C53.2885 27.9202 53.2547 27.1468 53.2657 26.3733C53.2657 25.5691 53.2657 24.9089 53.2955 24.3867C53.361 21.6381 53.4086 19.7597 53.4503 18.7454C53.467 17.9427 53.5245 17.1415 53.6229 16.3448C53.6484 15.9501 53.7625 15.5663 53.9564 15.2224C54.0448 15.1342 54.1517 15.067 54.2691 15.0255C54.3865 14.984 54.5115 14.9693 54.6353 14.9824ZM57.2433 28.744L58.0353 28.78C58.5415 28.78 58.9464 28.8099 59.2262 28.8099C59.8232 28.8227 60.4203 28.7905 61.0126 28.7138C61.3729 28.6666 61.7024 28.4844 61.9356 28.2036C62.1824 27.8216 62.2954 27.3676 62.257 26.9134C62.2243 26.191 62.0201 25.4872 61.6616 24.8609C61.2482 24.0859 60.6509 23.426 59.9229 22.9403C59.1216 22.3973 58.1728 22.1186 57.2075 22.1423C57.2075 22.1423 57.2077 22.5023 57.1719 23.1864C57.1362 23.8706 57.1421 24.4167 57.1421 24.8008C57.1461 25.577 57.1798 26.8915 57.2433 28.744ZM57.2433 20.8878C57.9813 20.9074 58.7092 20.7115 59.3393 20.3237C59.9048 19.9944 60.3718 19.5177 60.691 18.9435C60.9788 18.4668 61.1389 17.923 61.1555 17.3652C61.1772 17.1618 61.1405 16.9562 61.0497 16.7732C60.9589 16.5902 60.8178 16.4374 60.6434 16.3328C60.1656 16.1149 59.6424 16.0179 59.1191 16.0506C58.8214 16.0506 58.2676 16.0506 57.4577 16.1107C57.295 17.595 57.2135 19.1874 57.2135 20.8878H57.2433Z" fill="white"/>
<path d="M74.0835 14.9842H82.0685H82.7176H83.0452C83.3072 14.9842 83.4322 15.1581 83.4322 15.5002C83.4322 15.8423 83.3905 16.5086 83.3071 17.4569C83.1642 19.8575 83.0927 22.058 83.0927 24.0585C83.0927 24.5386 83.1285 25.3248 83.2 26.411C83.2715 27.4973 83.3488 28.3554 83.4322 28.9916V29.3218C83.4355 29.4142 83.4126 29.5056 83.3662 29.5853C83.3198 29.665 83.2518 29.7298 83.1702 29.7719C82.8202 29.9105 82.4432 29.966 82.0685 29.934H80.4073C80.2623 29.9527 80.1149 29.9344 79.9786 29.881C79.8424 29.8275 79.7216 29.7404 79.6273 29.6278C79.4716 29.3357 79.3859 29.0109 79.3771 28.6795C79.3771 28.2594 79.3235 27.1313 79.2699 25.2828C79.2699 24.9888 79.2699 24.7305 79.2699 24.5145C79.2699 24.2984 79.2699 24.0884 79.2342 23.9143C79.1984 23.7403 79.2343 23.5424 79.2045 23.3804C79.1747 23.2184 79.2045 23.0561 79.2045 22.8881C76.2987 23.5363 74.8437 25.3827 74.8397 28.4275C74.8821 28.8463 74.7881 29.2676 74.5718 29.6278C74.3872 29.8318 73.8751 29.934 73.0236 29.934H71.7017C71.1985 29.9761 70.6921 29.9146 70.213 29.7538C70.1063 29.6844 70.0209 29.5865 69.9662 29.471C69.9115 29.3555 69.8897 29.227 69.9034 29.0997C69.9325 28.4641 70.0842 27.8403 70.35 27.2632C70.6895 26.4892 71.1454 25.7726 71.7017 25.1387C72.3226 24.417 73.0617 23.808 73.887 23.3382C74.7825 22.8214 75.7734 22.4946 76.7988 22.3779V22.222C75.2473 21.9605 73.7597 21.4022 72.4162 20.5775C71.8908 20.2357 71.4636 19.761 71.1773 19.2007C70.891 18.6405 70.7556 18.0143 70.7846 17.3848C70.7846 16.3825 71.0407 15.7404 71.5468 15.4583C72.3434 15.1008 73.2127 14.9383 74.0835 14.9842ZM77.6563 16.0825C77.1128 16.0604 76.5691 16.1191 76.0426 16.2566C75.9061 16.2817 75.7773 16.3389 75.6666 16.4233C75.556 16.5077 75.4665 16.6171 75.4054 16.7427C75.3049 17.0708 75.2626 17.4141 75.2804 17.7569C75.2702 18.2662 75.3675 18.772 75.5656 19.2406C75.7637 19.7092 76.0581 20.13 76.4296 20.4755C77.1932 21.1997 78.2099 21.5902 79.258 21.5618C79.2503 19.7323 79.3338 17.9036 79.5082 16.0825H77.6563Z" fill="white"/>
<path d="M95.7993 22.6359L90.6725 19.8453V21.8377C90.6566 23.3531 90.7301 24.8682 90.8928 26.3749C91.0068 27.2269 91.0784 28.0841 91.1072 28.9434C91.1261 29.0799 91.1127 29.2192 91.0682 29.3495C91.0237 29.4799 90.9493 29.5976 90.851 29.6936C90.3982 29.8693 89.9107 29.9353 89.428 29.8858H87.9214C87.8073 29.8884 87.6942 29.8641 87.5909 29.8152C87.4875 29.7662 87.3968 29.6938 87.326 29.6036C87.1413 29.2466 87.0357 28.8535 87.0163 28.4514C86.9449 27.8712 86.8972 27.0429 86.8734 25.9666C86.8496 24.8904 86.8397 23.352 86.8436 21.3515C86.8436 19.317 86.8735 17.8466 86.939 16.9524C86.9386 16.3786 87.0476 15.8104 87.2604 15.2782C87.331 15.1616 87.4326 15.0669 87.5536 15.0054C87.6746 14.9439 87.8103 14.918 87.9453 14.9301H88.4455H88.9098C89.2314 14.9301 89.7078 14.93 90.339 14.87H90.6962C90.7569 14.8759 90.8158 14.894 90.8694 14.9234C90.9229 14.9528 90.9701 14.993 91.0079 15.0412C91.0457 15.0894 91.0734 15.1448 91.0895 15.2041C91.1055 15.2634 91.1095 15.3252 91.1012 15.3861C91.1267 15.8126 91.0824 16.2403 90.9703 16.6523C90.8259 17.2576 90.7538 17.8783 90.7558 18.5008L95.8053 21.3216V19.9112C95.7862 18.7971 95.8339 17.6827 95.9482 16.5744C95.9665 16.0936 96.0993 15.6244 96.3353 15.2061C96.4182 15.1052 96.5231 15.0248 96.6419 14.9717C96.7608 14.9186 96.8902 14.894 97.0201 14.8999H97.4607H97.9669C98.4599 14.9086 98.9529 14.8885 99.4436 14.8398H99.7829C99.9068 14.852 100.021 14.9134 100.1 15.0101C100.179 15.1068 100.217 15.2313 100.206 15.3562C100.189 15.5932 100.151 15.8281 100.093 16.0583C100.021 16.3824 99.9497 16.7726 99.8783 17.2167C99.7188 18.5267 99.6451 19.8457 99.6579 21.1654C99.6579 22.5938 99.6937 23.7521 99.7592 24.6403C99.8247 25.5286 99.914 26.3749 100.015 27.1851C100.1 27.7477 100.151 28.3149 100.17 28.8836C100.19 29.0207 100.176 29.1603 100.131 29.2909C100.085 29.4216 100.009 29.5393 99.9081 29.6338C99.4629 29.8071 98.9836 29.8727 98.5087 29.8257H97.0201C96.8966 29.836 96.7722 29.8209 96.6546 29.7818C96.5369 29.7426 96.4284 29.6801 96.3353 29.5977C96.1494 29.3379 96.0418 29.0295 96.0257 28.7095C95.9415 28.1129 95.8938 27.5116 95.8828 26.9091C95.8411 26.2369 95.8172 24.7845 95.7993 22.6359Z" fill="white"/>
<path d="M112.657 24.6439L113.693 25.472C113.036 26.8999 112.162 28.2159 111.103 29.373C110.091 30.4613 109.263 31.0034 108.62 30.9994C107.98 30.9262 107.387 30.6262 106.947 30.1531C106.244 29.5016 105.633 28.7566 105.131 27.9386C104.547 27.0219 104.063 26.044 103.69 25.0219C103.338 24.1124 103.148 23.1473 103.13 22.1712C103.153 20.8668 103.469 19.5846 104.053 18.4203C104.602 17.2307 105.336 16.1368 106.226 15.1795C107.06 14.3093 107.751 13.8711 108.298 13.8711C108.682 13.9276 109.057 14.0367 109.412 14.1952C110.022 14.4207 110.618 14.6814 111.198 14.9756C111.755 15.2469 112.283 15.5723 112.776 15.9476C113.211 16.2837 113.431 16.5837 113.431 16.8478C113.431 17.1119 113.134 17.448 112.532 18.0962C112.26 18.3724 112.009 18.6693 111.782 18.9844C111.663 19.1644 111.544 19.3645 111.425 19.5845C111.305 19.8046 111.21 19.9068 111.139 19.8908C111.032 19.8908 110.811 19.6565 110.472 19.1883C110.064 18.6309 109.579 18.1359 109.031 17.7181C108.341 17.2406 107.557 16.9193 106.732 16.776C106.333 17.6476 106.141 18.601 106.173 19.5605C106.186 20.6133 106.411 21.6526 106.834 22.6155C107.256 23.6428 107.848 24.5905 108.584 25.4181C109.203 26.1515 109.981 26.7306 110.859 27.1104C111.374 26.5707 111.832 25.9771 112.223 25.3399C112.252 25.2799 112.306 25.184 112.383 25.058C112.467 24.9152 112.559 24.777 112.657 24.6439Z" fill="white"/>
<path d="M120.577 21.8232H120.827C123.475 17.022 125.857 14.6214 127.972 14.6214C128.299 14.6166 128.623 14.6695 128.931 14.7776C129.205 14.8816 129.342 15.0014 129.342 15.1374C129.323 15.3807 129.236 15.6137 129.092 15.8097C128.913 16.0993 128.769 16.4096 128.663 16.7339C128.513 17.2902 128.427 17.8621 128.407 18.4383C128.407 18.5643 128.407 18.6906 128.407 18.8166C128.407 18.9426 128.407 19.0446 128.407 19.1167L127.585 19.1465C127.481 18.8429 127.282 18.5816 127.018 18.4011C126.754 18.2205 126.439 18.1304 126.121 18.1443C125.422 18.2199 124.77 18.5355 124.275 19.0384C123.563 19.6383 122.959 20.357 122.488 21.163C122.232 21.5651 122.006 21.8832 121.821 22.1233C123.152 22.4767 124.42 23.0376 125.579 23.7857C126.487 24.3616 127.292 25.088 127.961 25.9343C128.458 26.5602 128.86 27.2583 129.151 28.0049C129.348 28.501 129.462 29.0259 129.491 29.5592C129.491 29.8413 129.098 29.9794 128.3 29.9794L127.705 29.9314C127.525 29.9072 127.344 29.893 127.163 29.8892C126.814 29.8821 126.466 29.9022 126.121 29.9492C125.781 29.9913 125.591 30.0093 125.525 30.0093C125.433 30.0158 125.341 29.994 125.261 29.9469C125.182 29.8998 125.118 29.8295 125.078 29.7453C124.949 29.387 124.863 29.0141 124.822 28.635C124.686 27.7637 124.432 26.9154 124.066 26.1142C123.699 25.3663 123.203 24.69 122.601 24.116C122.041 23.5733 121.368 23.1633 120.63 22.9157C120.607 24.9208 120.71 26.9253 120.94 28.9172V29.277C120.94 29.6611 120.452 29.8772 119.481 29.8772H117.987C117.733 29.8965 117.481 29.8172 117.284 29.6553C117.077 29.3549 116.961 29.0004 116.951 28.635C116.858 27.82 116.81 27.0007 116.808 26.1804C116.808 25.0822 116.808 23.4737 116.808 21.3432C116.808 19.3987 116.843 17.9703 116.915 17.046C116.913 16.4376 117.035 15.8354 117.272 15.2758C117.351 15.1509 117.462 15.0493 117.592 14.9818C117.723 14.9143 117.87 14.8832 118.016 14.8916C118.112 14.8916 118.249 14.8915 118.421 14.9215C118.561 14.941 118.703 14.9512 118.844 14.9517C119.373 14.9509 119.902 14.9206 120.428 14.8614H120.785C120.9 14.8847 121.002 14.9509 121.07 15.0466C121.139 15.1423 121.169 15.2606 121.154 15.3777C121.122 15.881 121.06 16.382 120.97 16.8781C120.722 18.515 120.591 20.1675 120.577 21.8232Z" fill="white"/>
<path d="M137.517 14.9844H140.745C140.959 14.9844 141.09 15.0563 141.132 15.1883C141.174 15.3204 141.132 15.4164 141.162 15.5485C141.191 15.6805 141.162 15.8426 141.221 16.0226C141.281 16.2027 141.287 16.4188 141.352 16.6949C141.418 16.9709 141.513 17.2588 141.596 17.5529C141.68 17.847 141.757 18.1531 141.829 18.5252C141.896 18.7213 141.979 19.0395 142.079 19.4796C142.734 22.1323 143.271 24.1146 143.692 25.4269C144.127 26.7533 144.484 27.7495 144.764 28.4277C144.95 28.8086 145.086 29.212 145.169 29.628C145.169 29.826 144.955 29.9281 144.532 29.9281H141.287C141.132 29.9281 141.019 29.7539 140.947 29.4059C140.838 28.8407 140.698 28.2821 140.53 27.7317C140.435 27.4876 140.31 27.0875 140.155 26.5314C140.042 26.0873 139.899 25.6069 139.738 25.0908C138.69 28.5597 137.013 30.2941 134.707 30.2941C133.977 30.3274 133.26 30.0835 132.7 29.6101C132.198 29.1721 131.822 28.6063 131.611 27.9717C131.407 27.3726 131.301 26.7444 131.295 26.1112C131.307 25.4889 131.447 24.8758 131.706 24.3107C131.999 23.6459 132.358 23.0127 132.778 22.4203C133.218 21.7842 133.581 21.2981 133.879 20.944C134.177 20.5899 134.641 20.0615 135.284 19.3413C135.564 19.0052 135.88 18.6514 136.255 18.2673C136.515 18.0085 136.76 17.7339 136.987 17.445C137.111 17.3013 137.183 17.1193 137.19 16.929C137.167 16.5591 137.089 16.1947 136.958 15.8486C136.899 15.6396 136.869 15.4236 136.868 15.2065C136.868 15.0565 137.083 14.9844 137.517 14.9844ZM137.767 18.1651C136.749 19.206 135.897 20.4009 135.243 21.7062C134.872 22.4317 134.644 23.2222 134.57 24.0347C134.569 24.5755 134.738 25.1027 135.052 25.5409C135.212 25.7641 135.425 25.9429 135.672 26.0605C135.919 26.178 136.191 26.2306 136.463 26.2132C136.981 26.2239 137.49 26.0753 137.922 25.7871C138.315 25.527 138.635 25.1695 138.851 24.7488C139.041 24.4005 139.147 24.0118 139.161 23.6145C139.076 22.8197 138.904 22.037 138.649 21.2801C138.446 20.6139 138.309 20.1457 138.244 19.8697C138.129 19.293 137.98 18.7236 137.797 18.1651H137.767Z" fill="white"/>
<path d="M151.63 14.9823H159.615H160.264H160.591C160.853 14.9823 160.978 15.1563 160.978 15.4984C160.978 15.8404 160.937 16.5068 160.859 17.455C160.712 19.8556 160.639 22.0562 160.639 24.0567C160.639 24.5368 160.675 25.3229 160.746 26.4092C160.818 27.4955 160.895 28.3536 160.978 28.9897V29.32C160.982 29.4123 160.959 29.5037 160.912 29.5834C160.866 29.6631 160.798 29.7279 160.716 29.7701C160.366 29.9087 159.989 29.9641 159.615 29.9321H157.954C157.808 29.9509 157.661 29.9326 157.525 29.8791C157.389 29.8256 157.268 29.7385 157.173 29.6259C157.018 29.3342 156.934 29.0089 156.929 28.6776C156.929 28.2575 156.87 27.1294 156.816 25.281C156.816 24.9869 156.816 24.7287 156.816 24.5126C156.816 24.2966 156.816 24.0865 156.78 23.9125C156.745 23.7384 156.78 23.5406 156.751 23.3786C156.721 23.2165 156.751 23.0543 156.751 22.8862C153.837 23.5344 152.382 25.3809 152.386 28.4256C152.427 28.8451 152.331 29.2666 152.112 29.6259C151.927 29.83 151.415 29.9321 150.564 29.9321H149.29C148.786 29.9742 148.28 29.9128 147.801 29.7519C147.694 29.6825 147.609 29.5847 147.554 29.4691C147.499 29.3536 147.478 29.2251 147.491 29.0979C147.52 28.4623 147.672 27.8385 147.938 27.2614C148.28 26.4886 148.735 25.7724 149.29 25.1368C149.912 24.4165 150.651 23.8077 151.475 23.3364C152.37 22.8196 153.361 22.4927 154.387 22.3761V22.2202C152.835 21.9586 151.348 21.4003 150.004 20.5756C149.48 20.2331 149.054 19.7582 148.769 19.198C148.483 18.6378 148.349 18.0119 148.378 17.3829C148.378 16.3807 148.629 15.7385 149.135 15.4565C149.919 15.1054 150.773 14.943 151.63 14.9823ZM155.202 16.0806C154.659 16.0586 154.115 16.1172 153.589 16.2547C153.452 16.2799 153.323 16.337 153.213 16.4214C153.102 16.5059 153.013 16.6152 152.952 16.7409C152.851 17.0689 152.809 17.4122 152.827 17.7551C152.816 18.2644 152.914 18.7701 153.112 19.2387C153.31 19.7074 153.604 20.1282 153.976 20.4736C154.739 21.1978 155.756 21.5883 156.804 21.5599C156.796 19.7304 156.88 17.9017 157.054 16.0806H155.202Z" fill="white"/>
<path d="M21.9849 0.214883H27.8248C28.3864 0.211994 28.9471 0.172271 29.5031 0.0958983L29.8456 0.0363251C29.9276 0.0165774 30.0113 0.00444437 30.0956 0C30.4382 0 30.6094 0.195168 30.6094 0.588628C30.5914 0.745367 30.5475 0.898179 30.4793 1.04148C30.3902 1.24978 30.3355 1.37219 30.3149 1.44493C30.1812 1.77637 30.0926 2.12315 30.0512 2.47657C30.0296 2.72851 29.9872 2.97832 29.9244 3.22373C29.9024 3.29402 29.8568 3.35526 29.7948 3.39777C29.7328 3.44028 29.6579 3.46161 29.5819 3.45847C29.5207 3.46506 29.459 3.45562 29.4029 3.43119C29.3469 3.40675 29.2986 3.36825 29.2634 3.31963C29.1842 3.16239 29.1233 2.99725 29.0818 2.82706C28.9739 2.36464 28.7789 1.92518 28.5064 1.53082C28.3317 1.28217 28.0868 1.08719 27.8008 0.968831C27.527 0.88102 27.2398 0.838579 26.9514 0.843227H25.6841V10.0845H26.9719V10.7127H21.9814V10.0845H23.2727V0.843227H21.9814L21.9849 0.214883Z" fill="white"/>
<path d="M31.3526 7.66675C31.3478 6.90845 31.5211 6.15898 31.8596 5.47466C32.1451 4.85587 32.5496 4.29491 33.0515 3.82146C33.5071 3.40816 33.8667 3.20312 34.1373 3.20312C34.4086 3.2255 34.6722 3.30212 34.9113 3.42802C35.2674 3.59961 35.5943 3.82259 35.8807 4.0893C36.2241 4.41252 36.5017 4.79498 36.6993 5.21683C36.9252 5.70998 37.0362 6.24488 37.0246 6.78397C37.0159 7.27792 36.9233 7.7671 36.7506 8.23213C36.5666 8.74212 36.323 9.23034 36.0245 9.68708C35.7651 10.0975 35.4481 10.4714 35.0826 10.798C34.8526 11.0316 34.5444 11.1791 34.2126 11.2145C33.7584 11.1642 33.3356 10.966 33.0138 10.6525C32.5419 10.2596 32.1454 9.78948 31.8424 9.26377C31.539 8.78123 31.3702 8.23099 31.3526 7.66675ZM32.9385 4.89281C32.641 5.22807 32.4717 5.65171 32.459 6.09299C32.4759 6.56692 32.5851 7.0336 32.7809 7.4685C33.0067 7.98359 33.3594 8.43761 33.8085 8.79106C34.2839 9.16839 34.8853 9.36573 35.5005 9.34643C35.6814 9.00969 35.7721 8.63464 35.7642 8.25538C35.7644 7.72097 35.6477 7.19256 35.4217 6.7047C35.1962 6.22177 34.8559 5.79698 34.4284 5.46481C33.9993 5.14198 33.4809 4.94867 32.9385 4.90928V4.89281Z" fill="white"/>
<path d="M42.9365 8.25167L43.4434 8.63849C43.1219 9.306 42.6956 9.92163 42.1795 10.4636C41.6829 10.9695 41.2787 11.2242 40.967 11.2242C40.6545 11.1906 40.3645 11.0513 40.1484 10.8307C39.806 10.5245 39.5076 10.1753 39.2613 9.7925C38.9751 9.36406 38.7396 8.90606 38.5591 8.42699C38.387 8.00539 38.2943 7.55752 38.2852 7.10444C38.2961 6.49476 38.4507 5.89539 38.7372 5.35195C39.0031 4.79437 39.3605 4.28194 39.7956 3.83437C40.2032 3.42768 40.5389 3.22266 40.806 3.22266C40.9947 3.25054 41.1789 3.30164 41.3541 3.37474C41.6488 3.48124 41.9369 3.60389 42.2172 3.74186C42.4874 3.86878 42.7444 4.02034 42.9845 4.19472C43.2003 4.35342 43.3064 4.4923 43.3064 4.61463C43.3064 4.73697 43.1591 4.90891 42.868 5.19987C42.7348 5.32815 42.6122 5.46635 42.5015 5.61317C42.4432 5.69914 42.385 5.79182 42.3268 5.8844C42.2686 5.97698 42.2206 6.02986 42.1864 6.02986C42.1521 6.02986 42.0254 5.91744 41.861 5.69922C41.6614 5.4383 41.4238 5.20663 41.1554 5.01147C40.8199 4.78756 40.4375 4.63742 40.0354 4.57169C39.8409 4.97963 39.7471 5.42554 39.7613 5.87439C39.768 6.36657 39.8776 6.8525 40.0834 7.30285C40.2889 7.78746 40.5785 8.23471 40.9397 8.62541C41.2414 8.96798 41.6213 9.23833 42.0494 9.41552C42.3076 9.16437 42.5373 8.88726 42.7344 8.58892C42.7583 8.54352 42.7845 8.49941 42.8132 8.4567C42.8484 8.3852 42.8896 8.31659 42.9365 8.25167Z" fill="white"/>
<path d="M52.6433 6.56253L51.8315 6.43031C51.9528 6.15911 52.0224 5.8689 52.037 5.57384C52.037 5.01506 51.852 4.65151 51.4821 4.48619C51.0781 4.31726 50.6413 4.23375 50.2011 4.24144H49.9203C49.9203 4.49603 49.9203 4.76383 49.9203 5.04818V5.64666C49.8997 6.09302 49.8894 6.43361 49.8894 6.67167C49.8894 7.17755 49.8895 7.85865 49.9203 8.72493C49.9511 9.5912 49.9614 10.1335 49.9888 10.3484C49.9992 10.4667 49.9638 10.5845 49.8894 10.6791C49.7333 10.7668 49.5513 10.8016 49.3722 10.7782H48.4372C48.3772 10.7853 48.3164 10.7778 48.2601 10.7564C48.2039 10.735 48.1541 10.7004 48.1152 10.6558C48.0434 10.5243 48.0057 10.3779 48.0056 10.2293C48.0056 10.0177 47.9816 9.63081 47.9816 9.06541C47.9816 8.88356 47.9816 8.71177 47.9816 8.54314C47.9816 8.37451 47.9816 8.24218 47.9816 8.13307V7.49165C47.9816 6.93397 47.9919 6.36522 48.0124 5.7855C48.0124 5.73921 48.0125 5.57728 48.033 5.29293C48.0536 5.00858 48.0535 4.65812 48.0638 4.23821H47.783C46.5602 4.23821 45.9471 4.68457 45.9471 5.56077C45.9803 5.85305 46.0493 6.14045 46.1526 6.41707L45.3408 6.54929C45.1273 5.91893 44.8242 5.3203 44.44 4.77049C44.2927 4.57697 44.2027 4.34837 44.1797 4.10922C44.1785 3.971 44.2269 3.83668 44.3167 3.72901C44.3527 3.68138 44.3995 3.64222 44.4535 3.61471C44.5075 3.5872 44.5673 3.57209 44.6283 3.57031C44.714 3.57031 45.0154 3.60323 45.5326 3.67267C46.1977 3.72985 46.8653 3.7542 47.533 3.74548H50.4238C51.0925 3.75426 51.7613 3.72991 52.4275 3.67267C52.9378 3.60323 53.2358 3.57031 53.3283 3.57031C53.3894 3.57209 53.4491 3.5872 53.5032 3.61471C53.5572 3.64222 53.604 3.68138 53.64 3.72901C53.7298 3.83668 53.7782 3.971 53.777 4.10922C53.7557 4.34985 53.6629 4.57944 53.5099 4.77049C53.3177 5.04219 53.1427 5.32487 52.9858 5.61695C52.849 5.92407 52.7345 6.24001 52.6433 6.56253Z" fill="white"/>
<path d="M56.5958 6.66209L59.2331 5.14789C59.2708 4.59242 59.2948 4.2452 59.3085 4.10964C59.3115 4.0036 59.3527 3.90185 59.425 3.82195C59.5235 3.75187 59.6461 3.72116 59.7675 3.73606H61.117C61.254 3.73606 61.3225 3.81541 61.3225 3.97742C61.3225 4.03363 61.2985 4.24188 61.2471 4.59236C61.1223 5.27572 61.0593 5.96819 61.0588 6.66209C61.0576 7.86968 61.1411 9.07611 61.3088 10.2728C61.3186 10.391 61.2833 10.5086 61.2095 10.6034C61.1455 10.6696 60.9708 10.7026 60.6854 10.7026H59.7675C59.7016 10.7033 59.6364 10.6894 59.577 10.6619C59.5176 10.6344 59.4656 10.594 59.425 10.5439C59.3023 10.342 59.2284 10.1159 59.2091 9.88259C59.1479 9.3679 59.1216 8.84991 59.1304 8.33191C59.1304 7.4987 59.1578 6.64234 59.2126 5.76946L56.6061 7.28704C56.6333 8.28775 56.7133 9.28657 56.8458 10.2794C56.8563 10.3972 56.8222 10.5146 56.7499 10.6101C56.686 10.6762 56.5113 10.7092 56.2258 10.7092H55.3148C55.2526 10.7167 55.1895 10.7104 55.1301 10.6909C55.0708 10.6715 55.0168 10.6393 54.9723 10.5968C54.881 10.4553 54.8357 10.2906 54.8421 10.124C54.8421 9.71726 54.8078 9.4032 54.7839 9.17837C54.7313 8.45757 54.7051 7.63761 54.7051 6.71843C54.7051 6.05715 54.705 5.50829 54.7461 5.06523C54.7543 4.75538 54.7898 4.44675 54.8523 4.14274C54.8691 4.01379 54.9238 3.89216 55.0099 3.79224C55.0816 3.74 55.1702 3.71413 55.2599 3.71943H56.63C56.7636 3.71943 56.8287 3.79878 56.8287 3.96079C56.8287 4.00377 56.8047 4.20889 56.7533 4.57589C56.6452 5.26638 56.5925 5.96376 56.5958 6.66209Z" fill="white"/>
<path d="M67.3031 7.32266L64.8027 6.01996V6.94908C64.795 7.65804 64.8305 8.3668 64.9089 9.07176C64.9774 9.64376 65.015 10.044 65.015 10.2721C65.0234 10.3365 65.0164 10.4019 64.9944 10.4632C64.9725 10.5246 64.9361 10.5802 64.8883 10.6258C64.6694 10.7032 64.4354 10.7324 64.2033 10.7117H63.4703C63.4122 10.7151 63.3541 10.7049 63.301 10.6818C63.2479 10.6588 63.2014 10.6237 63.1655 10.5795C63.0752 10.4126 63.0238 10.2287 63.0148 10.0406C62.9708 9.65517 62.948 9.2677 62.9463 8.87996C62.9463 8.37739 62.9463 7.65997 62.9463 6.72096C62.9463 5.78194 62.9463 5.08422 62.9942 4.66431C62.9948 4.39583 63.0483 4.13003 63.1517 3.88082C63.1877 3.8258 63.2387 3.7814 63.2992 3.75279C63.3597 3.72418 63.4272 3.7124 63.4943 3.71873H63.7374H63.9636C64.1211 3.71873 64.3495 3.70886 64.6486 3.68902H64.8233C64.8528 3.69185 64.8813 3.7004 64.9073 3.71421C64.9333 3.72802 64.9561 3.74685 64.9744 3.76942C64.9926 3.79198 65.0059 3.81778 65.0135 3.84546C65.0211 3.87314 65.0228 3.90206 65.0184 3.93038C65.0326 4.12981 65.0106 4.33011 64.9534 4.52224C64.8858 4.80633 64.8524 5.09706 64.854 5.38855L67.3168 6.71111V6.04983C67.3082 5.52878 67.3311 5.00762 67.3853 4.48914C67.3965 4.26425 67.461 4.04485 67.5737 3.84772C67.6158 3.80043 67.6685 3.76306 67.7279 3.73842C67.7872 3.71378 67.8517 3.70248 67.9162 3.70549H68.132H68.3786C68.6187 3.70936 68.8589 3.69948 69.0979 3.67578H69.2657C69.326 3.68164 69.3815 3.71031 69.42 3.75554C69.4585 3.80076 69.4769 3.85886 69.4712 3.91714C69.4641 4.02882 69.4458 4.13956 69.4164 4.24778C69.3821 4.39657 69.3479 4.57838 69.3102 4.78668C69.235 5.39893 69.1995 6.01515 69.204 6.63168C69.204 7.29296 69.2212 7.83518 69.2554 8.2584C69.2862 8.675 69.3307 9.0718 69.3787 9.44873C69.4194 9.71165 69.4446 9.97655 69.4541 10.2422C69.4633 10.3067 69.4566 10.3724 69.4345 10.4339C69.4125 10.4953 69.3758 10.5509 69.3273 10.5961C69.1086 10.6742 68.8744 10.7035 68.6423 10.682H67.9128C67.8513 10.6875 67.7892 10.681 67.7303 10.6628C67.6715 10.6446 67.617 10.6152 67.5703 10.5763C67.4807 10.455 67.4284 10.3117 67.4195 10.163C67.3789 9.88352 67.3561 9.60186 67.351 9.31974C67.3305 8.98248 67.3145 8.31678 67.3031 7.32266Z" fill="white"/>
<path d="M72.9097 6.66209L75.5505 5.14789C75.5847 4.59242 75.6087 4.2452 75.6258 4.10964C75.6264 4.00375 75.6666 3.90157 75.7389 3.82195C75.8377 3.75249 75.9601 3.72184 76.0814 3.73606H77.4309C77.5679 3.73606 77.6364 3.81541 77.6364 3.97742C77.6364 4.03363 77.6125 4.24188 77.5611 4.59236C77.4363 5.27572 77.3732 5.96819 77.3727 6.66209C77.3715 7.86968 77.455 9.07611 77.6227 10.2728C77.6325 10.391 77.5972 10.5086 77.5234 10.6034C77.4572 10.6696 77.2825 10.7026 76.9993 10.7026H76.0814C76.0154 10.7041 75.9499 10.6906 75.8904 10.663C75.8309 10.6354 75.7789 10.5946 75.7389 10.5439C75.6132 10.3433 75.5392 10.1165 75.5231 9.88259C75.4587 9.36814 75.4312 8.85002 75.4409 8.33191C75.4409 7.4987 75.4683 6.64234 75.5266 5.76946L72.9165 7.28704C72.9431 8.2879 73.0243 9.28681 73.1597 10.2794C73.1695 10.3976 73.1342 10.5152 73.0604 10.6101C72.9964 10.6762 72.8218 10.7092 72.5364 10.7092H71.6253C71.5659 10.7137 71.5062 10.706 71.4501 10.6866C71.394 10.6672 71.3428 10.6367 71.2999 10.5968C71.2087 10.4554 71.1644 10.2903 71.1731 10.124C71.156 9.71726 71.1355 9.4032 71.1115 9.17837C71.0612 8.45757 71.0361 7.63761 71.0361 6.71843C71.0361 6.05715 71.0362 5.50829 71.0738 5.06523C71.0837 4.7555 71.1192 4.44701 71.18 4.14274C71.1984 4.01422 71.2529 3.893 71.3376 3.79224C71.4093 3.74 71.498 3.71413 71.5876 3.71943H72.9782C73.1083 3.71943 73.1734 3.79878 73.1734 3.96079C73.1734 4.00377 73.1495 4.20889 73.0981 4.57589C72.9814 5.26583 72.9185 5.96308 72.9097 6.66209Z" fill="white"/>
<path d="M81.3183 10.1997H83.6782C83.6782 9.98481 83.6783 9.71693 83.6577 9.39621C83.6372 9.07549 83.6372 8.79444 83.6337 8.56299C83.6337 8.39437 83.6337 8.19935 83.6337 7.96791C83.6337 7.73646 83.6337 7.50497 83.6337 7.26691C83.6337 7.02885 83.6337 6.84711 83.6337 6.71816C83.6337 5.82543 83.6543 5.16416 83.6954 4.73432C83.7031 4.44793 83.7658 4.1654 83.8803 3.90111C83.9152 3.84407 83.9655 3.79728 84.0258 3.76582C84.0862 3.73435 84.1543 3.71939 84.2229 3.72255H84.5654H84.8736C84.9901 3.72255 85.1716 3.72244 85.4217 3.69268H85.5895C85.6192 3.69556 85.6482 3.70414 85.6745 3.71787C85.7008 3.73159 85.724 3.75031 85.7428 3.77276C85.7616 3.79521 85.7755 3.82093 85.7839 3.84864C85.7923 3.87634 85.7949 3.90536 85.7916 3.93404C85.7833 4.04581 85.7637 4.15654 85.7333 4.26468C85.6956 4.42008 85.6649 4.59539 85.6341 4.82683C85.5577 5.43345 85.5222 6.04414 85.5279 6.6552V8.13984C85.5156 8.59183 85.5408 9.04399 85.6032 9.49211C85.6546 9.75662 85.7676 9.91199 85.9457 9.96159H86.2266C86.3011 9.94705 86.3744 9.92726 86.4458 9.90218L86.6787 9.85261C86.7544 9.83888 86.8312 9.83104 86.9082 9.82937C86.9682 9.82479 87.0285 9.83316 87.0847 9.85374C87.141 9.87432 87.1918 9.90672 87.2336 9.94851C87.2684 9.98065 87.2962 10.019 87.3156 10.0615C87.335 10.1041 87.3456 10.15 87.3466 10.1965C87.2911 10.5376 87.1922 10.8707 87.052 11.1884C86.8488 11.7329 86.5885 12.5044 86.2711 13.5029H85.4217C85.5188 13.1462 85.5751 12.7802 85.5895 12.4117C85.6053 12.0826 85.542 11.7544 85.4045 11.4529C85.3141 11.3143 85.1957 11.1947 85.0562 11.1016C84.9166 11.0084 84.759 10.9434 84.5928 10.9106C83.9646 10.7542 83.3161 10.6874 82.6678 10.7121H82.0753C81.8047 10.7121 81.5957 10.7121 81.4553 10.7121C80.9278 10.7287 80.5545 10.7453 80.3353 10.7651C80.116 10.7849 79.9551 10.7948 79.8523 10.7948C79.799 10.8001 79.7451 10.795 79.6939 10.7796C79.6427 10.7643 79.5953 10.739 79.5544 10.7055C79.4696 10.5696 79.4234 10.4145 79.4208 10.2559C79.3838 9.89664 79.3667 9.53573 79.3694 9.17471C79.3694 8.70189 79.3694 7.88192 79.3694 6.70815C79.3694 6.02703 79.3694 5.47156 79.4173 5.05495C79.43 4.74909 79.4701 4.44486 79.5373 4.1457C79.5605 4.0151 79.6197 3.89299 79.7085 3.79197C79.7822 3.74098 79.8714 3.71529 79.962 3.71916H80.2599H80.6024C80.736 3.71916 80.9141 3.71921 81.1402 3.68945H81.3012C81.3307 3.69228 81.3593 3.70083 81.3853 3.71464C81.4113 3.72845 81.4341 3.74729 81.4524 3.76985C81.4706 3.79242 81.4839 3.81822 81.4915 3.84589C81.4991 3.87357 81.5008 3.90249 81.4964 3.93081C81.4821 4.16167 81.4524 4.39141 81.4074 4.61857C81.3045 5.28845 81.2541 5.96492 81.2567 6.64212C81.2042 7.61861 81.2247 8.80442 81.3183 10.1997Z" fill="white"/>
<path d="M90.9434 3.73633H92.519C92.6251 3.73633 92.6868 3.7661 92.7074 3.83223C92.7279 3.89835 92.7074 3.93472 92.7245 3.99755C92.7416 4.06037 92.7245 4.13639 92.7485 4.21905C92.7725 4.30171 92.7827 4.40742 92.8136 4.53306L92.9368 4.93651C92.9745 5.07207 93.0122 5.2242 93.0499 5.38952C93.0807 5.4821 93.1184 5.63076 93.1698 5.83576C93.4895 7.07676 93.752 8.00489 93.9575 8.61988C94.163 9.23486 94.3377 9.69766 94.4816 10.0085C94.5716 10.188 94.6373 10.378 94.6768 10.5738C94.6768 10.6664 94.5741 10.7127 94.3686 10.7127H92.7827C92.7074 10.7127 92.6526 10.6333 92.6183 10.4713C92.5841 10.3093 92.5224 10.0548 92.4128 9.68783C92.3682 9.57211 92.3067 9.38358 92.2313 9.12568C92.1559 8.86778 92.108 8.68924 92.0258 8.4644C91.5143 10.0845 90.6957 10.8946 89.5699 10.8946C89.212 10.9069 88.8623 10.7889 88.5903 10.564C88.3458 10.3584 88.1625 10.0935 88.0594 9.79681C87.9598 9.51686 87.9078 9.22325 87.9053 8.92727C87.9108 8.6371 87.9785 8.35117 88.104 8.08743C88.2493 7.77674 88.4247 7.48015 88.628 7.20142C88.8438 6.90715 89.0219 6.67898 89.1657 6.51367C89.3096 6.34835 89.5391 6.10036 89.8507 5.76311C89.9878 5.60771 90.1454 5.43246 90.3269 5.26053C90.4485 5.13901 90.5628 5.01091 90.6694 4.87694C90.7284 4.80907 90.7622 4.72411 90.7653 4.63558C90.7546 4.46237 90.7165 4.29184 90.6523 4.12977C90.6229 4.03312 90.6079 3.93296 90.6078 3.83223C90.6249 3.7661 90.7311 3.73633 90.9434 3.73633ZM91.0633 5.22081C90.568 5.70777 90.1533 6.26535 89.8337 6.87401C89.6477 7.213 89.5314 7.5836 89.4912 7.96522C89.4899 8.21679 89.5714 8.46213 89.7241 8.66605C89.801 8.7705 89.9043 8.8542 90.0242 8.90918C90.1441 8.96417 90.2766 8.98867 90.4091 8.98022C90.6617 8.9872 90.9104 8.91915 91.1216 8.7852C91.3154 8.66367 91.4725 8.49486 91.577 8.29586C91.6706 8.13378 91.7223 7.95227 91.7277 7.7668C91.6858 7.39539 91.602 7.02941 91.4777 6.67559C91.3784 6.34496 91.3134 6.14327 91.2825 6.01432C91.2246 5.74613 91.1513 5.48125 91.0633 5.22081Z" fill="white"/>
</svg>
