<svg width="140" height="30" viewBox="0 0 140 30" fill="none" xmlns="http://www.w3.org/2000/svg">
<path d="M22.7791 2.09375C22.7791 1.81761 22.5552 1.59375 22.2791 1.59375H1C0.723858 1.59375 0.5 1.81761 0.5 2.09375V3.81886V5.89074C0.5 6.16688 0.723858 6.39074 1 6.39074H7.28733V20.1944C7.28733 22.3525 7.6571 24.101 8.45701 25.3865C9.23943 26.6465 10.3074 27.536 11.6488 28.0359C12.9449 28.5189 14.372 28.7565 15.9287 28.7565C16.9484 28.7565 17.9228 28.6673 18.8467 28.492C19.7543 28.3199 20.4985 28.1167 21.0556 27.8802C21.2403 27.8018 21.3602 27.6206 21.3602 27.42V23.9004C21.3602 23.7409 21.2841 23.591 21.1553 23.4968C21.0266 23.4027 20.8606 23.3756 20.7086 23.4239C20.1964 23.5869 19.584 23.7205 18.8666 23.8262L18.8637 23.8266C18.1549 23.9352 17.4449 23.9856 16.7419 23.9856C15.5507 23.9856 14.6517 23.6622 13.9987 23.0671C13.3853 22.508 13.0112 21.4972 13.0112 19.8954V6.39074H22.2791C22.5552 6.39074 22.7791 6.16688 22.7791 5.89074V2.09375Z" fill="white" stroke="white" stroke-linejoin="round"/>
<path d="M43.6529 10.1512C43.4329 10.5792 43.1729 11.0272 42.8769 11.4912L38.6289 18.2392H44.2089V14.1072C44.2089 13.7192 44.2169 13.2592 44.2329 12.7232C44.2489 12.1912 44.2689 11.6552 44.2889 11.1232C44.3089 10.5912 44.3329 10.1152 44.3609 9.69924C44.3889 9.28324 44.4049 8.99124 44.4169 8.82324H44.2889C44.0889 9.28324 43.8769 9.72324 43.6529 10.1512Z" fill="white"/>
<path d="M57.009 0H29.409C28.745 0 28.209 0.536 28.209 1.2V28.8C28.209 29.464 28.745 30 29.409 30H57.009C57.673 30 58.209 29.464 58.209 28.8V1.2C58.209 0.536 57.673 0 57.009 0ZM51.785 22.24H48.993V27.288H44.205V22.24H34.313V18.656L44.473 2.928H48.993V18.24H51.785V22.24Z" fill="white"/>
<path d="M73.6794 4.19763V12.0373H71.4062V6.06282H68.1421V12.0373H65.8835V4.19763H73.6794Z" fill="white"/>
<path d="M80.9153 4.08105C81.6439 4.08105 82.3045 4.25106 82.8971 4.59107C83.4994 4.92136 83.9706 5.39252 84.3106 6.00454C84.6506 6.60684 84.8206 7.31115 84.8206 8.11745C84.8206 8.92376 84.6506 9.63293 84.3106 10.2449C83.9706 10.8472 83.4994 11.3184 82.8971 11.6584C82.3045 11.9887 81.6439 12.1539 80.9153 12.1539C79.9147 12.1539 79.1279 11.8381 78.5547 11.2067V14.8642H76.2815V4.19763H78.4527V5.10108C79.0161 4.42106 79.837 4.08105 80.9153 4.08105ZM80.5219 10.2887C81.1048 10.2887 81.5808 10.0944 81.9499 9.70579C82.3288 9.30749 82.5182 8.77804 82.5182 8.11745C82.5182 7.45686 82.3288 6.93228 81.9499 6.5437C81.5808 6.1454 81.1048 5.94625 80.5219 5.94625C79.939 5.94625 79.4582 6.1454 79.0793 6.5437C78.7101 6.93228 78.5256 7.45686 78.5256 8.11745C78.5256 8.77804 78.7101 9.30749 79.0793 9.70579C79.4582 10.0944 79.939 10.2887 80.5219 10.2887Z" fill="white"/>
<path d="M86.851 4.19763H89.1096V8.86062L92.9274 4.19763H95.0112V12.0373H92.7526V7.37429L88.9493 12.0373H86.851V4.19763Z" fill="white"/>
<path d="M105.284 12.0373V7.34515L102.938 11.2795H101.976L99.6882 7.33057V12.0373H97.6336V4.19763H100.009L102.515 8.72947L105.182 4.19763H107.309L107.338 12.0373H105.284Z" fill="white"/>
<path d="M117.574 8.1466C117.574 8.17574 117.56 8.37975 117.53 8.75862H111.6C111.707 9.24434 111.959 9.62807 112.357 9.90979C112.756 10.1915 113.251 10.3324 113.844 10.3324C114.252 10.3324 114.611 10.2741 114.922 10.1575C115.243 10.0312 115.539 9.83693 115.811 9.57464L117.02 10.8861C116.282 11.7313 115.204 12.1539 113.785 12.1539C112.901 12.1539 112.119 11.9838 111.439 11.6438C110.759 11.2941 110.235 10.8132 109.866 10.2012C109.496 9.58921 109.312 8.89462 109.312 8.11745C109.312 7.35 109.492 6.66027 109.851 6.04825C110.22 5.42652 110.72 4.94565 111.352 4.60564C111.993 4.25592 112.707 4.08105 113.494 4.08105C114.261 4.08105 114.956 4.2462 115.578 4.5765C116.199 4.90679 116.685 5.38281 117.035 6.00454C117.394 6.61655 117.574 7.33057 117.574 8.1466ZM113.509 5.80053C112.994 5.80053 112.561 5.94625 112.212 6.23769C111.862 6.52912 111.648 6.92742 111.571 7.43258H115.432C115.354 6.93714 115.141 6.5437 114.791 6.25226C114.441 5.95111 114.014 5.80053 113.509 5.80053Z" fill="white"/>
<path d="M124.373 4.08105C125.102 4.08105 125.762 4.25106 126.355 4.59107C126.957 4.92136 127.428 5.39252 127.768 6.00454C128.108 6.60684 128.278 7.31115 128.278 8.11745C128.278 8.92376 128.108 9.63293 127.768 10.2449C127.428 10.8472 126.957 11.3184 126.355 11.6584C125.762 11.9887 125.102 12.1539 124.373 12.1539C123.372 12.1539 122.586 11.8381 122.012 11.2067V14.8642H119.739V4.19763H121.91V5.10108C122.474 4.42106 123.295 4.08105 124.373 4.08105ZM123.98 10.2887C124.562 10.2887 125.038 10.0944 125.408 9.70579C125.786 9.30749 125.976 8.77804 125.976 8.11745C125.976 7.45686 125.786 6.93228 125.408 6.5437C125.038 6.1454 124.562 5.94625 123.98 5.94625C123.397 5.94625 122.916 6.1454 122.537 6.5437C122.168 6.93228 121.983 7.45686 121.983 8.11745C121.983 8.77804 122.168 9.30749 122.537 9.70579C122.916 10.0944 123.397 10.2887 123.98 10.2887Z" fill="white"/>
<path d="M73.4025 20.0366V27.8762H71.1293V21.9018H68.6521L68.5793 23.2861C68.5404 24.3158 68.4432 25.1707 68.2878 25.8507C68.1324 26.5308 67.8798 27.0651 67.5301 27.4537C67.1804 27.8422 66.6946 28.0365 66.0729 28.0365C65.7426 28.0365 65.3492 27.9782 64.8926 27.8617L65.0092 25.9965C65.1646 26.0159 65.2763 26.0256 65.3443 26.0256C65.6843 26.0256 65.9369 25.9042 66.102 25.6613C66.2769 25.4087 66.3935 25.093 66.4518 24.7141C66.5101 24.3256 66.5538 23.8155 66.5829 23.1841L66.6995 20.0366H73.4025Z" fill="white"/>
<path d="M79.6978 27.9928C78.8721 27.9928 78.1289 27.8228 77.4683 27.4828C76.8174 27.1331 76.3074 26.6522 75.9383 26.0402C75.5691 25.4282 75.3845 24.7336 75.3845 23.9564C75.3845 23.1792 75.5691 22.4847 75.9383 21.8726C76.3074 21.2606 76.8174 20.7846 77.4683 20.4446C78.1289 20.0949 78.8721 19.92 79.6978 19.92C80.5235 19.92 81.2618 20.0949 81.9127 20.4446C82.5636 20.7846 83.0736 21.2606 83.4428 21.8726C83.8119 22.4847 83.9965 23.1792 83.9965 23.9564C83.9965 24.7336 83.8119 25.4282 83.4428 26.0402C83.0736 26.6522 82.5636 27.1331 81.9127 27.4828C81.2618 27.8228 80.5235 27.9928 79.6978 27.9928ZM79.6978 26.1276C80.2807 26.1276 80.7567 25.9333 81.1258 25.5447C81.5047 25.1464 81.6941 24.617 81.6941 23.9564C81.6941 23.2958 81.5047 22.7712 81.1258 22.3827C80.7567 21.9844 80.2807 21.7852 79.6978 21.7852C79.1149 21.7852 78.6341 21.9844 78.2552 22.3827C77.8763 22.7712 77.6869 23.2958 77.6869 23.9564C77.6869 24.617 77.8763 25.1464 78.2552 25.5447C78.6341 25.9333 79.1149 26.1276 79.6978 26.1276Z" fill="white"/>
<path d="M92.2776 21.9018H88.2558V27.8762H85.9972V20.0366H92.2776V21.9018Z" fill="white"/>
<path d="M97.2643 27.9928C96.4385 27.9928 95.6954 27.8228 95.0348 27.4828C94.3839 27.1331 93.8739 26.6522 93.5047 26.0402C93.1356 25.4282 92.951 24.7336 92.951 23.9564C92.951 23.1792 93.1356 22.4847 93.5047 21.8726C93.8739 21.2606 94.3839 20.7846 95.0348 20.4446C95.6954 20.0949 96.4385 19.92 97.2643 19.92C98.09 19.92 98.8283 20.0949 99.4792 20.4446C100.13 20.7846 100.64 21.2606 101.009 21.8726C101.378 22.4847 101.563 23.1792 101.563 23.9564C101.563 24.7336 101.378 25.4282 101.009 26.0402C100.64 26.6522 100.13 27.1331 99.4792 27.4828C98.8283 27.8228 98.09 27.9928 97.2643 27.9928ZM97.2643 26.1276C97.8471 26.1276 98.3231 25.9333 98.6923 25.5447C99.0712 25.1464 99.2606 24.617 99.2606 23.9564C99.2606 23.2958 99.0712 22.7712 98.6923 22.3827C98.3231 21.9844 97.8471 21.7852 97.2643 21.7852C96.6814 21.7852 96.2005 21.9844 95.8216 22.3827C95.4428 22.7712 95.2533 23.2958 95.2533 23.9564C95.2533 24.617 95.4428 25.1464 95.8216 25.5447C96.2005 25.9333 96.6814 26.1276 97.2643 26.1276Z" fill="white"/>
<path d="M109.865 21.9018H107.213V27.8762H104.955V21.9018H102.303V20.0366H109.865V21.9018Z" fill="white"/>
<path d="M111.514 20.0366H113.773V24.6996L117.591 20.0366H119.675V27.8762H117.416V23.2132L113.613 27.8762H111.514V20.0366Z" fill="white"/>
<path d="M130.093 20.0366V27.8762H127.82V21.9018H124.556V27.8762H122.297V20.0366H130.093Z" fill="white"/>
<path d="M135.755 19.92C136.969 19.92 137.902 20.2114 138.553 20.7943C139.204 21.3675 139.529 22.2369 139.529 23.4027V27.8762H137.402V26.8999C136.974 27.6285 136.178 27.9928 135.012 27.9928C134.41 27.9928 133.885 27.8908 133.438 27.6868C133.001 27.4828 132.666 27.2011 132.433 26.8416C132.2 26.4822 132.083 26.0742 132.083 25.6176C132.083 24.889 132.355 24.3158 132.899 23.8981C133.453 23.4804 134.303 23.2715 135.449 23.2715H137.256C137.256 22.7761 137.105 22.3972 136.804 22.1349C136.503 21.8629 136.051 21.7269 135.449 21.7269C135.031 21.7269 134.618 21.7949 134.21 21.9309C133.812 22.0572 133.472 22.2321 133.19 22.4555L132.374 20.8672C132.802 20.566 133.312 20.3329 133.904 20.1677C134.507 20.0026 135.124 19.92 135.755 19.92ZM135.58 26.4628C135.969 26.4628 136.314 26.3753 136.615 26.2005C136.916 26.0159 137.13 25.7487 137.256 25.399V24.5976H135.697C134.764 24.5976 134.298 24.9036 134.298 25.5156C134.298 25.807 134.41 26.0402 134.633 26.215C134.866 26.3802 135.182 26.4628 135.58 26.4628Z" fill="white"/>
</svg>
