<svg width="21" height="14" viewBox="0 0 21 14" fill="none" xmlns="http://www.w3.org/2000/svg">
<path d="M0.0462718 0.410162C0.109956 0.251394 0.234085 0.124417 0.391368 0.057148C0.548651 -0.0101206 0.72621 -0.0121729 0.885006 0.0514424L3.15217 0.958566C3.61356 1.14309 4.12824 1.14309 4.58963 0.958566L5.89806 0.434679C6.66716 0.127027 7.52515 0.127027 8.29425 0.434679L9.60397 0.958566C10.0654 1.14309 10.58 1.14309 11.0414 0.958566L12.3499 0.434679C13.119 0.127027 13.9769 0.127027 14.7461 0.434679L16.0558 0.958566C16.5172 1.14309 17.0318 1.14309 17.4932 0.958566L19.7604 0.0514424C19.8394 0.0178481 19.9243 0.000360951 20.0102 5.52911e-06C20.096 -0.000349893 20.1811 0.0164335 20.2604 0.0493725C20.3397 0.0823115 20.4116 0.130743 20.4719 0.19183C20.5322 0.252917 20.5798 0.32543 20.6117 0.405121C20.6437 0.484811 20.6594 0.570077 20.6579 0.655919C20.6565 0.741762 20.638 0.826457 20.6034 0.90504C20.5688 0.983623 20.5189 1.05451 20.4566 1.11356C20.3942 1.1726 20.3207 1.21861 20.2404 1.2489L17.972 2.15602C17.2028 2.46367 16.3449 2.46367 15.5758 2.15602L14.2673 1.63213C13.8059 1.44761 13.2913 1.44761 12.8299 1.63213L11.5202 2.15602C10.751 2.46367 9.89306 2.46367 9.12396 2.15602L7.81553 1.63213C7.35414 1.44761 6.83946 1.44761 6.37807 1.63213L5.06835 2.15602C4.29925 2.46367 3.44126 2.46367 2.67215 2.15602L0.404992 1.2489C0.246224 1.18521 0.119246 1.06108 0.0519774 0.9038C-0.0152912 0.746517 -0.0173435 0.568958 0.0462718 0.410162ZM0.0462718 4.28124C0.109956 4.12248 0.234085 3.9955 0.391368 3.92823C0.548651 3.86096 0.72621 3.85891 0.885006 3.92252L3.15217 4.82965C3.61356 5.01417 4.12824 5.01417 4.58963 4.82965L5.89806 4.30576C6.66716 3.99811 7.52515 3.99811 8.29425 4.30576L9.60397 4.82965C10.0654 5.01417 10.58 5.01417 11.0414 4.82965L12.3499 4.30576C13.119 3.99811 13.9769 3.99811 14.7461 4.30576L16.0558 4.82965C16.5172 5.01417 17.0318 5.01417 17.4932 4.82965L19.7604 3.92252C19.8394 3.88893 19.9243 3.87144 20.0102 3.87109C20.096 3.87073 20.1811 3.88751 20.2604 3.92045C20.3397 3.95339 20.4116 4.00182 20.4719 4.06291C20.5322 4.124 20.5798 4.19651 20.6117 4.2762C20.6437 4.35589 20.6594 4.44116 20.6579 4.527C20.6565 4.61284 20.638 4.69754 20.6034 4.77612C20.5688 4.8547 20.5189 4.92559 20.4566 4.98464C20.3942 5.04368 20.3207 5.0897 20.2404 5.11998L17.972 6.0271C17.2028 6.33475 16.3449 6.33475 15.5758 6.0271L14.2673 5.50321C13.8059 5.31869 13.2913 5.31869 12.8299 5.50321L11.5202 6.0271C10.751 6.33475 9.89306 6.33475 9.12396 6.0271L7.81553 5.50321C7.35414 5.31869 6.83946 5.31869 6.37807 5.50321L5.06835 6.0271C4.29925 6.33475 3.44126 6.33475 2.67215 6.0271L0.404992 5.11998C0.246224 5.05629 0.119246 4.93216 0.0519774 4.77488C-0.0152912 4.6176 -0.0173435 4.44004 0.0462718 4.28124ZM0.0462718 8.15232C0.109956 7.99356 0.234085 7.86658 0.391368 7.79931C0.548651 7.73204 0.72621 7.72999 0.885006 7.7936L3.15217 8.70073C3.61356 8.88525 4.12824 8.88525 4.58963 8.70073L5.89806 8.17684C6.66716 7.86919 7.52515 7.86919 8.29425 8.17684L9.60397 8.70073C10.0654 8.88525 10.58 8.88525 11.0414 8.70073L12.3499 8.17684C13.119 7.86919 13.9769 7.86919 14.7461 8.17684L16.0558 8.70073C16.5172 8.88525 17.0318 8.88525 17.4932 8.70073L19.7604 7.7936C19.8394 7.76001 19.9243 7.74252 20.0102 7.74217C20.096 7.74181 20.1811 7.75859 20.2604 7.79153C20.3397 7.82447 20.4116 7.8729 20.4719 7.93399C20.5322 7.99508 20.5798 8.06759 20.6117 8.14728C20.6437 8.22697 20.6594 8.31224 20.6579 8.39808C20.6565 8.48392 20.638 8.56862 20.6034 8.6472C20.5688 8.72578 20.5189 8.79667 20.4566 8.85572C20.3942 8.91476 20.3207 8.96078 20.2404 8.99106L17.972 9.89818C17.2028 10.2058 16.3449 10.2058 15.5758 9.89818L14.2673 9.37429C13.8059 9.18977 13.2913 9.18977 12.8299 9.37429L11.5202 9.89818C10.751 10.2058 9.89306 10.2058 9.12396 9.89818L7.81553 9.37429C7.35414 9.18977 6.83946 9.18977 6.37807 9.37429L5.06835 9.89818C4.29925 10.2058 3.44126 10.2058 2.67215 9.89818L0.404992 8.99106C0.246224 8.92737 0.119246 8.80324 0.0519774 8.64596C-0.0152912 8.48868 -0.0173435 8.31112 0.0462718 8.15232ZM0.0462718 12.0234C0.109956 11.8646 0.234085 11.7377 0.391368 11.6704C0.548651 11.6031 0.72621 11.6011 0.885006 11.6647L3.15217 12.5718C3.61356 12.7563 4.12824 12.7563 4.58963 12.5718L5.89806 12.0479C6.66716 11.7403 7.52515 11.7403 8.29425 12.0479L9.60397 12.5718C10.0654 12.7563 10.58 12.7563 11.0414 12.5718L12.3499 12.0479C13.119 11.7403 13.9769 11.7403 14.7461 12.0479L16.0558 12.5718C16.5172 12.7563 17.0318 12.7563 17.4932 12.5718L19.7604 11.6647C19.8394 11.6311 19.9243 11.6136 20.0102 11.6132C20.096 11.6129 20.1811 11.6297 20.2604 11.6626C20.3397 11.6956 20.4116 11.744 20.4719 11.8051C20.5322 11.8662 20.5798 11.9387 20.6117 12.0184C20.6437 12.0981 20.6594 12.1833 20.6579 12.2692C20.6565 12.355 20.638 12.4397 20.6034 12.5183C20.5688 12.5969 20.5189 12.6678 20.4566 12.7268C20.3942 12.7858 20.3207 12.8319 20.2404 12.8621L17.972 13.7693C17.2028 14.0769 16.3449 14.0769 15.5758 13.7693L14.2673 13.2454C13.8059 13.0609 13.2913 13.0609 12.8299 13.2454L11.5202 13.7693C10.751 14.0769 9.89306 14.0769 9.12396 13.7693L7.81553 13.2454C7.35414 13.0609 6.83946 13.0609 6.37807 13.2454L5.06835 13.7693C4.29925 14.0769 3.44126 14.0769 2.67215 13.7693L0.404992 12.8621C0.246224 12.7985 0.119246 12.6743 0.0519774 12.517C-0.0152912 12.3598 -0.0173435 12.1822 0.0462718 12.0234Z" fill="#292F35"/>
</svg>
