<svg width="22" height="15" viewBox="0 0 22 15" fill="none" xmlns="http://www.w3.org/2000/svg">
<path d="M21.7379 4.53978C21.8112 4.4686 21.8681 4.38239 21.9049 4.28708C21.9417 4.19177 21.9573 4.08962 21.9508 3.98767C21.9443 3.88572 21.9158 3.7864 21.8672 3.69654C21.8186 3.60668 21.7511 3.52841 21.6694 3.46714C18.5623 1.20812 14.8181 -0.00592618 10.9765 2.17514e-05C6.98185 2.17514e-05 3.28592 1.28544 0.283706 3.46714C0.201866 3.5283 0.134258 3.60648 0.0855385 3.69628C0.0368193 3.78609 0.0081475 3.88538 0.00149848 3.98734C-0.00515054 4.08929 0.0103812 4.19147 0.0470237 4.28684C0.0836663 4.38221 0.140548 4.4685 0.213752 4.53978C0.34112 4.66523 0.508877 4.74141 0.687154 4.75475C0.865432 4.7681 1.04266 4.71774 1.18728 4.61265C4.03668 2.55626 7.4626 1.45203 10.9765 1.45741C14.6302 1.45741 18.0113 2.62623 20.7643 4.61119C21.0631 4.82688 21.4785 4.80065 21.7379 4.53978Z" fill="#292F35"/>
<path d="M18.5964 7.68181C18.6715 7.60935 18.7295 7.52108 18.7662 7.4234C18.8029 7.32572 18.8174 7.22109 18.8086 7.11711C18.7998 7.01313 18.768 6.91242 18.7154 6.82229C18.6628 6.73216 18.5908 6.65488 18.5046 6.59606C16.2637 5.14041 13.6479 4.36772 10.9757 4.37209C8.19942 4.37209 5.61256 5.18822 3.44689 6.59606C3.36025 6.65453 3.28782 6.73167 3.23491 6.82181C3.182 6.91196 3.14997 7.01281 3.14116 7.11696C3.13235 7.22111 3.147 7.32591 3.18401 7.42366C3.22103 7.52141 3.27948 7.60962 3.35507 7.68181C3.47925 7.803 3.64093 7.87839 3.81359 7.89561C3.98625 7.91282 4.15963 7.87084 4.30529 7.77654C6.29611 6.50141 8.61157 5.82554 10.9757 5.82947C13.3394 5.82582 15.6543 6.50168 17.6447 7.77654C17.945 7.96892 18.3443 7.93394 18.5964 7.68181ZM15.4149 10.8633C15.7443 10.5339 15.6846 9.98156 15.2692 9.77024C13.9393 9.0935 12.4679 8.74187 10.9757 8.74424C9.43091 8.74424 7.97061 9.11442 6.68228 9.77024C6.26693 9.98156 6.20718 10.5339 6.53655 10.8633L6.55841 10.8851C6.79159 11.1183 7.15156 11.162 7.44887 11.0163C8.54661 10.4783 9.75325 10.1996 10.9757 10.2016C12.2408 10.2016 13.4387 10.4946 14.5026 11.0178C14.7985 11.1635 15.1584 11.1198 15.3916 10.8851L15.4149 10.8633ZM12.5206 13.7576C12.8062 13.472 12.8091 12.9998 12.4623 12.7958C12.0126 12.5281 11.499 12.3871 10.9757 12.3877C10.4525 12.3871 9.93884 12.5281 9.48921 12.7958C9.14235 12.9998 9.14527 13.472 9.43091 13.7576L10.4598 14.7866C10.5965 14.9232 10.7818 14.9999 10.975 14.9999C11.1682 14.9999 11.3535 14.9232 11.4902 14.7866L12.5206 13.7576Z" fill="#292F35"/>
</svg>
