<svg width="18" height="18" viewBox="0 0 18 18" fill="none" xmlns="http://www.w3.org/2000/svg">
<path d="M9.56284 6.18737C9.56284 6.03819 9.50358 5.89511 9.39809 5.78963C9.29261 5.68414 9.14953 5.62488 9.00035 5.62488C8.85117 5.62488 8.7081 5.68414 8.60261 5.78963C8.49712 5.89511 8.43786 6.03819 8.43786 6.18737V9.96955L6.83027 12.647C6.75344 12.775 6.7306 12.9283 6.76678 13.0731C6.80297 13.2179 6.8952 13.3425 7.0232 13.4193C7.1512 13.4961 7.30447 13.519 7.44931 13.4828C7.59414 13.4466 7.71867 13.3544 7.7955 13.2264L9.48297 10.4139C9.53527 10.3266 9.56288 10.2266 9.56284 10.1248V6.18737Z" fill="#292F35"/>
<path d="M7.31237 0C7.16319 0 7.02012 0.0592622 6.91463 0.16475C6.80914 0.270237 6.74988 0.413309 6.74988 0.56249C6.74988 0.711672 6.80914 0.854744 6.91463 0.960231C7.02012 1.06572 7.16319 1.12498 7.31237 1.12498H7.87486V2.32871C6.34295 2.55003 4.9102 3.21783 3.75561 4.24868C2.60102 5.27953 1.77576 6.62774 1.38293 8.12488C0.990101 9.62202 1.04712 11.2017 1.54685 12.6667C2.04659 14.1316 2.9669 15.4168 4.1928 16.3617L3.51556 17.039C3.40994 17.1444 3.35055 17.2875 3.35044 17.4368C3.35034 17.5861 3.40953 17.7293 3.515 17.8349C3.62047 17.9405 3.76358 17.9999 3.91285 18C4.06211 18.0001 4.2053 17.9409 4.31093 17.8354L5.15016 16.9962C6.32578 17.6561 7.65169 18.0017 8.99984 17.9997C10.348 18.0017 11.6739 17.6561 12.8495 16.9962L13.6888 17.8354C13.7944 17.9409 13.9376 18.0001 14.0868 18C14.2361 17.9999 14.3792 17.9405 14.4847 17.8349C14.5902 17.7293 14.6494 17.5861 14.6492 17.4368C14.6491 17.2875 14.5897 17.1444 14.4841 17.039L13.808 16.3617C15.0339 15.4167 15.9542 14.1314 16.4539 12.6664C16.9536 11.2014 17.0105 9.62162 16.6176 8.12445C16.2246 6.62728 15.3992 5.27908 14.2444 4.2483C13.0897 3.21752 11.6568 2.54985 10.1248 2.32871V1.12498H10.6873C10.8365 1.12498 10.9796 1.06572 11.0851 0.960231C11.1905 0.854744 11.2498 0.711672 11.2498 0.56249C11.2498 0.413309 11.1905 0.270237 11.0851 0.16475C10.9796 0.0592622 10.8365 0 10.6873 0L7.31237 0ZM8.4801 3.39519C8.8261 3.36888 9.17359 3.36888 9.51958 3.39519C11.2596 3.52957 12.8799 4.33263 14.0405 5.63587C15.2012 6.93912 15.812 8.64124 15.7447 10.3851C15.6775 12.129 14.9374 13.779 13.6799 14.989C12.4223 16.199 10.745 16.8749 8.99984 16.8749C7.25469 16.8749 5.57736 16.199 4.31981 14.989C3.06225 13.779 2.32221 12.129 2.25497 10.3851C2.18773 8.64124 2.79852 6.93912 3.95917 5.63587C5.11983 4.33263 6.74013 3.52957 8.4801 3.39519ZM2.84943e-09 3.93743C2.84943e-09 4.78454 0.374619 5.54503 0.967483 6.06027C1.83568 4.35024 3.22526 2.96066 4.93529 2.09246C4.55941 1.65994 4.06038 1.35256 3.505 1.21145C2.94961 1.07035 2.36438 1.10226 1.82763 1.30291C1.29088 1.50357 0.828234 1.86339 0.50161 2.33422C0.174986 2.80504 -2.57849e-05 3.3644 2.84943e-09 3.93743ZM15.1872 1.12498C14.3401 1.12498 13.5796 1.4996 13.0644 2.09246C14.7744 2.96066 16.164 4.35024 17.0322 6.06027C17.4647 5.68439 17.7721 5.18536 17.9132 4.62998C18.0543 4.07459 18.0224 3.48936 17.8218 2.95261C17.6211 2.41586 17.2613 1.95321 16.7905 1.62659C16.3196 1.29997 15.7603 1.12495 15.1872 1.12498Z" fill="#292F35"/>
</svg>
