<svg width="16" height="18" viewBox="0 0 16 18" fill="none" xmlns="http://www.w3.org/2000/svg">
<path d="M7.87261 18C7.72342 18 7.58035 17.9407 7.47486 17.8352C7.36937 17.7298 7.31011 17.5867 7.31011 17.4375V15.9829L6.58336 16.7108C6.47773 16.8162 6.33454 16.8754 6.18527 16.8753C6.036 16.8752 5.89289 16.8158 5.78742 16.7102C5.68195 16.6046 5.62275 16.4614 5.62286 16.3121C5.62296 16.1628 5.68236 16.0197 5.78798 15.9142L7.31011 14.3921V9.97425L3.48511 12.1826L2.92711 14.2639C2.88832 14.408 2.79387 14.5308 2.66454 14.6053C2.53521 14.6797 2.38159 14.6998 2.23748 14.661C2.09337 14.6222 1.97057 14.5278 1.89609 14.3984C1.82162 14.2691 1.80157 14.1155 1.84036 13.9714L2.10698 12.9791L0.846981 13.7059C0.717855 13.7793 0.564931 13.7987 0.421583 13.7597C0.278234 13.7208 0.156097 13.6268 0.0818269 13.4981C0.00755632 13.3695 -0.0128189 13.2167 0.0251477 13.0731C0.0631142 12.9295 0.15634 12.8067 0.284481 12.7316L1.54448 12.0049L0.549981 11.7382C0.478624 11.719 0.411749 11.686 0.353173 11.6409C0.294598 11.5959 0.245469 11.5397 0.208593 11.4757C0.171716 11.4116 0.147814 11.341 0.138251 11.2677C0.128688 11.1944 0.133651 11.12 0.152856 11.0486C0.172062 10.9773 0.205135 10.9104 0.250186 10.8518C0.295237 10.7932 0.351384 10.7441 0.415422 10.7072C0.479459 10.6704 0.550133 10.6465 0.623408 10.6369C0.696683 10.6273 0.771124 10.6323 0.842481 10.6515L2.92148 11.2084L6.74761 9L2.92261 6.79163L0.841356 7.3485C0.698182 7.38418 0.546719 7.36218 0.419616 7.28723C0.292513 7.21229 0.199948 7.0904 0.161874 6.94784C0.1238 6.80528 0.143265 6.65347 0.216074 6.52514C0.288884 6.3968 0.409206 6.3022 0.551106 6.26175L1.54448 5.99512L0.284481 5.26837C0.219993 5.23171 0.163394 5.18265 0.117944 5.12402C0.0724926 5.06539 0.0390872 4.99836 0.0196508 4.92676C0.000214269 4.85517 -0.00486951 4.78045 0.00469221 4.70688C0.0142539 4.63332 0.0382723 4.56237 0.0753644 4.49813C0.112456 4.43388 0.16189 4.37761 0.220818 4.33255C0.279746 4.28749 0.347006 4.25453 0.418724 4.23557C0.490442 4.21661 0.565203 4.21202 0.638702 4.22207C0.7122 4.23212 0.782985 4.25661 0.846981 4.29413L2.10698 5.02087L1.84036 4.0275C1.81989 3.9557 1.81392 3.88054 1.82279 3.80641C1.83167 3.73228 1.85521 3.66066 1.89205 3.59572C1.92889 3.53078 1.97829 3.47383 2.03737 3.42818C2.09645 3.38253 2.16403 3.3491 2.23616 3.32983C2.30829 3.31057 2.38354 3.30585 2.45751 3.31597C2.53148 3.32608 2.6027 3.35082 2.66701 3.38874C2.73132 3.42667 2.78744 3.47701 2.8321 3.53685C2.87675 3.59668 2.90905 3.66481 2.92711 3.73725L3.48398 5.81738L7.31011 8.02575V3.60788L5.78798 2.08575C5.73568 2.03352 5.69418 1.97151 5.66585 1.90325C5.63752 1.83498 5.62291 1.76181 5.62286 1.6879C5.6228 1.61399 5.63731 1.54079 5.66555 1.47249C5.69378 1.40418 5.73519 1.34211 5.78742 1.28981C5.83964 1.23751 5.90166 1.19601 5.96992 1.16768C6.03819 1.13935 6.11136 1.12474 6.18527 1.12469C6.25918 1.12463 6.33238 1.13914 6.40068 1.16738C6.46898 1.19561 6.53106 1.23702 6.58336 1.28925L7.31011 2.01712V0.5625C7.31011 0.413316 7.36937 0.270242 7.47486 0.164752C7.58035 0.0592632 7.72342 0 7.87261 0C8.02179 0 8.16487 0.0592632 8.27035 0.164752C8.37584 0.270242 8.43511 0.413316 8.43511 0.5625V2.01712L9.16298 1.28925C9.2686 1.18378 9.4118 1.12458 9.56107 1.12469C9.71033 1.12479 9.85345 1.18419 9.95892 1.28981C10.0644 1.39543 10.1236 1.53863 10.1235 1.6879C10.1234 1.83716 10.064 1.98028 9.95836 2.08575L8.43511 3.60788V8.02575L12.2601 5.81738L12.8181 3.73612C12.8569 3.59201 12.9513 3.46921 13.0807 3.39474C13.21 3.32026 13.3636 3.30021 13.5077 3.339C13.6518 3.37779 13.7746 3.47224 13.8491 3.60157C13.9236 3.73089 13.9436 3.88451 13.9049 4.02863L13.6394 5.02087L14.8994 4.29413C15.0285 4.22071 15.1814 4.20135 15.3248 4.24027C15.4681 4.27918 15.5902 4.37322 15.6645 4.50186C15.7388 4.6305 15.7592 4.78329 15.7212 4.92689C15.6832 5.0705 15.59 5.19325 15.4619 5.26837L14.2019 5.99512L15.1952 6.26175C15.3393 6.30054 15.4621 6.39499 15.5366 6.52432C15.6111 6.65365 15.6311 6.80726 15.5924 6.95138C15.5536 7.09549 15.4591 7.21829 15.3298 7.29276C15.2005 7.36724 15.0468 7.38729 14.9027 7.3485L12.8237 6.79163L8.99761 9L12.8226 11.2084L14.9027 10.6515C15.0468 10.6129 15.2004 10.6331 15.3296 10.7076C15.4588 10.7822 15.5532 10.9051 15.5918 11.0492C15.6304 11.1933 15.6102 11.3469 15.5357 11.4761C15.4611 11.6053 15.3382 11.6996 15.1941 11.7382L14.2007 12.0049L15.4607 12.7316C15.5889 12.8067 15.6821 12.9295 15.7201 13.0731C15.758 13.2167 15.7377 13.3695 15.6634 13.4981C15.5891 13.6268 15.467 13.7208 15.3236 13.7597C15.1803 13.7987 15.0274 13.7793 14.8982 13.7059L13.6382 12.9791L13.9037 13.9725C13.9242 14.0443 13.9302 14.1195 13.9213 14.1936C13.9124 14.2677 13.8889 14.3393 13.852 14.4043C13.8152 14.4692 13.7658 14.5262 13.7067 14.5718C13.6476 14.6175 13.5801 14.6509 13.5079 14.6702C13.4358 14.6894 13.3606 14.6941 13.2866 14.684C13.2126 14.6739 13.1414 14.6492 13.0771 14.6113C13.0128 14.5733 12.9566 14.523 12.912 14.4632C12.8673 14.4033 12.835 14.3352 12.817 14.2628L12.2601 12.1826L8.43511 9.97425V14.3921L9.95723 15.9142C10.0629 16.0197 10.1223 16.1628 10.1224 16.3121C10.1225 16.4614 10.0633 16.6046 9.95779 16.7102C9.85232 16.8158 9.70921 16.8752 9.55994 16.8753C9.41067 16.8754 9.26748 16.8162 9.16186 16.7108L8.43398 15.9829V17.4375C8.43398 17.5867 8.37472 17.7298 8.26923 17.8352C8.16374 17.9407 8.02179 18 7.87261 18Z" fill="#292F35"/>
</svg>
