<svg width="27" height="16" viewBox="0 0 27 16" fill="none" xmlns="http://www.w3.org/2000/svg">
<path d="M0.223164 0.387139C0.374678 0.962222 0.43259 1.55347 0.522153 2.13798C0.765924 3.73797 0.976248 5.34246 1.15313 6.95143C1.36323 8.82887 1.53292 10.709 1.63259 12.5952C1.68915 13.6679 1.73898 14.7413 1.7309 15.8161C1.7309 15.9656 1.78343 15.9959 1.91878 15.9932C2.2878 15.9851 2.65952 15.981 3.02652 15.9932C3.20161 15.9999 3.25144 15.9528 3.24942 15.7736C3.23528 14.5137 3.19285 13.2558 3.10801 12.0026C3.07164 11.4571 3.0676 11.4578 3.60295 11.4578C4.93763 11.4578 6.27231 11.4625 7.60699 11.4524C7.80362 11.4524 7.83661 11.5083 7.83527 11.6888C7.82786 13.0403 7.83527 14.3918 7.82719 15.7433C7.82719 15.9285 7.85547 16.0127 8.06759 15.9979C8.43594 15.9784 8.80833 15.9871 9.17533 15.9979C9.31001 16.0012 9.3457 15.9615 9.3457 15.8289C9.34032 13.814 9.34907 11.7992 9.33425 9.7851C9.32887 9.04907 8.93022 8.63089 8.1989 8.50564C7.85859 8.45509 7.51458 8.43369 7.17062 8.44167C5.95312 8.44167 4.73584 8.44481 3.51878 8.4511C3.41036 8.4511 3.3006 8.45513 3.19218 8.46591C2.82922 8.50294 2.83326 8.50362 2.79757 8.13998C2.53674 5.47691 2.18657 2.82574 1.74707 0.186465C1.71811 0.0134015 1.67232 -0.00680143 1.5107 0.0255217C1.08444 0.11037 0.652791 0.171651 0.222489 0.241684L0.223164 0.387139Z" fill="#292F35"/>
<path d="M13.1234 2.38602C10.9396 2.38602 8.75645 2.38938 6.57261 2.38063C6.36117 2.38063 6.31201 2.43181 6.31537 2.63989C6.32884 3.47984 6.32884 4.31957 6.31537 5.15907C6.31133 5.37726 6.37867 5.41497 6.58473 5.41429C8.43187 5.40621 10.2797 5.41429 12.1275 5.40554C12.3167 5.40554 12.3766 5.44325 12.376 5.64662C12.3688 8.50991 12.3688 11.3737 12.376 14.2378C12.376 14.4399 12.3234 14.4924 12.1268 14.4836C11.7665 14.4675 11.4049 14.4836 11.044 14.4762C10.9093 14.4762 10.8514 14.4958 10.8554 14.6493C10.8669 15.0439 10.8628 15.4385 10.8554 15.8331C10.8554 15.9503 10.883 15.9941 11.009 15.9934C12.4195 15.9894 13.8303 15.9894 15.2413 15.9934C15.3672 15.9934 15.3968 15.9503 15.3948 15.8331C15.3894 15.4291 15.3867 15.025 15.3948 14.621C15.3948 14.4863 15.3423 14.4722 15.2319 14.4735C14.8628 14.4789 14.4911 14.4641 14.1234 14.4803C13.9275 14.489 13.8736 14.4345 13.875 14.2345C13.8837 12.5712 13.8797 10.9086 13.8797 9.24594C13.8797 8.04459 13.8851 6.84392 13.8743 5.64325C13.8743 5.44123 13.9342 5.4015 14.1234 5.40217C15.9712 5.40891 17.8184 5.40217 19.6662 5.41093C19.8682 5.41093 19.9355 5.37389 19.9355 5.15571C19.9214 4.3079 19.9234 3.45942 19.9355 2.61161C19.9355 2.42507 19.8951 2.37726 19.7039 2.37794C17.5073 2.38871 15.3154 2.38602 13.1234 2.38602Z" fill="#292F35"/>
<path d="M16.9023 12.8024C16.9023 13.7929 16.9071 14.7842 16.8976 15.7747C16.8976 15.9539 16.9475 16.001 17.1212 15.9943C17.4653 15.9808 17.8108 15.9774 18.1535 15.9943C18.3555 16.005 18.4229 15.9559 18.4195 15.7391C18.4081 14.3875 18.4195 13.0354 18.4094 11.6838C18.4094 11.498 18.4491 11.4482 18.6404 11.4495C20.0675 11.4589 21.4949 11.4589 22.9225 11.4495C23.1313 11.4495 23.1663 11.5128 23.1542 11.7013C23.0644 13.0333 23.011 14.3669 22.9939 15.702C22.9899 15.9566 23.0613 16.0091 23.2983 15.9949C23.641 15.9741 23.9865 15.9835 24.3306 15.9949C24.4727 15.9983 24.5144 15.9566 24.5144 15.8125C24.5144 13.9815 24.6188 12.1545 24.7656 10.3296C24.9124 8.50472 25.1111 6.67173 25.3468 4.84884C25.5394 3.36063 25.7508 1.87443 26.0013 0.394302C26.0229 0.268376 25.9932 0.240767 25.8761 0.221911C25.472 0.157714 25.068 0.085886 24.6639 0.00642492C24.5434 -0.0178175 24.5252 0.0272987 24.5084 0.128982C24.2619 1.60103 24.0444 3.07735 23.8559 4.55793C23.6963 5.78958 23.5508 7.02257 23.437 8.26163C23.4195 8.45355 23.3798 8.52627 23.1528 8.48789C22.8283 8.44527 22.5009 8.42861 22.1737 8.43806C21.0323 8.43806 19.8902 8.43806 18.7481 8.44479C18.53 8.44602 18.3124 8.4638 18.097 8.49799C17.2996 8.62324 16.9165 9.04546 16.9077 9.8596C16.897 10.8414 16.9077 11.8239 16.9077 12.8064L16.9023 12.8024Z" fill="#292F35"/>
</svg>
