<svg width="50" height="50" viewBox="0 0 50 50" fill="none" xmlns="http://www.w3.org/2000/svg">
<path d="M24.9988 49.7057C38.6435 49.7057 49.7047 38.6445 49.7047 24.9998C49.7047 11.3551 38.6435 0.293945 24.9988 0.293945C11.3542 0.293945 0.292969 11.3551 0.292969 24.9998C0.292969 38.6445 11.3542 49.7057 24.9988 49.7057Z" fill="#FCFCFA"/>
<path d="M25 0.588235C31.4744 0.588235 37.6836 3.16018 42.2617 7.73827C46.8398 12.3164 49.4118 18.5256 49.4118 25C49.4118 31.4744 46.8398 37.6836 42.2617 42.2617C37.6836 46.8398 31.4744 49.4118 25 49.4118C18.5256 49.4118 12.3164 46.8398 7.73827 42.2617C3.16018 37.6836 0.588235 31.4744 0.588235 25C0.588235 18.5256 3.16018 12.3164 7.73827 7.73827C12.3164 3.16018 18.5256 0.588235 25 0.588235ZM25 0C18.372 0.00778395 12.0177 2.64421 7.33093 7.33093C2.64421 12.0177 0.00778395 18.372 0 25C0.00778395 31.628 2.64421 37.9823 7.33093 42.6691C12.0177 47.3558 18.372 49.9922 25 50C31.628 49.9922 37.9823 47.3558 42.6691 42.6691C47.3558 37.9823 49.9922 31.628 50 25C49.9922 18.372 47.3558 12.0177 42.6691 7.33093C37.9823 2.64421 31.628 0.00778395 25 0Z" fill="#004D9F"/>
<path d="M25.0176 47.7207C37.5788 47.7207 47.7617 37.5378 47.7617 24.9765C47.7617 12.4153 37.5788 2.23242 25.0176 2.23242C12.4563 2.23242 2.27344 12.4153 2.27344 24.9765C2.27344 37.5378 12.4563 47.7207 25.0176 47.7207Z" fill="#D6DCE3"/>
<path d="M32.0384 17.6379H18.2149C18.1634 17.6379 18.114 17.6584 18.0776 17.6948C18.0412 17.7312 18.0208 17.7806 18.0208 17.832V21.6203C17.8797 21.6579 17.7344 21.6777 17.5884 21.6791C17.1492 21.6791 16.7281 21.5047 16.4175 21.1941C16.107 20.8836 15.9325 20.4624 15.9325 20.0232V15.3291C15.861 15.3292 15.792 15.3553 15.7384 15.4026L14.9825 16.0291C14.9651 16.0434 14.9433 16.0513 14.9208 16.0513C14.8982 16.0513 14.8764 16.0434 14.859 16.0291L14.0531 15.3791C14.0351 15.3662 14.0135 15.3592 13.9914 15.3592C13.9692 15.3592 13.9476 15.3662 13.9296 15.3791L13.1237 16.0291C13.1068 16.0432 13.0854 16.051 13.0634 16.051C13.0414 16.051 13.0201 16.0432 13.0031 16.0291L12.1943 15.3791C12.1768 15.3664 12.1557 15.3596 12.134 15.3596C12.1124 15.3596 12.0913 15.3664 12.0737 15.3791L11.2649 16.0291C11.248 16.0432 11.2266 16.051 11.2046 16.051C11.1825 16.051 11.1612 16.0432 11.1443 16.0291L10.3384 15.3791C10.3204 15.3662 10.2988 15.3592 10.2767 15.3592C10.2545 15.3592 10.2329 15.3662 10.2149 15.3791L9.409 16.0291C9.39162 16.0434 9.36979 16.0513 9.34725 16.0513C9.32471 16.0513 9.30287 16.0434 9.28548 16.0291L8.4796 15.3791C8.4616 15.3662 8.43999 15.3592 8.41783 15.3592C8.39567 15.3592 8.37406 15.3662 8.35606 15.3791L7.55018 16.0291C7.53326 16.0432 7.51193 16.051 7.4899 16.051C7.46786 16.051 7.44652 16.0432 7.4296 16.0291L6.63842 15.3938C6.58589 15.3517 6.52048 15.3288 6.45312 15.3291V24.3585C6.5296 29.7115 10.1002 34.532 15.9355 35.2938C15.9823 35.2995 16.0254 35.3221 16.0568 35.3573C16.0882 35.3924 16.1057 35.4378 16.1061 35.485V39.1291L14.0296 39.0321C13.9516 39.0321 13.8768 39.063 13.8216 39.1182C13.7665 39.1733 13.7355 39.2482 13.7355 39.3262L13.8325 40.285C13.8325 40.363 13.8635 40.4378 13.9187 40.493C13.9738 40.5481 14.0487 40.5791 14.1267 40.5791H20.9119C20.9377 40.5791 20.9624 40.5689 20.9806 40.5507C20.9988 40.5325 21.009 40.5078 21.009 40.482V39.5262C21.0094 39.4622 20.9971 39.3988 20.9729 39.3395C20.9487 39.2803 20.913 39.2265 20.8679 39.1811C20.8228 39.1357 20.7692 39.0997 20.7101 39.0752C20.651 39.0506 20.5877 39.0379 20.5237 39.0379L19.5443 39.135C20.8002 38.5997 21.6914 37.1379 21.6914 35.5409V35.4379C21.6905 35.4248 21.6925 35.4117 21.697 35.3994C21.7015 35.3871 21.7086 35.3759 21.7177 35.3664C21.7269 35.357 21.7379 35.3496 21.7501 35.3447C21.7622 35.3398 21.7753 35.3375 21.7884 35.3379H26.512C26.5377 35.3375 26.5632 35.3423 26.5871 35.3518C26.611 35.3614 26.6328 35.3757 26.6511 35.3937C26.6694 35.4118 26.684 35.4333 26.694 35.4571C26.7039 35.4808 26.709 35.5063 26.709 35.532V39.135L24.3561 39.0379C24.2781 39.0379 24.2033 39.0689 24.1481 39.1241C24.0929 39.1792 24.0619 39.254 24.0619 39.332L24.159 40.3879C24.159 40.4394 24.1795 40.4888 24.2159 40.5252C24.2523 40.5616 24.3016 40.582 24.3531 40.582H31.8061C31.8188 40.582 31.8314 40.5795 31.8432 40.5747C31.855 40.5698 31.8657 40.5626 31.8747 40.5536C31.8837 40.5446 31.8909 40.5339 31.8957 40.5221C31.9006 40.5104 31.9031 40.4977 31.9031 40.485V39.5291C31.9031 39.3996 31.8517 39.2754 31.7601 39.1839C31.6686 39.0923 31.5444 39.0409 31.4149 39.0409L29.8561 39.1379V39.035C31.5561 38.5409 32.6561 36.9762 32.7972 35.1526C32.8119 34.985 32.7972 34.2379 32.7972 34.0262C32.7603 33.3002 32.6166 32.5837 32.3708 31.8997C32.3657 31.8876 32.3633 31.8745 32.3638 31.8614C32.3642 31.8483 32.3675 31.8355 32.3734 31.8238C32.3792 31.8121 32.3875 31.8017 32.3978 31.7935C32.408 31.7853 32.4198 31.7794 32.4325 31.7762C34.9237 31.0409 37.3884 28.9526 38.0708 26.4173C38.0751 26.4021 38.083 26.388 38.0937 26.3763C38.1044 26.3645 38.1177 26.3554 38.1325 26.3497C41.7649 25.1056 44.5355 21.7879 44.6855 17.8468C44.6867 17.8207 44.6825 17.7946 44.6733 17.7702C44.664 17.7458 44.6499 17.7235 44.6317 17.7048C44.6135 17.686 44.5917 17.6712 44.5675 17.6612C44.5434 17.6512 44.5175 17.6463 44.4914 17.6468L32.0384 17.6379Z" fill="#01499D"/>
<path d="M7.76773 26.7438C7.80603 26.7337 7.84656 26.7359 7.88353 26.7502C7.9205 26.7644 7.95202 26.79 7.97361 26.8232L8.83832 28.085C8.85353 28.1086 8.87356 28.1288 8.89709 28.1441C8.92062 28.1595 8.94712 28.1697 8.97487 28.1742C9.00263 28.1786 9.031 28.1772 9.05815 28.1699C9.0853 28.1627 9.11061 28.1498 9.13244 28.1321L10.3677 27.2085C10.3994 27.1856 10.4375 27.1732 10.4766 27.1732C10.5156 27.1732 10.5537 27.1856 10.5854 27.2085L11.7618 27.9379C11.7843 27.9516 11.8094 27.9607 11.8354 27.9645C11.8615 27.9684 11.888 27.967 11.9135 27.9604C11.939 27.9538 11.9629 27.9422 11.9839 27.9262C12.0048 27.9102 12.0223 27.8902 12.0354 27.8673L12.7619 26.5762C12.7816 26.5417 12.8112 26.5141 12.8469 26.4967C12.8825 26.4794 12.9226 26.4733 12.9619 26.4791L14.3736 26.6879C14.4 26.6921 14.427 26.6907 14.4529 26.6839C14.4788 26.6771 14.5029 26.6651 14.5239 26.6485C14.5449 26.6319 14.5622 26.6112 14.5748 26.5876C14.5874 26.564 14.595 26.5381 14.5971 26.5115L14.7177 25.0026C14.72 24.9633 14.7346 24.9257 14.7594 24.8951C14.7842 24.8645 14.818 24.8424 14.856 24.832L16.3619 24.3791C16.4106 24.3635 16.4515 24.3297 16.4761 24.2849C16.5007 24.24 16.5072 24.1874 16.4942 24.1379L16.0795 22.6673C16.0698 22.6348 16.0687 22.6004 16.0765 22.5673C16.0842 22.5343 16.1005 22.5039 16.1236 22.4791L17.006 21.5615C16.6966 21.4403 16.431 21.2287 16.2437 20.9543C16.0564 20.6799 15.9561 20.3555 15.956 20.0232V15.3291C15.8845 15.3292 15.8155 15.3553 15.7619 15.4026L15.006 16.0291C14.9886 16.0434 14.9667 16.0513 14.9442 16.0513C14.9217 16.0513 14.8998 16.0434 14.8824 16.0291L14.0766 15.3791C14.0586 15.3662 14.037 15.3592 14.0148 15.3592C13.9926 15.3592 13.971 15.3662 13.953 15.3791L13.1471 16.0291C13.1302 16.0432 13.1089 16.051 13.0868 16.051C13.0648 16.051 13.0435 16.0432 13.0265 16.0291L12.2177 15.3791C12.2002 15.3664 12.1791 15.3596 12.1574 15.3596C12.1358 15.3596 12.1147 15.3664 12.0971 15.3791L11.2883 16.0291C11.2714 16.0432 11.2501 16.051 11.228 16.051C11.206 16.051 11.1846 16.0432 11.1677 16.0291L10.3618 15.3791C10.3438 15.3662 10.3223 15.3592 10.3001 15.3592C10.2779 15.3592 10.2563 15.3662 10.2383 15.3791L9.43244 16.0291C9.41505 16.0434 9.39321 16.0513 9.37067 16.0513C9.34813 16.0513 9.3263 16.0434 9.30892 16.0291L8.50302 15.3791C8.48502 15.3662 8.46343 15.3592 8.44127 15.3592C8.4191 15.3592 8.3975 15.3662 8.37949 15.3791L7.57362 16.0291C7.55669 16.0432 7.53535 16.051 7.51332 16.051C7.49128 16.051 7.46996 16.0432 7.45304 16.0291L6.66186 15.3938C6.60932 15.3517 6.54391 15.3288 6.47656 15.3291V24.3585C6.48774 25.2445 6.59823 26.1265 6.80597 26.9879L7.76773 26.7438Z" fill="#515151"/>
<path d="M6.98522 27.8187C6.90287 27.5628 6.83228 27.304 6.76758 27.0422C6.83228 27.304 6.91169 27.5628 6.98522 27.8187Z" fill="#515151"/>
<path d="M15.4399 17.9174H11.3223V22.738C13.7399 22.6144 15.6605 20.7321 15.6605 18.4262C15.6605 18.3145 15.6605 18.2056 15.6458 18.0968C15.642 18.0458 15.6183 17.9984 15.5797 17.9648C15.5412 17.9312 15.4909 17.9141 15.4399 17.9174Z" fill="#FCFCFA"/>
<path d="M11.0129 17.917H6.89528C6.84625 17.9169 6.79897 17.9353 6.76296 17.9685C6.72695 18.0018 6.70489 18.0475 6.70117 18.0964C6.70117 18.2052 6.70117 18.3141 6.70117 18.4258C6.70117 20.7317 8.62176 22.6141 11.0394 22.7376L11.0129 17.917Z" fill="#FCFCFA"/>
<path d="M44.363 19.5938C44.4366 19.2997 44.4954 19.0056 44.5395 18.6821L33.7424 18.7556C33.7836 18.4615 33.816 18.1379 33.8336 17.8262L18.2689 17.932C18.2429 17.9328 18.2182 17.9437 18.2001 17.9624C18.182 17.981 18.1719 18.006 18.1719 18.0321L18.2454 28.5791C18.2454 28.6791 18.2719 28.6791 18.5395 28.6644L26.3248 28.2703C26.3591 28.2693 26.3929 28.2623 26.4248 28.2497C27.8021 27.6811 29.0609 26.8602 30.1366 25.8291L39.3777 25.7673C39.8931 25.5026 40.3851 25.1947 40.8483 24.8468L31.0042 24.9144C31.3128 24.5513 31.5996 24.1703 31.863 23.7732L42.1219 23.7026C42.3929 23.414 42.6454 23.1085 42.8778 22.7879L32.413 22.8615C32.6139 22.4907 32.7955 22.1098 32.9572 21.7203L43.5925 21.6468C43.7487 21.3505 43.8891 21.0461 44.013 20.735L33.2925 20.8085C33.4101 20.4344 33.5082 20.0545 33.5866 19.6703L44.363 19.5938Z" fill="#FCFCFA"/>
<path d="M12.3992 29.3625L13.2609 27.739C13.2794 27.7045 13.3077 27.6763 13.3423 27.6579C13.3769 27.6396 13.4161 27.632 13.455 27.636L15.2403 27.8272C15.2658 27.8301 15.2917 27.8278 15.3163 27.8206C15.341 27.8134 15.3639 27.8014 15.3839 27.7853C15.4039 27.7691 15.4204 27.7492 15.4327 27.7266C15.4449 27.704 15.4525 27.6792 15.455 27.6537L15.6462 25.8007C15.6504 25.7628 15.6654 25.7269 15.6893 25.6971C15.7133 25.6674 15.7453 25.6452 15.7815 25.6331L17.5462 25.0654C17.5953 25.0505 17.6364 25.0167 17.6607 24.9715C17.6849 24.9264 17.6903 24.8734 17.6756 24.8243L17.1138 22.9654C17.1036 22.9305 17.1031 22.8933 17.1124 22.8581C17.1218 22.8228 17.1406 22.7908 17.1668 22.7654L18.005 21.9772V21.6213C17.864 21.659 17.7187 21.6788 17.5727 21.6802C17.365 21.6806 17.1592 21.6407 16.9668 21.5625L16.0844 22.4801C16.0615 22.5051 16.0452 22.5354 16.037 22.5683C16.0287 22.6012 16.0289 22.6356 16.0374 22.6684L16.455 24.139C16.468 24.1885 16.4615 24.2411 16.4369 24.2859C16.4123 24.3308 16.3714 24.3645 16.3227 24.3802L14.8168 24.8331C14.7788 24.8435 14.745 24.8655 14.7202 24.8961C14.6954 24.9267 14.6809 24.9644 14.6786 25.0037L14.5609 26.5066C14.5588 26.5333 14.5512 26.5592 14.5386 26.5828C14.526 26.6064 14.5087 26.6271 14.4877 26.6437C14.4667 26.6602 14.4425 26.6723 14.4167 26.6791C14.3908 26.6859 14.3638 26.6872 14.3374 26.6831L12.9256 26.4743C12.8864 26.4684 12.8463 26.4746 12.8106 26.4919C12.7749 26.5092 12.7453 26.5369 12.7256 26.5713L11.9991 27.8625C11.9861 27.8854 11.9686 27.9054 11.9476 27.9214C11.9267 27.9373 11.9028 27.949 11.8773 27.9556C11.8518 27.9621 11.8252 27.9635 11.7992 27.9597C11.7731 27.9558 11.7481 27.9468 11.7256 27.9331L10.5491 27.2037C10.5175 27.1807 10.4794 27.1683 10.4403 27.1683C10.4012 27.1683 10.3631 27.1807 10.3315 27.2037L9.0962 28.1272C9.07437 28.1449 9.04906 28.1578 9.02191 28.1651C8.99477 28.1723 8.96639 28.1738 8.93864 28.1693C8.91089 28.1649 8.88438 28.1547 8.86085 28.1393C8.83733 28.1239 8.8173 28.1038 8.80208 28.0801L7.93737 26.8184C7.91578 26.7852 7.88426 26.7596 7.84729 26.7453C7.81033 26.7311 7.76981 26.7288 7.73151 26.739L6.7168 26.9831C6.78444 27.2772 6.86385 27.5537 6.95209 27.8301H7.45796C7.49123 27.8301 7.52393 27.8388 7.55282 27.8553C7.5817 27.8718 7.60578 27.8956 7.62267 27.9243L8.59619 29.536C8.61023 29.5609 8.62958 29.5823 8.65285 29.5988C8.67612 29.6154 8.70275 29.6265 8.73083 29.6316C8.75892 29.6367 8.78776 29.6354 8.81533 29.6281C8.8429 29.6207 8.86849 29.6074 8.89031 29.589L10.3903 28.4566C10.423 28.4336 10.4621 28.4212 10.5021 28.4212C10.5421 28.4212 10.5811 28.4336 10.6139 28.4566L12.0844 29.4331C12.1072 29.4558 12.1354 29.4723 12.1662 29.4813C12.1971 29.4902 12.2298 29.4912 12.2612 29.4841C12.2925 29.4771 12.3216 29.4623 12.3457 29.441C12.3699 29.4197 12.3882 29.3928 12.3992 29.3625Z" fill="#FCFCFA"/>
<path d="M9.3882 19.1927C9.15901 19.1886 8.93159 19.2334 8.72111 19.3242C8.51062 19.415 8.32194 19.5496 8.16762 19.7191C8.13761 19.7539 8.12109 19.7982 8.12109 19.8441C8.12109 19.89 8.13761 19.9344 8.16762 19.9692C8.32194 20.1387 8.51062 20.2733 8.72111 20.3641C8.93159 20.4549 9.15901 20.4997 9.3882 20.4956C9.61701 20.5001 9.84411 20.4553 10.0542 20.3645C10.2642 20.2737 10.4523 20.1389 10.6059 19.9692C10.6359 19.9344 10.6524 19.89 10.6524 19.8441C10.6524 19.7982 10.6359 19.7539 10.6059 19.7191C10.4523 19.5494 10.2642 19.4146 10.0542 19.3238C9.84411 19.233 9.61701 19.1883 9.3882 19.1927Z" fill="#515151"/>
<path d="M12.9654 19.1927C13.1942 19.1883 13.4212 19.233 13.6313 19.3238C13.8414 19.4146 14.0295 19.5494 14.183 19.7191C14.213 19.7539 14.2295 19.7982 14.2295 19.8441C14.2295 19.89 14.213 19.9344 14.183 19.9692C14.0295 20.1389 13.8414 20.2737 13.6313 20.3645C13.4212 20.4553 13.1942 20.5001 12.9654 20.4956C12.7365 20.5001 12.5094 20.4553 12.2994 20.3645C12.0893 20.2737 11.9012 20.1389 11.7477 19.9692C11.7177 19.9344 11.7012 19.89 11.7012 19.8441C11.7012 19.7982 11.7177 19.7539 11.7477 19.7191C11.9012 19.5494 12.0893 19.4146 12.2994 19.3238C12.5094 19.233 12.7365 19.1883 12.9654 19.1927Z" fill="#515151"/>
<path d="M11.5127 19.1854C11.4833 19.1324 11.5127 19.0795 11.6215 18.9971C11.6904 18.9424 11.7643 18.8941 11.8421 18.853C12.5712 18.4893 13.4083 18.4056 14.195 18.6177C14.2656 18.6383 14.3627 18.7207 14.3274 18.806C14.307 18.8378 14.2764 18.8618 14.2406 18.8741C14.2049 18.8864 14.166 18.8862 14.1303 18.8736C13.4768 18.6855 12.7792 18.7206 12.148 18.9736C11.9891 19.0413 11.8303 19.1177 11.6539 19.206C11.6156 19.2177 11.545 19.2442 11.5127 19.1854Z" fill="#515151"/>
<path d="M10.8144 19.1854C10.8438 19.1324 10.8144 19.0795 10.7056 18.9971C10.6371 18.9417 10.5632 18.8935 10.485 18.853C9.75587 18.4893 8.91872 18.4056 8.13203 18.6177C8.06144 18.6383 7.96438 18.7207 7.99968 18.806C8.02021 18.8385 8.05128 18.8629 8.08769 18.8752C8.1241 18.8876 8.16363 18.887 8.19967 18.8736C8.8532 18.6857 9.55073 18.7209 10.182 18.9736C10.3379 19.0413 10.4967 19.1177 10.6732 19.206C10.7026 19.2177 10.782 19.2442 10.8144 19.1854Z" fill="#515151"/>
<path d="M44.4605 17.6377H33.8223V17.826C33.8046 18.1377 33.7723 18.4495 33.7311 18.7554L44.5281 18.6819C44.484 18.9907 44.4252 19.2936 44.3517 19.5936L33.5693 19.6671C33.491 20.0514 33.3928 20.4313 33.2752 20.8054L43.9958 20.7318C43.8718 21.043 43.7314 21.3473 43.5752 21.6436L32.9399 21.7171C32.7782 22.1066 32.5966 22.4875 32.3958 22.8583L42.8605 22.7848C42.6281 23.1053 42.3756 23.4109 42.1046 23.6995L31.8458 23.7701C31.6058 24.1282 31.3476 24.4737 31.0723 24.8054H40.9458C42.0382 23.988 42.9369 22.9399 43.578 21.7355C44.219 20.5312 44.5866 19.2004 44.6546 17.8377C44.6558 17.8116 44.6517 17.7856 44.6424 17.7612C44.6332 17.7367 44.619 17.7145 44.6008 17.6957C44.5826 17.677 44.5608 17.6622 44.5367 17.6522C44.5125 17.6422 44.4866 17.6373 44.4605 17.6377Z" fill="#515151"/>
<path d="M10.259 15.5233L11.0355 16.1468C11.0783 16.1828 11.1325 16.2026 11.1884 16.2027C11.2443 16.2021 11.2983 16.1824 11.3414 16.1468L12.1149 15.5233L12.8914 16.1468C12.9344 16.1824 12.9884 16.2021 13.0443 16.2027C13.1003 16.2026 13.1544 16.1828 13.1972 16.1468L13.9737 15.5233L14.7502 16.1468C14.7933 16.182 14.8475 16.2007 14.9031 16.1997C14.9601 16.2006 15.0155 16.1808 15.059 16.1439L15.7767 15.5556V20.035C15.7774 20.513 15.9676 20.9711 16.3056 21.309C16.6435 21.647 17.1017 21.8372 17.5796 21.838C17.7387 21.8381 17.897 21.8164 18.0502 21.7733L18.159 21.7438V17.8321C18.159 17.8196 18.164 17.8076 18.1728 17.7988C18.1816 17.79 18.1936 17.785 18.2061 17.785H44.4619C44.4733 17.7807 44.4859 17.7807 44.4972 17.785C44.4998 17.79 44.5012 17.7956 44.5012 17.8012C44.5012 17.8068 44.4998 17.8124 44.4972 17.8174C44.3561 21.5497 41.7619 24.9144 38.0443 26.188C38.0065 26.2008 37.9724 26.2229 37.9452 26.2521C37.918 26.2814 37.8985 26.3169 37.8884 26.3556C37.2649 28.6703 34.9884 30.8321 32.3502 31.6115C32.3182 31.6202 32.2885 31.6358 32.2631 31.6571C32.2377 31.6784 32.2172 31.705 32.2031 31.735C32.1894 31.765 32.1823 31.7976 32.1823 31.8306C32.1823 31.8636 32.1894 31.8962 32.2031 31.9262C32.4431 32.5962 32.5838 33.2978 32.6208 34.0086C32.6208 34.2233 32.6355 34.9615 32.6208 35.1174C32.4825 36.935 31.3708 38.4085 29.7884 38.8703L29.6825 38.9027V39.2703H29.8384L31.3884 39.1733C31.4789 39.1733 31.5657 39.2092 31.6297 39.2732C31.6936 39.3372 31.7296 39.4239 31.7296 39.5144V40.4203H24.3267C24.3031 40.4203 24.2796 40.3997 24.2796 40.3615L24.1825 39.3174C24.1825 39.2802 24.1969 39.2444 24.2226 39.2175C24.2484 39.1906 24.2836 39.1748 24.3208 39.1733L26.6737 39.2703H26.8296V35.5144C26.8288 35.4237 26.7922 35.3369 26.7278 35.273C26.6633 35.2091 26.5762 35.1732 26.4855 35.1733H21.7619C21.7291 35.1732 21.6966 35.1796 21.6663 35.1923C21.636 35.2049 21.6085 35.2234 21.5855 35.2468C21.5404 35.2943 21.5161 35.3578 21.5178 35.4233V35.5233C21.5178 37.0409 20.6708 38.4644 19.459 38.9821L18.5766 39.3586L19.5296 39.2644L20.4943 39.1674C20.5843 39.1681 20.6703 39.2044 20.7336 39.2683C20.797 39.3322 20.8325 39.4186 20.8325 39.5086V40.4144H14.0972C14.059 40.4144 14.0224 40.3993 13.9953 40.3722C13.9683 40.3452 13.9531 40.3085 13.9531 40.2703V40.2556L13.859 39.3056C13.8598 39.2692 13.8746 39.2345 13.9003 39.2087C13.9261 39.1829 13.9608 39.1681 13.9972 39.1674L16.0737 39.2644H16.2266V35.4644C16.2267 35.3821 16.197 35.3024 16.1429 35.2402C16.0889 35.1781 16.0141 35.1376 15.9325 35.1262C10.5031 34.4203 6.65606 29.9821 6.57665 24.335V24.2468V15.5438L7.32665 16.1321C7.36973 16.1677 7.42372 16.1874 7.47959 16.188C7.53555 16.1879 7.5897 16.1681 7.63254 16.1321L8.40901 15.5086L9.18547 16.1321C9.22855 16.1677 9.28254 16.1874 9.33842 16.188C9.39429 16.1874 9.44828 16.1677 9.49137 16.1321L10.2678 15.5086M15.9325 15.3174C15.861 15.3175 15.792 15.3436 15.7384 15.3909L14.9825 16.0174C14.9649 16.0312 14.9431 16.0384 14.9208 16.038C14.8983 16.0389 14.8764 16.0316 14.859 16.0174L14.0531 15.3674C14.0358 15.3532 14.0138 15.3458 13.9914 15.3468C13.969 15.3463 13.9472 15.3536 13.9296 15.3674L13.1237 16.0174C13.1066 16.0324 13.0847 16.0408 13.0619 16.0409C13.0402 16.0401 13.0194 16.0318 13.0031 16.0174L12.1943 15.3674C12.177 15.3532 12.155 15.3458 12.1325 15.3468C12.1111 15.3465 12.0903 15.3538 12.0737 15.3674L11.2649 16.0174C11.2486 16.0318 11.2278 16.0401 11.2061 16.0409C11.1833 16.0408 11.1614 16.0324 11.1443 16.0174L10.3384 15.3674C10.3208 15.3536 10.299 15.3463 10.2767 15.3468C10.2542 15.3458 10.2322 15.3532 10.2149 15.3674L9.409 16.0174C9.39168 16.032 9.36991 16.0403 9.34725 16.0409C9.32459 16.0403 9.30281 16.032 9.28548 16.0174L8.4796 15.3674C8.462 15.3536 8.44017 15.3463 8.41783 15.3468C8.39548 15.3463 8.37366 15.3536 8.35606 15.3674L7.55018 16.0174C7.53311 16.0324 7.51118 16.0408 7.48842 16.0409C7.46669 16.0401 7.4459 16.0318 7.4296 16.0174L6.63842 15.3821C6.58589 15.3399 6.52048 15.3171 6.45312 15.3174V24.3586C6.5296 29.7115 10.1002 34.5321 15.9355 35.2938C15.9823 35.2996 16.0254 35.3221 16.0568 35.3573C16.0882 35.3925 16.1057 35.4379 16.1061 35.485V39.1291L14.0296 39.0321C13.9516 39.0321 13.8768 39.0631 13.8216 39.1182C13.7665 39.1734 13.7355 39.2482 13.7355 39.3262L13.8325 40.285C13.8325 40.363 13.8635 40.4378 13.9187 40.493C13.9738 40.5482 14.0487 40.5791 14.1267 40.5791H20.9119C20.9247 40.5791 20.9373 40.5766 20.9491 40.5718C20.9609 40.5669 20.9716 40.5597 20.9806 40.5507C20.9896 40.5417 20.9967 40.531 21.0016 40.5192C21.0065 40.5075 21.009 40.4948 21.009 40.4821V39.5262C21.0094 39.4622 20.9971 39.3988 20.9729 39.3396C20.9487 39.2804 20.913 39.2265 20.8679 39.1811C20.8228 39.1358 20.7692 39.0998 20.7101 39.0752C20.651 39.0506 20.5877 39.038 20.5237 39.038L19.5443 39.135C20.8002 38.5997 21.6914 37.138 21.6914 35.5409V35.438C21.6905 35.4249 21.6925 35.4118 21.697 35.3994C21.7015 35.3871 21.7086 35.3759 21.7177 35.3665C21.7269 35.3571 21.7379 35.3497 21.7501 35.3448C21.7622 35.3398 21.7753 35.3375 21.7884 35.338H26.512C26.5377 35.3376 26.5632 35.3423 26.5871 35.3519C26.611 35.3615 26.6328 35.3757 26.6511 35.3938C26.6694 35.4118 26.684 35.4334 26.694 35.4571C26.7039 35.4809 26.709 35.5063 26.709 35.5321V39.135L24.3561 39.038C24.2781 39.038 24.2033 39.069 24.1481 39.1241C24.0929 39.1793 24.0619 39.2541 24.0619 39.3321L24.159 40.388C24.159 40.4395 24.1795 40.4888 24.2159 40.5252C24.2523 40.5616 24.3016 40.5821 24.3531 40.5821H31.8061C31.8188 40.5821 31.8314 40.5796 31.8432 40.5747C31.855 40.5698 31.8657 40.5627 31.8747 40.5537C31.8837 40.5446 31.8909 40.534 31.8957 40.5222C31.9006 40.5104 31.9031 40.4978 31.9031 40.485V39.5292C31.9031 39.3997 31.8517 39.2755 31.7601 39.1839C31.6686 39.0923 31.5444 39.0409 31.4149 39.0409L29.8561 39.138V39.035C31.5561 38.5409 32.6561 36.9762 32.7972 35.1527C32.8119 34.985 32.7972 34.238 32.7972 34.0262C32.7603 33.3003 32.6166 32.5838 32.3708 31.8997C32.3657 31.8876 32.3633 31.8746 32.3638 31.8615C32.3642 31.8484 32.3675 31.8355 32.3734 31.8238C32.3792 31.8121 32.3875 31.8018 32.3978 31.7936C32.408 31.7853 32.4198 31.7794 32.4325 31.7762C34.9237 31.0409 37.3884 28.9527 38.0708 26.4174C38.0751 26.4021 38.083 26.388 38.0937 26.3763C38.1044 26.3646 38.1177 26.3555 38.1325 26.3497C41.7649 25.1056 44.5355 21.788 44.6855 17.8468C44.6867 17.8207 44.6825 17.7946 44.6733 17.7702C44.664 17.7458 44.6499 17.7235 44.6317 17.7048C44.6135 17.6861 44.5917 17.6712 44.5675 17.6613C44.5434 17.6513 44.5175 17.6464 44.4914 17.6468H18.2061C18.1546 17.6468 18.1052 17.6672 18.0688 17.7036C18.0324 17.74 18.0119 17.7894 18.0119 17.8409V21.6291C17.8709 21.6668 17.7256 21.6866 17.5796 21.688C17.1404 21.688 16.7193 21.5135 16.4087 21.203C16.0982 20.8924 15.9237 20.4712 15.9237 20.0321V15.3291L15.9325 15.3174Z" fill="#515151"/>
</svg>
