<svg width="186" height="40" viewBox="0 0 186 40" fill="none" xmlns="http://www.w3.org/2000/svg">
<path d="M29.8721 2.79102C29.8721 2.51487 29.6482 2.29102 29.3721 2.29102H1C0.723858 2.29102 0.5 2.51487 0.5 2.79102V5.09117V7.85366C0.5 8.12981 0.723858 8.35366 1 8.35366H9.54977V26.9253C9.54977 29.787 10.0407 32.0831 11.0843 33.7601C12.1089 35.4101 13.5042 36.5713 15.2566 37.2244C16.9636 37.8605 18.8464 38.1747 20.9049 38.1747C22.2549 38.1747 23.5436 38.0566 24.7645 37.825C25.9691 37.5965 26.9484 37.3283 27.6756 37.0196C27.8603 36.9412 27.9802 36.76 27.9802 36.5593V31.8666C27.9802 31.7071 27.9041 31.5571 27.7754 31.463C27.6466 31.3688 27.4807 31.3417 27.3287 31.3901C26.6348 31.6108 25.8089 31.7907 24.8464 31.9325L24.8436 31.9329C23.8896 32.0791 22.9344 32.1468 21.9892 32.1468C20.3698 32.1468 19.1275 31.7064 18.2193 30.8786C17.3507 30.087 16.8483 28.6817 16.8483 26.5265V8.35366H29.3721C29.6482 8.35366 29.8721 8.12981 29.8721 7.85366V2.79102Z" fill="#004D9F" stroke="#004D9F" stroke-linejoin="round"/>
<path d="M57.8705 13.5358C57.5772 14.1065 57.2305 14.7038 56.8359 15.3225L51.1719 24.3198H58.6119V18.8105C58.6119 18.2931 58.6225 17.6798 58.6439 16.9651C58.6652 16.2558 58.6919 15.5411 58.7185 14.8318C58.7452 14.1225 58.7772 13.4878 58.8145 12.9331C58.8519 12.3785 58.8732 11.9891 58.8892 11.7651H58.7185C58.4519 12.3785 58.1692 12.9651 57.8705 13.5358Z" fill="#004D9F"/>
<path d="M75.6793 0H38.8793C37.994 0 37.2793 0.714667 37.2793 1.6V38.4C37.2793 39.2853 37.994 40 38.8793 40H75.6793C76.5646 40 77.2793 39.2853 77.2793 38.4V1.6C77.2793 0.714667 76.5646 0 75.6793 0ZM68.714 29.6533H64.9913V36.384H58.6073V29.6533H45.418V24.8747L58.9646 3.904H64.9913V24.32H68.714V29.6533Z" fill="#004D9F"/>
<path d="M97.9052 5.59733V16.0502H94.8743V8.08425H90.5221V16.0502H87.5106V5.59733H97.9052Z" fill="#004D9F"/>
<path d="M107.553 5.44189C108.525 5.44189 109.405 5.66857 110.195 6.12191C110.999 6.56231 111.627 7.19051 112.08 8.00654C112.533 8.80961 112.76 9.74868 112.76 10.8238C112.76 11.8988 112.533 12.8444 112.08 13.6604C111.627 14.4635 110.999 15.0917 110.195 15.545C109.405 15.9854 108.525 16.2056 107.553 16.2056C106.219 16.2056 105.17 15.7847 104.406 14.9427V19.8194H101.375V5.59733H104.27V6.80193C105.021 5.89524 106.115 5.44189 107.553 5.44189ZM107.029 13.7187C107.806 13.7187 108.44 13.4596 108.933 12.9415C109.438 12.4105 109.69 11.7045 109.69 10.8238C109.69 9.94297 109.438 9.24353 108.933 8.72542C108.44 8.19435 107.806 7.92882 107.029 7.92882C106.251 7.92882 105.61 8.19435 105.105 8.72542C104.613 9.24353 104.367 9.94297 104.367 10.8238C104.367 11.7045 104.613 12.4105 105.105 12.9415C105.61 13.4596 106.251 13.7187 107.029 13.7187Z" fill="#004D9F"/>
<path d="M115.467 5.59733H118.479V11.8146L123.569 5.59733H126.348V16.0502H123.336V9.83288L118.265 16.0502H115.467V5.59733Z" fill="#004D9F"/>
<path d="M140.044 16.0502V9.79402L136.916 15.0399H135.634L132.584 9.77459V16.0502H129.844V5.59733H133.011L136.353 11.6398L139.908 5.59733H142.745L142.784 16.0502H140.044Z" fill="#004D9F"/>
<path d="M156.431 10.8626C156.431 10.9015 156.412 11.1735 156.373 11.6786H148.466C148.608 12.3263 148.945 12.8379 149.476 13.2135C150.007 13.5892 150.668 13.777 151.458 13.777C152.002 13.777 152.481 13.6993 152.895 13.5438C153.323 13.3755 153.718 13.1164 154.081 12.7667L155.693 14.5153C154.709 15.6422 153.271 16.2056 151.38 16.2056C150.201 16.2056 149.159 15.979 148.252 15.5256C147.345 15.0593 146.646 14.4181 146.153 13.6021C145.661 12.7861 145.415 11.86 145.415 10.8238C145.415 9.80049 145.655 8.88085 146.134 8.06483C146.626 7.23585 147.293 6.59469 148.135 6.14134C148.99 5.67504 149.942 5.44189 150.991 5.44189C152.015 5.44189 152.941 5.66209 153.77 6.10248C154.599 6.54288 155.246 7.17756 155.713 8.00654C156.192 8.82256 156.431 9.77459 156.431 10.8626ZM151.011 7.73453C150.324 7.73453 149.748 7.92882 149.282 8.3174C148.815 8.70599 148.53 9.23705 148.427 9.91059H153.575C153.472 9.25 153.187 8.72542 152.721 8.33683C152.254 7.9353 151.684 7.73453 151.011 7.73453Z" fill="#004D9F"/>
<path d="M165.497 5.44189C166.468 5.44189 167.349 5.66857 168.139 6.12191C168.942 6.56231 169.57 7.19051 170.024 8.00654C170.477 8.80961 170.704 9.74868 170.704 10.8238C170.704 11.8988 170.477 12.8444 170.024 13.6604C169.57 14.4635 168.942 15.0917 168.139 15.545C167.349 15.9854 166.468 16.2056 165.497 16.2056C164.163 16.2056 163.113 15.7847 162.349 14.9427V19.8194H159.318V5.59733H162.213V6.80193C162.964 5.89524 164.059 5.44189 165.497 5.44189ZM164.972 13.7187C165.749 13.7187 166.384 13.4596 166.876 12.9415C167.381 12.4105 167.634 11.7045 167.634 10.8238C167.634 9.94297 167.381 9.24353 166.876 8.72542C166.384 8.19435 165.749 7.92882 164.972 7.92882C164.195 7.92882 163.554 8.19435 163.049 8.72542C162.556 9.24353 162.31 9.94297 162.31 10.8238C162.31 11.7045 162.556 12.4105 163.049 12.9415C163.554 13.4596 164.195 13.7187 164.972 13.7187Z" fill="#004D9F"/>
<path d="M97.5361 26.7159V37.1688H94.5051V29.2029H91.2022L91.105 31.0486C91.0532 32.4216 90.9237 33.5615 90.7164 34.4682C90.5092 35.3748 90.1724 36.0872 89.7061 36.6054C89.2398 37.1235 88.5922 37.3825 87.7632 37.3825C87.3228 37.3825 86.7982 37.3048 86.1895 37.1494L86.3449 34.6624C86.5521 34.6884 86.7011 34.7013 86.7918 34.7013C87.2451 34.7013 87.5819 34.5394 87.8021 34.2156C88.0352 33.8788 88.1907 33.4578 88.2684 32.9527C88.3461 32.4346 88.4044 31.7546 88.4432 30.9126L88.5987 26.7159H97.5361Z" fill="#004D9F"/>
<path d="M105.93 37.3242C104.829 37.3242 103.838 37.0976 102.957 36.6442C102.089 36.1779 101.409 35.5368 100.917 34.7207C100.425 33.9047 100.179 32.9786 100.179 31.9424C100.179 30.9062 100.425 29.98 100.917 29.164C101.409 28.348 102.089 27.7133 102.957 27.26C103.838 26.7937 104.829 26.5605 105.93 26.5605C107.031 26.5605 108.015 26.7937 108.883 27.26C109.751 27.7133 110.431 28.348 110.923 29.164C111.415 29.98 111.661 30.9062 111.661 31.9424C111.661 32.9786 111.415 33.9047 110.923 34.7207C110.431 35.5368 109.751 36.1779 108.883 36.6442C108.015 37.0976 107.031 37.3242 105.93 37.3242ZM105.93 34.8373C106.707 34.8373 107.342 34.5783 107.834 34.0601C108.339 33.5291 108.592 32.8232 108.592 31.9424C108.592 31.0616 108.339 30.3621 107.834 29.844C107.342 29.313 106.707 29.0474 105.93 29.0474C105.153 29.0474 104.511 29.313 104.006 29.844C103.501 30.3621 103.249 31.0616 103.249 31.9424C103.249 32.8232 103.501 33.5291 104.006 34.0601C104.511 34.5783 105.153 34.8373 105.93 34.8373Z" fill="#004D9F"/>
<path d="M122.703 29.2029H117.34V37.1688H114.329V26.7159H122.703V29.2029Z" fill="#004D9F"/>
<path d="M129.352 37.3242C128.251 37.3242 127.26 37.0976 126.379 36.6442C125.511 36.1779 124.831 35.5368 124.339 34.7207C123.847 33.9047 123.601 32.9786 123.601 31.9424C123.601 30.9062 123.847 29.98 124.339 29.164C124.831 28.348 125.511 27.7133 126.379 27.26C127.26 26.7937 128.251 26.5605 129.352 26.5605C130.453 26.5605 131.437 26.7937 132.305 27.26C133.173 27.7133 133.853 28.348 134.345 29.164C134.837 29.98 135.083 30.9062 135.083 31.9424C135.083 32.9786 134.837 33.9047 134.345 34.7207C133.853 35.5368 133.173 36.1779 132.305 36.6442C131.437 37.0976 130.453 37.3242 129.352 37.3242ZM129.352 34.8373C130.129 34.8373 130.764 34.5783 131.256 34.0601C131.761 33.5291 132.013 32.8232 132.013 31.9424C132.013 31.0616 131.761 30.3621 131.256 29.844C130.764 29.313 130.129 29.0474 129.352 29.0474C128.575 29.0474 127.933 29.313 127.428 29.844C126.923 30.3621 126.67 31.0616 126.67 31.9424C126.67 32.8232 126.923 33.5291 127.428 34.0601C127.933 34.5783 128.575 34.8373 129.352 34.8373Z" fill="#004D9F"/>
<path d="M146.153 29.2029H142.617V37.1688H139.606V29.2029H136.07V26.7159H146.153V29.2029Z" fill="#004D9F"/>
<path d="M148.352 26.7159H151.363V32.9333L156.454 26.7159H159.232V37.1688H156.221V30.9515L151.15 37.1688H148.352V26.7159Z" fill="#004D9F"/>
<path d="M173.123 26.7159V37.1688H170.092V29.2029H165.74V37.1688H162.729V26.7159H173.123Z" fill="#004D9F"/>
<path d="M180.673 26.5605C182.292 26.5605 183.535 26.9491 184.403 27.7263C185.271 28.4905 185.705 29.6497 185.705 31.2041V37.1688H182.868V35.8671C182.298 36.8385 181.236 37.3242 179.682 37.3242C178.879 37.3242 178.179 37.1882 177.584 36.9162C177.001 36.6442 176.554 36.2686 176.243 35.7893C175.932 35.3101 175.777 34.7661 175.777 34.1573C175.777 33.1858 176.139 32.4216 176.865 31.8647C177.603 31.3077 178.736 31.0292 180.265 31.0292H182.674C182.674 30.3686 182.473 29.8635 182.072 29.5137C181.67 29.1511 181.068 28.9697 180.265 28.9697C179.708 28.9697 179.157 29.0604 178.613 29.2417C178.082 29.4101 177.629 29.6433 177.253 29.9412L176.165 27.8234C176.735 27.4219 177.415 27.111 178.205 26.8908C179.008 26.6706 179.831 26.5605 180.673 26.5605ZM180.44 35.2842C180.958 35.2842 181.418 35.1676 181.819 34.9345C182.221 34.6884 182.506 34.3322 182.674 33.8659V32.7973H180.595C179.352 32.7973 178.73 33.2053 178.73 34.0213C178.73 34.4099 178.879 34.7207 179.177 34.9539C179.488 35.1741 179.909 35.2842 180.44 35.2842Z" fill="#004D9F"/>
</svg>
