<svg width="219" height="44" viewBox="0 0 219 44" fill="none" xmlns="http://www.w3.org/2000/svg">
<path d="M74.7215 6.79583H80.7728C81.3538 6.79284 81.9339 6.75222 82.5095 6.67419L82.8667 6.61206C82.9516 6.59117 83.0382 6.57818 83.1255 6.57324C83.4801 6.57324 83.6432 6.77512 83.6432 7.18406C83.6246 7.3466 83.5791 7.50492 83.5086 7.65253C83.4154 7.86736 83.3611 7.99418 83.3378 8.07182C83.1995 8.4143 83.1081 8.77386 83.066 9.14077C83.0425 9.40267 82.9984 9.6623 82.934 9.91724C82.9104 9.99018 82.863 10.0531 82.7994 10.0958C82.7347 10.14 82.6577 10.1626 82.5794 10.1605C82.5159 10.1655 82.4522 10.1558 82.3931 10.1321C82.3362 10.1053 82.2865 10.0654 82.2481 10.0156C82.1664 9.85072 82.1039 9.67704 82.0618 9.49795C81.9499 9.01618 81.7469 8.56024 81.4639 8.15465C81.2823 7.89374 81.0287 7.69138 80.734 7.5723C80.4497 7.48144 80.1524 7.43773 79.854 7.44289H78.5418V17.0194H79.8747V17.6664H74.6982V17.0168H76.0467V7.44029H74.7086L74.7215 6.79583Z" fill="#004D9F"/>
<path d="M84.428 14.5059C84.4205 13.7192 84.5978 12.9417 84.9456 12.236C85.2436 11.5911 85.6627 11.0094 86.1802 10.5226C86.6513 10.0955 87.024 9.8833 87.3035 9.8833C87.5842 9.9043 87.8575 9.98365 88.1058 10.1162C88.4735 10.2913 88.8122 10.5218 89.1101 10.7995C89.4645 11.1323 89.7526 11.5293 89.959 11.9694C90.1925 12.4779 90.3075 13.0328 90.2955 13.5922C90.285 14.1042 90.1888 14.6107 90.0108 15.0908C89.8205 15.6215 89.5686 16.1279 89.2602 16.5998C88.9899 17.0263 88.6615 17.4131 88.2844 17.749C88.0427 17.9936 87.7233 18.1464 87.3811 18.1812C86.9143 18.1313 86.4778 17.9263 86.1414 17.5988C85.6541 17.1954 85.243 16.708 84.9275 16.1598C84.6161 15.663 84.4436 15.0919 84.428 14.5059ZM86.0689 11.633C85.7632 11.9761 85.5881 12.4159 85.5745 12.8753C85.591 13.3677 85.7035 13.8522 85.9058 14.3014C86.1434 14.8385 86.5097 15.3087 86.9722 15.6706C87.47 16.0633 88.0908 16.2668 88.7244 16.2452C88.9069 15.8978 88.9961 15.5089 88.9833 15.1167C88.9852 14.5613 88.8641 14.0124 88.6287 13.5094C88.3919 13.0015 88.0369 12.5578 87.5934 12.2153C87.142 11.8776 86.6028 11.6773 86.0404 11.6381L86.0689 11.633Z" fill="#004D9F"/>
<path d="M96.4267 15.1117L96.9443 15.5128C96.6089 16.2079 96.1671 16.8462 95.6347 17.4048C95.117 17.9225 94.7029 18.1813 94.3794 18.1813C94.0579 18.1481 93.7579 18.0045 93.5304 17.775C93.1786 17.4615 92.8697 17.1029 92.6116 16.7086C92.3165 16.2666 92.0725 15.7925 91.8843 15.2954C91.7062 14.8595 91.6097 14.3945 91.5996 13.9237C91.6133 13.2916 91.7737 12.6714 92.0681 12.1119C92.3471 11.5319 92.7176 11.0005 93.1655 10.5383C93.5874 10.119 93.942 9.90674 94.2008 9.90674C94.3963 9.93464 94.5876 9.9868 94.7702 10.062C95.0744 10.1728 95.3725 10.2998 95.6631 10.4425C95.9422 10.5742 96.2083 10.7319 96.4577 10.9135C96.6829 11.0766 96.7916 11.2216 96.7916 11.3484C96.7916 11.4752 96.6389 11.6512 96.3387 11.954C96.2003 12.0857 96.0731 12.2285 95.9582 12.3811C95.8987 12.4717 95.8366 12.5674 95.777 12.6632C95.7175 12.759 95.6683 12.8133 95.6321 12.8133C95.5958 12.8133 95.4638 12.6968 95.2956 12.4717C95.0872 12.1994 94.8405 11.9588 94.5631 11.7573C94.2129 11.5257 93.8178 11.3705 93.4036 11.3018C93.203 11.7232 93.1054 12.1863 93.1189 12.6529C93.1273 13.164 93.2409 13.668 93.4528 14.1333C93.6666 14.638 93.9671 15.1014 94.3405 15.5025C94.6566 15.8588 95.0495 16.1385 95.4897 16.3204C95.7566 16.0614 95.9944 15.7742 96.1989 15.4637C96.2248 15.4171 96.2507 15.3731 96.2817 15.3265C96.3237 15.2508 96.3722 15.1789 96.4267 15.1117Z" fill="#004D9F"/>
<path d="M106.483 13.3622L105.641 13.225C105.768 12.9451 105.841 12.644 105.856 12.3372C105.856 11.7601 105.665 11.3822 105.282 11.2114C104.862 11.034 104.41 10.9458 103.954 10.9525H103.661V12.4097C103.641 12.8704 103.63 13.225 103.63 13.4709C103.63 13.9885 103.63 14.7003 103.661 15.5984C103.692 16.4965 103.705 17.0556 103.734 17.2782C103.745 17.4019 103.708 17.5251 103.63 17.6224C103.468 17.7137 103.279 17.7491 103.095 17.7233H102.127C102.065 17.7308 102.002 17.7238 101.943 17.7027C101.885 17.6798 101.834 17.6434 101.793 17.5965C101.718 17.4619 101.679 17.3105 101.679 17.1565C101.679 16.9365 101.653 16.5354 101.653 15.9504V14.3198C101.653 13.7426 101.666 13.1525 101.687 12.5521C101.687 12.5055 101.687 12.3372 101.707 12.0344C101.728 11.7316 101.728 11.377 101.738 10.9422H101.448C100.183 10.9422 99.5461 11.4029 99.5461 12.3114C99.5806 12.6148 99.6518 12.9129 99.7584 13.1991L98.9172 13.3363C98.6959 12.6808 98.3822 12.0602 97.9854 11.4935C97.8371 11.2933 97.7475 11.0558 97.7266 10.8076C97.7251 10.6636 97.7757 10.5239 97.8689 10.4142C97.906 10.3645 97.9538 10.3239 98.0087 10.2951C98.0651 10.267 98.1269 10.2511 98.1899 10.2485C98.2805 10.2485 98.5911 10.2848 99.1268 10.3546C99.8153 10.4142 100.509 10.4401 101.197 10.4323H104.192C104.882 10.4323 105.572 10.4064 106.263 10.3546C106.78 10.2848 107.101 10.2485 107.197 10.2485C107.26 10.2511 107.322 10.267 107.378 10.2951C107.433 10.3239 107.481 10.3645 107.518 10.4142C107.611 10.5239 107.662 10.6636 107.66 10.8076C107.638 11.0585 107.541 11.2971 107.383 11.4935C107.185 11.7747 107.003 12.0677 106.84 12.3709C106.698 12.6928 106.579 13.024 106.483 13.3622Z" fill="#004D9F"/>
<path d="M110.576 13.4657L113.309 11.8972C113.348 11.3226 113.374 10.9628 113.387 10.8205C113.391 10.7099 113.434 10.6044 113.509 10.5228C113.612 10.45 113.738 10.4186 113.863 10.4348H115.261C115.403 10.4348 115.473 10.5177 115.473 10.6937C115.473 10.7532 115.45 10.968 115.396 11.333C115.266 12.04 115.201 12.7573 115.201 13.476C115.2 14.7272 115.286 15.977 115.46 17.216C115.471 17.339 115.434 17.4613 115.357 17.5577C115.289 17.6276 115.098 17.6612 114.813 17.6612H113.863C113.795 17.6622 113.728 17.6481 113.667 17.6198C113.605 17.5921 113.551 17.5504 113.509 17.4981C113.382 17.2898 113.305 17.0551 113.284 16.8123C113.221 16.2789 113.194 15.7419 113.203 15.205C113.203 14.3431 113.232 13.4553 113.289 12.552L110.587 14.1231C110.618 15.1622 110.705 16.1989 110.845 17.229C110.858 17.3512 110.822 17.4736 110.747 17.5706C110.68 17.6405 110.501 17.6741 110.204 17.6741H109.261C109.197 17.6813 109.132 17.6751 109.07 17.656C109.009 17.6363 108.953 17.6026 108.907 17.5577C108.812 17.4124 108.765 17.2417 108.77 17.0685C108.769 16.7406 108.749 16.4131 108.71 16.0876C108.656 15.3421 108.63 14.4906 108.63 13.5407C108.63 12.8548 108.63 12.2854 108.671 11.8273C108.678 11.5062 108.716 11.1864 108.783 10.8723C108.799 10.7369 108.855 10.6096 108.946 10.5073C109.02 10.4528 109.112 10.4262 109.204 10.4323H110.623C110.763 10.4323 110.83 10.5151 110.83 10.6911C110.83 10.7351 110.804 10.9499 110.75 11.3278C110.636 12.0348 110.578 12.7496 110.576 13.4657Z" fill="#004D9F"/>
<path d="M121.669 14.1517L119.081 12.8007V13.7635C119.073 14.4984 119.11 15.2331 119.193 15.9635C119.262 16.5562 119.301 16.9703 119.301 17.2058C119.311 17.2729 119.304 17.3415 119.281 17.4051C119.257 17.469 119.219 17.5265 119.169 17.5734C118.942 17.653 118.7 17.683 118.46 17.6614H117.702C117.641 17.6641 117.581 17.6535 117.526 17.6303C117.471 17.6072 117.423 17.5707 117.386 17.5242C117.293 17.352 117.239 17.1608 117.231 16.9651C117.185 16.5664 117.16 16.1655 117.158 15.7642V13.5254C117.158 12.5522 117.158 11.8301 117.207 11.3953C117.209 11.1164 117.265 10.8406 117.37 10.5825C117.408 10.5254 117.461 10.4798 117.523 10.4505C117.584 10.424 117.651 10.4134 117.717 10.4195H118.204C118.367 10.4195 118.605 10.4195 118.913 10.3884H119.094C119.125 10.3917 119.155 10.4005 119.182 10.4143C119.209 10.429 119.232 10.4483 119.252 10.4713C119.271 10.4951 119.285 10.5223 119.293 10.5515C119.299 10.5806 119.299 10.6104 119.293 10.6395C119.307 10.8465 119.283 11.0541 119.224 11.2529C119.154 11.5462 119.12 11.8469 119.123 12.1484L121.672 13.5202V12.8343C121.664 12.2941 121.688 11.754 121.745 11.2167C121.756 10.9835 121.822 10.7564 121.939 10.5541C121.983 10.5046 122.038 10.4656 122.099 10.4402C122.161 10.415 122.227 10.4036 122.293 10.4065H122.772C123.021 10.4092 123.27 10.3989 123.517 10.3755H123.693C123.724 10.3783 123.754 10.387 123.781 10.4012C123.808 10.4154 123.832 10.4348 123.851 10.4583C123.871 10.4808 123.886 10.507 123.896 10.5355C123.905 10.564 123.908 10.5941 123.906 10.6239C123.899 10.7403 123.879 10.8557 123.849 10.9682C123.813 11.1209 123.776 11.3098 123.737 11.5273C123.66 12.1609 123.624 12.799 123.629 13.4374C123.629 14.1276 123.646 14.6892 123.681 15.1223C123.714 15.5545 123.761 15.9661 123.81 16.3569C123.851 16.6287 123.877 16.9026 123.888 17.1774C123.898 17.2445 123.89 17.313 123.867 17.3767C123.844 17.4409 123.806 17.4986 123.756 17.5449C123.529 17.6258 123.286 17.6558 123.046 17.6329H122.291C122.227 17.639 122.163 17.6319 122.102 17.6122C122.041 17.5939 121.985 17.564 121.936 17.5242C121.843 17.3994 121.789 17.2499 121.781 17.0945C121.737 16.8057 121.713 16.5143 121.708 16.2223C121.698 15.8703 121.682 15.1792 121.669 14.1517Z" fill="#004D9F"/>
<path d="M127.478 13.4658L130.214 11.8973C130.25 11.3228 130.274 10.963 130.292 10.8206C130.292 10.7104 130.334 10.6044 130.408 10.523C130.512 10.4509 130.64 10.4196 130.765 10.435H132.163C132.303 10.435 132.375 10.5178 132.375 10.6938C132.375 10.7533 132.349 10.9682 132.298 11.3331C132.169 12.0402 132.103 12.7574 132.101 13.4762C132.1 14.7273 132.187 15.977 132.36 17.2162C132.37 17.3387 132.334 17.4605 132.259 17.5578C132.094 17.65 131.903 17.6863 131.715 17.6613H130.765C130.697 17.6634 130.628 17.6492 130.566 17.6199C130.505 17.5922 130.451 17.5506 130.408 17.4983C130.279 17.2914 130.202 17.0559 130.186 16.8124C130.118 16.2794 130.09 15.7422 130.1 15.2051C130.1 14.3432 130.129 13.4554 130.188 12.5522L127.486 14.1232C127.515 15.1625 127.602 16.1994 127.745 17.2291C127.755 17.352 127.718 17.4742 127.641 17.5707C127.577 17.6406 127.396 17.6743 127.1 17.6743H126.156C126.094 17.6797 126.033 17.6717 125.975 17.651C125.917 17.6313 125.864 17.5995 125.819 17.5578C125.724 17.4131 125.678 17.2416 125.687 17.0686C125.669 16.6467 125.648 16.3206 125.623 16.0877C125.571 15.3423 125.545 14.4907 125.545 13.5409C125.545 12.855 125.545 12.2856 125.584 11.8275C125.594 11.5065 125.631 11.187 125.695 10.8724C125.714 10.7378 125.77 10.6113 125.858 10.5075C125.933 10.453 126.025 10.4264 126.117 10.4324H127.553C127.691 10.4324 127.758 10.5152 127.758 10.6912C127.758 10.7352 127.732 10.95 127.678 11.3279C127.558 12.0346 127.491 12.7492 127.478 13.4658Z" fill="#004D9F"/>
<path d="M136.19 17.1305H138.633C138.633 16.9079 138.633 16.631 138.612 16.2971C138.591 15.9632 138.591 15.6734 138.586 15.4352V13.5251C138.586 12.6011 138.61 11.9152 138.651 11.4701C138.659 11.1732 138.724 10.8806 138.842 10.6082C138.878 10.5485 138.93 10.5 138.993 10.4684C139.056 10.4338 139.127 10.4168 139.2 10.4192H139.875C140.065 10.421 140.254 10.4106 140.442 10.3882H140.615C140.646 10.3923 140.676 10.402 140.703 10.4167C140.731 10.4303 140.756 10.4497 140.776 10.4736C140.795 10.4962 140.809 10.5227 140.817 10.5512C140.822 10.5804 140.822 10.6101 140.817 10.6392C140.809 10.7549 140.789 10.8693 140.758 10.9809C140.713 11.173 140.678 11.3674 140.654 11.5632C140.575 12.1915 140.537 12.8245 140.543 13.4578V14.9952C140.532 15.4642 140.559 15.9333 140.623 16.3981C140.675 16.6724 140.791 16.8329 140.978 16.8846H141.27C141.347 16.8691 141.424 16.8484 141.498 16.8225L141.739 16.7708C141.817 16.7552 141.897 16.7474 141.977 16.7475C142.039 16.7423 142.102 16.7502 142.161 16.7708C142.217 16.7939 142.269 16.8273 142.313 16.8691C142.349 16.903 142.378 16.9434 142.399 16.9882C142.419 17.0319 142.43 17.0796 142.43 17.1279C142.373 17.4845 142.271 17.8324 142.127 18.1632C141.915 18.7275 141.645 19.5264 141.317 20.5599H140.437C140.537 20.1907 140.595 19.8112 140.61 19.4289C140.626 19.0871 140.56 18.7465 140.419 18.435C140.325 18.291 140.202 18.1677 140.059 18.0727C139.913 17.9764 139.749 17.9087 139.578 17.8734C138.926 17.7123 138.255 17.6435 137.585 17.6689H136.327C135.781 17.687 135.395 17.7025 135.167 17.7232C134.939 17.7439 134.774 17.7543 134.668 17.7543C134.612 17.7596 134.556 17.7543 134.502 17.7388C134.45 17.7234 134.401 17.6969 134.36 17.6611C134.271 17.5216 134.223 17.3604 134.22 17.1952C134.181 16.8239 134.163 16.4505 134.168 16.0771V13.5251C134.156 12.9544 134.172 12.3834 134.217 11.8143C134.23 11.4972 134.272 11.1818 134.342 10.8722C134.366 10.7362 134.427 10.6093 134.518 10.5047C134.594 10.4538 134.684 10.4276 134.776 10.4296H135.439C135.625 10.4324 135.811 10.422 135.995 10.3985H136.164C136.194 10.4016 136.223 10.4104 136.249 10.4244C136.276 10.4383 136.3 10.4577 136.319 10.4814C136.339 10.5046 136.353 10.532 136.36 10.5616C136.367 10.5906 136.367 10.6206 136.36 10.6496C136.345 10.8886 136.314 11.1264 136.267 11.3614C136.161 12.0551 136.109 12.756 136.112 13.4578C136.065 14.6825 136.091 15.9089 136.19 17.1305Z" fill="#004D9F"/>
<path d="M146.16 10.4351H147.793C147.902 10.4351 147.967 10.4661 147.987 10.5334C148.008 10.6007 147.987 10.6395 148.005 10.7042C148.024 10.7689 148.005 10.8492 148.031 10.9346C148.057 11.02 148.065 11.1287 148.099 11.2607L148.225 11.6774C148.264 11.8172 148.303 11.9751 148.342 12.1459C148.376 12.2416 148.414 12.4047 148.466 12.6092C148.797 13.8947 149.069 14.8558 149.281 15.4925C149.494 16.1292 149.675 16.6089 149.825 16.9315C149.919 17.1164 149.987 17.3132 150.027 17.5165C150.027 17.6148 149.921 17.6614 149.708 17.6614H148.065C147.987 17.6614 147.93 17.5786 147.894 17.4026C147.858 17.2266 147.796 16.9729 147.682 16.5925C147.635 16.4734 147.573 16.2767 147.496 16.0101C147.418 15.7435 147.366 15.5572 147.281 15.3242C146.753 17.0049 145.905 17.8443 144.736 17.8426C144.368 17.8563 144.007 17.7348 143.722 17.5009C143.47 17.2899 143.28 17.0143 143.173 16.7038C143.07 16.4146 143.015 16.1102 143.013 15.8031C143.018 15.5016 143.088 15.2048 143.22 14.9334C143.37 14.6113 143.551 14.3045 143.761 14.0172C143.986 13.7118 144.17 13.4762 144.32 13.3028C144.47 13.1294 144.705 12.8758 145.029 12.5264C145.171 12.3659 145.334 12.1847 145.521 12.0087C145.647 11.8833 145.765 11.7502 145.875 11.6101C145.939 11.539 145.975 11.447 145.976 11.3513C145.963 11.174 145.924 10.9995 145.86 10.8336C145.829 10.7339 145.813 10.6301 145.813 10.5256C145.831 10.4661 145.93 10.4351 146.16 10.4351ZM146.284 11.9725C145.774 12.4742 145.344 13.0523 145.011 13.6859C144.818 14.0344 144.697 14.4182 144.656 14.8143C144.655 15.0766 144.739 15.3321 144.897 15.5416C144.976 15.6533 145.083 15.7424 145.208 15.8005C145.332 15.8575 145.469 15.8833 145.606 15.8755C145.866 15.8814 146.123 15.8113 146.344 15.6736C146.545 15.5459 146.708 15.3673 146.817 15.156C146.913 14.9886 146.967 14.8002 146.973 14.6073C146.929 14.2217 146.842 13.8423 146.714 13.4762C146.61 13.1346 146.543 12.9249 146.512 12.7929C146.452 12.5153 146.376 12.2414 146.284 11.9725Z" fill="#004D9F"/>
<path d="M72.4235 22.4805H63.8047V21.0854H65.2205C65.2205 18.8647 64.8754 17.3264 64.1852 16.4706C63.8933 16.0716 63.5122 15.7463 63.0723 15.5207C62.6328 15.2973 62.1469 15.1803 61.6539 15.1791C60.9721 15.1777 60.308 15.3955 59.7593 15.8002C59.0566 16.3887 58.5441 17.1723 58.2866 18.052C57.8621 19.4289 57.6705 20.867 57.7198 22.3071C57.7174 23.5538 57.81 24.7989 57.9967 26.0315C58.1883 27.2221 58.4833 28.6922 58.8897 30.4548C59.3201 32.0208 59.5617 33.6326 59.6092 35.256C59.6088 35.4137 59.5967 35.5712 59.573 35.7271C59.5478 35.9013 59.5132 36.0741 59.4694 36.2447C59.4228 36.4207 59.3866 36.5553 59.3581 36.6562C59.3484 36.7462 59.323 36.8338 59.2831 36.9151C59.2624 36.9737 59.2442 37.0358 59.2287 37.1014C59.4611 37.2466 59.7313 37.3195 60.0052 37.3111C60.9339 37.246 61.8005 36.8206 62.42 36.1256C63.2956 35.2511 63.9826 34.2064 64.4388 33.056C64.9525 31.8189 65.2164 30.4924 65.2153 29.1529V28.3584H63.7995V26.984H72.4235V28.3739H71.0699C71.0158 29.7305 70.6358 31.0542 69.9621 32.2329C69.2811 33.4356 68.3814 34.5004 67.3092 35.3725C66.2351 36.2594 65.0222 36.9633 63.7193 37.456C62.5093 37.924 61.2249 38.1704 59.9275 38.1833C59.108 38.2018 58.2921 38.0693 57.5205 37.7925V37.3266C57.5284 36.8219 57.4894 36.3177 57.404 35.8202C57.2632 35.2414 57.041 34.6854 56.744 34.1689C56.2472 33.2767 55.6858 32.422 55.0643 31.6118C54.2847 30.6422 53.5967 29.6025 53.0092 28.5059C52.6073 27.7814 52.3085 27.0043 52.1214 26.1972C51.9878 25.4794 51.9237 24.7505 51.9299 24.0205C51.8915 22.1191 52.3634 20.2423 53.2965 18.5852C54.168 17.063 55.4471 15.8143 56.9899 14.9798C58.5376 14.1539 60.2672 13.7277 62.0214 13.74C65.0911 13.74 67.2945 14.5053 68.6318 16.0358C69.919 17.4278 70.7757 19.1628 71.0984 21.0311H72.4546L72.4235 22.4805Z" fill="#004D9F"/>
<path d="M80.4313 24.6108C80.1524 25.4356 79.8301 26.2451 79.4659 27.036C78.8874 28.2619 78.3894 29.5242 77.9751 30.8148C77.7443 31.6221 77.6258 32.4573 77.623 33.2969C77.6255 34.1555 77.8173 35.003 78.1847 35.779C78.3112 36.0359 78.4548 36.2841 78.6143 36.5219C78.7494 36.6795 78.8389 36.871 78.8732 37.0757C78.8732 37.3346 78.6635 37.4769 78.2572 37.4769H76.5282C76.3263 37.4769 76.0986 37.4769 75.7518 37.508C75.4049 37.539 75.1358 37.539 74.9986 37.539C74.6992 37.5802 74.3955 37.5051 74.1496 37.3294C73.9969 37.2 73.9219 36.8946 73.9219 36.4054C73.9323 35.1115 74.2396 33.8373 74.82 32.6809C75.6345 31.0906 76.5348 29.5458 77.5169 28.0532C77.8379 27.5355 78.1329 27.0412 78.4901 26.539C78.8032 26.0599 79.0834 25.5601 79.3287 25.043C79.5414 24.6433 79.6625 24.2012 79.6833 23.7489C79.6697 23.4061 79.6033 23.0673 79.4866 22.7447V22.359C79.5746 22.1546 79.7946 22.0484 80.1466 22.0484H83.0998C83.3878 22.0149 83.6791 22.0719 83.9332 22.2115C84.0886 22.4152 84.1591 22.6713 84.1299 22.9259C84.1299 24.1665 84.5992 26.2656 85.5379 29.223C86.1539 31.2082 86.6767 32.7042 87.0598 33.7136C87.4428 34.723 87.7612 35.4943 88.0019 36.0223C88.1674 36.3328 88.2894 36.6646 88.3642 37.0084C88.3751 37.084 88.3615 37.1611 88.3254 37.2284C88.291 37.2966 88.2357 37.3519 88.1675 37.3863C87.9362 37.4648 87.6916 37.4965 87.448 37.4795C87.1141 37.4562 86.6715 37.4433 86.0995 37.4433C85.6601 37.4333 85.2204 37.4454 84.7821 37.4795C84.5513 37.49 84.3231 37.4275 84.1299 37.3009C83.9024 37.0883 83.7256 36.8274 83.6122 36.5374C83.3718 36.0069 83.1661 35.4613 82.9962 34.9042C82.7788 34.1899 82.4467 32.9932 81.9998 31.3143C81.8936 30.8924 81.8082 30.5689 81.7409 30.3567C81.6736 30.1445 81.6245 29.9038 81.5623 29.6449C81.3035 28.7261 81.0758 27.784 80.8739 26.8885C80.7755 26.3501 80.7005 25.9722 80.6461 25.7419C80.5513 25.3696 80.4795 24.9919 80.4313 24.6108Z" fill="#004D9F"/>
<path d="M96.5845 22.0171H99.9207C100.148 22.0171 100.283 22.0896 100.327 22.2267C100.371 22.3639 100.327 22.4623 100.358 22.5994C100.389 22.7366 100.389 22.9023 100.412 23.0886C100.436 23.275 100.488 23.5002 100.55 23.7849C100.612 24.0696 100.72 24.3672 100.808 24.67C100.896 24.9729 100.974 25.2912 101.047 25.6769C101.109 25.8787 101.194 26.1945 101.305 26.663C101.978 29.4065 102.535 31.4564 102.975 32.8126C103.417 34.1818 103.788 35.2119 104.077 35.9185C104.269 36.3131 104.409 36.7306 104.494 37.1608C104.494 37.3653 104.274 37.4714 103.837 37.4714H100.488C100.322 37.4714 100.205 37.2903 100.13 36.9305C100.02 36.3458 99.8761 35.7677 99.7007 35.199C99.5998 34.9401 99.473 34.5338 99.3125 33.9592C99.196 33.4985 99.0537 33.0041 98.8803 32.4684C97.807 36.0591 96.0755 37.8545 93.6857 37.8545C92.9314 37.8862 92.1926 37.6341 91.6151 37.1479C91.0951 36.6945 90.7078 36.1086 90.4944 35.4526C90.2786 34.8343 90.1667 34.1845 90.1631 33.5296C90.1736 32.8865 90.3181 32.2526 90.5876 31.6686C90.8892 30.9812 91.2604 30.3264 91.6953 29.7145C92.1508 29.0571 92.5313 28.5524 92.8341 28.1874C93.137 27.8225 93.6106 27.2764 94.2861 26.531C94.576 26.1841 94.9021 25.8166 95.2904 25.4206C95.561 25.1517 95.8159 24.8673 96.0539 24.5691C96.1793 24.4185 96.2528 24.2316 96.2636 24.0359C96.2394 23.6542 96.1582 23.2782 96.0228 22.9204C95.9578 22.7046 95.9247 22.4805 95.9245 22.2552C95.896 22.0896 96.1341 22.0171 96.5845 22.0171ZM96.8433 25.3042C95.7888 26.3799 94.9101 27.615 94.2396 28.9639C93.8515 29.714 93.6132 30.5324 93.5381 31.3736C93.5368 31.9305 93.7107 32.4738 94.0351 32.9265C94.2001 33.1573 94.421 33.3425 94.677 33.4648C94.9316 33.5866 95.2132 33.641 95.4949 33.6227C96.0323 33.6398 96.5619 33.4906 97.0116 33.1957C97.4214 32.9305 97.7529 32.5605 97.9718 32.1241C98.1687 31.7634 98.2802 31.3623 98.2979 30.9517C98.2071 30.1302 98.0292 29.3207 97.7673 28.5369C97.5525 27.8484 97.4101 27.3644 97.3506 27.0797C97.2145 26.4789 97.0451 25.8862 96.8433 25.3042Z" fill="#004D9F"/>
<path d="M108.415 22.0172H116.302C117.118 21.9685 117.937 22.0838 118.709 22.3563C119.19 22.5866 119.431 23.1017 119.431 23.9092C119.444 24.4865 119.309 25.0575 119.04 25.5683C118.772 26.0777 118.376 26.5085 117.891 26.8184C116.543 27.6741 115.076 28.3248 113.537 28.7492V28.9407C115.367 29.3822 117.115 30.1135 118.714 31.1071C119.448 31.5096 120.058 32.1047 120.479 32.8283C120.901 33.5539 121.118 34.3804 121.108 35.2198C121.146 35.7408 121.013 36.2601 120.727 36.6977C120.487 37.0155 120.139 37.2353 119.749 37.3163C119.223 37.4145 118.689 37.4587 118.155 37.4483H108.084C107.966 37.4548 107.848 37.4378 107.737 37.3982C107.626 37.3587 107.524 37.2974 107.437 37.2179C107.232 36.9108 107.119 36.5517 107.111 36.1826C107.03 35.3864 106.995 34.5862 107.005 33.7859C107.005 32.9551 107.005 32.2744 107.036 31.7334C107.103 28.8916 107.156 26.9478 107.196 25.9022C107.214 25.0723 107.274 24.2439 107.375 23.42C107.401 23.0118 107.519 22.6147 107.719 22.2579C107.81 22.1674 107.921 22.0984 108.042 22.056C108.162 22.0144 108.29 22.0011 108.415 22.0172ZM111.112 36.2525L111.933 36.2913C112.45 36.2913 112.872 36.3224 113.162 36.3224C113.78 36.3354 114.397 36.3016 115.01 36.2214C115.381 36.1748 115.721 35.99 115.962 35.7038C116.218 35.3078 116.336 34.8381 116.296 34.3683C116.262 33.622 116.051 32.8945 115.68 32.2459C115.254 31.4468 114.637 30.765 113.884 30.2607C113.056 29.7006 112.075 29.412 111.076 29.4351C111.076 29.4351 111.076 29.8078 111.04 30.517C111.003 31.2262 111.009 31.7878 111.009 32.1838C111.012 32.9741 111.047 34.3269 111.112 36.2422V36.2525ZM111.112 28.1306C111.876 28.1516 112.628 27.9492 113.278 27.5483C113.865 27.2078 114.348 26.715 114.676 26.1221C114.974 25.628 115.14 25.0656 115.158 24.489C115.18 24.2792 115.142 24.0672 115.049 23.8782C114.954 23.6895 114.808 23.5316 114.627 23.4226C114.134 23.197 113.592 23.0966 113.051 23.1301C112.745 23.1301 112.171 23.1301 111.335 23.1923C111.159 24.8325 111.072 26.481 111.076 28.1306H111.112Z" fill="#004D9F"/>
<path d="M128.524 22.0174H137.787C138.059 22.0174 138.188 22.196 138.188 22.5506C138.188 22.9052 138.144 23.5859 138.059 24.572C137.912 27.055 137.838 29.33 137.836 31.3972C137.836 31.8941 137.875 32.7068 137.948 33.8301C138.02 34.9534 138.103 35.8412 138.188 36.4986V36.8402C138.191 36.9353 138.168 37.0293 138.121 37.112C138.073 37.1945 138.002 37.2611 137.917 37.3035C137.555 37.4481 137.165 37.5057 136.778 37.4718H135.059C134.909 37.4914 134.755 37.4727 134.614 37.4174C134.474 37.3627 134.349 37.2737 134.252 37.1586C134.092 36.8557 134.003 36.5201 133.993 36.1777C133.993 35.7428 133.938 34.5781 133.882 32.6654V31.8708C133.889 31.664 133.877 31.4568 133.845 31.2522C133.809 31.0711 133.845 30.8666 133.814 30.6984C133.798 30.5262 133.798 30.3529 133.814 30.1807C130.812 30.8519 129.308 32.7603 129.303 35.9059C129.347 36.339 129.25 36.7747 129.026 37.1483C128.834 37.3579 128.304 37.464 127.424 37.464H126.057C125.537 37.5074 125.014 37.4439 124.52 37.2777C124.408 37.206 124.319 37.1048 124.261 36.9852C124.205 36.8658 124.183 36.7333 124.196 36.6021C124.227 35.9452 124.383 35.3003 124.657 34.7024C125.008 33.9037 125.479 33.1635 126.055 32.5075C126.695 31.7618 127.46 31.1323 128.314 30.6466C129.239 30.1125 130.263 29.7741 131.324 29.6527V29.4922C129.72 29.22 128.182 28.6428 126.795 27.7918C126.246 27.4393 125.799 26.9483 125.501 26.3682C125.205 25.7886 125.065 25.1419 125.094 24.4918C125.094 23.4565 125.353 22.7913 125.884 22.4988C126.712 22.1283 127.618 21.9631 128.524 22.0174ZM132.217 23.1511C131.655 23.1297 131.093 23.1908 130.548 23.3322C130.407 23.3588 130.274 23.4172 130.16 23.5031C130.049 23.5923 129.961 23.7056 129.901 23.8344C129.799 24.1695 129.755 24.5197 129.771 24.8697C129.761 25.3963 129.862 25.9192 130.066 26.4045C130.27 26.8884 130.575 27.3233 130.959 27.6805C131.747 28.4278 132.799 28.8319 133.884 28.8038C133.875 26.9121 133.961 25.0211 134.143 23.1381L132.217 23.1511Z" fill="#004D9F"/>
<path d="M150.974 29.9268L145.67 27.041V29.1115C145.654 30.678 145.73 32.244 145.898 33.8014C146.014 34.6849 146.088 35.5701 146.121 36.457C146.139 36.5989 146.125 36.7433 146.079 36.8788C146.033 37.0129 145.956 37.1343 145.854 37.2334C145.387 37.4154 144.883 37.4837 144.384 37.4327H142.831C142.713 37.4348 142.596 37.41 142.489 37.3603C142.383 37.308 142.289 37.2329 142.215 37.1403C142.023 36.7714 141.915 36.365 141.897 35.9497C141.822 35.3492 141.772 34.4925 141.746 33.3796C141.721 32.2666 141.711 30.6766 141.718 28.6094C141.718 26.5052 141.746 24.9859 141.816 24.0619C141.815 23.4688 141.927 22.8809 142.148 22.3304C142.221 22.2107 142.326 22.1132 142.45 22.0483C142.576 21.9852 142.717 21.9583 142.857 21.9706H143.858C144.352 21.9749 144.845 21.9541 145.336 21.9085H145.704C145.767 21.9147 145.829 21.9332 145.885 21.9628C145.94 21.994 145.988 22.0352 146.027 22.0845C146.066 22.1353 146.094 22.1934 146.11 22.2553C146.123 22.3168 146.123 22.3802 146.11 22.4417C146.137 22.8826 146.091 23.325 145.976 23.7513C145.825 24.3769 145.751 25.0181 145.753 25.6614L150.974 28.5784V27.1212C150.954 25.9693 151.003 24.8172 151.121 23.6711C151.14 23.174 151.278 22.6886 151.522 22.2553C151.608 22.1519 151.716 22.0695 151.838 22.0146C151.961 21.9591 152.094 21.9334 152.229 21.9396H153.21C153.719 21.9473 154.228 21.9266 154.734 21.8774H155.086C155.215 21.8904 155.333 21.9537 155.415 22.0534C155.494 22.1548 155.533 22.2822 155.524 22.4106C155.506 22.6562 155.466 22.8996 155.405 23.1379C155.332 23.4718 155.26 23.8756 155.185 24.3337C155.019 25.6886 154.943 27.053 154.957 28.4179C154.957 29.8932 154.991 31.0907 155.06 32.0104C155.13 32.9266 155.221 33.804 155.319 34.64C155.405 35.2224 155.459 35.8091 155.48 36.3974C155.498 36.5385 155.484 36.682 155.438 36.8167C155.391 36.9516 155.312 37.0732 155.208 37.1713C154.748 37.3507 154.252 37.4189 153.761 37.3706H152.208C152.08 37.381 151.952 37.3652 151.83 37.324C151.709 37.2848 151.597 37.2205 151.502 37.1351C151.31 36.8653 151.199 36.5467 151.181 36.2163C151.094 35.5995 151.045 34.978 151.033 34.3553C151.015 33.6487 150.992 32.1605 150.974 29.9268Z" fill="#004D9F"/>
<path d="M168.4 32.0052L169.472 32.8619C168.793 34.3361 167.89 35.6964 166.795 36.8943C165.748 38.0211 164.892 38.5819 164.228 38.5767C163.565 38.5 162.951 38.1899 162.496 37.7019C161.771 37.0262 161.139 36.2557 160.62 35.4113C160.016 34.4624 159.517 33.4515 159.129 32.396C158.766 31.4546 158.57 30.4568 158.552 29.448C158.574 28.0988 158.9 26.772 159.504 25.5656C160.072 24.3374 160.831 23.207 161.753 22.2165C162.616 21.3157 163.33 20.8645 163.894 20.8628C164.291 20.9213 164.679 21.0346 165.046 21.1993C165.676 21.4345 166.293 21.705 166.894 22.0094C167.468 22.2914 168.014 22.6277 168.524 23.0136C168.975 23.363 169.202 23.6736 169.202 23.9454C169.202 24.2172 168.892 24.5666 168.271 25.2395C167.989 25.5248 167.729 25.8311 167.494 26.1557C167.37 26.3421 167.235 26.5492 167.124 26.7769C167.013 27.0047 166.901 27.1108 166.829 27.0953C166.756 27.0797 166.49 26.852 166.14 26.368C165.719 25.7924 165.217 25.2807 164.65 24.8487C163.938 24.358 163.128 24.027 162.276 23.8781C161.863 24.7806 161.664 25.7667 161.696 26.7588C161.712 27.8463 161.945 28.9197 162.38 29.9165C162.816 30.9769 163.429 31.9561 164.192 32.8127C164.829 33.5708 165.635 34.1698 166.544 34.5623C167.078 34.0041 167.551 33.3906 167.955 32.7325C167.986 32.6703 168.04 32.572 168.12 32.44C168.206 32.29 168.299 32.1448 168.4 32.0052Z" fill="#004D9F"/>
<path d="M176.59 29.0881H176.849C179.585 24.1274 182.047 21.6461 184.235 21.6444C184.573 21.6393 184.908 21.6936 185.227 21.8048C185.509 21.9135 185.651 22.0378 185.651 22.1775C185.631 22.4284 185.542 22.6687 185.392 22.8712C185.206 23.1713 185.058 23.4928 184.95 23.8288C184.795 24.4034 184.708 24.9941 184.691 25.5888V26.2903L183.842 26.3213C183.734 26.0062 183.528 25.734 183.254 25.5448C182.982 25.3601 182.657 25.2693 182.328 25.286C181.602 25.3614 180.925 25.6871 180.413 26.2074C179.676 26.8294 179.051 27.5726 178.565 28.4048C178.306 28.819 178.068 29.1477 177.876 29.3961C179.252 29.7619 180.562 30.3419 181.758 31.1147C182.699 31.7108 183.532 32.4616 184.222 33.3354C184.738 33.9841 185.153 34.7065 185.454 35.4785C185.657 35.991 185.775 36.5329 185.804 37.0832C185.804 37.3757 185.397 37.518 184.574 37.518L183.958 37.4688C183.772 37.4439 183.585 37.4292 183.397 37.4248C183.037 37.4171 182.677 37.4378 182.32 37.487C181.968 37.531 181.771 37.5491 181.704 37.5491C181.613 37.5538 181.523 37.5313 181.445 37.4844C181.363 37.4361 181.297 37.3639 181.256 37.2773C181.124 36.9062 181.037 36.5203 180.997 36.1281C180.86 35.2277 180.599 34.3506 180.221 33.5218C179.842 32.7482 179.329 32.0473 178.707 31.4512C178.129 30.8909 177.433 30.4672 176.67 30.2114C176.646 32.2867 176.753 34.3614 176.991 36.4232V36.7959C176.991 37.1919 176.486 37.4145 175.482 37.4145H173.929C173.667 37.435 173.407 37.3534 173.204 37.1867C172.99 36.8752 172.87 36.5087 172.857 36.1307C172.762 35.2886 172.713 34.4418 172.71 33.5943V28.5938C172.71 26.5827 172.746 25.1048 172.821 24.1498C172.814 23.524 172.934 22.9033 173.173 22.3251C173.254 22.1957 173.368 22.0909 173.505 22.0223C173.639 21.9516 173.79 21.9193 173.942 21.9291C174.082 21.9266 174.223 21.937 174.361 21.9601C174.506 21.9783 174.652 21.9887 174.799 21.9912C175.345 21.9886 175.891 21.9575 176.434 21.898H176.805C176.924 21.9216 177.029 21.9902 177.1 22.0896C177.17 22.1887 177.2 22.3106 177.185 22.4312C177.152 22.9522 177.088 23.4708 176.993 23.9841C176.739 25.6739 176.604 27.3794 176.59 29.0881Z" fill="#004D9F"/>
<path d="M194.101 22.0171H197.435C197.658 22.0171 197.792 22.0896 197.836 22.2267C197.88 22.3639 197.836 22.4623 197.867 22.5994C197.876 22.7638 197.896 22.9274 197.929 23.0886C197.989 23.275 197.997 23.5002 198.064 23.7849C198.131 24.0696 198.23 24.3672 198.323 24.67C198.416 24.9729 198.488 25.2912 198.561 25.6769C198.631 25.8787 198.716 26.1945 198.82 26.663C199.498 29.4065 200.054 31.4564 200.489 32.8126C200.937 34.1818 201.307 35.2119 201.597 35.9185C201.788 36.3135 201.929 36.7308 202.016 37.1608C202.016 37.3653 201.794 37.4714 201.356 37.4714H197.992C197.831 37.4714 197.715 37.2903 197.64 36.9305C197.526 36.3463 197.383 35.7684 197.21 35.199C197.112 34.947 196.982 34.5338 196.822 33.9592C196.705 33.4985 196.563 33.0042 196.389 32.4684C195.313 36.0591 193.582 37.8545 191.197 37.8545C190.443 37.8873 189.704 37.635 189.127 37.1479C188.607 36.693 188.219 36.1078 188.001 35.4526C187.791 34.833 187.68 34.1838 187.675 33.5296C187.688 32.8868 187.832 32.2535 188.099 31.6686C188.402 30.9817 188.773 30.327 189.207 29.7145C189.663 29.0571 190.038 28.5524 190.346 28.1875C190.654 27.8225 191.122 27.2764 191.798 26.531C192.088 26.1841 192.414 25.8166 192.802 25.4206C193.07 25.1493 193.321 24.8614 193.553 24.5587C193.679 24.409 193.753 24.2215 193.762 24.0256C193.737 23.644 193.656 23.2682 193.522 22.91C193.46 22.6937 193.428 22.4698 193.428 22.2449C193.431 22.0896 193.651 22.0171 194.101 22.0171ZM194.36 25.3042C193.303 26.3809 192.419 27.6156 191.741 28.9639C191.358 29.7156 191.122 30.5334 191.045 31.3736C191.044 31.9308 191.219 32.474 191.544 32.9265C191.708 33.1573 191.927 33.3424 192.182 33.4642C192.437 33.5861 192.719 33.6407 193.001 33.6227C193.538 33.6336 194.065 33.4791 194.51 33.1802C194.918 32.9122 195.249 32.5429 195.471 32.1086C195.667 31.7478 195.777 31.3465 195.792 30.9362C195.707 30.1148 195.534 29.305 195.274 28.5213C195.064 27.8329 194.924 27.3489 194.855 27.0641C194.737 26.4677 194.583 25.8791 194.394 25.3016L194.36 25.3042Z" fill="#004D9F"/>
<path d="M208.692 22.0172H217.958C218.216 22.0172 218.356 22.1958 218.356 22.5504C218.356 22.905 218.315 23.5857 218.235 24.5718C218.083 27.0548 218.007 29.3298 218.007 31.397C218.007 31.8939 218.043 32.7066 218.118 33.8299C218.193 34.9532 218.271 35.8384 218.356 36.4984V36.8374C218.36 36.9333 218.336 37.0284 218.289 37.1118C218.241 37.1936 218.171 37.26 218.087 37.3033C217.725 37.4479 217.334 37.5055 216.946 37.4716H215.23C215.079 37.4906 214.927 37.4717 214.786 37.4166C214.645 37.3614 214.52 37.2718 214.422 37.1558C214.259 36.854 214.171 36.5177 214.163 36.1749C214.163 35.74 214.101 34.5727 214.047 32.6626V31.868C214.055 31.6611 214.042 31.4538 214.008 31.2494C213.972 31.0683 214.008 30.8638 213.98 30.6956C213.963 30.5234 213.963 30.3501 213.98 30.1779C210.967 30.8457 209.462 32.7541 209.466 35.9031C209.509 36.3368 209.41 36.7728 209.184 37.1454C208.992 37.3551 208.464 37.4612 207.581 37.4612H206.264C205.744 37.5046 205.221 37.4411 204.727 37.2749C204.616 37.2031 204.527 37.1019 204.47 36.9826C204.414 36.8633 204.391 36.7306 204.406 36.5993C204.436 35.9424 204.592 35.2974 204.866 34.6996C205.626 32.9946 206.907 31.574 208.524 30.6412C209.448 30.1079 210.473 29.7705 211.534 29.6499V29.4894C209.929 29.2172 208.392 28.64 207.004 27.789C206.461 27.4323 206.02 26.9401 205.725 26.3609C205.43 25.7817 205.291 25.1356 205.322 24.4864C205.322 23.4511 205.581 22.7885 206.098 22.496C206.913 22.1357 207.802 21.9717 208.692 22.0172ZM212.385 23.1509C211.824 23.1281 211.262 23.1892 210.718 23.332C210.577 23.3585 210.443 23.4169 210.328 23.5029C210.217 23.5921 210.129 23.7054 210.069 23.8342C209.966 24.1693 209.923 24.5195 209.939 24.8694C209.929 25.396 210.03 25.9189 210.234 26.4043C210.439 26.8877 210.743 27.3225 211.127 27.6803C211.915 28.4276 212.967 28.8317 214.052 28.8036C214.052 26.9055 214.138 25.017 214.311 23.1379L212.385 23.1509Z" fill="#004D9F"/>
<path d="M22 43.7411C34.0073 43.7411 43.7411 34.0073 43.7411 22C43.7411 9.99265 34.0073 0.258789 22 0.258789C9.99265 0.258789 0.258789 9.99265 0.258789 22C0.258789 34.0073 9.99265 43.7411 22 43.7411Z" fill="#FCFCFA"/>
<path d="M22 0.517647C27.6975 0.517647 33.1616 2.78096 37.1903 6.80968C41.219 10.8384 43.4824 16.3025 43.4824 22C43.4824 27.6975 41.219 33.1616 37.1903 37.1903C33.1616 41.219 27.6975 43.4824 22 43.4824C16.3025 43.4824 10.8384 41.219 6.80968 37.1903C2.78096 33.1616 0.517647 27.6975 0.517647 22C0.517647 16.3025 2.78096 10.8384 6.80968 6.80968C10.8384 2.78096 16.3025 0.517647 22 0.517647ZM22 0C16.1673 0.00684987 10.5755 2.3269 6.45122 6.45122C2.3269 10.5755 0.00684987 16.1673 0 22C0.00684987 27.8327 2.3269 33.4245 6.45122 37.5488C10.5755 41.6731 16.1673 43.9932 22 44C27.8327 43.9932 33.4245 41.6731 37.5488 37.5488C41.6731 33.4245 43.9932 27.8327 44 22C43.9932 16.1673 41.6731 10.5755 37.5488 6.45122C33.4245 2.3269 27.8327 0.00684987 22 0Z" fill="#004D9F"/>
<path d="M22.0158 41.994C33.0697 41.994 42.0306 33.0331 42.0306 21.9792C42.0306 10.9253 33.0697 1.96436 22.0158 1.96436C10.9619 1.96436 2.00098 10.9253 2.00098 21.9792C2.00098 33.0331 10.9619 41.994 22.0158 41.994Z" fill="#D6DCE3"/>
<path d="M28.1938 15.5215H16.0291C15.9838 15.5215 15.9403 15.5395 15.9083 15.5716C15.8762 15.6036 15.8582 15.647 15.8582 15.6923V19.026C15.7341 19.0591 15.6063 19.0765 15.4778 19.0778C15.0913 19.0778 14.7207 18.9242 14.4474 18.651C14.1741 18.3777 14.0206 18.007 14.0206 17.6206V13.4897C13.9577 13.4898 13.897 13.5128 13.8498 13.5545L13.1846 14.1057C13.1693 14.1184 13.1501 14.1253 13.1302 14.1253C13.1104 14.1253 13.0912 14.1184 13.0759 14.1057L12.3667 13.5337C12.3509 13.5224 12.3319 13.5163 12.3124 13.5163C12.2929 13.5163 12.2738 13.5224 12.258 13.5337L11.5488 14.1057C11.5339 14.1182 11.5152 14.125 11.4958 14.125C11.4764 14.125 11.4576 14.1182 11.4427 14.1057L10.731 13.5337C10.7155 13.5226 10.6969 13.5166 10.6779 13.5166C10.6588 13.5166 10.6403 13.5226 10.6248 13.5337L9.91306 14.1057C9.89817 14.1182 9.87939 14.125 9.86 14.125C9.8406 14.125 9.82184 14.1182 9.80695 14.1057L9.09778 13.5337C9.08193 13.5224 9.06292 13.5163 9.04342 13.5163C9.02391 13.5163 9.0049 13.5224 8.98906 13.5337L8.27988 14.1057C8.26458 14.1184 8.24538 14.1253 8.22554 14.1253C8.20571 14.1253 8.18648 14.1184 8.17118 14.1057L7.46201 13.5337C7.44617 13.5224 7.42715 13.5163 7.40765 13.5163C7.38815 13.5163 7.36913 13.5224 7.35329 13.5337L6.64412 14.1057C6.62923 14.1182 6.61046 14.125 6.59107 14.125C6.57168 14.125 6.5529 14.1182 6.53801 14.1057L5.84177 13.5467C5.79554 13.5096 5.73798 13.4895 5.67871 13.4897V21.4356C5.74601 26.1462 8.88812 30.3883 14.0232 31.0587C14.0644 31.0637 14.1023 31.0836 14.1299 31.1145C14.1576 31.1455 14.173 31.1854 14.1733 31.2269V34.4337L12.346 34.3483C12.2774 34.3483 12.2115 34.3756 12.163 34.4241C12.1145 34.4727 12.0872 34.5385 12.0872 34.6072L12.1726 35.4509C12.1726 35.5196 12.1999 35.5854 12.2484 35.6339C12.2969 35.6825 12.3628 35.7097 12.4314 35.7097H18.4025C18.4251 35.7097 18.4469 35.7008 18.4629 35.6847C18.4789 35.6687 18.4879 35.647 18.4879 35.6243V34.7832C18.4882 34.7269 18.4774 34.671 18.4561 34.6189C18.4348 34.5668 18.4034 34.5194 18.3637 34.4795C18.324 34.4396 18.2768 34.4079 18.2249 34.3863C18.1729 34.3646 18.1171 34.3535 18.0608 34.3535L17.1989 34.4389C18.3041 33.9679 19.0884 32.6815 19.0884 31.2761V31.1855C19.0876 31.174 19.0893 31.1624 19.0933 31.1516C19.0973 31.1408 19.1035 31.1309 19.1116 31.1226C19.1196 31.1143 19.1293 31.1078 19.14 31.1035C19.1507 31.0992 19.1622 31.0971 19.1738 31.0975H23.3305C23.3531 31.0972 23.3756 31.1013 23.3966 31.1098C23.4177 31.1182 23.4368 31.1307 23.4529 31.1466C23.4691 31.1625 23.4819 31.1815 23.4906 31.2024C23.4994 31.2233 23.5039 31.2457 23.5039 31.2683V34.4389L21.4333 34.3535C21.3647 34.3535 21.2988 34.3808 21.2503 34.4293C21.2017 34.4779 21.1745 34.5437 21.1745 34.6123L21.2599 35.5415C21.2599 35.5868 21.2779 35.6303 21.3099 35.6623C21.342 35.6943 21.3854 35.7123 21.4307 35.7123H27.9893C28.0005 35.7123 28.0116 35.7101 28.022 35.7058C28.0323 35.7015 28.0418 35.6953 28.0497 35.6873C28.0576 35.6794 28.0639 35.67 28.0682 35.6596C28.0725 35.6493 28.0747 35.6381 28.0747 35.6269V34.7858C28.0747 34.6718 28.0295 34.5625 27.9489 34.4819C27.8683 34.4014 27.759 34.3561 27.6451 34.3561L26.2733 34.4415V34.3509C27.7693 33.9161 28.7373 32.5392 28.8615 30.9345C28.8745 30.7869 28.8615 30.1295 28.8615 29.9432C28.829 29.3043 28.7026 28.6738 28.4862 28.0719C28.4818 28.0612 28.4797 28.0497 28.4801 28.0382C28.4805 28.0267 28.4834 28.0154 28.4885 28.0051C28.4937 27.9947 28.501 27.9857 28.51 27.9784C28.519 27.9712 28.5294 27.966 28.5406 27.9632C30.7328 27.3161 32.9018 25.4785 33.5022 23.2474C33.5061 23.234 33.513 23.2216 33.5224 23.2113C33.5319 23.2009 33.5436 23.1929 33.5566 23.1879C36.7531 22.093 39.1912 19.1735 39.3232 15.7053C39.3242 15.6823 39.3206 15.6594 39.3125 15.6379C39.3043 15.6164 39.2919 15.5968 39.2758 15.5803C39.2598 15.5638 39.2406 15.5508 39.2194 15.542C39.1981 15.5332 39.1753 15.5289 39.1524 15.5293L28.1938 15.5215Z" fill="#01499D"/>
<path d="M6.83544 23.5347C6.86915 23.5258 6.90482 23.5277 6.93735 23.5403C6.96988 23.5528 6.99762 23.5753 7.01662 23.6046L7.77756 24.7149C7.79095 24.7357 7.80858 24.7535 7.82928 24.767C7.84999 24.7805 7.87331 24.7895 7.89773 24.7934C7.92215 24.7973 7.94713 24.7961 7.97102 24.7897C7.99491 24.7833 8.01718 24.7719 8.03639 24.7563L9.12345 23.9436C9.15129 23.9234 9.18481 23.9125 9.21921 23.9125C9.25361 23.9125 9.28713 23.9234 9.31498 23.9436L10.3503 24.5855C10.3701 24.5976 10.3921 24.6055 10.415 24.6089C10.4379 24.6123 10.4613 24.6111 10.4837 24.6053C10.5062 24.5995 10.5272 24.5893 10.5457 24.5752C10.5641 24.5611 10.5795 24.5435 10.591 24.5234L11.2303 23.3872C11.2476 23.3569 11.2737 23.3325 11.3051 23.3173C11.3365 23.302 11.3717 23.2966 11.4063 23.3017L12.6486 23.4855C12.6719 23.4892 12.6956 23.4879 12.7184 23.482C12.7411 23.476 12.7624 23.4654 12.7809 23.4508C12.7994 23.4362 12.8146 23.418 12.8257 23.3973C12.8368 23.3765 12.8435 23.3537 12.8453 23.3302L12.9514 22.0025C12.9535 21.9679 12.9663 21.9347 12.9881 21.9078C13.0099 21.8809 13.0397 21.8615 13.0731 21.8523L14.3983 21.4538C14.4412 21.44 14.4771 21.4103 14.4988 21.3708C14.5205 21.3314 14.5262 21.2851 14.5147 21.2415L14.1498 19.9474C14.1412 19.9188 14.1403 19.8885 14.1471 19.8594C14.1539 19.8303 14.1682 19.8036 14.1886 19.7817L14.9651 18.9742C14.6929 18.8676 14.4591 18.6814 14.2943 18.4399C14.1295 18.1985 14.0412 17.9129 14.0411 17.6206V13.4897C13.9782 13.4898 13.9175 13.5128 13.8703 13.5545L13.2051 14.1057C13.1898 14.1184 13.1706 14.1253 13.1507 14.1253C13.1309 14.1253 13.1117 14.1184 13.0964 14.1057L12.3872 13.5337C12.3714 13.5224 12.3524 13.5163 12.3329 13.5163C12.3134 13.5163 12.2943 13.5224 12.2785 13.5337L11.5693 14.1057C11.5544 14.1182 11.5357 14.125 11.5163 14.125C11.4969 14.125 11.4781 14.1182 11.4632 14.1057L10.7514 13.5337C10.736 13.5226 10.7174 13.5166 10.6984 13.5166C10.6793 13.5166 10.6608 13.5226 10.6453 13.5337L9.93357 14.1057C9.91868 14.1182 9.8999 14.125 9.8805 14.125C9.86111 14.125 9.84233 14.1182 9.82744 14.1057L9.11827 13.5337C9.10243 13.5224 9.08343 13.5163 9.06392 13.5163C9.04442 13.5163 9.02541 13.5224 9.00957 13.5337L8.30039 14.1057C8.28509 14.1184 8.26587 14.1253 8.24603 14.1253C8.2262 14.1253 8.20699 14.1184 8.19169 14.1057L7.4825 13.5337C7.46666 13.5224 7.44766 13.5163 7.42816 13.5163C7.40866 13.5163 7.38964 13.5224 7.3738 13.5337L6.66463 14.1057C6.64974 14.1182 6.63095 14.125 6.61156 14.125C6.59217 14.125 6.5734 14.1182 6.55851 14.1057L5.86228 13.5467C5.81605 13.5096 5.75849 13.4895 5.69922 13.4897V21.4356C5.70905 22.2153 5.80629 22.9915 5.9891 23.7495L6.83544 23.5347Z" fill="#515151"/>
<path d="M6.14661 24.4797C6.07413 24.2545 6.01202 24.0267 5.95508 23.7964C6.01202 24.0267 6.0819 24.2545 6.14661 24.4797Z" fill="#515151"/>
<path d="M13.5884 15.7674H9.96484V20.0096C12.0924 19.9008 13.7825 18.2444 13.7825 16.2152C13.7825 16.1169 13.7825 16.0211 13.7696 15.9253C13.7662 15.8804 13.7453 15.8387 13.7114 15.8091C13.6775 15.7796 13.6333 15.7646 13.5884 15.7674Z" fill="#FCFCFA"/>
<path d="M9.69083 15.7676H6.0673C6.02415 15.7675 5.98255 15.7837 5.95086 15.8129C5.91917 15.8422 5.89975 15.8824 5.89648 15.9255C5.89648 16.0212 5.89648 16.117 5.89648 16.2154C5.89648 18.2445 7.5866 19.901 9.71413 20.0097L9.69083 15.7676Z" fill="#FCFCFA"/>
<path d="M39.0385 17.243C39.1032 16.9842 39.1549 16.7254 39.1938 16.4407L29.6923 16.5054C29.7286 16.2466 29.7571 15.9619 29.7726 15.6875L16.0756 15.7807C16.0527 15.7813 16.031 15.7909 16.0151 15.8074C15.9991 15.8238 15.9902 15.8458 15.9902 15.8687L16.0549 25.1501C16.0549 25.2381 16.0782 25.2381 16.3138 25.2252L23.1648 24.8783C23.195 24.8775 23.2248 24.8713 23.2528 24.8602C24.4648 24.3599 25.5726 23.6374 26.5192 22.7301L34.6514 22.6757C35.1049 22.4428 35.5378 22.1718 35.9455 21.8656L27.2827 21.9252C27.5542 21.6056 27.8066 21.2703 28.0385 20.9209L37.0662 20.8588C37.3047 20.6048 37.5269 20.3359 37.7314 20.0539L28.5225 20.1186C28.6992 19.7922 28.859 19.4571 29.0013 19.1143L38.3603 19.0496C38.4978 18.7889 38.6214 18.5211 38.7305 18.2473L29.2963 18.312C29.3998 17.9828 29.4862 17.6485 29.5552 17.3103L39.0385 17.243Z" fill="#FCFCFA"/>
<path d="M10.9097 25.8386L11.668 24.4099C11.6843 24.3795 11.7092 24.3547 11.7396 24.3386C11.77 24.3225 11.8046 24.3158 11.8388 24.3193L13.4099 24.4875C13.4323 24.4901 13.4551 24.4881 13.4768 24.4818C13.4984 24.4754 13.5187 24.4648 13.5362 24.4506C13.5538 24.4364 13.5684 24.4189 13.5791 24.399C13.5899 24.3791 13.5966 24.3573 13.5988 24.3349L13.7671 22.7042C13.7708 22.6709 13.7839 22.6392 13.805 22.6131C13.8261 22.587 13.8543 22.5674 13.8861 22.5567L15.4391 22.0572C15.4822 22.044 15.5184 22.0143 15.5398 21.9746C15.5611 21.9348 15.5658 21.8882 15.5529 21.845L15.0586 20.2092C15.0496 20.1784 15.0491 20.1457 15.0574 20.1147C15.0656 20.0837 15.0821 20.0555 15.1052 20.0332L15.8428 19.3395V19.0264C15.7187 19.0595 15.5908 19.0769 15.4623 19.0781C15.2796 19.0786 15.0985 19.0434 14.9292 18.9746L14.1527 19.7821C14.1325 19.8041 14.1182 19.8308 14.1109 19.8597C14.1037 19.8886 14.1038 19.9189 14.1113 19.9478L14.4788 21.2419C14.4902 21.2855 14.4845 21.3317 14.4629 21.3712C14.4412 21.4107 14.4052 21.4404 14.3623 21.4541L13.0372 21.8527C13.0037 21.8619 12.974 21.8813 12.9522 21.9082C12.9304 21.9351 12.9176 21.9682 12.9155 22.0028L12.812 23.3254C12.8101 23.3489 12.8035 23.3717 12.7924 23.3925C12.7813 23.4132 12.766 23.4314 12.7476 23.446C12.7291 23.4606 12.7078 23.4712 12.6851 23.4772C12.6623 23.4832 12.6385 23.4844 12.6153 23.4807L11.3729 23.297C11.3384 23.2918 11.3031 23.2972 11.2717 23.3125C11.2403 23.3277 11.2143 23.3521 11.1969 23.3824L10.5576 24.5186C10.5461 24.5387 10.5307 24.5563 10.5123 24.5704C10.4939 24.5845 10.4728 24.5947 10.4504 24.6005C10.428 24.6063 10.4046 24.6075 10.3817 24.6041C10.3587 24.6007 10.3367 24.5928 10.3169 24.5807L9.28164 23.9388C9.2538 23.9186 9.22028 23.9078 9.18588 23.9078C9.15148 23.9078 9.11796 23.9186 9.09011 23.9388L8.00305 24.7516C7.98384 24.7671 7.96158 24.7785 7.93768 24.7849C7.91379 24.7913 7.88882 24.7925 7.8644 24.7886C7.83998 24.7847 7.81665 24.7757 7.79595 24.7622C7.77525 24.7487 7.75762 24.7309 7.74423 24.7101L6.98329 23.5998C6.96429 23.5706 6.93655 23.5481 6.90402 23.5355C6.87149 23.523 6.83584 23.521 6.80212 23.5299L5.90918 23.7447C5.96871 24.0035 6.03859 24.2468 6.11624 24.4901H6.5614C6.59068 24.4901 6.61946 24.4978 6.64488 24.5123C6.6703 24.5268 6.69148 24.5477 6.70634 24.573L7.56305 25.9913C7.5754 26.0132 7.59243 26.0321 7.61291 26.0466C7.63338 26.0611 7.65682 26.071 7.68153 26.0754C7.70624 26.0799 7.73163 26.0788 7.75589 26.0723C7.78015 26.0658 7.80267 26.0541 7.82187 26.0379L9.14188 25.0414C9.17067 25.0212 9.20503 25.0103 9.24024 25.0103C9.27545 25.0103 9.3098 25.0212 9.33859 25.0414L10.6327 25.9007C10.6528 25.9207 10.6775 25.9353 10.7047 25.9431C10.7319 25.951 10.7606 25.9519 10.7882 25.9457C10.8158 25.9395 10.8414 25.9264 10.8627 25.9077C10.8839 25.889 10.9 25.8652 10.9097 25.8386Z" fill="#FCFCFA"/>
<path d="M8.26154 16.8884C8.05985 16.8848 7.85972 16.9243 7.67449 17.0042C7.48927 17.0841 7.32323 17.2026 7.18743 17.3517C7.16102 17.3823 7.14648 17.4213 7.14648 17.4617C7.14648 17.5021 7.16102 17.5412 7.18743 17.5717C7.32323 17.7209 7.48927 17.8394 7.67449 17.9193C7.85972 17.9992 8.05985 18.0386 8.26154 18.035C8.46289 18.0389 8.66274 17.9996 8.84759 17.9197C9.03244 17.8397 9.19799 17.7211 9.33307 17.5717C9.35948 17.5412 9.37402 17.5021 9.37402 17.4617C9.37402 17.4213 9.35948 17.3823 9.33307 17.3517C9.19799 17.2024 9.03244 17.0837 8.84759 17.0038C8.66274 16.9239 8.46289 16.8845 8.26154 16.8884Z" fill="#515151"/>
<path d="M11.4094 16.8884C11.6107 16.8845 11.8105 16.9239 11.9954 17.0038C12.1802 17.0837 12.3458 17.2024 12.4809 17.3517C12.5073 17.3823 12.5218 17.4213 12.5218 17.4617C12.5218 17.5021 12.5073 17.5412 12.4809 17.5717C12.3458 17.7211 12.1802 17.8397 11.9954 17.9197C11.8105 17.9996 11.6107 18.0389 11.4094 18.035C11.208 18.0389 11.0082 17.9996 10.8233 17.9197C10.6385 17.8397 10.4729 17.7211 10.3378 17.5717C10.3114 17.5412 10.2969 17.5021 10.2969 17.4617C10.2969 17.4213 10.3114 17.3823 10.3378 17.3517C10.4729 17.2024 10.6385 17.0837 10.8233 17.0038C11.0082 16.9239 11.208 16.8845 11.4094 16.8884Z" fill="#515151"/>
<path d="M10.1325 16.8833C10.1066 16.8367 10.1325 16.7901 10.2283 16.7176C10.2889 16.6694 10.3539 16.627 10.4224 16.5908C11.064 16.2708 11.8007 16.1971 12.493 16.3837C12.5551 16.4019 12.6405 16.4743 12.6094 16.5494C12.5915 16.5774 12.5646 16.5986 12.5331 16.6094C12.5016 16.6202 12.4674 16.62 12.436 16.6089C11.8609 16.4433 11.247 16.4743 10.6915 16.6969C10.5518 16.7565 10.412 16.8237 10.2567 16.9014C10.2231 16.9117 10.161 16.935 10.1325 16.8833Z" fill="#515151"/>
<path d="M9.51674 16.8833C9.54262 16.8367 9.51674 16.7901 9.42097 16.7176C9.36074 16.6689 9.2957 16.6264 9.22686 16.5908C8.58525 16.2708 7.84855 16.1971 7.15627 16.3837C7.09415 16.4019 7.00873 16.4743 7.03979 16.5494C7.05786 16.578 7.08521 16.5995 7.11725 16.6103C7.14929 16.6212 7.18408 16.6207 7.21579 16.6089C7.7909 16.4435 8.40472 16.4745 8.96026 16.6969C9.09744 16.7565 9.2372 16.8237 9.39249 16.9014C9.41837 16.9117 9.48827 16.935 9.51674 16.8833Z" fill="#515151"/>
<path d="M39.1264 15.5215H29.7647V15.6872C29.7492 15.9615 29.7207 16.2359 29.6845 16.505L39.1859 16.4403C39.1471 16.7121 39.0953 16.9787 39.0306 17.2427L29.5421 17.3074C29.4732 17.6455 29.3868 17.9798 29.2833 18.309L38.7174 18.2443C38.6083 18.5181 38.4848 18.786 38.3473 19.0467L28.9882 19.1114C28.846 19.4541 28.6862 19.7893 28.5094 20.1156L37.7184 20.0509C37.5138 20.333 37.2917 20.6019 37.0532 20.8559L28.0254 20.918C27.8142 21.2331 27.587 21.5372 27.3447 21.829H36.0334C36.9947 21.1098 37.7856 20.1874 38.3498 19.1276C38.9139 18.0678 39.2374 16.8966 39.2972 15.6975C39.2983 15.6746 39.2946 15.6516 39.2865 15.6301C39.2783 15.6086 39.2659 15.589 39.2499 15.5725C39.2339 15.5561 39.2146 15.543 39.1934 15.5342C39.1722 15.5255 39.1494 15.5211 39.1264 15.5215Z" fill="#515151"/>
<path d="M9.02789 13.6607L9.71119 14.2094C9.74888 14.2411 9.79652 14.2585 9.84576 14.2585C9.89493 14.258 9.94244 14.2407 9.98036 14.2094L10.6611 13.6607L11.3444 14.2094C11.3823 14.2407 11.4298 14.258 11.4789 14.2585C11.5282 14.2585 11.5758 14.2411 11.6135 14.2094L12.2968 13.6607L12.9801 14.2094C13.0181 14.2403 13.0657 14.2568 13.1147 14.256C13.1649 14.2567 13.2136 14.2393 13.2519 14.2068L13.8834 13.6891V17.631C13.8841 18.0516 14.0515 18.4548 14.3489 18.7522C14.6463 19.0495 15.0494 19.2169 15.47 19.2176C15.61 19.2178 15.7494 19.1986 15.8841 19.1607L15.9799 19.1348V15.6924C15.9799 15.6814 15.9842 15.6709 15.992 15.6631C15.9998 15.6554 16.0103 15.651 16.0213 15.651H39.1265C39.1365 15.6472 39.1475 15.6472 39.1575 15.651C39.1598 15.6554 39.161 15.6603 39.161 15.6653C39.161 15.6702 39.1598 15.6751 39.1575 15.6795C39.0333 18.964 36.7505 21.9249 33.4789 23.0456C33.4456 23.0569 33.4157 23.0763 33.3917 23.1021C33.3678 23.1278 33.3506 23.1591 33.3418 23.1931C32.7931 25.2301 30.7898 27.1324 28.4681 27.8183C28.44 27.826 28.4138 27.8397 28.3915 27.8585C28.3691 27.8772 28.3511 27.9006 28.3387 27.927C28.3266 27.9534 28.3203 27.9821 28.3203 28.0111C28.3203 28.0402 28.3266 28.0689 28.3387 28.0953C28.5499 28.6849 28.6737 29.3022 28.7062 29.9277C28.7062 30.1167 28.7192 30.7663 28.7062 30.9035C28.5846 32.503 27.6062 33.7997 26.2138 34.2061L26.1206 34.2346V34.5581H26.2578L27.6218 34.4727C27.7014 34.4727 27.7778 34.5043 27.8341 34.5606C27.8904 34.6169 27.922 34.6933 27.922 34.7729V35.5701H21.4074C21.3867 35.5701 21.366 35.552 21.366 35.5183L21.2806 34.5995C21.2806 34.5667 21.2932 34.5352 21.3159 34.5116C21.3386 34.4879 21.3695 34.474 21.4022 34.4727L23.4728 34.5581H23.61V31.2529C23.6093 31.173 23.5771 31.0967 23.5204 31.0404C23.4637 30.9842 23.387 30.9527 23.3072 30.9527H19.1505C19.1216 30.9526 19.093 30.9583 19.0663 30.9694C19.0397 30.9805 19.0155 30.9968 18.9952 31.0174C18.9555 31.0592 18.9341 31.1151 18.9356 31.1727V31.2607C18.9356 32.5962 18.1902 33.8489 17.1239 34.3044L16.3474 34.6357L17.186 34.5529L18.0349 34.4675C18.1141 34.4682 18.1898 34.5001 18.2456 34.5563C18.3013 34.6126 18.3326 34.6885 18.3326 34.7677V35.5649H12.4055C12.3719 35.5649 12.3396 35.5515 12.3159 35.5278C12.2921 35.504 12.2787 35.4717 12.2787 35.4381V35.4251L12.1959 34.5891C12.1965 34.5571 12.2096 34.5265 12.2323 34.5038C12.2549 34.4812 12.2855 34.4681 12.3175 34.4675L14.1448 34.5529H14.2794V31.2089C14.2795 31.1364 14.2533 31.0663 14.2057 31.0116C14.1582 30.9569 14.0924 30.9213 14.0206 30.9113C9.24271 30.2901 5.85729 26.3844 5.78741 21.415V21.3374V13.6788L6.44741 14.1964C6.48532 14.2277 6.53283 14.2451 6.582 14.2456C6.63125 14.2455 6.6789 14.2281 6.7166 14.1964L7.39989 13.6477L8.08318 14.1964C8.12109 14.2277 8.1686 14.2451 8.21777 14.2456C8.26694 14.2451 8.31445 14.2277 8.35236 14.1964L9.03564 13.6477M14.0206 13.4795C13.9577 13.4796 13.897 13.5026 13.8498 13.5442L13.1846 14.0955C13.1691 14.1076 13.1499 14.114 13.1302 14.1136C13.1105 14.1145 13.0912 14.108 13.0759 14.0955L12.3667 13.5235C12.3514 13.511 12.3321 13.5045 12.3124 13.5054C12.2927 13.505 12.2735 13.5114 12.258 13.5235L11.5488 14.0955C11.5338 14.1087 11.5145 14.1161 11.4945 14.1162C11.4753 14.1155 11.4571 14.1082 11.4427 14.0955L10.731 13.5235C10.7157 13.511 10.6963 13.5045 10.6766 13.5054C10.6577 13.5051 10.6394 13.5116 10.6248 13.5235L9.91306 14.0955C9.89872 14.1082 9.88042 14.1155 9.86129 14.1162C9.84127 14.1161 9.82197 14.1087 9.80695 14.0955L9.09778 13.5235C9.08228 13.5114 9.06308 13.505 9.04342 13.5054C9.02369 13.5045 9.00433 13.511 8.98906 13.5235L8.27988 14.0955C8.26464 14.1084 8.24548 14.1156 8.22554 14.1162C8.2056 14.1156 8.18643 14.1084 8.17118 14.0955L7.46201 13.5235C7.44652 13.5114 7.42731 13.505 7.40765 13.5054C7.38799 13.505 7.36878 13.5114 7.35329 13.5235L6.64412 14.0955C6.6291 14.1087 6.6098 14.1161 6.58977 14.1162C6.57065 14.1155 6.55235 14.1082 6.53801 14.0955L5.84177 13.5364C5.79554 13.4993 5.73798 13.4792 5.67871 13.4795V21.4357C5.74601 26.1463 8.88812 30.3884 14.0232 31.0588C14.0644 31.0638 14.1023 31.0837 14.1299 31.1146C14.1576 31.1456 14.173 31.1855 14.1733 31.227V34.4338L12.346 34.3484C12.2774 34.3484 12.2115 34.3757 12.163 34.4242C12.1145 34.4728 12.0872 34.5386 12.0872 34.6073L12.1726 35.451C12.1726 35.5197 12.1999 35.5855 12.2484 35.634C12.2969 35.6826 12.3628 35.7098 12.4314 35.7098H18.4025C18.4137 35.7098 18.4248 35.7076 18.4352 35.7033C18.4455 35.699 18.4549 35.6928 18.4629 35.6848C18.4708 35.6769 18.4771 35.6675 18.4814 35.6571C18.4857 35.6468 18.4879 35.6356 18.4879 35.6244V34.7833C18.4882 34.727 18.4774 34.6711 18.4561 34.619C18.4348 34.5669 18.4034 34.5195 18.3637 34.4796C18.324 34.4397 18.2768 34.408 18.2249 34.3864C18.1729 34.3647 18.1171 34.3536 18.0608 34.3536L17.1989 34.439C18.3041 33.968 19.0884 32.6816 19.0884 31.2762V31.1856C19.0876 31.1741 19.0893 31.1625 19.0933 31.1517C19.0973 31.1409 19.1035 31.131 19.1116 31.1227C19.1196 31.1144 19.1293 31.1079 19.14 31.1036C19.1507 31.0993 19.1622 31.0972 19.1738 31.0976H23.3305C23.3531 31.0973 23.3756 31.1014 23.3966 31.1099C23.4177 31.1183 23.4368 31.1308 23.4529 31.1467C23.4691 31.1626 23.4819 31.1816 23.4906 31.2025C23.4994 31.2234 23.5039 31.2458 23.5039 31.2684V34.439L21.4333 34.3536C21.3647 34.3536 21.2988 34.3809 21.2503 34.4294C21.2017 34.478 21.1745 34.5438 21.1745 34.6124L21.2599 35.5416C21.2599 35.5869 21.2779 35.6304 21.3099 35.6624C21.342 35.6944 21.3854 35.7124 21.4307 35.7124H27.9893C28.0005 35.7124 28.0116 35.7102 28.022 35.7059C28.0323 35.7016 28.0418 35.6953 28.0497 35.6874C28.0576 35.6795 28.0639 35.6701 28.0682 35.6597C28.0725 35.6493 28.0747 35.6382 28.0747 35.627V34.7858C28.0747 34.6719 28.0295 34.5626 27.9489 34.482C27.8683 34.4015 27.759 34.3562 27.6451 34.3562L26.2733 34.4416V34.351C27.7693 33.9162 28.7373 32.5393 28.8615 30.9346C28.8745 30.787 28.8615 30.1296 28.8615 29.9433C28.829 29.3044 28.7026 28.6739 28.4862 28.072C28.4818 28.0613 28.4797 28.0498 28.4801 28.0383C28.4805 28.0268 28.4834 28.0155 28.4885 28.0052C28.4937 27.9948 28.501 27.9858 28.51 27.9785C28.519 27.9713 28.5294 27.9661 28.5406 27.9632C30.7328 27.3162 32.9018 25.4785 33.5022 23.2475C33.5061 23.234 33.513 23.2217 33.5224 23.2113C33.5319 23.201 33.5436 23.193 33.5566 23.188C36.7531 22.0931 39.1912 19.1736 39.3232 15.7054C39.3242 15.6824 39.3206 15.6595 39.3125 15.638C39.3043 15.6165 39.2919 15.5969 39.2758 15.5804C39.2598 15.5639 39.2406 15.5509 39.2194 15.5421C39.1981 15.5333 39.1753 15.529 39.1524 15.5294H16.0213C15.976 15.5294 15.9325 15.5474 15.9005 15.5794C15.8685 15.6114 15.8505 15.6549 15.8505 15.7002V19.0338C15.7263 19.067 15.5985 19.0844 15.47 19.0856C15.0835 19.0856 14.7129 18.9321 14.4396 18.6588C14.1664 18.3855 14.0128 18.0149 14.0128 17.6284V13.4898L14.0206 13.4795Z" fill="#515151"/>
</svg>
