<?xml version="1.0" encoding="utf-8"?>
<!-- Generator: Adobe Illustrator 26.0.3, SVG Export Plug-In . SVG Version: 6.00 Build 0)  -->
<svg version="1.1" id="Слой_1" xmlns="http://www.w3.org/2000/svg" xmlns:xlink="http://www.w3.org/1999/xlink" x="0px" y="0px"
	 viewBox="0 0 824.3 170" style="enable-background:new 0 0 824.3 170;" xml:space="preserve">
<style type="text/css">
	.st0{fill:#FCFCFA;}
	.st1{fill:#004D9F;}
	.st2{fill:#0599F9;}
	.st3{fill:#01499D;}
	.st4{fill:#515151;}
</style>
<g>
	<g>
		<circle class="st0" cx="85" cy="85" r="83"/>
		<path class="st1" d="M85,2c45.8,0,83,37.2,83,83s-37.2,83-83,83S2,130.8,2,85S39.2,2,85,2 M85,0C38.1,0,0,38.1,0,85s38.1,85,85,85
			s85-38.1,85-85S131.9,0,85,0L85,0z"/>
	</g>
	<g>
		<g>
			<path class="st1" d="M269.4,30.1h23.4c2.2,0,4.5-0.2,6.7-0.5l1.4-0.2c0.3-0.1,0.7-0.1,1-0.1c1.4,0,2.1,0.8,2.1,2.4
				c-0.1,0.6-0.2,1.2-0.5,1.8c-0.4,0.8-0.6,1.3-0.7,1.6c-0.5,1.3-0.9,2.7-1.1,4.1c-0.1,1-0.3,2-0.5,3c-0.1,0.3-0.3,0.5-0.5,0.7
				c-0.2,0.2-0.5,0.3-0.9,0.2c-0.2,0-0.5,0-0.7-0.1c-0.2-0.1-0.4-0.3-0.6-0.4c-0.3-0.6-0.6-1.3-0.7-2c-0.4-1.9-1.2-3.6-2.3-5.2
				c-0.7-1-1.7-1.8-2.8-2.2c-1.1-0.4-2.2-0.5-3.4-0.5h-5.1v37h5.2v2.5h-20v-2.5h5.2v-37h-5.2L269.4,30.1z"/>
			<path class="st1" d="M306.9,59.9c0-3,0.7-6,2-8.8c1.1-2.5,2.8-4.7,4.8-6.6c1.8-1.7,3.3-2.5,4.3-2.5c1.1,0.1,2.1,0.4,3.1,0.9
				c1.4,0.7,2.7,1.6,3.9,2.6c1.4,1.3,2.5,2.8,3.3,4.5c0.9,2,1.3,4.1,1.3,6.3c0,2-0.4,3.9-1.1,5.8c-0.7,2-1.7,4-2.9,5.8
				c-1,1.6-2.3,3.1-3.8,4.4c-0.9,0.9-2.2,1.5-3.5,1.7c-1.8-0.2-3.5-1-4.8-2.2c-1.9-1.6-3.5-3.5-4.7-5.6
				C307.6,64.4,306.9,62.2,306.9,59.9z M313.2,48.8c-1.2,1.3-1.9,3-1.9,4.8c0.1,1.9,0.5,3.8,1.3,5.5c0.9,2.1,2.3,3.9,4.1,5.3
				c1.9,1.5,4.3,2.3,6.8,2.2c0.7-1.3,1.1-2.8,1.1-4.4c0-2.1-0.5-4.3-1.4-6.2c-0.9-1.9-2.3-3.6-4-5C317.5,49.8,315.4,49,313.2,48.8
				L313.2,48.8z"/>
			<path class="st1" d="M353.2,62.3l2,1.5c-1.3,2.7-3,5.1-5.1,7.3c-2,2-3.6,3-4.9,3c-1.3-0.1-2.4-0.7-3.3-1.6
				c-1.4-1.2-2.6-2.6-3.6-4.2c-1.1-1.7-2.1-3.5-2.8-5.5c-0.7-1.7-1.1-3.5-1.1-5.3c0-2.4,0.7-4.8,1.8-7c1.1-2.2,2.5-4.3,4.2-6.1
				c1.6-1.6,3-2.4,4-2.4c0.8,0.1,1.5,0.3,2.2,0.6c1.2,0.4,2.3,0.9,3.5,1.5c1.1,0.5,2.1,1.1,3.1,1.8c0.9,0.6,1.3,1.2,1.3,1.7
				s-0.6,1.2-1.8,2.3c-0.5,0.5-1,1.1-1.5,1.7c-0.2,0.3-0.5,0.7-0.7,1.1c-0.2,0.4-0.4,0.6-0.6,0.6c-0.1,0-0.6-0.4-1.3-1.3
				c-0.8-1-1.7-2-2.8-2.8c-1.3-0.9-2.9-1.5-4.5-1.8c-0.8,1.6-1.2,3.4-1.1,5.2c0,2,0.5,3.9,1.3,5.7c0.8,1.9,2,3.7,3.4,5.3
				c1.2,1.4,2.7,2.5,4.4,3.2c1-1,2-2.1,2.7-3.3c0.1-0.2,0.2-0.4,0.3-0.5C352.9,62.8,353.1,62.5,353.2,62.3z"/>
			<path class="st1" d="M392.1,55.5l-3.2-0.5c0.5-1.1,0.8-2.2,0.8-3.4c0-2.2-0.7-3.7-2.2-4.4c-1.6-0.7-3.4-1-5.1-1h-1.1
				c0,1,0,2.1,0,3.2v2.4c-0.1,1.8-0.1,3.1-0.1,4.1c0,2,0,4.8,0.1,8.2c0.1,3.5,0.2,5.6,0.3,6.5c0,0.5-0.1,0.9-0.4,1.3
				c-0.6,0.4-1.4,0.5-2.1,0.4h-3.7c-0.2,0-0.5,0-0.7-0.1c-0.2-0.1-0.4-0.2-0.6-0.4c-0.3-0.5-0.4-1.1-0.4-1.7c0-0.8-0.1-2.4-0.1-4.7
				c0-0.7,0-1.4,0-2.1c0-0.7,0-1.2,0-1.6v-2.6c0-2.2,0-4.5,0.1-6.8c0-0.2,0-0.8,0.1-2c0.1-1.1,0.1-2.5,0.1-4.2h-1.1
				c-4.9,0-7.3,1.8-7.3,5.3c0.1,1.2,0.4,2.3,0.8,3.4l-3.2,0.5c-0.9-2.5-2.1-4.9-3.6-7.1c-0.6-0.8-0.9-1.7-1-2.6
				c0-0.6,0.2-1.1,0.5-1.5c0.1-0.2,0.3-0.3,0.5-0.5c0.2-0.1,0.5-0.2,0.7-0.2c0.3,0,1.5,0.1,3.6,0.4c2.7,0.2,5.3,0.3,8,0.3h11.6
				c2.7,0,5.4-0.1,8-0.3c2-0.3,3.2-0.4,3.6-0.4c0.2,0,0.5,0.1,0.7,0.2c0.2,0.1,0.4,0.3,0.5,0.5c0.4,0.4,0.6,1,0.5,1.5
				c-0.1,1-0.5,1.9-1.1,2.6c-0.8,1.1-1.5,2.2-2.1,3.4C392.9,52.9,392.5,54.2,392.1,55.5z"/>
			<path class="st1" d="M407.9,55.9l10.6-6.1c0.2-2.2,0.2-3.6,0.3-4.2c0-0.4,0.2-0.8,0.5-1.2c0.4-0.3,0.9-0.4,1.4-0.3h5.4
				c0.5,0,0.8,0.3,0.8,1c0,0.2-0.1,1.1-0.3,2.5c-0.5,2.7-0.8,5.5-0.8,8.3c0,4.8,0.3,9.7,1,14.5c0,0.5-0.1,0.9-0.4,1.3
				c-0.3,0.3-1,0.4-2.1,0.4h-3.7c-0.3,0-0.5-0.1-0.8-0.2c-0.2-0.1-0.4-0.3-0.6-0.5c-0.5-0.8-0.8-1.7-0.9-2.6
				c-0.2-2.1-0.4-4.1-0.3-6.2c0-3.3,0.1-6.8,0.3-10.3L408,58.4c0.1,4,0.4,8,1,12c0,0.5-0.1,0.9-0.4,1.3c-0.3,0.3-1,0.4-2.1,0.4h-3.6
				c-0.2,0-0.5,0-0.7-0.1c-0.2-0.1-0.5-0.2-0.6-0.4c-0.4-0.6-0.5-1.2-0.5-1.9c0-1.6-0.1-2.9-0.2-3.8c-0.2-2.9-0.3-6.2-0.3-9.8
				c0-2.6,0-4.8,0.2-6.6c0-1.2,0.2-2.5,0.4-3.7c0.1-0.5,0.3-1,0.6-1.4c0.3-0.2,0.6-0.3,1-0.3h5.5c0.5,0,0.8,0.3,0.8,1
				c0,0.2-0.1,1-0.3,2.5C408.1,50.3,407.9,53.1,407.9,55.9z"/>
			<path class="st1" d="M450.8,58.5l-10-5.2V57c0,2.8,0.1,5.7,0.4,8.5c0.3,2.3,0.4,3.9,0.4,4.8c0,0.3,0,0.5-0.1,0.8
				c-0.1,0.2-0.2,0.5-0.4,0.7c-0.9,0.3-1.8,0.4-2.7,0.3h-2.9c-0.2,0-0.5,0-0.7-0.1c-0.2-0.1-0.4-0.2-0.5-0.4
				c-0.4-0.7-0.6-1.4-0.6-2.2c-0.2-1.5-0.3-3.1-0.3-4.6c0-2,0-4.9,0-8.6c0-3.8,0-6.6,0.2-8.2c0-1.1,0.2-2.1,0.6-3.1
				c0.1-0.2,0.3-0.4,0.6-0.5s0.5-0.2,0.8-0.1h1h0.9c0.6,0,1.5,0,2.7-0.1h0.7c0.1,0,0.2,0,0.3,0.1c0.1,0.1,0.2,0.1,0.3,0.2
				c0.1,0.1,0.1,0.2,0.2,0.3c0,0.1,0,0.2,0,0.3c0.1,0.8,0,1.6-0.3,2.4c-0.3,1.1-0.4,2.3-0.4,3.5l9.9,5.3v-2.6c0-2.1,0.1-4.2,0.3-6.2
				c0-0.9,0.3-1.8,0.8-2.6c0.2-0.2,0.4-0.3,0.6-0.4c0.2-0.1,0.5-0.1,0.8-0.1h0.9h1c1,0,1.9,0,2.9-0.1h0.7c0.2,0,0.5,0.1,0.6,0.3
				c0.2,0.2,0.2,0.4,0.2,0.6c0,0.4-0.1,0.9-0.2,1.3c-0.1,0.6-0.3,1.3-0.4,2.2c-0.3,2.5-0.4,4.9-0.4,7.4c0,2.6,0.1,4.8,0.2,6.5
				c0.1,1.7,0.3,3.3,0.5,4.8c0.2,1.1,0.3,2.1,0.3,3.2c0,0.3,0,0.5-0.1,0.8c-0.1,0.2-0.2,0.5-0.4,0.6c-0.9,0.3-1.8,0.4-2.7,0.3h-2.9
				c-0.2,0-0.5,0-0.7-0.1c-0.2-0.1-0.5-0.2-0.6-0.3c-0.4-0.5-0.6-1.1-0.6-1.7c-0.2-1.1-0.3-2.2-0.3-3.4
				C450.9,65.2,450.8,62.5,450.8,58.5z"/>
			<path class="st1" d="M473.2,55.9l10.6-6.1c0.1-2.2,0.2-3.6,0.3-4.2c0-0.4,0.2-0.8,0.5-1.2c0.4-0.3,0.9-0.4,1.4-0.3h5.4
				c0.5,0,0.8,0.3,0.8,1c0,0.2-0.1,1.1-0.3,2.5c-0.5,2.7-0.8,5.5-0.8,8.3c0,4.8,0.3,9.7,1,14.5c0,0.5-0.1,0.9-0.4,1.3
				c-0.3,0.3-1,0.4-2.1,0.4h-3.7c-0.3,0-0.5,0-0.8-0.2c-0.2-0.1-0.4-0.3-0.6-0.5c-0.5-0.8-0.8-1.7-0.9-2.6c-0.3-2.1-0.4-4.1-0.3-6.2
				c0-3.3,0.1-6.8,0.3-10.3l-10.4,6.1c0.1,4,0.4,8,1,12c0,0.5-0.1,0.9-0.4,1.3c-0.3,0.3-1,0.4-2.1,0.4h-3.6c-0.2,0-0.5,0-0.7-0.1
				c-0.2-0.1-0.4-0.2-0.6-0.4c-0.4-0.6-0.5-1.2-0.5-1.9c-0.1-1.6-0.2-2.9-0.2-3.8c-0.2-2.9-0.3-6.2-0.3-9.8c0-2.6,0-4.8,0.2-6.6
				c0-1.2,0.2-2.5,0.4-3.7c0.1-0.5,0.3-1,0.6-1.4c0.3-0.2,0.6-0.3,1-0.3h5.6c0.5,0,0.8,0.3,0.8,1c0,0.2-0.1,1-0.3,2.5
				C473.5,50.3,473.2,53.1,473.2,55.9z"/>
			<path class="st1" d="M506.9,70.1h9.4c0-0.9,0-1.9-0.1-3.2c-0.1-1.3-0.1-2.4-0.1-3.3c0-0.7,0-1.5,0-2.4c0-0.9,0-1.9,0-2.8
				c0-1,0-1.7,0-2.2c0-3.6,0.1-6.2,0.2-7.9c0-1.1,0.3-2.3,0.7-3.3c0.1-0.2,0.3-0.4,0.6-0.5c0.2-0.1,0.5-0.2,0.8-0.2h1.4h1.2
				c0.5,0,1.2,0,2.2-0.1h0.7c0.1,0,0.2,0,0.3,0.1c0.1,0.1,0.2,0.1,0.3,0.2c0.1,0.1,0.1,0.2,0.2,0.3c0,0.1,0,0.2,0,0.3
				c0,0.4-0.1,0.9-0.2,1.3c-0.2,0.6-0.3,1.3-0.4,2.3c-0.3,2.4-0.4,4.9-0.4,7.3v5.9c0,1.8,0.1,3.6,0.3,5.4c0.2,1.1,0.7,1.7,1.4,1.9
				h1.1c0.3-0.1,0.6-0.1,0.9-0.2l0.9-0.2c0.3-0.1,0.6-0.1,0.9-0.1c0.2,0,0.5,0,0.7,0.1c0.2,0.1,0.4,0.2,0.6,0.4
				c0.1,0.1,0.3,0.3,0.3,0.5c0.1,0.2,0.1,0.4,0.1,0.5c-0.2,1.4-0.6,2.7-1.2,4c-0.8,2.2-1.9,5.3-3.1,9.3h-3.4
				c0.4-1.4,0.6-2.9,0.7-4.4c0.1-1.3-0.2-2.6-0.7-3.8c-0.4-0.6-0.8-1-1.4-1.4c-0.6-0.4-1.2-0.6-1.9-0.8c-2.5-0.6-5.1-0.9-7.7-0.8
				h-2.4c-1.1,0-1.9,0-2.5,0c-2.1,0.1-3.6,0.1-4.5,0.2s-1.5,0.1-1.9,0.1c-0.2,0-0.4,0-0.6-0.1c-0.2-0.1-0.4-0.2-0.6-0.3
				c-0.3-0.5-0.5-1.2-0.5-1.8c-0.1-1.4-0.2-2.9-0.2-4.3c0-1.9,0-5.2,0-9.9c0-2.7,0-4.9,0.2-6.6c0.1-1.2,0.2-2.4,0.5-3.6
				c0.1-0.5,0.3-1,0.7-1.4c0.3-0.2,0.7-0.3,1-0.3h1.2h1.4c0.5,0,1.2,0,2.2-0.1h0.6c0.1,0,0.2,0,0.3,0.1c0.1,0.1,0.2,0.1,0.3,0.2
				c0.1,0.1,0.1,0.2,0.2,0.3s0,0.2,0,0.3c-0.1,0.9-0.2,1.8-0.4,2.8c-0.4,2.7-0.6,5.4-0.6,8.1C506.4,59.7,506.5,64.5,506.9,70.1z"/>
			<path class="st1" d="M545.4,44.2h6.3c0.4,0,0.7,0.1,0.8,0.4c0.1,0.3,0,0.4,0.1,0.7c0.1,0.3,0,0.6,0.1,0.9
				c0.1,0.3,0.1,0.8,0.3,1.3l0.5,1.6c0.2,0.5,0.3,1.2,0.5,1.8c0.1,0.4,0.3,1,0.5,1.8c1.3,5,2.3,8.7,3.2,11.1
				c0.8,2.5,1.5,4.3,2.1,5.6c0.4,0.7,0.6,1.5,0.8,2.3c0,0.4-0.4,0.6-1.2,0.6h-6.3c-0.3,0-0.5-0.3-0.7-1c-0.1-0.6-0.4-1.7-0.8-3.1
				c-0.2-0.5-0.4-1.2-0.7-2.3c-0.3-1-0.5-1.7-0.8-2.6c-2,6.5-5.3,9.7-9.8,9.7c-1.4,0-2.8-0.4-3.9-1.3c-1-0.8-1.7-1.9-2.1-3.1
				c-0.4-1.1-0.6-2.3-0.6-3.5c0-1.2,0.3-2.3,0.8-3.4c0.6-1.2,1.3-2.4,2.1-3.5c0.9-1.2,1.6-2.1,2.2-2.8c0.6-0.7,1.5-1.7,2.7-3
				c0.5-0.6,1.2-1.3,1.9-2c0.5-0.5,0.9-1,1.4-1.5c0.2-0.3,0.4-0.6,0.4-1c0-0.7-0.2-1.4-0.5-2c-0.1-0.4-0.2-0.8-0.2-1.2
				C544.1,44.3,544.5,44.2,545.4,44.2z M545.9,50.1c-2,1.9-3.6,4.2-4.9,6.6c-0.7,1.4-1.2,2.8-1.4,4.4c0,1,0.3,2,0.9,2.8
				c0.3,0.4,0.7,0.8,1.2,1c0.5,0.2,1,0.3,1.5,0.3c1,0,2-0.2,2.9-0.8c0.8-0.5,1.4-1.2,1.8-2c0.4-0.6,0.6-1.4,0.6-2.1
				c-0.2-1.5-0.5-3-1-4.4c-0.4-1.3-0.7-2.1-0.8-2.6C546.5,52.2,546.2,51.2,545.9,50.1z"/>
		</g>
		<g>
			<path class="st1" d="M260.5,90.7h-33.3v-5.4h5.5c0-8.6-1.3-14.5-4-17.8c-1.1-1.5-2.6-2.8-4.3-3.7c-1.7-0.9-3.6-1.3-5.5-1.3
				c-2.6,0-5.2,0.8-7.3,2.4c-2.7,2.3-4.7,5.3-5.7,8.7c-1.6,5.3-2.4,10.9-2.2,16.4c0,4.8,0.3,9.6,1.1,14.4c0.7,4.6,1.9,10.3,3.4,17.1
				c1.7,6.1,2.6,12.3,2.8,18.6c0,0.6-0.1,1.2-0.1,1.8c-0.1,0.7-0.2,1.3-0.4,2c-0.2,0.7-0.3,1.2-0.4,1.6c0,0.4-0.2,0.7-0.3,1
				c-0.1,0.2-0.2,0.5-0.2,0.7c0.9,0.6,2,0.9,3,0.8c3.6-0.2,6.9-1.9,9.3-4.6c3.4-3.4,6-7.4,7.8-11.9c2-4.8,3-9.9,3-15.1
				c0-1.4,0-2.4,0-3.1h-5.5v-5.4h33.3v5.4h-5.2c-0.2,5.2-1.7,10.4-4.3,14.9c-2.6,4.7-6.1,8.8-10.3,12.1c-4.2,3.4-8.8,6.2-13.9,8.1
				c-4.7,1.8-9.6,2.8-14.7,2.8c-3.2,0.1-6.3-0.4-9.3-1.5V148c0-2-0.1-3.9-0.5-5.8c-0.5-2.2-1.4-4.4-2.5-6.4
				c-1.9-3.4-4.1-6.8-6.5-9.9c-3-3.7-5.7-7.8-7.9-12c-1.6-2.8-2.7-5.8-3.4-8.9c-0.5-2.8-0.8-5.6-0.7-8.4c-0.2-7.4,1.7-14.6,5.3-21
				c3.4-5.9,8.3-10.7,14.3-13.9c6-3.2,12.7-4.8,19.4-4.8c11.9,0,20.4,3,25.5,8.9c5,5.4,8.3,12.1,9.5,19.3h5.2L260.5,90.7z"/>
			<path class="st1" d="M291.4,99c-1.1,3.2-2.3,6.3-3.7,9.4c-2.2,4.7-4.2,9.6-5.8,14.6c-0.9,3.1-1.3,6.3-1.4,9.6
				c0,3.3,0.7,6.6,2.2,9.6c0.5,1,1,2,1.7,2.9c0.5,0.6,0.9,1.3,1,2.1c0,1-0.8,1.6-2.4,1.6h-3.3c-1.5,0-2.6,0-3.4,0s-1.7,0-3,0.1
				s-2.4,0.1-2.9,0.1c-1.2,0.2-2.3-0.1-3.3-0.8c-0.6-0.5-0.9-1.7-0.9-3.6c0-5,1.2-9.9,3.5-14.4c3.1-6.1,6.6-12.1,10.4-17.9
				c1.2-2,2.4-3.9,3.8-5.8c1.2-1.8,2.3-3.8,3.2-5.8c0.8-1.5,1.3-3.3,1.4-5c-0.1-1.3-0.3-2.6-0.8-3.9v-1.5c0.3-0.8,1.2-1.2,2.5-1.2
				h11.4c1.1-0.1,2.2,0.1,3.2,0.6c0.6,0.8,0.9,1.8,0.8,2.8c0,4.8,1.8,12.9,5.4,24.3c2.4,7.7,4.4,13.4,5.9,17.4
				c1.5,3.9,2.7,6.9,3.6,8.9c0.6,1.2,1.1,2.5,1.4,3.8c0,0.3,0,0.6-0.2,0.9c-0.1,0.3-0.3,0.5-0.6,0.6c-0.9,0.3-1.8,0.4-2.8,0.4
				c-1.3-0.1-3-0.1-5.2-0.1s-3.9,0-5.1,0.1c-0.9,0-1.8-0.2-2.5-0.7c-0.9-0.8-1.6-1.8-2-2.9c-0.9-2-1.7-4.2-2.4-6.3
				c-0.8-2.8-2.1-7.4-3.9-13.9c-0.4-1.6-0.7-2.9-1-3.7c-0.2-0.8-0.5-1.7-0.7-2.8c-1-3.5-1.9-7.2-2.7-10.6c-0.4-2.1-0.7-3.5-0.9-4.4
				C291.9,101.9,291.6,100.4,291.4,99z"/>
			<path class="st1" d="M353.9,88.9h12.9c0.9,0,1.4,0.3,1.6,0.8c0.2,0.5,0,0.9,0.1,1.4c0.1,0.5,0.1,1.2,0.2,1.9
				c0.1,0.7,0.3,1.6,0.5,2.7c0.2,1.1,0.7,2.3,1,3.4c0.3,1.2,0.6,2.4,0.9,3.9c0.2,0.8,0.6,2.1,1,3.8c2.6,10.6,4.7,18.5,6.4,23.8
				c1.7,5.3,3.1,9.3,4.3,12c0.7,1.5,1.3,3.1,1.6,4.8c0,0.8-0.9,1.2-2.5,1.2h-12.9c-0.6,0-1.1-0.7-1.4-2.1c-0.4-2.3-1-4.5-1.7-6.7
				c-0.4-1-0.9-2.6-1.5-4.8c-0.5-1.8-1-3.7-1.7-5.8c-4.2,13.9-10.8,20.8-20.1,20.8c-2.9,0.1-5.8-0.8-8-2.7c-2-1.7-3.5-4-4.3-6.5
				c-0.8-2.4-1.3-4.9-1.3-7.4c0-2.5,0.6-4.9,1.6-7.2c1.2-2.7,2.6-5.2,4.3-7.6c1.8-2.5,3.2-4.5,4.4-5.9c1.2-1.4,3-3.5,5.6-6.4
				c1.1-1.3,2.4-2.8,3.9-4.3c1-1,2-2.1,2.9-3.3c0.5-0.6,0.8-1.3,0.8-2.1c-0.1-1.5-0.4-2.9-0.9-4.3c-0.3-0.8-0.4-1.7-0.4-2.6
				C351.2,89.2,352.1,88.9,353.9,88.9z M354.8,101.6c-4.1,4.2-7.5,8.9-10.1,14.1c-1.5,2.9-2.4,6.1-2.7,9.3c0,2.2,0.7,4.3,1.9,6
				c0.6,0.9,1.5,1.6,2.5,2.1c1,0.5,2.1,0.7,3.2,0.6c2.1,0,4.1-0.5,5.8-1.7c1.6-1,2.9-2.5,3.7-4.1c0.8-1.4,1.2-2.9,1.3-4.5
				c-0.4-3.2-1-6.3-2-9.3c-0.8-2.7-1.4-4.5-1.6-5.6C356.3,106.1,355.6,103.9,354.8,101.6z"/>
			<path class="st1" d="M399.6,88.9H430c3.2-0.2,6.3,0.3,9.3,1.3c1.9,0.9,2.8,2.9,2.8,6c0.1,2.2-0.5,4.4-1.5,6.4
				c-1,2-2.6,3.6-4.4,4.8c-5.2,3.3-10.9,5.8-16.8,7.5v0.7c7.1,1.7,13.8,4.5,20,8.4c2.8,1.6,5.2,3.9,6.8,6.7c1.6,2.8,2.5,6,2.4,9.2
				c0.1,2-0.4,4-1.5,5.7c-0.9,1.2-2.3,2.1-3.8,2.4c-2,0.4-4.1,0.5-6.2,0.5h-38.9c-0.9,0-1.8-0.3-2.5-0.9c-0.8-1.2-1.2-2.6-1.3-4
				c-0.3-3.1-0.4-6.2-0.4-9.3c0-3.2,0-5.8,0.1-7.9c0.3-11,0.5-18.5,0.6-22.5c0.1-3.2,0.3-6.4,0.7-9.6c0.1-1.6,0.6-3.1,1.3-4.5
				c0.4-0.4,0.8-0.6,1.2-0.8C398.6,88.9,399.1,88.9,399.6,88.9z M410,143.9l3.2,0.1c2,0,3.6,0.1,4.8,0.1c2.4,0.1,4.8-0.1,7.1-0.4
				c1.4-0.2,2.8-0.9,3.7-2c1-1.5,1.4-3.3,1.3-5.2c-0.1-2.9-0.9-5.7-2.4-8.2c-1.7-3.1-4-5.7-6.9-7.7c-3.2-2.2-7-3.3-10.8-3.2
				c0,0,0,1.4-0.1,4.2c-0.1,2.7-0.1,4.9-0.1,6.4C409.6,131.2,409.7,136.5,410,143.9z M410,112.5c2.9,0.1,5.9-0.7,8.4-2.3
				c2.3-1.3,4.1-3.2,5.4-5.5c1.1-1.9,1.8-4.1,1.9-6.3c0.1-0.8-0.1-1.6-0.4-2.4c-0.4-0.7-0.9-1.3-1.6-1.8c-1.9-0.9-4-1.3-6.1-1.1
				c-1.2,0-3.4,0-6.6,0.2c-0.7,5.9-1,12.3-1,19.1H410z"/>
			<path class="st1" d="M477.2,88.9h31.9h2.6h1.3c1,0,1.5,0.7,1.5,2.1c0,1.4-0.2,4-0.5,7.8c-0.6,9.6-0.9,18.4-0.9,26.4
				c0,1.9,0.1,5.1,0.4,9.4c0.3,4.3,0.6,7.8,0.9,10.3v1.3c0,0.4-0.1,0.7-0.3,1.1c-0.2,0.3-0.5,0.6-0.8,0.7c-1.4,0.6-2.9,0.8-4.4,0.6
				h-6.6c-0.6,0.1-1.2,0-1.7-0.2c-0.5-0.2-1-0.6-1.4-1c-0.6-1.2-1-2.5-1-3.8c0-1.7-0.2-6.2-0.4-13.6c0-1.2,0-2.2,0-3.1
				c0-0.9,0-1.7-0.1-2.4c-0.1-0.7,0-1.5-0.1-2.1c-0.1-0.6,0-1.3,0-2c-11.6,2.6-17.4,10-17.4,22.1c0.2,1.7-0.2,3.4-1.1,4.8
				c-0.7,0.8-2.8,1.2-6.2,1.2h-5.3c-2,0.2-4-0.1-5.9-0.7c-0.4-0.3-0.8-0.7-1-1.1c-0.2-0.5-0.3-1-0.3-1.5c0.1-2.5,0.7-5,1.8-7.3
				c1.4-3.1,3.2-6,5.4-8.5c2.5-2.9,5.4-5.3,8.7-7.2c3.6-2.1,7.5-3.4,11.6-3.8v-0.6c-6.2-1-12.1-3.3-17.5-6.6
				c-2.1-1.4-3.8-3.3-4.9-5.5c-1.1-2.2-1.7-4.7-1.6-7.3c0-4,1-6.6,3-7.7C470.3,89.4,473.8,88.7,477.2,88.9z M491.5,93.3
				c-2.2-0.1-4.3,0.1-6.4,0.7c-0.5,0.1-1.1,0.3-1.5,0.7c-0.4,0.3-0.8,0.8-1,1.3c-0.4,1.3-0.6,2.7-0.5,4.1c0,2,0.3,4.1,1.1,5.9
				c0.8,1.9,2,3.6,3.5,4.9c3.1,2.9,7.1,4.5,11.3,4.3c0-7.3,0.3-14.6,1-21.9H491.5z"/>
			<path class="st1" d="M564,119.5l-20.5-11.1v8c-0.1,6.1,0.2,12.1,0.9,18.1c0.5,3.4,0.7,6.8,0.9,10.3c0.1,0.5,0,1.1-0.2,1.6
				c-0.2,0.5-0.5,1-0.9,1.4c-1.8,0.7-3.8,1-5.7,0.8h-6c-0.5,0-0.9-0.1-1.3-0.3c-0.4-0.2-0.8-0.5-1.1-0.8c-0.7-1.4-1.2-3-1.2-4.6
				c-0.3-2.3-0.5-5.6-0.6-9.9c-0.1-4.3-0.1-10.4-0.1-18.4c0-8.1,0.1-14,0.4-17.6c0-2.3,0.4-4.6,1.3-6.7c0.3-0.5,0.7-0.8,1.2-1.1
				c0.5-0.2,1-0.3,1.6-0.3h2h1.9c1.3,0,3.2,0,5.7-0.2h1.4c0.2,0,0.5,0.1,0.7,0.2c0.2,0.1,0.4,0.3,0.6,0.5c0.2,0.2,0.3,0.4,0.3,0.7
				c0.1,0.2,0.1,0.5,0,0.7c0.1,1.7-0.1,3.4-0.5,5.1c-0.6,2.4-0.9,4.9-0.9,7.4l20.2,11.3v-5.6c-0.1-4.5,0.1-8.9,0.6-13.3
				c0.1-1.9,0.6-3.8,1.5-5.5c0.3-0.4,0.7-0.7,1.2-0.9c0.5-0.2,1-0.3,1.5-0.3h1.8h2c2,0,3.9,0,5.9-0.2h1.4c0.5,0,1,0.3,1.3,0.7
				c0.3,0.4,0.5,0.9,0.4,1.4c-0.1,0.9-0.2,1.9-0.5,2.8c-0.3,1.3-0.6,2.9-0.9,4.6c-0.6,5.2-0.9,10.5-0.9,15.8
				c0,5.7,0.1,10.3,0.4,13.9c0.3,3.5,0.6,6.9,1,10.2c0.3,2.2,0.5,4.5,0.6,6.8c0.1,0.5,0,1.1-0.2,1.6c-0.2,0.5-0.5,1-0.9,1.4
				c-1.8,0.7-3.7,1-5.6,0.8h-5.9c-0.5,0-1,0-1.5-0.2c-0.5-0.2-0.9-0.4-1.3-0.7c-0.7-1-1.2-2.3-1.2-3.5c-0.3-2.4-0.5-4.8-0.6-7.2
				C564.2,133.9,564.1,128.1,564,119.5z"/>
			<path class="st1" d="M631.3,127.5l4.1,3.3c-2.6,5.7-6.1,11-10.3,15.6c-4,4.3-7.3,6.5-9.9,6.5c-2.6-0.3-4.9-1.5-6.7-3.4
				c-2.8-2.6-5.2-5.6-7.3-8.8c-2.3-3.7-4.3-7.6-5.8-11.7c-1.4-3.6-2.2-7.5-2.2-11.4c0.1-5.2,1.4-10.3,3.7-15
				c2.2-4.8,5.1-9.1,8.7-12.9c3.3-3.5,6.1-5.2,8.3-5.2c1.5,0.2,3,0.7,4.4,1.3c2.4,0.9,4.8,1.9,7.1,3.1c2.2,1.1,4.3,2.4,6.3,3.9
				c1.7,1.3,2.6,2.5,2.6,3.6c0,1.1-1.2,2.4-3.6,5c-1.1,1.1-2.1,2.3-3,3.5c-0.5,0.7-1,1.5-1.4,2.4c-0.5,0.9-0.9,1.3-1.1,1.2
				c-0.4,0-1.3-0.9-2.7-2.8c-1.6-2.2-3.6-4.2-5.8-5.9c-2.8-1.9-5.9-3.2-9.2-3.8c-1.6,3.5-2.4,7.3-2.2,11.1c0.1,4.2,1,8.4,2.6,12.2
				c1.7,4.1,4.1,7.9,7,11.2c2.5,2.9,5.6,5.2,9.1,6.8c2.1-2.2,3.9-4.5,5.4-7.1c0.1-0.2,0.3-0.6,0.6-1.1
				C630.6,128.6,630.9,128.1,631.3,127.5z"/>
			<path class="st1" d="M663,116.3h1c10.6-19.2,20.1-28.8,28.5-28.8c1.3,0,2.6,0.2,3.8,0.6c1.1,0.4,1.6,0.9,1.6,1.4
				c-0.1,1-0.4,1.9-1,2.7c-0.7,1.2-1.3,2.4-1.7,3.7c-0.6,2.2-0.9,4.5-1,6.8c0,0.5,0,1,0,1.5c0,0.5,0,0.9,0,1.2l-3.3,0.1
				c-0.4-1.2-1.2-2.3-2.3-3c-1.1-0.7-2.3-1.1-3.6-1c-2.8,0.3-5.4,1.6-7.4,3.6c-2.8,2.4-5.3,5.3-7.1,8.5c-1,1.6-1.9,2.9-2.7,3.8
				c5.3,1.4,10.4,3.7,15,6.6c3.6,2.3,6.8,5.2,9.5,8.6c2,2.5,3.6,5.3,4.8,8.3c0.8,2,1.2,4.1,1.4,6.2c0,1.1-1.6,1.7-4.8,1.7l-2.4-0.2
				c-0.7-0.1-1.4-0.2-2.2-0.2c-1.4,0-2.8,0.1-4.2,0.2c-1.4,0.2-2.1,0.2-2.4,0.2c-0.4,0-0.7-0.1-1.1-0.2c-0.3-0.2-0.6-0.5-0.7-0.8
				c-0.5-1.4-0.9-2.9-1-4.4c-0.5-3.5-1.6-6.9-3-10.1c-1.5-3-3.5-5.7-5.9-8c-2.2-2.2-4.9-3.8-7.9-4.8c-0.1,8,0.3,16,1.2,24v1.4
				c0,1.5-2,2.4-5.8,2.4h-6c-1,0.1-2-0.2-2.8-0.9c-0.8-1.2-1.3-2.6-1.3-4.1c-0.4-3.3-0.6-6.5-0.6-9.8c0-4.4,0-10.8,0-19.3
				c0-7.8,0.1-13.5,0.4-17.2c0-2.4,0.5-4.8,1.4-7.1c0.3-0.5,0.8-0.9,1.3-1.2c0.5-0.3,1.1-0.4,1.7-0.4c0.4,0,0.9,0,1.6,0.1
				c0.6,0.1,1.1,0.1,1.7,0.1c2.1,0,4.2-0.1,6.3-0.4h1.4c0.5,0.1,0.9,0.4,1.1,0.7c0.3,0.4,0.4,0.9,0.3,1.3c-0.1,2-0.4,4-0.7,6
				C663.5,103,663,109.6,663,116.3z"/>
			<path class="st1" d="M730.6,88.9h12.9c0.9,0,1.4,0.3,1.5,0.8c0.2,0.5,0,0.9,0.1,1.4c0.1,0.5,0,1.2,0.2,1.9
				c0.2,0.7,0.3,1.6,0.5,2.7c0.3,1.1,0.6,2.3,1,3.4c0.3,1.2,0.6,2.4,0.9,3.9c0.3,0.8,0.6,2.1,1,3.8c2.6,10.6,4.8,18.5,6.4,23.8
				c1.7,5.3,3.2,9.3,4.3,12c0.7,1.5,1.3,3.1,1.6,4.8c0,0.8-0.9,1.2-2.5,1.2h-13c-0.6,0-1.1-0.7-1.4-2.1c-0.4-2.3-1-4.5-1.7-6.7
				c-0.4-1-0.9-2.6-1.5-4.8c-0.5-1.8-1-3.7-1.7-5.8c-4.2,13.9-10.9,20.8-20.1,20.8c-2.9,0.1-5.8-0.8-8-2.7c-2-1.7-3.5-4-4.4-6.5
				c-0.8-2.4-1.2-4.9-1.3-7.4c0-2.5,0.6-4.9,1.6-7.2c1.2-2.7,2.6-5.2,4.3-7.6c1.8-2.5,3.2-4.5,4.4-5.9c1.2-1.4,3-3.5,5.6-6.4
				c1.1-1.3,2.4-2.8,3.9-4.3c1-1,2-2.1,2.9-3.3c0.5-0.6,0.8-1.3,0.8-2.1c-0.1-1.5-0.4-2.9-0.9-4.3c-0.2-0.8-0.4-1.7-0.4-2.6
				C728,89.2,728.9,88.9,730.6,88.9z M731.6,101.6c-4.1,4.2-7.5,8.9-10.1,14.1c-1.5,2.9-2.4,6.1-2.7,9.3c0,2.2,0.7,4.3,1.9,6
				c0.6,0.9,1.5,1.6,2.5,2.1c1,0.5,2.1,0.7,3.2,0.6c2.1,0,4.1-0.6,5.8-1.7c1.6-1,2.8-2.5,3.7-4.1c0.8-1.4,1.2-2.9,1.2-4.5
				c-0.3-3.2-1-6.3-2-9.3c-0.8-2.7-1.4-4.5-1.6-5.6c-0.5-2.3-1.1-4.6-1.8-6.8H731.6z"/>
			<path class="st1" d="M787,88.9h31.9h2.6h1.3c1,0,1.5,0.7,1.5,2.1c0,1.4-0.2,4-0.5,7.8c-0.6,9.6-0.9,18.4-0.9,26.4
				c0,1.9,0.1,5.1,0.4,9.4c0.3,4.3,0.6,7.8,0.9,10.3v1.3c0,0.4-0.1,0.7-0.3,1.1c-0.2,0.3-0.5,0.6-0.8,0.7c-1.4,0.6-2.9,0.8-4.4,0.6
				h-6.6c-0.6,0.1-1.2,0-1.7-0.2c-0.5-0.2-1-0.6-1.4-1c-0.6-1.2-1-2.5-1-3.8c0-1.7-0.2-6.2-0.5-13.6c0-1.2,0-2.2,0-3.1
				c0-0.9,0-1.7-0.1-2.4c-0.1-0.7,0-1.5-0.1-2.1c-0.1-0.6,0-1.3,0-2c-11.6,2.6-17.4,10-17.4,22.1c0.2,1.7-0.2,3.4-1.1,4.8
				c-0.7,0.8-2.8,1.2-6.2,1.2h-5.1c-2,0.2-4-0.1-5.9-0.7c-0.4-0.3-0.8-0.7-1-1.1c-0.2-0.5-0.3-1-0.3-1.5c0.1-2.5,0.7-5,1.8-7.3
				c1.4-3.1,3.2-5.9,5.4-8.5c2.5-2.9,5.4-5.3,8.7-7.2c3.6-2.1,7.5-3.4,11.6-3.8v-0.6c-6.2-1-12.1-3.3-17.5-6.6
				c-2.1-1.4-3.8-3.3-4.9-5.5c-1.1-2.2-1.7-4.7-1.6-7.3c0-4,1-6.6,3-7.7C780.2,89.4,783.6,88.8,787,88.9z M801.3,93.3
				c-2.2-0.1-4.3,0.1-6.4,0.7c-0.5,0.1-1.1,0.3-1.5,0.7c-0.4,0.3-0.8,0.8-1,1.3c-0.4,1.3-0.6,2.7-0.5,4.1c0,2,0.3,4.1,1.1,5.9
				c0.8,1.9,2,3.6,3.5,4.9c3.1,2.9,7.1,4.5,11.3,4.3c0-7.3,0.3-14.6,1-21.9H801.3z"/>
		</g>
	</g>
	<g>
		<circle class="st2" cx="85.1" cy="84.9" r="77.3"/>
		<path class="st3" d="M108.9,60H86.9h-25c-0.4,0-0.7,0.3-0.7,0.7v12.9c-0.5,0.1-1,0.2-1.5,0.2c-3.1,0-5.6-2.5-5.6-5.6c0,0,0,0,0,0
			h0V52.1h0c-0.2,0-0.5,0.1-0.7,0.3l-2.6,2.1c-0.1,0.1-0.3,0.1-0.4,0l-2.7-2.2c-0.1-0.1-0.3-0.1-0.4,0l-2.7,2.2
			c-0.1,0.1-0.3,0.1-0.4,0l-2.7-2.2c-0.1-0.1-0.3-0.1-0.4,0l-2.7,2.2c-0.1,0.1-0.3,0.1-0.4,0l-2.7-2.2c-0.1-0.1-0.3-0.1-0.4,0
			l-2.7,2.2c-0.1,0.1-0.3,0.1-0.4,0l-2.7-2.2c-0.1-0.1-0.3-0.1-0.4,0l-2.7,2.2c-0.1,0.1-0.3,0.1-0.4,0l-2.7-2.2
			c-0.2-0.1-0.4-0.2-0.6-0.2h0v30.7h0c0.3,18.2,12.4,34.6,32.2,37.2c0.3,0,0.6,0.3,0.6,0.7v9.5v2.9l-7.1-0.3c-0.5,0-1,0.4-1,1
			l0.3,3.3c0,0.5,0.4,1,1,1H71c0.2,0,0.3-0.1,0.3-0.3v-3.3c0-0.9-0.7-1.7-1.7-1.7l-3.3,0.3c4.3-1.8,7.3-6.8,7.3-12.2
			c0-0.1,0-0.2,0-0.3c0-0.2,0.1-0.3,0.3-0.3h16.1c0.4,0,0.7,0.3,0.7,0.7v10.8v1.5l-8-0.3c-0.5,0-1,0.4-1,1l0.3,3.6
			c0,0.4,0.3,0.7,0.7,0.7H108c0.2,0,0.3-0.1,0.3-0.3v-3.3c0-0.9-0.7-1.7-1.7-1.7l-5.3,0.3v-0.3c5.8-1.7,9.5-7,10-13.2
			c0-0.6,0-3.1,0-3.8c-0.1-2.6-0.7-5-1.5-7.2c-0.1-0.2,0-0.4,0.2-0.4c8.5-2.5,16.8-9.6,19.2-18.2c0-0.1,0.1-0.2,0.2-0.2
			c12.3-4.2,21.8-15.5,22.3-28.9c0-0.4-0.3-0.7-0.7-0.7L108.9,60z"/>
		<g>
			<g>
				<g>
					<path class="st4" d="M58.7,73.6C58.7,73.6,58.7,73.6,58.7,73.6C58.7,73.6,58.7,73.6,58.7,73.6z"/>
				</g>
				<g>
					<path class="st4" d="M26.4,90.9c0.3-0.1,0.5,0,0.7,0.3l2.9,4.3c0.2,0.3,0.6,0.4,0.9,0.2l4.2-3.1c0.2-0.2,0.5-0.2,0.7,0l4,2.5
						c0.3,0.2,0.7,0.1,0.9-0.2l2.5-4.4c0.1-0.2,0.4-0.4,0.7-0.3l4.8,0.7c0.4,0.1,0.7-0.2,0.8-0.6l0.4-5.1c0-0.3,0.2-0.5,0.5-0.6
						l5.1-1.5c0.3-0.1,0.5-0.5,0.4-0.8l-1.4-5c-0.1-0.2,0-0.5,0.2-0.6l3-3.1c-2.1-0.8-3.6-2.9-3.6-5.2c0,0,0,0,0,0h0V52.1h0
						c-0.2,0-0.5,0.1-0.7,0.3l-2.6,2.1c-0.1,0.1-0.3,0.1-0.4,0l-2.7-2.2c-0.1-0.1-0.3-0.1-0.4,0l-2.7,2.2c-0.1,0.1-0.3,0.1-0.4,0
						l-2.7-2.2c-0.1-0.1-0.3-0.1-0.4,0l-2.7,2.2c-0.1,0.1-0.3,0.1-0.4,0l-2.7-2.2c-0.1-0.1-0.3-0.1-0.4,0l-2.7,2.2
						c-0.1,0.1-0.3,0.1-0.4,0l-2.7-2.2c-0.1-0.1-0.3-0.1-0.4,0l-2.7,2.2c-0.1,0.1-0.3,0.1-0.4,0l-2.7-2.2c-0.2-0.1-0.4-0.2-0.6-0.2
						h0v30.7h0c0,3.1,0.4,6,1.1,8.9L26.4,90.9z"/>
				</g>
				<g>
					<path class="st4" d="M23.7,94.6c-0.3-0.9-0.5-1.7-0.7-2.6C23.2,92.8,23.5,93.7,23.7,94.6z"/>
				</g>
			</g>
		</g>
		<g>
			<g>
				<path class="st0" d="M52.5,60.9h-14v16.4c8.2-0.4,14.7-6.8,14.7-14.7c0-0.4,0-0.8,0-1.1C53.2,61.2,52.9,60.9,52.5,60.9z"/>
				<path class="st0" d="M37.4,60.9h-14c-0.3,0-0.6,0.3-0.7,0.6c0,0.4,0,0.7,0,1.1c0,7.8,6.5,14.2,14.7,14.7V60.9z"/>
			</g>
		</g>
		<path class="st0" d="M150.8,66.6c0.3-1,0.5-2,0.6-3.1l-36.7,0.3c0.1-1,0.3-2.1,0.3-3.2L62.1,61c-0.2,0-0.3,0.2-0.3,0.3L62,97.2
			c0,0.3,0.1,0.3,0.9,0.3l26.5-1.4c0.1,0,0.2,0,0.3-0.1c4.7-1.9,9-4.8,12.6-8.2l31.4-0.2c1.8-0.9,3.4-1.9,5-3.1l-33.5,0.2
			c1-1.2,2-2.5,2.9-3.9l34.9-0.2c0.9-1,1.8-2,2.6-3.1l-35.6,0.2c0.7-1.3,1.3-2.5,1.8-3.9l36.2-0.2c0.5-1,1-2,1.4-3.1l-36.5,0.3
			c0.4-1.3,0.7-2.6,1-3.9L150.8,66.6z"/>
		<path class="st0" d="M42.2,99.8l2.9-5.5c0.1-0.2,0.4-0.4,0.7-0.3l6.1,0.7c0.4,0,0.7-0.2,0.7-0.6l0.7-6.3c0-0.3,0.2-0.5,0.5-0.6
			l6-1.9c0.3-0.1,0.5-0.5,0.4-0.8l-1.9-6.3c-0.1-0.2,0-0.5,0.2-0.7l2.8-2.7v-1.2c-0.5,0.1-1,0.2-1.5,0.2c-0.7,0-1.4-0.1-2.1-0.4
			l-3,3.1c-0.2,0.2-0.2,0.4-0.2,0.6l1.4,5c0.1,0.3-0.1,0.7-0.4,0.8l-5.1,1.5c-0.3,0.1-0.4,0.3-0.5,0.6l-0.4,5.1
			c0,0.4-0.4,0.7-0.8,0.6L44,90c-0.3,0-0.5,0.1-0.7,0.3l-2.5,4.4c-0.2,0.3-0.6,0.4-0.9,0.2l-4-2.5c-0.2-0.1-0.5-0.1-0.7,0L31,95.7
			c-0.3,0.2-0.7,0.2-0.9-0.2l-2.9-4.3c-0.2-0.2-0.4-0.3-0.7-0.3L23,91.8c0.2,1,0.5,1.9,0.8,2.9l1.7,0c0.2,0,0.4,0.1,0.6,0.3l3.3,5.5
			c0.2,0.3,0.7,0.4,1,0.2l5.1-3.9c0.2-0.2,0.5-0.2,0.8,0l5,3.3C41.5,100.3,42,100.2,42.2,99.8z"/>
		<g>
			<g>
				<g>
					<g>
						<path class="st4" d="M31.9,65.3c-1.7,0-3.2,0.7-4.1,1.8c-0.2,0.2-0.2,0.6,0,0.9c0.9,1.1,2.4,1.8,4.1,1.8
							c1.7,0,3.2-0.7,4.1-1.8c0.2-0.2,0.2-0.6,0-0.9C35.1,66,33.6,65.3,31.9,65.3z"/>
						<path class="st4" d="M44.1,65.3c1.7,0,3.2,0.7,4.1,1.8c0.2,0.2,0.2,0.6,0,0.9c-0.9,1.1-2.4,1.8-4.1,1.8
							c-1.7,0-3.2-0.7-4.1-1.8c-0.2-0.2-0.2-0.6,0-0.9C40.9,66,42.4,65.3,44.1,65.3z"/>
					</g>
				</g>
				<g>
					<path class="st4" d="M39.2,65.2c-0.1-0.2,0-0.4,0.4-0.6c0.2-0.2,0.5-0.3,0.8-0.5c2.1-1.1,5.2-1.6,8-0.8
						c0.2,0.1,0.6,0.3,0.4,0.6c-0.1,0.2-0.4,0.3-0.7,0.2c-2.3-0.6-4.7-0.5-6.7,0.3c-0.5,0.2-1.1,0.5-1.7,0.8
						C39.5,65.3,39.3,65.4,39.2,65.2z"/>
				</g>
				<g>
					<path class="st4" d="M36.8,65.2c0.1-0.2,0-0.4-0.4-0.6c-0.2-0.2-0.5-0.3-0.8-0.5c-2.1-1.1-5.2-1.6-8-0.8
						c-0.2,0.1-0.6,0.3-0.4,0.6c0.1,0.2,0.4,0.3,0.7,0.2c2.3-0.6,4.7-0.5,6.7,0.3c0.5,0.2,1.1,0.5,1.7,0.8
						C36.4,65.3,36.7,65.4,36.8,65.2z"/>
				</g>
			</g>
		</g>
		<path class="st4" d="M151.2,60H115v0.6l0,0c-0.1,1.1-0.2,2.1-0.3,3.2l36.7-0.3c-0.1,1-0.3,2.1-0.6,3.1l-36.7,0.3
			c-0.3,1.3-0.6,2.6-1,3.9l36.5-0.3c-0.4,1.1-0.9,2.1-1.4,3.1L112,73.8c-0.5,1.3-1.2,2.6-1.8,3.9l35.6-0.2c-0.8,1.1-1.6,2.1-2.6,3.1
			l-34.9,0.2c-0.8,1.2-1.7,2.4-2.6,3.5h33.6c7.3-5.6,12.2-14.1,12.6-23.7C151.8,60.3,151.5,60,151.2,60z"/>
		<g>
			<path class="st4" d="M47.5,52.8l2.6,2.1c0.1,0.1,0.3,0.2,0.5,0.2c0.2,0,0.4-0.1,0.5-0.2l2.4-2v15.2c0,3.4,2.7,6.1,6.1,6.1
				c0.5,0,1.1-0.1,1.6-0.2l0.4-0.1v-0.4V60.6c0-0.1,0.1-0.2,0.2-0.2h25h22.1h42.2c0.1,0,0.1,0,0.1,0.1c0,0,0,0.1,0,0.1
				c-0.5,12.7-9.3,24.1-21.9,28.5c-0.3,0.1-0.5,0.3-0.5,0.6c-2.1,7.9-9.9,15.2-18.8,17.9c-0.2,0.1-0.4,0.2-0.5,0.4
				c-0.1,0.2-0.1,0.4,0,0.7c0.8,2.2,1.3,4.6,1.4,7.1c0,0.7,0,3.2,0,3.8c-0.5,6.2-4.3,11.2-9.6,12.8l-0.4,0.1v0.4v0.3v0.5l0.5,0
				l5.3-0.3c0.6,0,1.2,0.5,1.2,1.2v3.1H82.7c-0.1,0-0.2-0.1-0.2-0.2l-0.3-3.5c0-0.3,0.2-0.5,0.5-0.5l8,0.3l0.5,0V133v-1.5v-10.8
				c0-0.6-0.5-1.2-1.2-1.2H74c-0.2,0-0.4,0.1-0.6,0.3c-0.2,0.2-0.2,0.4-0.2,0.6c0,0.1,0,0.2,0,0.3c0,5.2-2.9,10-7,11.8l-3,1.3
				l3.2-0.3l3.3-0.3c0.6,0,1.2,0.5,1.2,1.2v3.1H47.9c-0.3,0-0.5-0.2-0.5-0.5v0l0,0l-0.3-3.2c0-0.3,0.2-0.5,0.5-0.5l7.1,0.3l0.5,0
				V133v-2.9v-9.5c0-0.6-0.4-1.1-1-1.2c-18.5-2.4-31.5-17.5-31.8-36.7l0-0.3V52.9l2.5,2.1c0.1,0.1,0.3,0.2,0.5,0.2s0.4-0.1,0.5-0.2
				l2.6-2.1l2.6,2.1c0.1,0.1,0.3,0.2,0.5,0.2s0.4-0.1,0.5-0.2l2.6-2.1l2.6,2.1c0.1,0.1,0.3,0.2,0.5,0.2s0.4-0.1,0.5-0.2l2.6-2.1
				l2.6,2.1c0.1,0.1,0.3,0.2,0.5,0.2s0.4-0.1,0.5-0.2L47.5,52.8 M54.1,52.1L54.1,52.1c-0.3,0-0.5,0.1-0.7,0.3l-2.6,2.1
				c-0.1,0.1-0.1,0.1-0.2,0.1c-0.1,0-0.1,0-0.2-0.1l-2.7-2.2c-0.1,0-0.1-0.1-0.2-0.1c-0.1,0-0.1,0-0.2,0.1l-2.7,2.2
				c-0.1,0-0.1,0.1-0.2,0.1c-0.1,0-0.1,0-0.2-0.1l-2.7-2.2c-0.1,0-0.1-0.1-0.2-0.1c-0.1,0-0.1,0-0.2,0.1l-2.7,2.2
				c-0.1,0-0.1,0.1-0.2,0.1s-0.1,0-0.2-0.1l-2.7-2.2c-0.1,0-0.1-0.1-0.2-0.1s-0.1,0-0.2,0.1l-2.7,2.2c-0.1,0-0.1,0.1-0.2,0.1
				c-0.1,0-0.1,0-0.2-0.1l-2.7-2.2c-0.1,0-0.1-0.1-0.2-0.1c-0.1,0-0.1,0-0.2,0.1l-2.7,2.2c-0.1,0-0.1,0.1-0.2,0.1s-0.1,0-0.2-0.1
				l-2.7-2.2c-0.2-0.1-0.4-0.2-0.6-0.2h0v30.7h0c0.3,18.2,12.4,34.6,32.2,37.2c0.3,0,0.6,0.3,0.6,0.7v9.5v2.9l-7.1-0.3
				c-0.5,0-1,0.4-1,1l0.3,3.3c0,0.5,0.4,1,1,1H71c0.2,0,0.3-0.1,0.3-0.3v-3.3c0-0.9-0.7-1.7-1.7-1.7l-3.3,0.3
				c4.3-1.8,7.3-6.8,7.3-12.2c0-0.1,0-0.2,0-0.3c0-0.2,0.1-0.3,0.3-0.3h16.1c0.4,0,0.7,0.3,0.7,0.7v10.8v1.5l-8-0.3
				c-0.5,0-1,0.4-1,1l0.3,3.6c0,0.4,0.3,0.7,0.7,0.7H108c0.2,0,0.3-0.1,0.3-0.3v-3.3c0-0.9-0.7-1.7-1.7-1.7l-5.3,0.3v-0.3
				c5.8-1.7,9.5-7,10-13.2c0-0.6,0-3.1,0-3.8c-0.1-2.6-0.7-5-1.5-7.2c-0.1-0.2,0-0.4,0.2-0.4c8.5-2.5,16.8-9.6,19.2-18.2
				c0-0.1,0.1-0.2,0.2-0.2c12.3-4.2,21.8-15.5,22.3-28.9c0-0.4-0.3-0.7-0.7-0.7h-42.2H86.9h-25c-0.4,0-0.7,0.3-0.7,0.7v12.9
				c-0.5,0.1-1,0.2-1.5,0.2c-3.1,0-5.6-2.5-5.6-5.6c0,0,0,0,0,0h0V52.1L54.1,52.1z"/>
		</g>
	</g>
</g>
</svg>
