<svg width="68" height="35" viewBox="0 0 68 35" fill="none" xmlns="http://www.w3.org/2000/svg">
<path d="M26.3256 2.44238C26.3256 2.16624 26.1017 1.94238 25.8256 1.94238H1C0.723858 1.94238 0.5 2.16624 0.5 2.44238V4.45502V6.8722C0.5 7.14834 0.723858 7.3722 1 7.3722H8.41855V23.5599C8.41855 26.0697 8.84889 28.092 9.77065 29.5733C10.6742 31.0283 11.9058 32.0536 13.4527 32.6301C14.9543 33.1897 16.6092 33.4656 18.4168 33.4656C19.6017 33.4656 20.7332 33.3619 21.8056 33.1585C22.8617 32.9582 23.7235 32.7225 24.3656 32.4499C24.5503 32.3715 24.6702 32.1903 24.6702 31.9897V27.8835C24.6702 27.724 24.5941 27.574 24.4654 27.4799C24.3366 27.3857 24.1706 27.3587 24.0186 27.407C23.4156 27.5988 22.6965 27.7556 21.8565 27.8793L21.8537 27.8798C21.0222 28.0072 20.1896 28.0662 19.3656 28.0662C17.9602 28.0662 16.8896 27.6843 16.109 26.9729C15.368 26.2975 14.9297 25.0895 14.9297 23.2109V7.3722H25.8256C26.1017 7.3722 26.3256 7.14834 26.3256 6.8722V2.44238Z" fill="#004D9F" stroke="#004D9F" stroke-linejoin="round"/>
<path d="M50.7578 11.8438C50.5012 12.3431 50.1978 12.8658 49.8525 13.4071L44.8965 21.2798H51.4065V16.4591C51.4065 16.0064 51.4158 15.4698 51.4345 14.8444C51.4532 14.2238 51.4765 13.5984 51.4998 12.9778C51.5232 12.3571 51.5512 11.8018 51.5838 11.3164C51.6165 10.8311 51.6352 10.4904 51.6492 10.2944H51.4998C51.2665 10.8311 51.0192 11.3444 50.7578 11.8438Z" fill="#004D9F"/>
<path d="M66.3422 0H34.1422C33.3675 0 32.7422 0.625333 32.7422 1.4V33.6C32.7422 34.3747 33.3675 35 34.1422 35H66.3422C67.1169 35 67.7422 34.3747 67.7422 33.6V1.4C67.7422 0.625333 67.1169 0 66.3422 0ZM60.2475 25.9467H56.9902V31.836H51.4042V25.9467H39.8635V21.7653L51.7169 3.416H56.9902V21.28H60.2475V25.9467Z" fill="#004D9F"/>
</svg>
